<svg width="71" height="71" viewBox="0 0 71 71" fill="none" xmlns="http://www.w3.org/2000/svg">
<path d="M60.834 12.6005L57.684 9.45056V0.000610352L47.8841 10.1506L47.1841 18.2006L37.0341 28.3506C36.334 28.3506 35.9841 28.3506 35.2841 28.3506C31.4341 28.3506 28.2842 31.5005 28.2842 35.3505C28.2842 39.2005 31.4341 42.3505 35.2841 42.3505C39.1341 42.3505 42.2841 39.2005 42.2841 35.3505C42.2841 34.6506 42.2841 34.3005 41.9341 33.6006L52.0842 23.4506L60.1342 22.7505L70.2842 12.6005H60.834Z" fill="#80003E"/>
<path d="M54.1841 26.6007H53.8342L48.9341 31.8507C49.2841 32.9007 49.2841 34.3007 49.2841 35.3507C49.2841 43.0507 42.9841 49.3507 35.2841 49.3507C27.584 49.3507 21.284 43.0507 21.284 35.3507C21.284 27.6507 27.5842 21.3507 35.2842 21.3507C36.6842 21.3507 37.7342 21.7007 38.7842 21.7007L44.0342 16.4507V16.1007C41.2343 15.0507 38.4343 14.3508 35.2842 14.3508C23.7342 14.3508 14.2842 23.8007 14.2842 35.3507C14.2842 46.9007 23.7342 56.3505 35.2842 56.3505C46.8342 56.3505 56.2842 46.9006 56.2842 35.3506C56.2842 32.2006 55.5841 29.4007 54.1841 26.6007Z" fill="#80003E"/>
<path d="M67.1341 21.0003L61.8841 25.9003C62.5841 28.7003 63.2841 31.8503 63.2841 35.3502C63.2841 50.7502 50.6841 63.3501 35.2841 63.3501C19.8841 63.3501 7.28414 50.7501 7.28414 35.3502C7.28414 19.9504 19.8841 7.35035 35.2841 7.35035C38.434 7.35035 41.5841 8.05042 44.7341 9.1003V8.75034L49.9841 3.50036C45.4341 1.40031 40.5341 0.350281 35.2841 0.350281C16.034 0.350281 0.28418 16.1002 0.28418 35.3502C0.28418 54.6002 16.034 70.3501 35.2841 70.3501C54.5342 70.3501 70.284 54.6001 70.284 35.3502C70.284 30.1003 69.2341 25.2002 67.1341 21.0003Z" fill="#80003E"/>
</svg>
