<svg width="71" height="70" viewBox="0 0 71 70" fill="none" xmlns="http://www.w3.org/2000/svg">
<path d="M41.9365 26.0937C41.5077 26.0937 41.079 25.9691 40.7056 25.7168L35.1756 21.9767L29.6456 25.7168C28.896 26.2271 27.9044 26.2213 27.1606 25.6994C26.4169 25.1834 26.0698 24.2614 26.2944 23.3829L28.0356 16.5608L22.8177 12.1336C22.1381 11.5537 21.8785 10.626 22.1673 9.78515C22.4531 8.94146 23.2231 8.3587 24.1156 8.30651L30.7219 7.9354L33.1252 1.42646C33.4373 0.568264 34.2598 0 35.1756 0C36.0914 0 36.914 0.568264 37.229 1.42646L39.6323 7.9354L46.2385 8.30651C47.131 8.3587 47.901 8.94146 48.1869 9.78515C48.4727 10.626 48.216 11.5537 47.5365 12.1336L42.3185 16.5637L44.0598 23.3858C44.2844 24.2643 43.9373 25.1834 43.1935 25.7023C42.8144 25.9633 42.374 26.0937 41.9365 26.0937Z" fill="#FD9414"/>
<path d="M67.9882 55.0869H54.134V67.4089C54.134 68.1628 53.9882 68.9166 53.7549 69.5834H67.9882C69.1841 69.5834 70.1757 68.5976 70.1757 67.4089V57.2614C70.1757 56.0726 69.1841 55.0869 67.9882 55.0869Z" fill="#E5CD8A"/>
<path d="M16.2175 49.2881H2.36328C1.16745 49.2881 0.175781 50.2739 0.175781 51.4626V67.4088C0.175781 68.5975 1.16745 69.5833 2.36328 69.5833H16.5966C16.3633 68.9164 16.2175 68.1626 16.2175 67.4088V49.2881Z" fill="#80003E"/>
<path d="M47.571 31.8923H22.7793C21.5718 31.8923 20.5918 32.8665 20.5918 34.0668V67.4088C20.5918 68.6091 21.5718 69.5833 22.7793 69.5833H47.571C48.7785 69.5833 49.7585 68.6091 49.7585 67.4088V34.0668C49.7585 32.8665 48.7785 31.8923 47.571 31.8923ZM37.3626 55.8116C37.3626 57.0119 36.3826 57.986 35.1751 57.986C33.9676 57.986 32.9876 57.0119 32.9876 55.8116V47.2847C32.5414 46.8875 32.2585 46.3076 32.2585 45.664C32.2585 44.4637 33.2385 43.4895 34.446 43.4895H35.1751C36.3826 43.4895 37.3626 44.4637 37.3626 45.664V55.8116Z" fill="#D0E1D4"/>
</svg>
