<svg width="71" height="70" viewBox="0 0 71 70" fill="none" xmlns="http://www.w3.org/2000/svg">
<path d="M42.0106 26.2499C41.5819 26.2499 41.1532 26.1244 40.7798 25.8707L35.2498 22.1082L29.7198 25.8707C28.9702 26.384 27.9786 26.3782 27.2348 25.8532C26.4911 25.334 26.144 24.4065 26.3686 23.5228L28.1098 16.6598L22.8919 12.2061C22.2123 11.6228 21.9527 10.6894 22.2415 9.84358C22.5273 8.99483 23.2973 8.40858 24.1898 8.35608L30.7961 7.98275L33.1994 1.43482C33.5115 0.571485 34.334 -0.000183105 35.2498 -0.000183105C36.1657 -0.000183105 36.9882 0.571485 37.3032 1.43482L39.7065 7.98275L46.3127 8.35608C47.2052 8.40858 47.9752 8.99483 48.2611 9.84358C48.5469 10.6894 48.2902 11.6228 47.6106 12.2061L42.3927 16.6628L44.134 23.5257C44.3586 24.4094 44.0115 25.334 43.2677 25.8561C42.8886 26.1186 42.4481 26.2499 42.0106 26.2499Z" fill="#80003E"/>
<path d="M68.0624 55.4168H54.2083V67.8127C54.2083 68.571 54.0624 69.3294 53.8291 70.0002H68.0624C69.2583 70.0002 70.2499 69.0085 70.2499 67.8127V57.6043C70.2499 56.4085 69.2583 55.4168 68.0624 55.4168Z" fill="#80003E"/>
<path d="M16.2917 49.583H2.4375C1.24167 49.583 0.25 50.5747 0.25 51.7705V67.8122C0.25 69.0081 1.24167 69.9997 2.4375 69.9997H16.6708C16.4375 69.3289 16.2917 68.5706 16.2917 67.8122V49.583Z" fill="#80003E"/>
<path d="M47.6452 32.083H22.8535C21.646 32.083 20.666 33.063 20.666 34.2705V67.8122C20.666 69.0197 21.646 69.9997 22.8535 69.9997H47.6452C48.8527 69.9997 49.8327 69.0197 49.8327 67.8122V34.2705C49.8327 33.063 48.8527 32.083 47.6452 32.083ZM37.4368 56.1455C37.4368 57.3531 36.4568 58.3331 35.2493 58.3331C34.0418 58.3331 33.0618 57.3531 33.0618 56.1455V47.5676C32.6156 47.168 32.3327 46.5847 32.3327 45.9372C32.3327 44.7297 33.3127 43.7497 34.5202 43.7497H35.2493C36.4568 43.7497 37.4368 44.7297 37.4368 45.9372V56.1455Z" fill="#80003E"/>
</svg>
