<svg width="71" height="71" viewBox="0 0 71 71" fill="none" xmlns="http://www.w3.org/2000/svg">
<path d="M68.784 59.7188L57.0344 48.0212C56.1632 47.1538 54.7507 47.1539 53.8795 48.0212L48.6313 42.7962C52.1547 38.0995 53.9163 32.5002 53.9163 26.9009C53.9163 20.0907 51.307 13.2806 46.1104 8.09962C35.2552 -2.69981 17.3142 -2.24391 7.06574 9.46732C-1.6339 19.4086 -1.60652 34.4875 7.12461 44.4014C12.4513 50.4497 19.8427 53.4737 27.2254 53.4737C32.8497 53.4737 38.4738 51.7198 43.1914 48.212L48.4396 53.437C47.5684 54.3044 47.5684 55.7106 48.4396 56.5779L60.0411 68.1281C61.1347 69.2169 62.5727 69.9455 64.1169 70.0337C65.8809 70.1345 67.5492 69.497 68.784 68.2755C71.1501 65.9125 71.1501 62.0745 68.784 59.7188ZM42.2332 41.8422C33.9627 50.076 20.4957 50.0834 12.2178 41.8422C3.94005 33.6083 3.94005 20.2008 12.2178 11.9597C16.353 7.83544 21.793 5.78062 27.2254 5.78062C32.6654 5.78062 38.0979 7.83544 42.2332 11.9597C50.5109 20.2008 50.5109 33.6083 42.2332 41.8422Z" fill="#FD9414"/>
<path d="M35.9421 20.347H40.0372C40.6281 20.347 41.1072 20.8239 41.1072 21.4123V37.7873C41.1072 38.3756 40.6281 38.8526 40.0372 38.8526H35.9421C35.3511 38.8526 34.8721 38.3756 34.8721 37.7873V21.4123C34.8721 20.8239 35.3511 20.347 35.9421 20.347Z" fill="#D0E1D4"/>
<path d="M14.4128 28.3741H18.5079C19.0989 28.3741 19.578 28.851 19.578 29.4394V37.7873C19.578 38.3756 19.0989 38.8526 18.5079 38.8526H14.4128C13.8218 38.8526 13.3428 38.3756 13.3428 37.7873V29.4394C13.3428 28.851 13.8218 28.3741 14.4128 28.3741Z" fill="#E5CD8A"/>
<path d="M25.1814 14.9482H29.2692C29.8601 14.9482 30.3392 15.4252 30.3392 16.0135V37.7871C30.3392 38.3755 29.8601 38.8524 29.2692 38.8524H25.1814C24.5904 38.8524 24.1113 38.3755 24.1113 37.7871V16.0135C24.1113 15.4252 24.5904 14.9482 25.1814 14.9482Z" fill="#80003E"/>
</svg>
