<svg width="71" height="84" viewBox="0 0 71 84" fill="none" xmlns="http://www.w3.org/2000/svg">
<path d="M21.4176 49.0981L30.4837 83.0913L0.508789 49.0981H21.4176Z" fill="#D0E1D4"/>
<path d="M21.5908 44.2419H0.508789L14.3665 30.3841C14.823 29.9292 15.4397 29.6734 16.084 29.6734H29.9158L21.5908 44.2419Z" fill="#FD9414"/>
<path d="M43.8326 44.2419H27.1826L35.5076 29.6734L43.8326 44.2419Z" fill="#80003E"/>
<path d="M44.5729 49.0981L35.5081 83.0912L26.4434 49.0981H44.5729Z" fill="#80003E"/>
<path d="M49.4266 44.2419L41.1016 29.6734H54.9334C55.5777 29.6734 56.1944 29.9292 56.6509 30.3841L70.5086 44.2419H49.4266Z" fill="#E5CD8A"/>
<path d="M49.6002 49.0981H70.5091L40.5342 83.0912L49.6002 49.0981Z" fill="#FD9414"/>
<path d="M35.5091 14.1095C34.1682 14.1095 33.0811 13.0224 33.0811 11.6814V2.69236C33.0811 1.35142 34.1682 0.264282 35.5091 0.264282C36.8501 0.264282 37.9372 1.35142 37.9372 2.69236V11.6814C37.9372 13.0224 36.8502 14.1095 35.5091 14.1095Z" fill="#80003E"/>
<path d="M11.374 19.1231L6.87951 11.3383C6.20888 10.177 6.60676 8.69201 7.76818 8.02154C8.92944 7.35106 10.4146 7.74878 11.0849 8.91021L15.5794 16.695C16.25 17.8562 15.8522 19.3413 14.6907 20.0117C13.5343 20.6795 12.0474 20.2897 11.374 19.1231Z" fill="#D0E1D4"/>
<path d="M56.3278 20.012C55.1663 19.3415 54.7685 17.8565 55.4391 16.6952L59.9336 8.91044C60.6042 7.749 62.0889 7.35112 63.2503 8.02176C64.4117 8.69223 64.8096 10.1773 64.139 11.3385L59.6445 19.1233C58.9719 20.2881 57.4855 20.6805 56.3278 20.012Z" fill="#E5CD8A"/>
</svg>
