<svg width="71" height="71" viewBox="0 0 71 71" fill="none" xmlns="http://www.w3.org/2000/svg">
<path d="M68.4324 59.7643L56.6828 48.0148C55.8116 47.1436 54.3991 47.1436 53.528 48.0148L48.2797 42.7665C51.8031 38.049 53.5647 32.4248 53.5647 26.8006C53.5647 19.9602 50.9554 13.1197 45.7588 7.91577C34.9036 -2.93165 16.9627 -2.47372 6.71417 9.28955C-1.98547 19.275 -1.95809 34.421 6.77305 44.3789C12.0997 50.454 19.4911 53.4915 26.8739 53.4915C32.4982 53.4915 38.1222 51.7299 42.8398 48.2064L48.088 53.4547C47.2168 54.3259 47.2168 55.7384 48.088 56.6096L59.6895 68.2111C60.7832 69.3047 62.2212 70.0365 63.7653 70.1251C65.5293 70.2264 67.1976 69.586 68.4324 68.3591C70.7986 65.9856 70.7986 62.1305 68.4324 59.7643ZM41.8816 41.8083C33.6111 50.0787 20.1441 50.0861 11.8663 41.8083C3.58849 33.5379 3.58849 20.0708 11.8663 11.793C16.0015 7.65042 21.4414 5.58647 26.8739 5.58647C32.3139 5.58647 37.7463 7.65042 41.8816 11.793C50.1594 20.0708 50.1594 33.5379 41.8816 41.8083Z" fill="#80003E"/>
<path d="M35.5905 20.2177H39.6856C40.2765 20.2177 40.7556 20.6967 40.7556 21.2877V37.7355C40.7556 38.3264 40.2765 38.8055 39.6856 38.8055H35.5905C34.9996 38.8055 34.5205 38.3264 34.5205 37.7355V21.2877C34.5205 20.6967 34.9996 20.2177 35.5905 20.2177Z" fill="#80003E"/>
<path d="M14.0612 28.2806H18.1564C18.7473 28.2806 19.2264 28.7597 19.2264 29.3507V37.7357C19.2264 38.3266 18.7473 38.8057 18.1564 38.8057H14.0612C13.4703 38.8057 12.9912 38.3266 12.9912 37.7357V29.3507C12.9912 28.7597 13.4703 28.2806 14.0612 28.2806Z" fill="#80003E"/>
<path d="M24.8298 14.795H28.9176C29.5086 14.795 29.9876 15.2741 29.9876 15.8651V37.7354C29.9876 38.3264 29.5086 38.8054 28.9176 38.8054H24.8298C24.2388 38.8054 23.7598 38.3264 23.7598 37.7354V15.8651C23.7598 15.2741 24.2388 14.795 24.8298 14.795Z" fill="#80003E"/>
</svg>
