<svg width="71" height="71" viewBox="0 0 71 71" fill="none" xmlns="http://www.w3.org/2000/svg">
<path d="M9.56351 12.5999L12.7135 9.44996V0L22.5134 10.15L23.2133 18.2L33.3634 28.35C34.0634 28.35 34.4134 28.35 35.1133 28.35C38.9633 28.35 42.1133 31.5 42.1133 35.35C42.1133 39.2 38.9633 42.3499 35.1133 42.3499C31.2633 42.3499 28.1134 39.2 28.1134 35.35C28.1134 34.65 28.1134 34.2999 28.4633 33.6L18.3133 23.45L10.2633 22.7499L0.113255 12.5999H9.56351Z" fill="#FD9414"/>
<path d="M16.2133 26.5999H16.5633L21.4633 31.8498C21.1134 32.8999 21.1133 34.2999 21.1133 35.3499C21.1133 43.0499 27.4134 49.3499 35.1134 49.3499C42.8134 49.3499 49.1135 43.0499 49.1135 35.3499C49.1135 27.6499 42.8133 21.3499 35.1133 21.3499C33.7133 21.3499 32.6632 21.6998 31.6132 21.6998L26.3632 16.4498V16.0999C29.1632 15.0498 31.9632 14.3499 35.1133 14.3499C46.6633 14.3499 56.1133 23.7999 56.1133 35.3499C56.1133 46.8999 46.6633 56.3497 35.1133 56.3497C23.5632 56.3497 14.1133 46.8998 14.1133 35.3498C14.1133 32.1998 14.8133 29.3998 16.2133 26.5999Z" fill="#D0E1D4"/>
<path d="M3.26337 21L8.51337 25.9C7.81331 28.7 7.11338 31.8501 7.11338 35.35C7.11338 50.75 19.7133 63.3499 35.1134 63.3499C50.5134 63.3499 63.1133 50.7499 63.1133 35.35C63.1133 19.9501 50.5134 7.35009 35.1134 7.35009C31.9634 7.35009 28.8133 8.05015 25.6634 9.10004V8.75008L20.4134 3.50008C24.9633 1.40003 29.8634 0.350006 35.1134 0.350006C54.3634 0.350006 70.1133 16.1 70.1133 35.35C70.1133 54.6 54.3634 70.3499 35.1134 70.3499C15.8633 70.3499 0.113426 54.5999 0.113426 35.35C0.113426 30.1 1.16332 25.2 3.26337 21Z" fill="#80003E"/>
</svg>
