<svg width="71" height="84" viewBox="0 0 71 84" fill="none" xmlns="http://www.w3.org/2000/svg">
<path d="M21.0846 49.6428L30.1506 83.6359L0.175781 49.6428H21.0846Z" fill="#80003E"/>
<path d="M21.2578 44.7866H0.175781L14.0335 30.9287C14.49 30.4739 15.1067 30.2181 15.7509 30.2181H29.5827L21.2578 44.7866Z" fill="#80003E"/>
<path d="M43.4996 44.7867H26.8496L35.1746 30.2182L43.4996 44.7867Z" fill="#80003E"/>
<path d="M44.2398 49.6429L35.1751 83.6359L26.1104 49.6429H44.2398Z" fill="#80003E"/>
<path d="M49.0935 44.7867L40.7686 30.2182H54.6004C55.2446 30.2182 55.8613 30.474 56.3178 30.9288L70.1755 44.7867H49.0935Z" fill="#80003E"/>
<path d="M49.2672 49.6429H70.176L40.2012 83.6359L49.2672 49.6429Z" fill="#80003E"/>
<path d="M35.1761 14.6542C33.8352 14.6542 32.748 13.567 32.748 12.2261V3.23704C32.748 1.89609 33.8352 0.80896 35.1761 0.80896C36.517 0.80896 37.6042 1.89609 37.6042 3.23704V12.2261C37.6042 13.567 36.5172 14.6542 35.1761 14.6542Z" fill="#80003E"/>
<path d="M11.041 19.6679L6.54651 11.8832C5.87588 10.7219 6.27375 9.2369 7.43517 8.56643C8.59643 7.89595 10.0816 8.29367 10.7519 9.4551L15.2464 17.2398C15.917 18.4011 15.5191 19.8861 14.3577 20.5566C13.2013 21.2243 11.7144 20.8345 11.041 19.6679Z" fill="#80003E"/>
<path d="M55.9938 20.5566C54.8324 19.8862 54.4345 18.4011 55.1051 17.2399L59.5996 9.45514C60.2702 8.29371 61.7549 7.89583 62.9163 8.56647C64.0777 9.23694 64.4756 10.722 63.805 11.8832L59.3105 19.668C58.6379 20.8328 57.1515 21.2252 55.9938 20.5566Z" fill="#80003E"/>
</svg>
