<svg width="222" height="210" viewBox="0 0 222 210" fill="none" xmlns="http://www.w3.org/2000/svg">
<path fill-rule="evenodd" clip-rule="evenodd" d="M90.823 138.823C90.5202 138.736 69.3695 136.919 57.7345 135.881C44.7154 134.713 10.0697 133.675 4.53337 144.447C-16.1848 184.594 40.1305 171.961 60.4162 168.198C81.3938 164.304 77.2848 169.063 84.9406 164.218C92.6396 159.372 96.0566 161.103 101.16 158.377C105.572 155.998 109.725 148.211 106.135 145.182C102.588 142.068 94.9753 140.121 90.823 138.823Z" class="sec-color-fill"/>
<path fill-rule="evenodd" clip-rule="evenodd" d="M168.029 69.5605C167.77 69.4307 147.614 70.5123 136.498 70.9882C124.085 71.5506 90.6501 77.0016 82.9944 98.7623C54.2745 180.181 111.714 143.884 132.216 132.333C153.453 120.35 148.393 130.387 156.914 119.398C165.434 108.41 168.375 111.049 173.912 104.689C178.713 99.2381 184.379 83.3178 181.568 78.2994C178.756 73.2378 171.792 71.118 168.029 69.5605Z" class="main-color-fill"/>
<path d="M180.011 162.876C179.967 162.876 179.924 162.876 179.881 162.876L112.839 151.239C112.579 151.196 112.363 151.066 112.233 150.806C112.104 150.59 112.06 150.33 112.147 150.071L118.851 130.646L118.635 103.651L102.199 134.021L100.685 133.199L118.721 99.887C118.894 99.5409 119.327 99.3679 119.673 99.4544C120.062 99.5409 120.322 99.887 120.322 100.276L120.538 130.776C120.538 130.862 120.538 130.992 120.495 131.079L114.093 149.681L179.189 160.973L182 109.015V108.972L186.845 68.3492C187.364 63.7634 184.769 59.3507 180.486 57.6635L162.277 50.482L136.585 55.1976L126.204 59.1344C122.009 60.7351 118.202 63.3741 115.218 66.7485L85.5895 117.538L84.0757 116.673L113.747 65.84C113.79 65.7967 113.79 65.7535 113.834 65.7102C117.034 62.0762 121.057 59.2642 125.555 57.5337L136.022 53.5536C136.066 53.5536 136.109 53.5104 136.195 53.5104L162.19 48.7516C162.363 48.7083 162.493 48.7516 162.666 48.7948L181.135 56.0628C186.153 58.0529 189.224 63.1577 188.575 68.5655L183.774 109.188L180.919 162.098C180.919 162.357 180.789 162.573 180.573 162.746C180.4 162.833 180.184 162.876 180.011 162.876Z" fill="black"/>
<path d="M121.533 137.265L162.061 120.956C165.305 119.658 167.554 116.586 167.813 113.082C181.222 79.8135 171.922 83.7071 170.798 74.2328C170.798 74.2328 170.452 57.7067 180.746 56.8848L186.628 59.1776C194.198 63.201 200.556 76.0498 199.518 84.5723C198.047 96.6856 192.987 112.087 191.343 122.599C190.002 131.209 185.071 138.779 176.637 140.986L126.723 151.801L121.533 137.265Z" fill="white"/>
<path d="M126.766 152.666C126.42 152.666 126.074 152.45 125.944 152.104L120.711 137.568C120.538 137.135 120.754 136.66 121.187 136.487L161.715 120.177C164.656 119.009 166.689 116.197 166.948 113.039C166.948 112.952 166.991 112.866 166.991 112.779C176.723 88.6822 174.344 84.3993 172.052 80.2894C171.144 78.6887 170.235 77.0015 169.889 74.3193C169.889 74.276 169.889 74.276 169.889 74.2328C169.889 73.5406 169.63 56.8848 180.659 56.0195C180.789 56.0195 180.919 56.0195 181.049 56.0628L186.931 58.3557C186.974 58.3557 186.974 58.3989 187.018 58.3989C194.846 62.5521 201.464 75.5739 200.339 84.6589C199.518 91.451 197.615 99.1948 195.755 106.636C194.284 112.519 192.9 118.057 192.208 122.686C190.651 132.506 184.941 139.645 176.896 141.764L126.983 152.58C126.896 152.666 126.81 152.666 126.766 152.666ZM122.657 137.784L127.329 150.806L176.464 140.164C183.817 138.217 189.05 131.598 190.478 122.47C191.213 117.754 192.597 112.173 194.068 106.247C195.928 98.8487 197.831 91.1481 198.653 84.4425C199.647 76.1363 193.419 63.7634 186.282 59.9564L180.659 57.75C171.706 58.6585 171.663 73.281 171.706 74.1462C172.009 76.4391 172.787 77.91 173.652 79.4242C176.118 83.8801 178.713 88.5092 168.722 113.255C168.376 117.019 165.91 120.35 162.407 121.734L122.657 137.784Z" fill="black"/>
<path d="M62.7951 189.742C62.7951 189.742 28.8848 199.13 27.5439 199.606C25.511 200.341 25.8571 207.825 29.0145 207.696C30.5284 207.652 55.0528 208.604 58.167 208.431C61.2812 208.215 70.6239 204.538 70.6239 204.538L62.7951 189.742Z" fill="white"/>
<path d="M56.8262 209.296C53.2362 209.296 44.7587 209.037 37.7517 208.777C33.3399 208.647 29.5336 208.517 29.0146 208.517C27.3277 208.561 25.9869 207.133 25.5544 204.71C25.1651 202.634 25.4246 199.433 27.2412 198.784C28.6253 198.308 61.1515 189.309 62.5356 188.92C62.9249 188.79 63.3574 189.006 63.5304 189.353L71.3592 204.148C71.489 204.364 71.489 204.624 71.4025 204.84C71.3159 205.057 71.1429 205.273 70.9267 205.359C70.5374 205.532 61.411 209.123 58.2103 209.296C57.9075 209.296 57.4318 209.296 56.8262 209.296ZM29.1444 206.83C30.0094 206.83 32.9506 206.917 37.8382 207.09C45.5805 207.349 56.1774 207.696 58.1238 207.566C60.5027 207.436 67.0339 205.013 69.4128 204.105L62.3626 190.78C50.468 194.068 28.8849 200.081 27.8468 200.428C27.4143 200.557 26.8952 202.374 27.2845 204.408C27.5007 205.619 28.1063 206.874 29.0146 206.83C29.0146 206.83 29.0579 206.83 29.1444 206.83Z" fill="black"/>
<path d="M98.7815 180.397C98.7815 180.397 130.875 201.379 132 202.288C133.73 203.586 131.74 209.815 128.756 208.734C127.328 208.215 100.425 200.731 97.5272 199.606C94.6292 198.481 86.8438 192.121 86.8438 192.121L98.7815 180.397Z" fill="white"/>
<path d="M129.448 209.686C129.102 209.686 128.799 209.642 128.453 209.513C127.977 209.339 123.782 208.128 118.937 206.787C110.07 204.278 99.0409 201.12 97.1811 200.428C94.1966 199.259 86.5841 193.073 86.2381 192.813C86.0651 192.64 85.9353 192.424 85.9353 192.165C85.9353 191.905 86.0219 191.689 86.1949 191.516L98.1327 179.792C98.4354 179.489 98.868 179.446 99.214 179.705C100.512 180.57 131.308 200.73 132.475 201.596C133.903 202.677 133.643 205.446 132.562 207.393C131.827 208.907 130.659 209.686 129.448 209.686ZM88.1412 192.035C90.1309 193.635 95.624 197.918 97.8299 198.784C99.6032 199.476 111.065 202.72 119.413 205.1C125.209 206.744 128.496 207.695 129.015 207.869C130.01 208.215 130.789 207.047 131.048 206.527C131.87 205.013 131.87 203.24 131.437 202.937C130.572 202.288 110.07 188.833 98.8247 181.479L88.1412 192.035Z" fill="black"/>
<path d="M105.399 194.414C105.269 194.371 105.875 192.77 107.346 191.256C108.816 189.742 110.417 189.093 110.46 189.223C110.546 189.353 109.119 190.218 107.735 191.645C106.394 193.073 105.572 194.501 105.399 194.414Z" fill="#1A2E35"/>
<path d="M102.544 192.554C102.415 192.554 102.544 190.737 103.929 189.006C105.313 187.319 107.043 186.757 107.086 186.887C107.173 187.06 105.615 187.752 104.361 189.352C103.064 190.953 102.674 192.597 102.544 192.554Z" fill="#1A2E35"/>
<path d="M104.448 188.574C104.361 188.53 104.794 187.665 105.183 186.194C105.356 185.459 105.529 184.55 105.572 183.512C105.615 182.993 105.572 182.474 105.529 181.911C105.529 181.652 105.442 181.392 105.356 181.219C105.269 181.089 105.096 181.046 104.923 181.133C104.577 181.262 104.361 181.911 104.188 182.387C104.015 182.906 103.929 183.426 103.885 183.901C103.799 184.896 103.842 185.805 103.972 186.584C104.188 188.098 104.491 189.05 104.405 189.05C104.361 189.093 103.929 188.184 103.583 186.627C103.41 185.848 103.323 184.896 103.366 183.858C103.41 183.339 103.496 182.777 103.669 182.214C103.756 181.911 103.842 181.652 103.972 181.392C104.102 181.133 104.318 180.787 104.707 180.614C105.053 180.441 105.615 180.527 105.832 180.916C106.048 181.262 106.091 181.565 106.091 181.868C106.135 182.431 106.135 182.993 106.091 183.512C106.005 184.55 105.832 185.502 105.572 186.238C105.053 187.795 104.491 188.617 104.448 188.574Z" fill="#1A2E35"/>
<path d="M104.491 188.228C104.448 188.314 103.712 187.925 102.415 187.622C101.766 187.449 100.987 187.319 100.122 187.319C99.6899 187.319 99.2141 187.319 98.8248 187.406C98.3923 187.492 98.0895 187.752 98.0463 188.141C98.003 188.531 98.2626 188.92 98.5653 189.18C98.9114 189.396 99.3438 189.526 99.7764 189.569C100.598 189.655 101.377 189.526 102.026 189.353C103.323 189.007 104.102 188.66 104.102 188.747C104.145 188.79 103.41 189.266 102.112 189.742C101.463 189.958 100.641 190.175 99.6899 190.088C99.2141 190.045 98.6951 189.915 98.2625 189.612C97.7868 189.309 97.3975 188.747 97.484 188.098C97.5273 187.406 98.176 186.93 98.6951 186.843C99.2141 186.714 99.7331 186.757 100.166 186.757C101.074 186.8 101.896 187.016 102.545 187.19C103.842 187.665 104.534 188.185 104.491 188.228Z" fill="#1A2E35"/>
<path d="M90.1309 193.246C90.1741 193.203 90.6499 193.592 91.5582 194.198C92.4665 194.847 93.8074 195.712 95.4942 196.621C97.2244 197.572 99.3438 198.524 101.766 199.433C104.188 200.341 106.913 201.206 109.811 202.028C115.564 203.672 120.797 205.23 124.56 206.355C126.377 206.917 127.847 207.35 129.015 207.739C130.053 208.085 130.659 208.258 130.616 208.301C130.616 208.345 130.01 208.215 128.929 207.955C127.761 207.652 126.247 207.22 124.43 206.744C120.624 205.706 115.391 204.235 109.638 202.591C106.74 201.769 104.015 200.86 101.593 199.952C100.901 199.692 96.5323 197.702 95.3212 197.01C93.5911 196.015 92.2935 195.106 91.4284 194.414C90.5634 193.679 90.1309 193.289 90.1309 193.246Z" fill="#1A2E35"/>
<path d="M64.1793 187.709C64.0495 187.709 63.8765 187.665 63.7468 187.622C62.0166 186.67 21.4454 164.347 21.5319 143.409C21.5751 132.636 30.788 128.743 31.6963 128.397C48.0892 119.528 120.581 146.61 123.652 147.735C123.998 147.865 124.214 148.167 124.214 148.514C124.214 148.86 123.998 149.206 123.652 149.336L120.235 150.72L64.6118 187.579C64.5253 187.665 64.3523 187.709 64.1793 187.709ZM32.3884 129.954C31.9991 130.084 23.3485 133.329 23.3052 143.365C23.2187 162.141 59.6377 183.296 64.1793 185.805L119.413 149.206C119.457 149.162 119.5 149.162 119.586 149.119L121.014 148.557C108.773 144.101 46.6618 122.167 32.5614 129.911C32.4749 129.954 32.4316 129.954 32.3884 129.954Z" fill="black"/>
<path d="M91.9476 167.419C89.9148 167.419 87.3196 165.818 84.2054 162.617C82.5185 160.886 81.3074 159.242 80.2693 157.815C77.1119 153.488 75.2088 150.849 64.655 152.666C49.5597 155.219 40.4334 138.693 40.3469 138.52C40.1306 138.087 40.2603 137.568 40.6929 137.352C41.1254 137.135 41.6445 137.265 41.8607 137.698C41.9472 137.871 50.4681 153.315 64.3523 150.979C75.9441 148.989 78.3662 152.277 81.6535 156.82C82.6915 158.247 83.8593 159.805 85.4165 161.449C89.1362 165.256 91.1691 165.775 92.0342 165.732C92.5965 165.732 92.8127 165.472 92.8127 165.472L93.5047 165.991L94.2401 166.467C94.1968 166.554 93.5913 167.332 92.2937 167.462C92.1639 167.419 92.0341 167.419 91.9476 167.419Z" fill="black"/>
<path d="M44.8884 95.3879L64.7415 145.658L150.123 147.043L151.723 142.457L121.792 141.332L107.389 96.7291L44.8884 95.3879Z" fill="black"/>
<path d="M84.811 117.149C83.7297 116.413 81.6968 116.716 80.702 117.581C79.7072 118.446 79.4044 120.004 79.9235 121.215C80.4425 122.427 81.6968 123.292 82.9944 123.378C84.3785 123.465 85.8491 122.556 86.2384 121.215C86.6276 119.874 86.1951 117.841 84.811 117.149Z" fill="white"/>
<path d="M58.9457 189.353C48.0459 191.386 69.9319 160.324 103.02 151.801C145.581 140.856 107 140.51 147.917 134.583C151.291 134.107 165.434 132.55 173.22 134.713C181.006 136.876 174.388 141.765 177.848 151.974C179.838 157.815 187.277 159.113 187.753 166.554C188.272 175.466 179.016 193.03 173.177 199.779C170.538 202.85 167.251 205.533 163.358 206.744C162.537 207.003 161.671 207.22 160.806 207.393C153.54 208.95 146.23 206.701 139.612 204.018C132.649 201.206 126.55 197.745 122.268 191.213L120.451 188.401C120.451 188.401 68.9803 207.306 68.1585 207.047L58.9457 189.353Z" fill="white"/>
<path d="M155.832 208.82C149.993 208.82 144.284 206.917 139.31 204.883C133.168 202.374 126.247 198.87 121.576 191.732L120.105 189.526C117.337 190.521 106.092 194.674 94.9323 198.697C68.721 208.171 68.3749 208.085 67.9424 207.912C67.7261 207.825 67.5531 207.696 67.4666 207.479L58.47 190.304C56.0911 190.521 55.4856 189.093 55.3126 188.401C53.842 181.738 75.1224 158.117 102.804 150.979C123.609 145.615 124.604 142.846 125.296 141.029C126.204 138.477 126.81 136.789 147.831 133.761C148.004 133.718 164.483 131.425 173.48 133.891C178.627 135.318 178.324 138.087 177.935 141.635C177.632 144.23 177.286 147.475 178.713 151.715C179.492 154.008 181.222 155.565 183.082 157.209C185.677 159.545 188.359 161.925 188.661 166.51C189.18 175.422 180.054 193.203 173.869 200.341C170.711 204.018 167.294 206.441 163.661 207.566C162.796 207.825 161.931 208.042 161.023 208.258C159.293 208.647 157.563 208.82 155.832 208.82ZM120.495 187.579C120.797 187.579 121.057 187.709 121.23 187.968L123.047 190.78C127.458 197.486 133.773 200.73 140.002 203.283C146.187 205.792 153.497 208.171 160.677 206.614C161.542 206.441 162.364 206.225 163.142 205.965C166.429 204.927 169.587 202.677 172.528 199.259C178.54 192.294 187.407 175.163 186.888 166.64C186.672 162.746 184.336 160.713 181.914 158.507C179.967 156.776 177.978 155.003 177.07 152.277C175.512 147.691 175.902 144.101 176.205 141.462C176.594 138.044 176.724 136.616 173.047 135.578C165.867 133.588 152.588 134.843 148.09 135.492C128.107 138.39 127.588 139.904 126.939 141.635C126.031 144.187 124.993 147.086 103.28 152.666C87.017 156.863 74.9494 166.121 69.1968 171.269C60.1569 179.359 56.6102 186.065 57.0427 188.055C57.0859 188.271 57.2157 188.833 58.8161 188.531C59.2053 188.444 59.5513 188.66 59.7244 188.963L68.6777 206.095C73.0463 204.84 101.29 194.587 120.192 187.622C120.278 187.622 120.365 187.579 120.495 187.579Z" fill="black"/>
<path d="M166.083 41.6135C165.953 41.4837 165.867 41.3972 165.737 41.2674C164.093 39.4937 162.493 37.8497 161.931 35.5136C161.109 32.2257 159.768 29.2839 162.233 23.2705C162.104 21.3237 159.984 20.5017 158.124 19.8096C156.308 19.1174 154.275 18.728 152.761 17.4734C152.372 17.1706 152.026 16.7812 151.896 16.2621C151.593 15.094 152.761 14.099 153.842 13.4933C158.427 11.0707 165.477 15.5266 170.149 13.1905C171.663 12.4118 172.874 11.2005 174.258 10.2054C178.497 7.22037 184.422 6.9608 189.007 9.42672C193.549 11.8926 196.62 16.8678 196.836 22.0592C197.052 26.2988 195.538 30.452 193.592 34.2157C191.689 37.893 189.267 41.527 185.633 43.517C184.249 44.2957 182.735 44.7716 181.178 45.0745C181.092 45.8532 181.005 46.5886 180.919 47.3673C180.486 53.0779 185.158 55.0679 185.201 55.5438C185.244 55.8899 184.595 60.9515 173.998 63.7203C169.76 64.8451 163.142 63.5905 160.59 60.3459C157.951 57.0147 155.875 53.1212 154.188 49.2709C158.903 48.8815 164.656 45.983 166.083 41.6135Z" fill="white"/>
<path d="M170.538 65.0182C166.516 65.0182 162.017 63.6338 159.855 60.9083C157.519 57.9665 155.356 54.2893 153.324 49.6602C153.194 49.4007 153.237 49.0978 153.367 48.8815C153.497 48.622 153.756 48.4922 154.016 48.4489C158.341 48.0596 163.488 45.5071 165.002 41.8299L164.829 41.6568C163.228 39.9696 161.585 38.1959 160.979 35.6867C160.893 35.2973 160.763 34.908 160.677 34.5186C159.898 31.5768 159.033 28.5485 161.239 23.0975C161.023 21.9294 159.682 21.3238 157.779 20.5883L157.735 20.545C157.26 20.372 156.74 20.199 156.221 20.0259C154.794 19.55 153.324 19.0741 152.112 18.0791C151.507 17.56 151.118 16.9976 150.988 16.4352C150.642 15.0508 151.507 13.7097 153.367 12.7147C155.962 11.3303 159.076 11.8927 162.104 12.4551C164.959 12.9742 167.64 13.4501 169.673 12.4118C170.538 11.9792 171.317 11.3303 172.138 10.6814C172.614 10.292 173.133 9.90264 173.652 9.51329C178.107 6.35517 184.379 6.00908 189.31 8.64805C194.068 11.2005 197.355 16.4352 197.614 21.9727C197.787 25.7365 196.749 29.7598 194.284 34.5619C192.727 37.5902 190.175 41.9164 185.979 44.2525C184.725 44.9447 183.341 45.4638 181.914 45.7667C181.827 46.3291 181.784 46.8482 181.741 47.4106C181.438 51.434 183.947 53.3808 185.114 54.2893C185.633 54.6786 185.979 54.9382 186.023 55.4141C186.023 55.5006 186.023 61.3842 174.215 64.499C173.09 64.8884 171.836 65.0182 170.538 65.0182ZM155.4 50.0063C157.26 53.9864 159.163 57.2311 161.239 59.8268C163.574 62.7686 169.889 63.8934 173.782 62.8984C182.433 60.6055 183.99 56.885 184.293 55.8467C184.249 55.8034 184.163 55.7602 184.119 55.7169C182.822 54.6786 179.708 52.2992 180.054 47.3241C180.097 46.5454 180.184 45.7234 180.313 44.9447C180.357 44.5553 180.659 44.2958 181.005 44.2093C182.519 43.9497 183.903 43.4305 185.158 42.7383C188.056 41.1377 190.478 38.2824 192.77 33.7832C195.106 29.2407 196.101 25.5202 195.928 22.0592C195.711 17.1274 192.813 12.4551 188.531 10.1622C184.206 7.82607 178.626 8.12891 174.69 10.8977C174.215 11.2438 173.739 11.5899 173.263 11.9792C172.398 12.6714 171.533 13.4068 170.495 13.926C167.9 15.2238 164.829 14.6614 161.844 14.1423C158.99 13.6232 156.265 13.1473 154.232 14.2288C153.453 14.6614 152.545 15.3536 152.718 16.0026C152.761 16.2189 152.978 16.4784 153.28 16.738C154.232 17.56 155.486 17.9493 156.827 18.382C157.346 18.555 157.908 18.728 158.427 18.9444L158.471 18.9876C160.417 19.7231 162.839 20.6748 163.055 23.184C163.055 23.3138 163.055 23.4436 163.012 23.5734C160.936 28.5917 161.671 31.274 162.45 34.086C162.58 34.4753 162.666 34.8647 162.753 35.2973C163.272 37.3306 164.612 38.8015 166.17 40.4887L166.343 40.705C166.429 40.7916 166.559 40.9214 166.645 41.0079C166.862 41.2242 166.948 41.5703 166.862 41.8731C165.478 46.3291 160.114 49.2276 155.4 50.0063Z" fill="black"/>
<path d="M181.698 1.55299C184.898 0.47144 188.402 0.601225 191.775 1.12037C199.172 2.3317 206.135 5.66286 211.282 10.5947C212.667 11.9358 213.964 13.3635 214.916 14.9641C215.997 16.7379 218.246 21.0208 218.895 22.9676C221.577 31.2306 221.577 33.5667 221.101 38.8447C220.668 35.3837 217.77 30.8412 215.694 27.9427C213.402 24.7846 211.023 21.5399 207.563 19.3769C209.379 22.0591 210.807 23.4002 212.061 25.8229C213.142 27.8562 214.526 30.6682 215.391 32.788C216.776 36.249 217.251 40.0127 217.468 43.69C216.949 41.9595 215.478 40.2723 214.31 38.8014C213.272 37.4603 212.018 36.3355 210.763 35.1674C209.033 33.5667 207.346 32.0093 205.616 30.4086C207.303 32.6582 209.163 34.9511 210.461 37.0709C213.186 41.3971 214.137 43.9063 215.651 50.6984C212.32 46.329 208.601 39.3205 202.762 35.5568C207.779 41.2673 209.336 45.68 210.331 51.4338C207.476 46.7183 204.492 43.4304 199.734 40.1425C203.151 46.0261 207.779 52.2558 208.774 58.8316C206.481 55.4139 200.037 49.6601 196.403 47.3672C192.597 44.9446 187.666 43.2141 187.32 41.7432C187.018 40.3156 190.435 38.3255 190.262 36.8546C189.397 30.5384 190.651 24.0059 188.575 17.906C187.32 14.272 184.898 10.9841 181.654 8.5614C180.14 7.43659 178.324 6.13874 178.54 4.40826C178.713 2.98062 180.227 2.02887 181.698 1.55299Z" fill="black"/>
<path d="M158.427 30.2356C158.211 30.3654 157.951 30.4086 157.778 30.5817C159.595 34.605 173.566 34.2157 175.642 30.625L158.427 30.2356Z" fill="black"/>
<path d="M177.502 19.5065C177.502 18.2086 179.708 17.2569 180.789 17.1271C182.865 16.8675 181.697 19.8526 181.351 20.8476C180.832 22.4483 183.254 23.3568 183.773 21.7994C184.725 18.9873 185.244 15.0073 181.265 14.5746C178.886 14.3151 174.863 16.5647 174.907 19.2469C174.95 20.8909 177.502 21.1937 177.502 19.5065Z" fill="black"/>
<path d="M171.706 83.9233C171.144 83.9233 170.581 83.6637 170.062 83.1879C169.414 82.5822 169.068 81.8035 168.765 81.1113C168.592 80.7652 168.462 80.4624 168.289 80.1595L168.159 79.9432C167.727 79.2078 167.424 78.8184 167.251 78.7752C165.997 79.251 164.915 79.5106 163.964 79.5106C161.888 79.5106 159.941 78.6454 158.514 77.1745C158.471 77.2177 158.384 77.261 158.341 77.3043C158.298 77.3475 158.254 77.3475 158.211 77.3908C157.173 77.8667 156.092 78.1262 154.967 78.1262C153.583 78.1262 152.199 77.7369 151.031 77.0014C150.555 76.6986 150.209 76.3958 149.863 75.9631C149.82 75.9199 149.777 75.8334 149.734 75.7901C149.604 75.6171 149.388 75.271 149.171 74.8816C149.128 74.8816 149.085 74.8816 149.085 74.8383C148.998 74.7951 148.782 74.8383 148.609 74.8816C148.393 74.9249 148.133 74.9681 147.83 74.9681C142.943 74.9681 139.007 70.988 139.007 66.0995C139.007 64.1959 139.656 62.2924 140.78 60.8215C141.169 60.3456 141.602 59.8698 142.164 59.4804C142.208 59.4371 142.251 59.4371 142.294 59.3939C142.51 59.2208 143.332 58.5719 144.5 58.0528C144.5 58.0095 144.543 57.9662 144.543 57.8797C144.543 57.8364 144.586 57.7932 144.586 57.7932C144.759 57.1443 144.976 56.5819 145.279 56.0627C146.533 53.8131 148.912 52.4287 151.464 52.4287C151.81 52.4287 152.112 52.4287 152.415 52.472C153.929 50.3954 156.308 49.1841 158.903 49.1841C158.903 49.1841 158.903 49.1841 158.946 49.1841C160.763 49.1841 162.58 49.833 163.964 50.9578C164.656 50.6982 165.391 50.5685 166.126 50.5685C167.251 50.5685 168.332 50.8713 169.284 51.4337C169.76 51.7365 170.192 52.0826 170.538 52.472C170.711 52.645 170.841 52.8613 170.927 53.0344C170.971 53.1209 171.014 53.2074 171.057 53.294C171.187 53.294 171.403 53.2507 171.533 53.2507C171.749 53.2074 171.966 53.2074 172.182 53.2074C173.998 53.2074 175.729 53.9429 177.026 55.2407C178.194 56.4088 178.886 57.923 179.016 59.5669C180.919 60.6485 182.087 62.6818 182.087 64.8881C182.087 67.0512 180.919 69.0413 179.059 70.1228C179.232 70.6852 179.275 71.2909 179.275 71.8965C179.275 73.8433 178.367 75.7036 176.853 76.9149C176.118 77.5206 175.253 77.9099 174.301 78.1695C174.171 78.2128 174.042 78.2128 173.912 78.256C173.869 78.256 173.869 78.256 173.825 78.256C173.825 78.3858 173.825 78.6021 173.869 78.7752V78.9049C173.955 79.7269 173.998 80.5922 173.912 81.4574C173.782 82.5822 173.133 83.534 172.225 83.8801C172.139 83.8801 171.922 83.9233 171.706 83.9233ZM167.294 77.0447C168.505 77.0447 169.327 78.4291 169.673 79.078L169.76 79.251C169.976 79.5971 170.149 79.9865 170.322 80.3759C170.581 80.9815 170.884 81.5439 171.274 81.9765C171.49 82.1496 171.663 82.2361 171.793 82.1928C172.009 82.1063 172.268 81.7602 172.312 81.2411C172.398 80.5489 172.355 79.8134 172.268 79.078V78.9482C172.225 78.5156 172.139 77.9532 172.441 77.434C172.787 76.6986 173.479 76.6121 173.825 76.5255C173.912 76.5255 173.955 76.5256 174.042 76.4823C174.734 76.3092 175.383 76.0064 175.902 75.5738C176.983 74.7086 177.675 73.3242 177.675 71.8965C177.675 71.637 177.675 71.3774 177.632 71.1611C177.372 71.2043 177.069 71.2909 176.723 71.2909C176.594 71.2909 176.421 71.2909 176.291 71.2909C174.777 71.2909 173.306 70.7717 171.879 69.7767C171.403 69.3874 171.317 68.7817 171.62 68.3058C171.793 68.0895 172.052 67.9164 172.312 67.8732C172.571 67.8299 172.874 67.8732 173.09 68.0462C175.685 69.9065 177.718 68.9115 177.848 68.8682H177.891C177.934 68.8682 177.978 68.8249 178.021 68.8249C179.492 68.0895 180.486 66.5753 180.486 64.8881C180.486 63.2009 179.492 61.6002 177.934 60.908C177.632 60.7783 177.415 60.4754 177.415 60.1293C177.415 58.7449 176.896 57.4471 175.902 56.4953C174.95 55.5003 173.652 54.9812 172.268 54.9812C172.182 54.9812 172.009 54.9812 171.879 55.0244C171.447 55.0677 170.841 55.1542 170.279 54.8514C169.846 54.5918 169.63 54.2457 169.5 53.9861C169.457 53.8996 169.37 53.7698 169.327 53.7266C169.068 53.4237 168.765 53.2074 168.419 52.9911C167.727 52.6018 166.948 52.3855 166.17 52.3422C165.564 52.3422 164.959 52.472 164.353 52.7315C164.353 52.7315 164.31 52.7316 164.31 52.7748C164.267 52.8181 164.18 52.8613 164.094 52.8613C163.661 53.0776 162.666 53.6401 162.234 54.7216C163.012 54.8514 163.747 55.1975 164.353 55.6734C165.348 55.0244 166.559 54.7649 167.727 55.0244C168.895 55.284 169.889 55.9329 170.538 56.9279C171.187 57.923 171.403 59.091 171.187 60.2591C171.101 60.8215 170.538 61.2109 169.933 61.0811C169.673 61.0378 169.457 60.8648 169.284 60.6485C169.111 60.3889 169.068 60.0861 169.154 59.8265C169.284 59.2641 169.154 58.6152 168.808 58.096C168.462 57.5769 167.943 57.1875 167.294 57.0577C166.472 56.8847 165.651 57.1875 165.088 57.7932C164.699 58.2258 164.05 58.2691 163.618 57.8797L163.574 57.8364C163.531 57.7932 163.531 57.7932 163.488 57.7499C162.45 56.5819 160.633 56.4088 159.422 57.4471C159.206 57.6201 158.946 57.7067 158.644 57.7067C158.384 57.6634 158.125 57.5336 157.952 57.3173C157.779 57.101 157.692 56.8414 157.692 56.5386C157.735 56.2358 157.865 55.9762 158.081 55.8031C158.644 55.3273 159.292 54.9812 159.985 54.8081C160.244 53.3805 161.109 52.3855 161.931 51.7365C161.023 51.2174 159.985 50.9578 158.903 50.9578C156.697 50.9578 154.708 52.0826 153.54 53.9429C153.324 54.2457 152.978 54.4188 152.632 54.3322C152.242 54.2457 151.853 54.2025 151.464 54.2025C149.561 54.2025 147.701 55.284 146.749 56.9712C146.749 56.9712 146.749 57.0145 146.706 57.0145C147.83 56.7982 149.171 56.7982 150.599 57.1875C150.858 57.2308 151.118 57.4471 151.247 57.7067C151.377 57.9662 151.42 58.2258 151.334 58.5286C151.161 59.0478 150.599 59.3939 150.08 59.2208C146.576 58.2691 143.592 60.6052 143.289 60.8648L143.246 60.908C143.202 60.9513 143.159 60.9946 143.073 60.9946C142.683 61.2974 142.381 61.6002 142.121 61.9463C141.213 63.1576 140.694 64.6718 140.694 66.186C140.694 70.1228 143.851 73.2809 147.787 73.3242C147.874 73.3242 148.047 73.2809 148.176 73.2809C148.09 72.5887 148.133 71.9398 148.306 71.2909C148.393 71.0313 148.566 70.815 148.782 70.6852C149.042 70.5554 149.301 70.5122 149.604 70.5987C150.166 70.7717 150.469 71.3341 150.339 71.8533V71.8965C149.907 73.3242 151.031 74.7951 151.074 74.8383C151.118 74.8816 151.118 74.8816 151.161 74.9249C151.161 74.9249 151.204 74.9681 151.204 75.0114C151.377 75.2277 151.593 75.4007 151.853 75.5738C152.761 76.1362 153.799 76.439 154.881 76.439C155.746 76.439 156.568 76.266 157.346 75.9199C157.389 75.9199 157.389 75.8766 157.433 75.8766C159.638 74.622 160.028 72.1561 160.028 72.0696V72.0263C160.114 71.4639 160.633 71.0746 161.196 71.1611C161.758 71.2043 162.147 71.7235 162.104 72.2859V72.3292C162.061 72.7618 161.671 74.7518 160.071 76.439C161.152 77.3475 162.493 77.8667 163.921 77.8667C164.656 77.8667 165.521 77.6936 166.559 77.261C166.862 77.0879 167.078 77.0447 167.294 77.0447ZM149.647 75.4007C149.647 75.4007 149.647 75.444 149.647 75.4007C149.647 75.4007 149.647 75.444 149.647 75.4007ZM161.758 72.1994C161.758 72.2426 161.758 72.2426 161.758 72.2859C161.758 72.2859 161.758 72.2426 161.758 72.1994ZM170.841 60.1293V60.1726C170.841 60.1293 170.841 60.1293 170.841 60.1293ZM169.5 59.8697C169.5 59.8697 169.5 59.913 169.5 59.8697C169.5 59.8697 169.5 59.913 169.5 59.8697ZM150.166 58.7882C150.166 58.7882 150.209 58.7882 150.166 58.7882C150.166 58.7882 150.209 58.7882 150.166 58.7882ZM159.249 57.0577C159.206 57.101 159.206 57.101 159.249 57.0577C159.206 57.101 159.206 57.101 159.249 57.0577ZM165.953 70.1228C165.434 70.1228 165.002 69.7767 164.915 69.2576C164.915 69.2143 164.915 69.2143 164.915 69.171C164.786 67.7001 165.175 66.2725 166.126 65.1477C167.035 64.0229 168.376 63.2874 169.803 63.1576C171.273 62.9846 172.701 63.4172 173.825 64.3257C174.258 64.6718 174.344 65.3207 173.998 65.7966L173.955 65.8399C173.566 66.2725 172.917 66.3158 172.485 65.9264C171.793 65.4073 170.927 65.1044 170.019 65.2342C169.111 65.3207 168.289 65.7534 167.77 66.4888C167.208 67.181 166.948 68.0895 167.035 68.9547C167.078 69.2576 166.991 69.5171 166.775 69.7334C166.602 69.9498 166.343 70.0795 166.04 70.0795C165.997 70.1228 165.997 70.1228 165.953 70.1228ZM173.523 64.5853L173.566 64.6285C173.523 64.6285 173.523 64.5853 173.523 64.5853ZM158.298 70.0363C157.865 70.0363 157.433 69.7334 157.303 69.3008C156.784 67.7867 155.097 66.9647 153.583 67.4838C153.54 67.4838 153.54 67.4838 153.497 67.5271C153.237 67.6136 152.977 67.5704 152.761 67.4838C152.502 67.354 152.329 67.1377 152.242 66.8782C152.199 66.7484 152.199 66.6186 152.199 66.4888C151.853 65.2775 150.945 64.3257 149.777 63.9364C148.825 63.5903 147.787 63.6768 146.879 64.1094C145.971 64.542 145.278 65.3207 144.932 66.2725C144.846 66.5321 144.63 66.7484 144.413 66.8782C144.154 67.0079 143.851 67.0079 143.592 66.9214C143.332 66.8349 143.116 66.6619 143.029 66.4023C142.9 66.1427 142.9 65.8831 142.986 65.6236C144.067 62.552 147.398 60.908 150.469 61.9463C152.069 62.5087 153.367 63.7633 154.016 65.3207C156.308 65.0612 158.557 66.4455 159.336 68.6952C159.509 69.2143 159.249 69.82 158.687 70.0363C158.687 70.0363 158.687 70.0363 158.644 70.0363C158.471 70.0363 158.341 70.0363 158.298 70.0363ZM158.903 68.7384C158.946 68.7384 158.946 68.7817 158.903 68.7384C158.946 68.7384 158.946 68.7817 158.903 68.7384ZM143.246 65.6668C143.246 65.6668 143.246 65.7101 143.246 65.6668C143.246 65.6668 143.246 65.7101 143.246 65.6668Z" fill="black"/>
</svg>
