<svg width="186" height="224" viewBox="0 0 186 224" fill="none" xmlns="http://www.w3.org/2000/svg">
<path d="M98.3428 52.1303C102.704 47.5382 106.454 40.65 106.454 32.92C106.454 19.1436 98.4194 7.96948 88.5101 7.96948C78.6008 7.96948 70.5662 19.1436 70.5662 32.92C70.5662 40.5352 74.1626 47.3851 78.4095 51.939C78.4095 54.9621 78.4095 58.2532 78.5243 60.5492C78.7538 65.9067 69.5332 69.1977 69.5332 69.1977C69.5332 69.1977 73.9331 76.2772 83.5746 78.6881C84.4163 79.1856 85.4493 79.4917 86.7119 79.4917C87.2858 79.4917 87.8597 79.4535 88.3953 79.4152C88.9692 79.4535 89.5048 79.4917 90.0787 79.4917C91.3413 79.4917 92.3743 79.1856 93.216 78.6881C102.858 76.2772 107.257 69.1977 107.257 69.1977C107.257 69.1977 97.9985 65.9067 98.2663 60.5492C98.3428 58.2914 98.3811 55.0769 98.3428 52.1303Z" fill="white"/>
<path d="M90.0789 80.2953C89.5815 80.2953 89.1224 80.257 88.6633 80.257H88.3954H88.1276C87.6685 80.2952 87.2094 80.2953 86.712 80.2953C85.4112 80.2953 84.2251 80.0274 83.2686 79.4533C73.5124 76.9659 69.0742 69.9247 68.8829 69.6568C68.7682 69.4655 68.7299 69.2359 68.8064 69.0063C68.8829 68.7767 69.036 68.6236 69.2655 68.5471C69.342 68.5088 77.9888 65.3708 77.7592 60.6639C77.6444 58.2531 77.6444 54.8472 77.6444 52.3216C72.6706 46.8493 69.8012 39.808 69.8012 32.9964C69.8012 18.7991 78.1801 7.28052 88.5102 7.28052C98.8404 7.28052 107.219 18.8373 107.219 32.9964C107.219 39.8846 104.273 46.9641 99.1082 52.5129C99.1082 55.0003 99.1082 58.3296 98.9934 60.6639C98.8021 65.3708 107.411 68.5088 107.487 68.5471C107.717 68.6236 107.87 68.815 107.946 69.0063C108.023 69.2359 107.984 69.4655 107.87 69.6568C107.678 69.963 103.24 77.0042 93.484 79.4533C92.5658 79.9891 91.418 80.2953 90.0789 80.2953ZM88.3954 78.688H88.4337L88.778 78.7262C89.1989 78.7645 89.658 78.7646 90.1171 78.7646C91.1884 78.7646 92.1066 78.5349 92.8718 78.0757C92.9484 78.0374 93.0249 77.9992 93.1014 77.9992C100.447 76.1624 104.694 71.4554 106.11 69.5803C103.661 68.5471 97.31 65.3708 97.5395 60.5491C97.6543 58.1382 97.6543 54.6559 97.6543 52.1685C97.6543 51.9772 97.7308 51.7858 97.8839 51.6328C100.256 49.1454 105.804 42.2954 105.804 32.9581C105.804 19.6027 98.1134 8.77297 88.625 8.77297C79.1366 8.77297 71.4463 19.641 71.4463 32.9581C71.4463 39.5019 74.2393 46.237 79.0983 51.4797C79.2131 51.6328 79.2896 51.8241 79.2896 52.0154C79.2896 54.5411 79.2896 58.1 79.4044 60.5874C79.6339 65.4091 73.2828 68.5853 70.8342 69.6186C72.2498 71.4554 76.4966 76.2006 83.8425 78.0375C83.919 78.0375 83.9956 78.0757 84.0721 78.114C84.8373 78.5732 85.7172 78.8028 86.8268 78.8028C87.2859 78.8028 87.745 78.7646 88.1659 78.7646H88.472C88.3572 78.688 88.3954 78.688 88.3954 78.688Z" fill="black"/>
<path d="M59.165 159.088L73.5507 159.241C68.1178 159.777 62.9527 160.428 58.3232 161.04C58.8206 159.739 59.165 159.088 59.165 159.088Z" class="sec-color-fill"/>
<path d="M115.407 159.088L115.445 159.127C115.368 159.127 115.292 159.088 115.215 159.088H115.407Z" class="sec-color-fill"/>
<path d="M37.8545 102.529C37.8545 102.529 46.9603 81.1371 51.2454 77.0042C57.9792 70.4604 73.2066 67.4756 73.2066 67.4756C73.2066 67.4756 87.5158 83.969 103.585 67.4756C103.585 67.4756 118.162 75.8562 125.508 77.1573C140.238 79.7212 178.842 97.4392 147.66 102.529C147.66 102.529 144.332 102.988 132.701 106.049C131.782 104.748 113.915 105.552 110.625 102.797C108.597 113.971 111.696 128.245 112.461 136.549C113.265 145.236 112.385 144.508 113.685 149.292C108.52 153.31 83.8045 159.203 67.5059 159.203C54.4975 159.203 64.9424 170.11 56.2192 167.048C56.7548 164.829 59.6626 155.683 62.073 140.261C64.2155 126.752 59.9304 106.049 59.9304 106.049C59.9304 106.049 55.9514 109.532 52.8141 113.244C45.8891 109.723 37.8545 102.529 37.8545 102.529Z" fill="white"/>
<path d="M58.6675 168.311C57.9789 168.311 57.0989 168.12 55.9894 167.737C55.6068 167.622 55.4155 167.201 55.492 166.819C55.6068 166.398 55.7598 165.785 55.9894 164.943C57.0989 160.964 59.3562 152.698 61.3457 140.069C63.1057 128.78 60.351 112.211 59.471 107.427C58.0936 108.69 55.5302 111.101 53.426 113.665C53.1964 113.933 52.8138 114.009 52.5077 113.856C45.5444 110.374 37.6629 103.371 37.3568 103.065C37.1273 102.835 37.0507 102.491 37.1655 102.184C37.5481 101.304 46.3479 80.6014 50.7478 76.392C57.5963 69.7717 72.4793 66.7868 73.0915 66.672C73.3593 66.6337 73.6271 66.7103 73.8184 66.9399C73.895 67.0164 79.8635 73.7515 88.1659 74.0194C93.3309 74.1725 98.343 71.7616 103.087 66.9399C103.317 66.672 103.699 66.6337 104.005 66.8251C104.158 66.9016 118.544 75.1674 125.699 76.392C131.399 77.387 139.931 80.4101 146.933 83.9308C153.055 86.9922 160.362 91.6225 160.324 96.0999C160.324 99.5822 156.23 101.917 147.851 103.294C147.813 103.294 144.37 103.792 132.968 106.815C132.7 106.891 132.394 106.815 132.203 106.585C131.553 106.241 128.033 106.049 125.201 105.896C118.927 105.552 113.838 105.169 111.237 104.021C110.012 112.172 111.351 121.739 112.423 129.508C112.767 132.033 113.111 134.444 113.303 136.472C113.647 140.184 113.685 142.174 113.723 143.628C113.762 145.542 113.762 146.422 114.489 149.062C114.565 149.368 114.45 149.675 114.221 149.866C108.864 154.037 83.8808 159.93 67.6203 159.93C67.5821 159.93 67.5821 159.93 67.5438 159.93C61.1927 159.93 61.1162 162.456 61.0397 164.905C61.0014 166.091 60.9631 167.278 60.0449 167.928C59.7006 168.196 59.2414 168.311 58.6675 168.311ZM57.1754 166.512C58.591 166.933 59.0501 166.78 59.2032 166.665C59.471 166.474 59.5093 165.632 59.5475 164.867C59.624 162.456 59.7006 158.4 67.5821 158.4C67.6204 158.4 67.6203 158.4 67.6586 158.4C83.2686 158.4 106.951 152.966 112.92 148.948C112.27 146.498 112.27 145.503 112.231 143.628C112.193 142.212 112.155 140.223 111.81 136.587C111.619 134.597 111.313 132.225 110.93 129.699C109.783 121.471 108.367 111.254 109.936 102.644C109.974 102.376 110.165 102.146 110.433 102.07C110.701 101.993 110.969 102.031 111.198 102.223C112.958 103.677 120.113 104.098 125.316 104.366C130.099 104.634 132.05 104.787 132.93 105.246C144.217 102.261 147.507 101.802 147.622 101.802C154.929 100.615 158.794 98.6638 158.794 96.1381C158.832 89.5943 136.144 79.7978 125.431 77.961C118.697 76.8129 106.454 70.0013 103.738 68.5089C98.8021 73.4071 93.5605 75.818 88.0894 75.6266C80.1313 75.397 74.3541 69.8482 72.9767 68.3558C70.4898 68.8915 57.7111 71.8764 51.819 77.5783C48.0313 81.252 40.2263 99.0848 38.8107 102.338C40.4941 103.792 46.9218 109.264 52.699 112.287C55.7598 108.728 59.3562 105.59 59.5093 105.475C59.7006 105.284 60.0066 105.246 60.2745 105.322C60.5423 105.399 60.7336 105.628 60.7718 105.896C60.9631 106.738 65.0569 126.905 62.9144 140.414C60.9249 153.119 58.6293 161.461 57.5198 165.441C57.3667 165.824 57.2519 166.206 57.1754 166.512Z" fill="black"/>
<path d="M37.8537 102.529L52.8515 113.205L45.8882 123.117C45.8882 123.117 64.7121 141.332 69.5328 142.71C74.3153 144.049 91.9913 141.447 91.9913 141.447C91.9913 141.447 83.9185 153.54 73.5501 154.841C63.1817 156.142 49.5229 146.192 42.8657 141.447C39.5371 139.074 34.6398 136.319 31.8851 131.995C30.1252 129.24 28.2887 124.992 28.9774 122.428C30.6991 115.961 37.8537 102.529 37.8537 102.529Z" fill="white"/>
<path d="M71.5992 155.683C61.5368 155.683 49.5232 147.111 42.866 142.366L42.4069 142.021C41.7948 141.6 41.1443 141.141 40.4174 140.643C37.3566 138.577 33.5306 135.975 31.1968 132.378C29.3221 129.469 27.4473 125.069 28.2125 122.198C29.9342 115.731 36.8592 102.682 37.1653 102.108C37.2801 101.917 37.4331 101.764 37.6627 101.725C37.8923 101.687 38.0836 101.725 38.2749 101.84L53.2727 112.517C53.617 112.746 53.6936 113.244 53.464 113.588L46.8833 122.964C52.431 128.283 66.0515 140.873 69.7244 141.906C74.3156 143.207 91.6856 140.643 91.8769 140.605C92.183 140.567 92.489 140.682 92.6421 140.95C92.7951 141.218 92.7951 141.524 92.6421 141.792C92.2977 142.289 84.2632 154.19 73.6652 155.53C72.9765 155.644 72.2878 155.683 71.5992 155.683ZM38.1218 103.639C36.5914 106.585 31.1585 117.185 29.7047 122.619C29.0925 124.801 30.7377 128.781 32.4976 131.574C34.6402 134.942 38.1601 137.314 41.2591 139.419C41.9861 139.916 42.6365 140.376 43.2869 140.797L43.746 141.141C49.7911 145.465 62.0342 154.152 71.6374 154.152C72.2496 154.152 72.8617 154.114 73.4356 154.037C81.2406 153.042 87.8213 145.618 90.27 142.404C85.6023 143.054 73.3209 144.547 69.3036 143.399C64.3681 142.021 46.1181 124.38 45.3529 123.653C45.0851 123.385 45.0468 122.964 45.2764 122.658L51.7806 113.359L38.1218 103.639Z" fill="black"/>
<path fill-rule="evenodd" clip-rule="evenodd" d="M46.1566 205.622C46.1566 205.622 60.5805 205.622 66.0134 210.444C71.4463 215.304 85.0668 221.12 64.3682 222.536C43.6697 223.952 23.0859 224.258 23.0476 218.786C23.0094 213.275 26.9119 212.051 26.9119 212.051L32.077 207.765L46.1566 205.622Z" class="sec-color-fill"/>
<path fill-rule="evenodd" clip-rule="evenodd" d="M123.097 130.349C123.097 130.349 154.011 130.311 165.642 143.705C177.273 157.098 206.465 173.209 162.084 177.074C117.741 180.939 73.6653 181.858 73.5505 166.704C73.4357 151.55 81.8146 148.144 81.8146 148.144L92.8717 136.281L123.097 130.349Z" class="sec-color-fill"/>
<path d="M20.4838 112.478C20.4838 112.478 12.3345 107.542 9.65631 106.509C6.93986 105.475 8.47026 108.537 9.65631 109.57C10.8424 110.603 10.6893 111.522 8.12592 111.522C6.9016 111.522 2.19564 111.101 1.00959 113.818C-0.176466 116.535 3.68778 118.027 8.47026 118.525C13.2145 119.022 17.6909 118.104 17.6909 118.104L20.4838 112.478Z" fill="white"/>
<path d="M11.4931 119.405C10.4983 119.405 9.42705 119.366 8.35577 119.252C5.37151 118.946 1.58378 118.104 0.397729 116.075C-0.0613887 115.31 -0.0996485 114.392 0.32121 113.473C1.58378 110.565 5.90714 110.641 7.74362 110.718C7.89665 110.718 8.04969 110.718 8.16447 110.718C9.00619 110.718 9.38879 110.603 9.58009 110.527C9.50357 110.45 9.38879 110.297 9.19749 110.106C8.27925 109.34 6.94016 107.274 7.59058 106.126C7.85839 105.667 8.50881 105.207 9.96268 105.743C12.7174 106.776 20.5989 111.56 20.9433 111.789C21.2876 111.981 21.4024 112.44 21.2111 112.784L18.4181 118.41C18.3033 118.601 18.112 118.754 17.8825 118.831C17.6912 118.869 14.9365 119.405 11.4931 119.405ZM6.86364 112.249C5.18021 112.249 2.4255 112.44 1.69856 114.124C1.43074 114.736 1.58378 115.119 1.69856 115.348C2.34898 116.496 4.91239 117.377 8.50881 117.759C12.3348 118.18 16.0077 117.644 17.1555 117.415L19.4894 112.784C17.5764 111.636 11.5696 108.078 9.38879 107.236C9.19749 107.159 9.04445 107.121 8.92967 107.083C9.04445 107.542 9.58009 108.46 10.154 108.958C11.2253 109.876 11.2253 110.603 11.034 111.062C10.6131 112.249 8.73837 112.249 8.12621 112.249C8.01143 112.249 7.85839 112.249 7.6671 112.249C7.43754 112.249 7.16972 112.249 6.86364 112.249Z" fill="black"/>
<path d="M79.481 85.5762C79.481 85.5762 81.0879 82.3617 81.2792 79.4916C81.5087 76.6598 82.3122 73.675 83.5748 74.0194C84.8373 74.3638 84.7225 76.4685 84.9138 77.3487C85.1051 78.1906 85.1434 79.5682 87.3242 78.535C89.505 77.5017 92.0302 75.0526 94.4405 77.9992C96.5448 80.5249 92.7954 82.8209 89.9641 85.6145C87.1329 88.408 85.6408 89.7474 85.6408 89.7474L79.481 85.5762Z" fill="white"/>
<path d="M85.6025 90.4745C85.4495 90.4745 85.2964 90.4362 85.1817 90.3597L79.0218 86.2268C78.7158 85.9971 78.601 85.5762 78.754 85.2318C78.754 85.1935 80.2844 82.0938 80.4757 79.4533C80.5522 78.3435 80.9731 74.5933 82.427 73.5218C82.8096 73.2539 83.2687 73.1391 83.7278 73.2922C85.2199 73.7131 85.4112 75.5117 85.526 76.6215C85.5643 76.8511 85.5643 77.0807 85.6025 77.1955L85.6408 77.3868C85.679 77.5782 85.7556 78.0374 85.8703 78.1139C85.8703 78.1139 86.0999 78.2288 86.9416 77.8461C87.3242 77.6547 87.7068 77.4251 88.1659 77.1955C90.0407 76.124 92.6423 74.6316 94.9762 77.5017C97.1187 80.1039 94.4405 82.5147 92.0684 84.6195C91.5328 85.117 90.9589 85.6144 90.4233 86.1119C87.592 88.8672 86.0999 90.2449 86.0999 90.2449C85.9851 90.398 85.7938 90.4745 85.6025 90.4745ZM80.4374 85.3083L85.526 88.7524C86.1382 88.1784 87.439 86.9155 89.3902 85.0404C89.9259 84.5047 90.538 83.9689 91.0737 83.4714C93.8284 81.0223 94.9379 79.7977 93.8284 78.4584C92.3745 76.6598 90.9971 77.3103 88.9311 78.4966C88.5103 78.7645 88.0511 78.9941 87.592 79.2237C86.559 79.7212 85.7938 79.7977 85.1817 79.4916C84.4165 79.1089 84.2634 78.267 84.1486 77.693L84.1104 77.5017C84.0721 77.2721 84.0339 77.0424 84.0339 76.7746C83.9574 76.124 83.8426 74.8995 83.3452 74.7847C83.0391 74.8995 82.2739 76.4684 82.0444 79.5681C81.8913 81.8259 80.9348 84.1985 80.4374 85.3083Z" fill="black"/>
<path d="M17.6144 110.565C17.6144 110.565 35.9791 109.302 39.0781 107.963C41.4885 106.93 45.4675 106.202 45.4675 106.202C45.4675 106.202 49.9439 110.909 55.3768 108.575C57.4811 107.657 59.7385 105.246 58.5907 102.07C60.1976 101.381 63.0288 99.6587 63.9853 99.1229C66.6635 97.6305 79.4805 85.5762 79.4805 85.5762C79.4805 85.5762 83.2682 86.9921 85.6404 89.7091C81.8526 98.9699 74.0094 107.848 71.752 110.335C76.458 114.889 80.6283 119.252 81.2405 119.788C81.2405 119.788 93.828 115.961 99.9113 120.974C103.087 123.614 107.181 129.201 110.318 133.908C118.467 133.296 119.998 135.592 119.615 138.118C119.118 141.791 115.253 143.973 106.492 143.207C104.196 143.016 95.1288 135.554 93.0245 135.592C95.3584 139.763 95.014 137.391 96.2001 141.983C103.89 142.48 106.492 149.942 101.174 151.741C98.3809 152.698 90.1933 154.611 86.0995 150.976C83.8039 148.948 84.7221 146.575 82.6561 143.667C74.9276 147.493 67.0461 146.384 63.1053 142.978C59.5854 139.993 50.7091 131.536 44.1284 123.346C38.5042 123.04 27.2941 120.974 17.6526 118.104C16.1222 115.731 17.6144 110.565 17.6144 110.565Z" fill="white"/>
<path d="M93.0245 153.846C90.3463 153.846 87.5533 153.31 85.5638 151.55C84.1482 150.287 83.8039 148.909 83.4595 147.57C83.23 146.613 82.9621 145.656 82.35 144.623C74.0859 148.45 66.3574 146.766 62.5696 143.552C59.241 140.72 50.3265 132.263 43.7076 124.112C38.3129 123.767 27.4471 121.854 17.4231 118.869C17.27 118.831 17.117 118.716 17.0022 118.563C15.2805 115.961 16.6961 110.948 16.8492 110.412C16.9257 110.106 17.1935 109.876 17.5378 109.876C22.5881 109.532 36.2851 108.422 38.772 107.351C41.2207 106.279 45.1614 105.552 45.3145 105.552C45.5823 105.514 45.8118 105.59 46.0031 105.782C46.1562 105.973 50.2117 110.068 55.0707 108.001C56.5246 107.389 58.935 105.437 57.8637 102.452C57.7107 102.07 57.902 101.649 58.2845 101.496C59.5089 100.96 61.5366 99.7735 62.7609 99.0847C63.1053 98.8934 63.4114 98.702 63.6027 98.5872C65.6687 97.4392 74.545 89.2882 78.9449 85.1553C79.1744 84.9639 79.4805 84.8874 79.7483 85.0022C79.9013 85.0787 83.7273 86.5329 86.2142 89.3264C86.4055 89.5561 86.4438 89.8622 86.3673 90.1301C82.7708 98.8934 75.6162 107.312 72.8233 110.412C75.3867 112.899 77.7971 115.348 79.4422 116.994C80.3222 117.874 81.0491 118.639 81.47 119.022C83.8038 118.372 94.6696 115.731 100.409 120.476C103.661 123.155 107.755 128.78 110.739 133.181C115.253 132.913 118.123 133.487 119.539 134.98C120.342 135.822 120.648 136.931 120.457 138.271C120.036 141.409 117.243 144.968 106.492 144.011C105.268 143.896 103.01 142.442 99.4904 140.069C98.0748 139.113 96.3148 137.965 94.9757 137.199C95.167 137.467 95.3201 137.659 95.4348 137.812C96.047 138.577 96.2383 138.883 96.8505 141.256C101.556 141.753 104.349 144.776 104.732 147.57C105.038 149.789 103.775 151.665 101.442 152.468C101.136 152.506 97.1948 153.846 93.0245 153.846ZM82.6561 142.863C82.8856 142.863 83.1152 142.978 83.2682 143.169C84.3012 144.662 84.6456 146.001 84.9516 147.149C85.296 148.412 85.5255 149.407 86.5968 150.363C90.1167 153.501 97.5009 152.124 100.906 150.976C102.551 150.402 103.355 149.215 103.163 147.723C102.857 145.427 100.37 142.978 96.1618 142.71C95.8174 142.672 95.5496 142.442 95.4731 142.136C94.7844 139.457 94.6696 139.342 94.1723 138.73C93.8279 138.271 93.2923 137.62 92.3741 135.975C92.2593 135.745 92.2593 135.439 92.3741 135.209C92.5271 134.98 92.7567 134.827 93.0245 134.827C94.2488 134.827 96.5826 136.319 100.256 138.768C102.666 140.376 105.612 142.365 106.53 142.442C111.81 142.901 118.199 142.48 118.812 138.003C118.926 137.123 118.773 136.472 118.314 135.975C117.549 135.171 115.56 134.291 110.318 134.674C110.05 134.712 109.782 134.559 109.629 134.329C106.721 129.967 102.551 124.227 99.3756 121.586C93.6749 116.879 81.5465 120.476 81.4317 120.515C81.2022 120.591 80.9344 120.553 80.7048 120.362C80.437 120.132 79.7483 119.443 78.2944 117.951C76.5727 116.19 73.9328 113.55 71.1781 110.871C70.872 110.565 70.872 110.106 71.1398 109.8C73.3972 107.351 80.8961 98.8168 84.7221 89.8622C82.9621 88.0636 80.59 86.8773 79.6335 86.4564C77.491 88.4463 66.8548 98.3576 64.3679 99.7735C64.1766 99.8883 63.8705 100.041 63.5644 100.233C62.4549 100.883 60.8097 101.84 59.5471 102.452C60.2741 105.514 58.2846 108.154 55.7211 109.264C50.6326 111.445 46.424 108.078 45.2762 107.006C44.2432 107.197 41.2972 107.848 39.4607 108.652C36.5147 109.914 21.4021 111.062 18.2648 111.254C17.8822 112.823 17.3848 115.808 18.2265 117.415C28.2888 120.4 39.1164 122.275 44.2049 122.543C44.4345 122.543 44.6258 122.658 44.7788 122.811C51.3595 131 60.3123 139.495 63.6409 142.327C67.2374 145.427 74.8511 146.613 82.35 142.901C82.4265 142.901 82.5413 142.863 82.6561 142.863Z" fill="black"/>
<path d="M36.9743 100.194C40.7238 108.078 48.9496 112.019 55.3773 108.996C61.8049 105.935 64.024 97.0947 60.2745 89.1733C56.5251 81.2902 48.2992 77.3486 41.8716 80.3718C35.4439 83.4332 33.2631 92.3113 36.9743 100.194Z" fill="white"/>
<path d="M50.7477 110.795C48.7965 110.795 46.807 110.335 44.8557 109.379C41.221 107.657 38.1985 104.48 36.2855 100.501C32.383 92.2348 34.7551 82.8974 41.5654 79.6829C48.3756 76.4684 57.0989 80.5631 61.0014 88.8289C62.8761 92.8088 63.3735 97.1713 62.417 101.075C61.4222 105.055 59.0501 108.078 55.7215 109.685C54.1529 110.412 52.4694 110.795 50.7477 110.795ZM37.6629 99.8884C39.3846 103.562 42.1775 106.432 45.5061 108.039C48.7582 109.608 52.1633 109.685 55.0711 108.346C57.9788 106.968 60.0449 104.289 60.9248 100.769C61.8048 97.2096 61.3457 93.2298 59.624 89.556C56.0659 82.0555 48.2608 78.267 42.2158 81.1371C36.1707 83.9307 34.143 92.3879 37.6629 99.8884Z" fill="black"/>
<path d="M133.121 106.049C127.765 105.361 111.772 103.256 101.327 101.381C93.9433 100.041 99.644 101.687 96.2771 100.156C94.4024 99.3142 83.3835 98.1279 84.5696 101.419C85.5261 104.136 94.6319 103.83 93.905 104.251C92.872 104.825 82.9627 102.414 79.9784 105.437C71.0639 114.353 79.2897 110.182 86.6739 111.981C96.5832 114.353 98.2666 111.943 103.623 114.086C107.066 115.463 131.859 130.77 142.036 127.365C147.469 126.676 155.924 129.699 160.707 128.742C179.99 124.839 173.256 100.194 155.924 99.429C154.202 101.763 135.685 104.098 133.121 106.049Z" fill="white"/>
<path d="M158.449 129.699C156.306 129.699 153.781 129.278 151.18 128.857C147.966 128.321 144.675 127.785 142.15 128.092C133.542 130.847 115.751 121.318 107.181 116.764C105.344 115.769 103.89 115.004 103.278 114.774C100.83 113.818 99.261 113.818 97.0419 113.856C94.6316 113.894 91.6473 113.933 86.4439 112.708C84.2249 112.172 81.8528 112.211 79.9398 112.211C77.4912 112.249 75.846 112.249 75.3486 111.101C74.8512 109.953 75.846 108.384 79.3276 104.901C80.5902 103.639 82.7327 103.218 85.0666 103.141C84.4544 102.758 83.9953 102.299 83.7658 101.687C83.4979 100.883 83.651 100.156 84.2631 99.6205C86.4822 97.554 94.9759 98.7786 96.5445 99.4674C97.0037 99.6587 97.4245 99.8501 97.7306 100.08C97.8454 100.08 97.9601 100.118 98.0749 100.118C98.8019 100.194 99.9114 100.386 101.404 100.654C111.772 102.529 127.765 104.634 132.891 105.284C134.345 104.404 137.865 103.6 143.298 102.414C147.736 101.457 154.432 100.003 155.159 98.9699C155.312 98.7403 155.541 98.6255 155.809 98.6638C165.795 99.0847 172.375 107.197 172.949 114.813C173.409 120.629 170.424 127.518 160.706 129.469C160.094 129.622 159.291 129.699 158.449 129.699ZM143.757 126.484C146.129 126.484 148.807 126.905 151.409 127.326C154.738 127.862 158.181 128.436 160.477 127.939C167.899 126.446 171.993 121.586 171.496 114.889C170.96 108.039 165.068 100.73 156.153 100.156C154.699 101.419 150.376 102.414 143.681 103.868C139.434 104.787 134.613 105.82 133.618 106.623C133.465 106.738 133.236 106.815 133.044 106.777C128.262 106.164 111.772 104.021 101.212 102.108C98.9932 101.725 98.0367 101.61 97.6541 101.572C97.501 101.61 97.3097 101.61 97.1184 101.572C96.8889 101.496 96.7358 101.343 96.6211 101.151C96.468 101.075 96.2767 100.96 95.9706 100.845C94.4785 100.156 86.8266 99.3908 85.3727 100.73C85.2579 100.807 85.2196 100.922 85.2962 101.151C85.7935 102.567 90.6525 103.026 92.4507 103.179C94.0959 103.332 94.555 103.371 94.6698 104.021C94.7463 104.366 94.5933 104.71 94.249 104.901C93.7516 105.169 92.8716 105.131 90.7291 104.901C87.5535 104.595 82.2736 104.098 80.4754 105.935C77.1851 109.226 76.8407 110.182 76.8407 110.45C77.2233 110.68 78.792 110.68 79.978 110.642C81.9676 110.603 84.4162 110.603 86.8265 111.177C91.8386 112.402 94.7463 112.325 97.0419 112.287C99.3375 112.249 101.136 112.211 103.852 113.32C104.541 113.588 105.956 114.354 107.908 115.387C115.636 119.52 133.81 129.24 141.729 126.599C141.768 126.599 141.844 126.561 141.921 126.561C142.495 126.523 143.107 126.484 143.757 126.484Z" fill="black"/>
<path fill-rule="evenodd" clip-rule="evenodd" d="M69.5333 37.0146C69.5333 37.0146 89.5049 8.65825 97.3099 21.9754C103.929 33.2644 102.781 38.2391 102.284 43.7114C102.169 44.7064 98.9168 54.1968 98.4577 55.2683C95.5882 62.2712 102.743 64.6438 102.743 64.6438L107.219 71.3789L156.613 90.7041C156.613 90.7041 164.418 83.7011 163.27 79.4917C161.701 73.7898 151.18 79.6447 147.201 56.4928C143.26 33.3409 155.886 30.2795 142.954 23.1999C130.443 16.3118 160.592 20.8656 116.555 14.4366C93.2544 11.0308 88.3188 1.5022 88.3188 1.5022C27.9066 8.19904 27.2944 44.8212 69.5333 37.0146Z" fill="white"/>
<path d="M156.651 91.5076C156.574 91.5076 156.46 91.5076 156.383 91.4694L106.99 72.1442C106.837 72.1059 106.722 71.9911 106.645 71.838L102.284 65.3325C101.442 64.9881 98.8021 63.7636 97.616 61.1614C96.7743 59.3628 96.8508 57.258 97.7691 55.0003C98.2282 53.8522 101.442 44.5532 101.557 43.673C101.595 43.2521 101.633 42.8312 101.672 42.4102C102.169 37.3589 102.666 32.6137 96.6595 22.3962C95.4352 20.3298 93.9048 19.2965 91.9918 19.22C83.3834 18.8756 70.2985 37.3206 70.1455 37.4737C70.0307 37.6268 69.8394 37.7415 69.6481 37.7798C56.3719 40.2289 45.8122 38.4304 41.3741 32.9963C39.1168 30.2028 38.6959 26.6439 40.188 23.0085C43.7079 14.4365 58.1702 4.10429 88.2806 0.736736C88.5867 0.698469 88.8928 0.85153 89.0458 1.15767C89.0841 1.23421 94.2109 10.3802 116.708 13.6712L119.768 14.1304C142.304 17.4214 142.304 17.4214 142.418 18.4546C142.533 19.1435 141.883 19.4496 141.385 19.6792C141.156 19.794 140.505 20.0619 140.467 20.2532C140.467 20.2532 140.505 20.9421 143.375 22.5493C151.027 26.7587 150.262 29.8584 148.884 35.522C147.775 40.0376 146.283 46.1605 148.004 56.3779C150.606 71.5702 155.886 73.828 159.75 75.5118C161.74 76.3537 163.423 77.0807 164.035 79.3002C165.259 83.8158 157.99 90.5509 157.148 91.278C157.034 91.4311 156.842 91.5076 156.651 91.5076ZM107.755 70.7666L156.498 89.8238C158.755 87.7191 163.385 82.5912 162.581 79.6829C162.199 78.2287 161.127 77.7313 159.176 76.8894C155.235 75.2056 149.267 72.6034 146.512 56.6075C144.714 46.0839 146.283 39.7315 147.392 35.1011C148.731 29.7053 149.267 27.4858 142.648 23.8121C140.046 22.3579 138.898 21.2482 138.937 20.1002C138.975 19.4113 139.396 18.9521 139.893 18.646C137.368 18.1485 131.093 17.2301 119.577 15.5463L116.516 15.0871C95.7413 12.064 89.3137 4.2191 87.9746 2.22918C58.8206 5.55847 44.7792 15.7377 41.6037 23.506C40.3028 26.6822 40.6472 29.5905 42.5601 31.9631C46.5774 36.9379 56.4867 38.5452 69.0359 36.2491C70.7576 33.8765 83.039 17.2301 91.9918 17.5745C94.4405 17.6893 96.43 18.9904 97.9221 21.5161C104.158 32.1545 103.623 37.3972 103.125 42.4485C103.087 42.8694 103.049 43.2903 103.011 43.7113C102.896 44.9359 99.4525 54.6941 99.1464 55.4978C98.3812 57.3346 98.3047 59.0184 98.9551 60.4343C100.065 62.8834 102.934 63.8784 102.972 63.8784C103.125 63.9166 103.278 64.0314 103.355 64.1845L107.755 70.7666Z" fill="black"/>
<path d="M133.886 198.772C133.886 198.772 164.8 207.344 166.025 207.765C167.899 208.415 167.555 215.227 164.686 215.15C163.308 215.112 140.926 215.992 138.133 215.801C135.302 215.61 126.77 212.28 126.77 212.28L133.886 198.772Z" fill="white"/>
<path d="M139.357 216.567C138.784 216.567 138.363 216.567 138.057 216.528C135.149 216.337 126.808 213.084 126.464 212.931C126.273 212.855 126.12 212.701 126.043 212.472C125.967 212.281 125.967 212.051 126.081 211.86L133.198 198.389C133.351 198.083 133.733 197.93 134.078 198.007C135.34 198.351 165.03 206.579 166.254 207C167.899 207.574 168.129 210.482 167.785 212.395C167.364 214.615 166.178 215.916 164.647 215.878C164.15 215.839 160.63 215.993 156.498 216.107C150.185 216.337 142.61 216.567 139.357 216.567ZM127.841 211.821C130.022 212.663 135.991 214.845 138.171 214.998C139.893 215.112 149.496 214.806 156.46 214.577C161.395 214.424 164.188 214.347 164.685 214.347H164.724C165.565 214.347 166.063 213.199 166.292 212.127C166.637 210.214 166.178 208.607 165.757 208.492C164.8 208.148 145.096 202.675 134.269 199.69L127.841 211.821Z" fill="black"/>
<path d="M132.586 196.859C132.433 196.859 132.279 196.82 132.165 196.744L81.4704 163.145L78.3714 161.882C78.0653 161.767 77.874 161.461 77.874 161.155C77.874 160.849 78.0653 160.542 78.3714 160.466C81.1644 159.394 147.239 134.75 162.16 142.825C163.002 143.131 171.381 146.69 171.419 156.486C171.496 175.582 134.537 195.94 132.93 196.782C132.815 196.859 132.7 196.859 132.586 196.859ZM80.7435 161.231L82.0826 161.767C82.1209 161.805 82.1591 161.805 82.2356 161.844L132.586 195.213C136.641 192.917 169.927 173.63 169.851 156.486C169.812 147.302 161.625 144.279 161.548 144.24C161.51 144.24 161.472 144.202 161.433 144.202C148.578 137.123 91.8006 157.213 80.7435 161.231Z" fill="black"/>
<path d="M107.296 178.375C107.181 178.375 107.104 178.375 106.989 178.375C105.803 178.26 105.306 177.572 105.229 177.495L106.492 176.615C106.492 176.615 106.683 176.845 107.181 176.845C107.984 176.883 109.821 176.424 113.226 172.941C114.68 171.449 115.751 169.995 116.669 168.732C119.692 164.599 121.873 161.614 132.432 163.413C145.058 165.594 152.863 151.473 152.939 151.32C153.131 150.937 153.59 150.823 153.972 151.014C154.355 151.205 154.47 151.665 154.279 152.047C154.202 152.2 145.9 167.278 132.164 164.943C122.523 163.298 120.801 165.709 117.893 169.65C116.937 170.99 115.827 172.482 114.297 174.051C111.504 176.921 109.132 178.375 107.296 178.375Z" fill="black"/>
<path d="M137.368 198.389C147.315 200.265 127.344 171.908 97.1567 164.178C58.3613 154.19 95.9324 160.313 58.6291 154.956C55.5683 154.496 45.7738 155.644 28.9012 164.331C23.9274 166.895 20.2927 170.837 19.9102 177.61C19.4128 185.723 27.8682 201.719 33.1863 207.88C35.5967 210.673 38.5809 213.122 42.1391 214.232C42.9043 214.462 43.6695 214.653 44.4347 214.845C51.0536 216.26 57.7491 214.232 63.7559 211.783C70.0688 209.219 75.6547 206.043 79.5572 200.111L81.2407 197.547C81.2407 197.547 128.147 214.768 128.874 214.538L137.368 198.389Z" fill="white"/>
<path d="M49.026 216.107C47.4574 216.107 45.8887 215.954 44.3201 215.61C43.4784 215.418 42.6749 215.227 41.948 214.997C38.6576 213.964 35.5203 211.745 32.6508 208.415C27.0266 201.872 18.686 185.684 19.1834 177.572C19.566 171.296 22.6268 166.742 28.5953 163.642C45.1235 155.109 55.3389 153.693 58.7823 154.19C64.7508 155.07 68.8446 155.644 71.5611 155.989C77.7209 156.869 77.8739 156.869 78.0652 157.558C78.5244 157.979 81.3556 159.318 97.3482 163.413C122.6 169.918 141.997 191.425 140.62 197.509C140.467 198.121 139.931 199.423 137.789 199.231L129.563 214.921C129.486 215.112 129.333 215.227 129.142 215.304C128.76 215.418 128.415 215.533 104.541 206.885C94.3257 203.173 84.0338 199.422 81.5469 198.504L80.2078 200.532C75.961 207 69.9159 210.099 64.0621 212.51C59.5475 214.347 54.3824 216.107 49.026 216.107ZM57.2902 155.606C53.1198 155.606 43.7462 157.558 29.3222 164.982C23.8128 167.852 21.0581 171.87 20.7138 177.648C20.2546 185.417 28.3275 201.03 33.7986 207.382C36.4768 210.52 39.3846 212.548 42.3688 213.505C43.0575 213.735 43.8227 213.926 44.6262 214.079C51.2068 215.495 57.8258 213.352 63.4882 211.056C69.1507 208.76 74.9279 205.775 78.9452 199.652L80.6287 197.088C80.82 196.782 81.2026 196.667 81.5469 196.782C98.8021 203.134 124.589 212.472 128.53 213.62L136.718 197.968C136.871 197.662 137.215 197.509 137.521 197.586C139.013 197.854 139.128 197.318 139.166 197.126C139.664 194.945 135.532 188.478 128.071 181.819C122.829 177.112 111.81 168.694 97.0039 164.867C79.213 160.275 77.147 159.05 76.7262 158.247C76.1905 158.132 74.5071 157.902 71.3315 157.443C68.6151 157.06 64.5213 156.486 58.5527 155.644C58.2084 155.644 57.7875 155.606 57.2902 155.606Z" fill="black"/>
<path d="M58.9736 84.0455C58.2084 81.2902 56.678 78.535 55.071 76.0859C51.4746 70.6136 46.9982 66.0597 42.4836 63.2662C41.2592 62.5009 40.0349 61.8886 38.8871 61.5442C37.5863 61.1615 34.5638 60.4727 33.3777 60.4727C28.2509 60.4727 27.1414 61.0467 24.7693 62.7687C26.6057 62.233 30.0109 63.3427 32.2682 64.2229C34.7551 65.2179 37.2802 66.251 39.7289 68.394C37.7011 67.6669 36.4768 66.9016 34.7551 66.519C33.3012 66.2128 31.4265 65.8301 30.0491 65.7153C27.7918 65.4857 25.764 66.098 23.8893 66.8633C24.9606 66.8251 26.3762 67.5522 27.5622 68.0879C28.6335 68.5471 29.7048 69.2359 30.7761 69.9247C32.2299 70.8432 33.7221 71.7999 35.1759 72.7183C33.3777 71.9912 31.503 71.1111 29.9343 70.6136C26.7205 69.5803 25.1136 69.4656 21.2111 70.0013C24.6927 71.532 29.6283 72.6035 33.8368 76.2006C29.0161 73.7515 26.2231 73.675 23.0093 74.3255C26.491 75.3587 29.2839 76.8512 32.8421 79.7595C28.5952 78.5732 23.6597 76.5451 20.1016 77.4635C22.7032 78.3819 28.1361 81.979 30.7378 84.2368C33.4542 86.5712 36.3237 90.0153 37.1654 89.9005C38.0072 89.7857 37.548 86.5711 38.3515 86.3798C41.7566 85.4614 44.4348 82.7827 48.2225 82.8975C50.4799 82.9357 53.0815 84.0072 55.6067 85.9206C56.7545 86.8008 58.1318 87.9105 58.897 87.2982C59.5092 86.7625 59.3562 85.3466 58.9736 84.0455Z" fill="black"/>
<path d="M92.4129 37.9328C92.9485 36.9379 91.5712 35.1776 90.7677 34.6036C89.2373 33.4556 89.0078 36.3256 88.8547 37.2058C88.6635 38.6599 86.3679 38.2772 86.5592 36.8231C86.9035 34.2209 88.0513 30.8916 91.3416 32.3841C93.3311 33.2642 95.5885 36.8231 94.5172 38.8895C93.905 40.1524 91.7625 39.2339 92.4129 37.9328Z" fill="black"/>
<path d="M81.5467 37.2058C82.0823 36.2108 80.705 34.4506 79.9015 33.8765C78.3711 32.7285 78.1416 35.5986 77.9885 36.4788C77.7972 37.9329 75.5017 37.5502 75.693 36.0961C76.0373 33.4939 77.1851 30.1646 80.4754 31.657C82.4649 32.5372 84.7223 36.096 83.651 38.1625C83.0388 39.4253 80.8963 38.5069 81.5467 37.2058Z" fill="black"/>
</svg>
