<svg width="108" height="218" viewBox="0 0 108 218" fill="none" xmlns="http://www.w3.org/2000/svg">
<path fill-rule="evenodd" clip-rule="evenodd" d="M17.9849 167.829C18.1286 167.722 24.5597 155.036 28.6195 149.035C33.1464 142.279 40.0805 121.868 33.5416 112.633C9.03887 78.0633 7.20657 120.215 4.36827 133.907C1.42219 148.065 -1.02091 142.998 0.488053 150.149C1.99702 157.3 -0.266396 158.235 0.344377 162.691C0.883293 166.536 5.62573 173.327 8.93108 173.004C12.2364 172.681 15.8651 169.446 17.9849 167.829Z" class="sec-color-fill"/>
<path d="M27.2186 28.9758C27.8653 35.9112 24.021 41.9483 18.7037 42.4514C13.3504 42.9545 8.50021 37.708 7.88943 30.7366C7.24273 23.8011 11.0511 17.764 16.4043 17.2609C21.7217 16.7578 26.5719 22.0043 27.2186 28.9758Z" class="sec-color-fill"/>
<path fill-rule="evenodd" clip-rule="evenodd" d="M62.8233 110.692C62.931 110.513 67.0986 96.6418 69.4339 88.9876C72.0567 80.435 82.871 72.0262 70.5118 59.0177C60.8831 48.9199 63.973 48.9199 45.1468 52.8368C34.1529 55.1007 41.9492 95.7794 44.6079 101.888C47.2306 107.997 45.4702 109.974 46.8713 113.927C48.057 117.34 53.3742 121.653 56.1406 119.82C58.8712 117.951 61.3502 113.208 62.8233 110.692Z" class="main-color-fill"/>
<path d="M47.5534 180.478C46.26 180.227 44.8948 179.832 43.5655 179.221C43.5655 179.221 42.1643 182.131 43.0265 187.126C43.0265 187.126 45.1463 187.701 47.6253 188.061C47.4456 185.545 47.5175 182.994 47.5534 180.478Z" class="main-color-fill"/>
<path d="M43.6375 189.39C43.6375 188.276 43.6734 186.875 43.8171 185.114C44.3561 178.071 44.5357 169.518 49.2063 165.17L59.7331 168.476C59.3738 173.651 56.1763 190.325 56.1763 190.325L55.9966 190.36C56.1044 190.324 56.1763 190.325 56.1763 190.325C56.6074 191.259 55.5655 194.78 54.9548 196.398C54.8829 196.649 54.775 196.829 54.7032 197.008C54.8469 196.865 54.9548 196.685 54.9548 196.505C54.9548 196.505 55.7452 195.643 54.847 201.249C54.1643 205.561 52.9787 212.676 52.9787 212.676C52.9787 212.676 59.0864 212.604 59.3738 216.557H42.2004C42.2004 216.557 41.6973 197.08 42.847 196.11C42.38 191.834 43.5656 189.354 43.5656 189.354C43.6015 189.39 43.6375 189.39 43.6375 189.39Z" fill="white"/>
<path d="M59.3737 217.276H42.2003C41.8051 217.276 41.4817 216.953 41.4817 216.593C41.4817 216.557 41.338 211.67 41.3739 206.711C41.4099 198.698 41.7691 196.613 42.0925 195.931C41.6614 191.654 42.8469 189.175 42.8829 189.067C42.8829 187.881 42.9547 186.551 43.0625 185.078C43.0984 184.503 43.1343 183.892 43.2062 183.281C43.6733 176.526 44.2122 168.835 48.6673 164.631C48.8469 164.451 49.1343 164.379 49.3858 164.451L59.9126 167.757C60.2359 167.865 60.4516 168.153 60.4156 168.476C60.0564 173.399 57.254 188.312 56.8947 190.217C57.254 191.654 56.212 194.888 55.7809 196.11C56.0683 196.613 56.1043 197.835 55.5294 201.321C54.9905 204.735 54.1282 209.981 53.8049 211.958C55.6372 212.101 59.8048 212.856 60.0922 216.45C60.0922 216.665 60.0563 216.845 59.9126 216.989C59.7689 217.204 59.5892 217.276 59.3737 217.276ZM42.9188 215.839H58.4755C57.5054 213.359 53.0145 213.395 52.9786 213.395C52.763 213.395 52.5475 213.287 52.4397 213.143C52.296 213 52.2241 212.784 52.2601 212.569C52.2601 212.497 53.4456 205.417 54.1283 201.141C54.4157 199.38 54.5234 198.338 54.5234 197.727C54.4156 197.691 54.3438 197.655 54.272 197.619C53.9845 197.404 53.8768 197.045 54.0205 196.721C54.0923 196.577 54.1642 196.362 54.2361 196.146C54.9546 194.206 55.5294 191.906 55.5294 190.971C55.3857 190.864 55.3138 190.756 55.242 190.576C55.1701 190.289 55.278 190.001 55.4935 189.822C55.9606 187.414 58.4396 174.118 58.9067 169.015L49.3139 165.997C45.5415 169.878 45.0385 177.065 44.5715 183.389C44.5355 184 44.4996 184.611 44.4278 185.186C44.32 186.767 44.2481 188.169 44.284 189.39C44.284 189.606 44.1763 189.822 44.0325 189.929C43.7811 190.648 43.1344 192.804 43.4936 196.002C43.5296 196.218 43.4577 196.434 43.314 196.577C42.8469 197.727 42.7392 207.106 42.9188 215.839Z" fill="black"/>
<path d="M6.20094 189.139C6.23686 187.522 6.30872 186.084 6.38057 184.934C6.91949 177.927 8.35663 169.302 13.0632 164.918L27.1468 162.367C26.9672 164.882 21.6858 180.263 18.6679 190.109C18.7757 190.073 18.8476 190.073 18.8476 190.073C18.9913 193.307 17.9134 195.679 17.123 196.972C17.4104 196.793 17.59 196.577 17.626 196.29C17.626 196.29 18.6679 196.182 17.123 200.494C15.65 204.627 14.0692 212.568 14.0692 212.568C14.0692 212.568 20.2128 211.993 20.5361 216.557H3.25488C3.25488 216.557 4.2968 196.793 5.51834 195.966C4.97943 191.618 6.20094 189.103 6.20094 189.103V189.139Z" fill="white"/>
<path d="M20.4995 217.276H3.21843C3.03879 217.276 2.82323 217.204 2.67952 217.06C2.53581 216.917 2.46395 216.737 2.49988 216.521C2.49988 216.485 2.75134 211.526 3.18247 206.531C3.82916 198.662 4.33216 196.469 4.72737 195.751C4.29624 191.654 5.37404 189.139 5.51775 188.815C5.55368 187.126 5.62554 185.869 5.69739 184.862C6.45187 174.693 8.71529 168.009 12.5955 164.379C12.7032 164.272 12.811 164.236 12.9547 164.2L27.0383 161.648C27.2539 161.612 27.4695 161.684 27.6491 161.828C27.8288 161.972 27.9006 162.187 27.9006 162.403C27.7928 164.164 25.5294 171.099 22.9426 179.149C21.757 182.814 20.5355 186.587 19.5654 189.786C19.6014 189.857 19.6013 189.929 19.6013 190.001C19.7091 192.517 19.0984 194.565 18.4876 195.966C18.811 196.434 18.9906 197.476 17.8409 200.674C16.6912 203.908 15.4338 209.586 14.9667 211.778C16.1882 211.814 18.272 212.029 19.7091 213.287C20.6432 214.078 21.1822 215.156 21.254 216.485C21.254 216.701 21.1822 216.881 21.0744 217.024C20.8947 217.204 20.7151 217.276 20.4995 217.276ZM3.97285 215.839H19.6732C19.5294 215.264 19.2061 214.796 18.775 214.401C17.1582 213 14.1763 213.251 14.1404 213.251C13.9248 213.287 13.7092 213.179 13.5296 213C13.3859 212.82 13.314 212.604 13.35 212.389C13.4218 212.065 14.9667 204.339 16.4397 200.207C16.8708 198.985 17.0864 198.194 17.1582 197.655C16.9786 197.655 16.763 197.583 16.6193 197.44C16.3678 197.224 16.332 196.829 16.5116 196.541C17.1224 195.499 18.1283 193.379 18.1283 190.54C17.9487 190.36 17.9127 190.109 17.9846 189.857C18.9906 186.515 20.284 182.527 21.5415 178.682C23.5893 172.357 25.6731 165.889 26.2839 163.229L13.4218 165.565C9.90091 168.979 7.85304 175.34 7.13449 184.97C7.06264 185.976 6.99078 187.342 6.95485 189.139C6.95485 189.318 6.88297 189.498 6.73925 189.642C6.48776 190.325 5.80514 192.517 6.20034 195.895C6.23627 196.11 6.12854 196.362 5.98483 196.505C5.30221 197.619 4.43991 207.034 3.97285 215.839Z" fill="black"/>
<path d="M67.9248 170.452C66.4877 170.452 64.7272 170.273 62.6075 169.949C54.7393 168.656 44.2485 165.242 42.5599 162.726C41.5898 161.289 42.3083 154.749 44.0328 141.129C44.8232 134.949 45.6137 128.588 45.8652 124.563L44.931 124.635C44.0688 131.499 40.6557 158.522 39.0389 160.462C37.494 162.295 20.7158 166.607 10.8357 165.242C6.52434 164.667 3.75788 163.122 2.64412 160.678C2.24892 159.816 3.07524 155.683 6.30873 140.842C6.99136 137.644 7.7459 134.338 8.42852 131.103C9.57821 125.749 11.2668 121.257 13.0632 116.478C14.6799 112.202 16.3326 107.782 17.8774 102.176C18.8475 98.6181 29.3743 98.5103 31.4581 98.5103H31.4941L63.5056 100.415C63.7212 100.415 63.9368 100.523 64.0446 100.738C69.3619 108.392 71.6613 130.025 72.3799 138.973C72.9547 146.124 73.278 153.563 73.2421 159.348C73.1702 168.62 72.3079 169.303 71.9487 169.554C71.1223 170.165 69.8289 170.452 67.9248 170.452ZM43.7454 161.936C45.0029 163.804 55.0268 167.254 62.859 168.548C68.8589 169.518 70.5834 168.799 70.9786 168.512C72.9187 165.637 71.4098 114.681 63.0387 101.924L31.3863 100.055C26.6079 100.02 19.7098 100.81 19.2068 102.643C17.626 108.321 15.9733 112.777 14.3566 117.089C12.5961 121.832 10.9075 126.288 9.79371 131.499C9.11108 134.733 8.39256 138.039 7.67401 141.237C5.76984 149.969 3.79385 158.989 3.93756 160.211C4.79982 162.044 6.95547 163.229 10.2967 163.804C20.1769 165.457 36.7036 160.894 37.9611 159.6C39.0748 158.055 42.0209 136.925 43.6017 123.952C43.6377 123.629 43.9251 123.341 44.2484 123.341L46.5837 123.126C46.7993 123.126 46.9789 123.162 47.1585 123.306C47.3022 123.449 47.3741 123.665 47.3741 123.845C47.2304 127.833 46.3682 134.697 45.5059 141.345C44.4281 149.502 42.9909 160.678 43.7454 161.936Z" fill="black"/>
<path d="M21.3622 41.4094C16.8712 41.4094 12.8832 36.5941 12.3083 30.3773C11.6976 23.8731 15.0389 18.2313 19.7813 17.8C22.1166 17.5844 24.416 18.6625 26.2124 20.7827C27.9729 22.8669 29.1225 25.7058 29.374 28.8321C29.7332 32.6053 28.7273 36.3066 26.7154 38.7143C25.386 40.2954 23.7334 41.2297 21.9011 41.4094C21.7215 41.3735 21.5418 41.4094 21.3622 41.4094ZM20.3202 19.1656C20.1765 19.1656 20.0328 19.1656 19.8891 19.2015C15.973 19.5609 13.2065 24.5199 13.7454 30.2336C14.2484 35.9473 17.8772 40.2954 21.7933 39.9361C23.2304 39.7923 24.5597 39.0377 25.6375 37.744C27.398 35.6239 28.2602 32.3178 27.9728 28.904C27.7213 26.1011 26.7154 23.5137 25.1346 21.681C23.7334 20.064 22.0447 19.1656 20.3202 19.1656Z" fill="black"/>
<path d="M23.0868 40.4032C24.5957 40.0079 31.6017 35.4082 41.0507 31.7788C44.7872 30.3414 66.4517 24.2324 70.7271 23.4059C70.7271 23.4059 72.5235 20.8545 71.4456 14.4581C70.3678 8.06159 66.2002 3.85718 66.2002 3.85718C66.2002 3.85718 29.0508 16.5782 18.9551 17.0094C18.9551 17.0094 24.488 18.339 26.7874 23.2622C28.7993 27.5744 28.9431 31.9585 27.7215 34.9052C25.8533 39.3971 23.0868 40.4032 23.0868 40.4032Z" fill="white"/>
<path d="M23.0867 41.122C22.7634 41.122 22.5119 40.9064 22.4041 40.6189C22.2964 40.2596 22.476 39.8643 22.8353 39.7206C22.8712 39.7206 25.3502 38.7144 27.0748 34.5818C28.2963 31.5992 27.973 27.3948 26.1766 23.5138C24.0568 18.986 18.8832 17.6923 18.8114 17.6564C18.4521 17.5845 18.2365 17.2611 18.2724 16.9017C18.3084 16.5424 18.5958 16.2549 18.955 16.2549C28.8352 15.8596 65.6254 3.31825 65.9847 3.17451C66.2362 3.10264 66.5235 3.13857 66.7391 3.35418C66.9187 3.53386 71.1224 7.7742 72.2002 14.3503C73.314 20.9624 71.4097 23.6935 71.3379 23.8372C71.2301 23.981 71.0504 24.0888 70.8708 24.1247C66.5954 24.9512 45.0387 30.9883 41.3022 32.4617C35.2304 34.7974 30.2365 37.5285 26.9311 39.3253C25.0269 40.3674 23.8772 40.9783 23.2664 41.122C23.1945 41.122 23.1586 41.122 23.0867 41.122ZM21.9371 17.4048C23.8053 18.3751 26.1407 20.064 27.47 22.9388C29.446 27.1433 29.8053 31.8148 28.4041 35.1568C28.0089 36.0911 27.6137 36.8457 27.1826 37.5285C30.4879 35.7317 35.1944 33.2882 40.7992 31.0961C44.4998 29.6587 65.302 23.8013 70.296 22.7592C70.6553 22.0405 71.6253 19.525 70.799 14.5659C69.9367 9.46315 66.9906 5.76183 66.0205 4.68378C61.9248 6.08525 34.0088 15.5003 21.9371 17.4048Z" fill="black"/>
<path d="M29.8413 14.961C29.8413 14.961 29.9131 14.5298 30.991 14.8532C30.991 14.8532 34.4041 16.1468 35.7693 24.0526C37.1346 31.8146 34.44 34.5456 34.44 34.5816L33.47 35.0487C33.47 35.0487 36.2723 32.2458 34.7993 23.7292C33.6137 16.614 29.8413 14.961 29.8413 14.961Z" fill="black"/>
<path d="M37.4572 109.758C31.565 109.758 25.0621 108.788 18.7029 105.949C18.2718 106.165 17.9485 106.057 17.7688 105.877C16.9425 105.302 17.3017 104.08 19.7089 97.576C21.3616 93.0841 23.4454 87.5142 23.8406 84.1363C24.3076 80.3271 25.098 75.1165 25.7088 71.1277C23.0501 77.057 20.4634 81.4052 20.4274 81.4411C20.2478 81.7286 19.8886 81.8723 19.5652 81.7286L11.8766 78.8179C11.5892 78.7101 11.4095 78.4585 11.4095 78.171C11.3377 76.518 11.0503 75.6915 10.7988 74.9369C10.2599 73.3198 10.0084 72.1699 11.4455 67.678C11.6251 67.103 12.5952 65.2344 13.8526 62.8626C14.3556 61.9283 14.8946 60.8503 14.9664 60.6706C15.3976 59.6285 15.7568 56.5021 16.1161 53.5195C16.691 48.6323 17.1221 45.3622 17.8765 44.1404C19.4214 41.625 22.4753 40.5469 25.7088 39.397C27.1818 38.858 28.7267 38.3189 30.1998 37.6002C38.2117 33.7911 47.984 32.4256 48.3792 32.3896C48.4511 32.3896 48.5229 32.3896 48.5948 32.3896L61.7444 34.4739C61.9958 34.5098 62.2114 34.6895 62.3192 34.941L72.0916 60.8862C72.1275 61.03 72.1634 61.1737 72.1274 61.3174L65.7324 85.1424C65.7324 85.1784 65.7323 85.1784 65.6964 85.2143C63.7563 90.4608 63.7563 97.4323 65.6964 102.104C65.8401 102.427 65.6964 102.823 65.3731 103.002C65.1216 103.146 59.1575 106.308 50.3193 108.249C46.7265 109.111 42.3074 109.758 37.4572 109.758ZM18.9185 104.44C18.9544 104.44 18.9544 104.44 18.9903 104.476C38.7865 113.567 60.415 103.901 64.1875 102.068C62.3551 97.037 62.4269 90.2093 64.403 84.7831L70.7263 61.2096L61.2054 35.8754L48.5948 33.863C47.5169 34.0067 38.2835 35.4441 30.9183 38.9298C29.3734 39.6845 27.7926 40.2235 26.2837 40.7625C23.158 41.8765 20.4634 42.8468 19.17 44.8951C18.5233 45.9372 18.0203 50.2135 17.6251 53.6633C17.2299 57.0412 16.8706 59.9519 16.3676 61.1737C16.2598 61.3893 15.9005 62.1439 15.182 63.5095C14.3197 65.1266 13.0263 67.6061 12.8826 68.1092C11.5174 72.3855 11.8048 73.212 12.2 74.4697C12.4515 75.1884 12.7389 76.0868 12.8466 77.632L19.5292 80.1834C20.5711 78.3866 23.9843 72.1339 26.7148 65.0188C26.8585 64.6594 27.2177 64.4797 27.577 64.5875C27.9363 64.6953 28.1519 65.0188 28.1159 65.4141C28.08 65.5219 26.1759 77.3086 25.3136 84.3159C24.8825 87.8735 22.7628 93.5153 21.0742 98.0791C20.176 100.523 19.17 103.218 18.9185 104.44Z" fill="black"/>
<path d="M89.4453 53.9507C89.8405 53.6991 90.1998 53.6632 90.4872 53.6991C85.9962 46.4762 87.7208 32.1021 87.4693 29.5867C84.5951 27.9696 90.8105 25.3822 90.8105 25.3822L97.8164 24.8792C98.2476 28.4367 98.3553 30.6288 98.3553 30.6288C109.852 52.4414 109.78 63.8328 98.7146 69.7621C97.6368 71.3792 86.5711 66.4561 86.5711 66.4561C86.5711 66.4561 78.4873 61.4252 71.4455 60.4549C72.6311 57.0051 63.254 59.8081 54.6672 59.8081C39.362 59.8081 60.9186 35.7315 60.9186 35.7315V34.905C60.9186 34.8691 81.0023 41.9483 89.4453 53.9507Z" fill="white"/>
<path d="M97.7442 70.8043C96.7023 70.8043 94.9419 70.4449 91.9958 69.4028C89.0856 68.3607 86.2833 67.1389 86.2473 67.1029C86.2114 67.1029 86.1755 67.067 86.1755 67.067C86.1036 67.0311 78.1636 62.072 71.3373 61.1736C71.1217 61.1377 70.9421 61.0299 70.8343 60.8502C70.7266 60.6706 70.6907 60.4549 70.7625 60.2393C70.7984 60.1675 70.8702 59.9159 70.7984 59.8081C70.2595 59.1253 66.523 59.5566 63.505 59.88C60.7745 60.1675 57.6848 60.5268 54.6668 60.5268C51.613 60.5268 49.6728 59.5925 48.8824 57.7957C46.1878 51.7227 58.1159 37.8517 60.2356 35.4441V34.9051C60.2356 34.6895 60.3434 34.4379 60.5231 34.3301C60.7027 34.1864 60.9541 34.1504 61.1697 34.2223C61.9601 34.5098 79.7444 40.8703 88.7623 51.8664C86.2833 45.8653 86.5707 37.3486 86.7504 32.4974C86.7863 31.4194 86.8222 30.5569 86.7863 29.9819C86.1036 29.4789 85.9959 28.9039 85.9959 28.5086C86.1036 26.7119 89.4809 25.1666 90.5228 24.7354C90.5947 24.6995 90.6665 24.6995 90.7383 24.6995L97.7442 24.1964C98.1394 24.1605 98.4628 24.4479 98.4987 24.8073C98.894 27.8618 99.0017 29.8741 99.0377 30.4491C104.894 41.589 107.66 49.7822 107.696 56.1787C107.732 62.5751 104.93 67.2107 99.1813 70.3371C98.9298 70.5886 98.5346 70.8043 97.7442 70.8043ZM86.8941 65.8093C92.1754 68.1451 97.2772 69.7621 98.1395 69.3309C98.2113 69.259 98.2831 69.1872 98.355 69.1512C109.133 63.4016 108.954 52.3336 97.7084 30.9881C97.6724 30.8803 97.6364 30.8085 97.6364 30.7006C97.6364 30.6647 97.5287 28.7602 97.1694 25.6697L90.9898 26.101C89.1575 26.8915 87.4689 28.0774 87.433 28.5805C87.433 28.6523 87.5408 28.7961 87.8282 28.9398C88.0438 29.0476 88.1875 29.2632 88.1875 29.5148C88.2234 30.0898 88.2234 31.1319 88.1515 32.5333C87.9719 37.8517 87.6126 47.7698 91.0976 53.3398C91.2413 53.5913 91.2413 53.8788 91.0976 54.0944C90.9539 54.31 90.7024 54.4538 90.415 54.4178C90.1994 54.3819 90.0198 54.4538 89.8042 54.5616C89.4809 54.7413 89.0497 54.6694 88.8341 54.346C81.6486 44.1404 65.6248 37.4565 61.6009 35.9112C61.565 36.019 61.529 36.0909 61.4572 36.1987C57.6129 40.475 48.128 52.6211 50.1759 57.1848C50.7507 58.4426 52.2597 59.0535 54.6668 59.0535C57.6129 59.0535 60.6668 58.7301 63.3613 58.4066C68.3194 57.8676 70.9421 57.652 71.9481 58.8738C72.1277 59.0894 72.2715 59.3769 72.2715 59.8081C78.99 60.994 86.2114 65.3781 86.8941 65.8093Z" fill="black"/>
<path d="M58.4033 36.5581C58.4033 36.5581 60.8464 35.8394 60.9182 34.1145L61.6728 35.1926C61.6728 35.1926 63.2894 36.9893 60.9182 40.6547C60.9182 40.6906 61.1338 37.2768 58.4033 36.5581Z" fill="white"/>
<path d="M61.0984 33.324L60.8828 34.6177C60.8828 34.6177 60.9546 36.1269 58.4038 36.5941C54.7391 37.2769 49.0985 31.4913 49.0985 31.4913C43.6375 16.5423 47.9129 5.18677 60.2002 9.64273C72.4515 14.0628 68.7869 28.1853 68.1043 30.2695C67.2779 32.749 61.278 32.4256 61.278 32.4256L61.1702 33.1443L61.0984 33.324Z" fill="white"/>
<path d="M57.8285 37.3488C53.9124 37.3488 48.8465 32.2101 48.595 31.9585C48.5231 31.8867 48.4513 31.8148 48.4513 31.707C45.0381 22.3639 45.3256 14.1706 49.2058 10.2896C51.0022 8.45695 54.4512 6.768 60.4512 8.92411C65.8044 10.8646 69.038 14.9253 69.7206 20.7108C70.2954 25.598 68.9302 29.9462 68.7865 30.4493C67.9961 32.9288 63.6128 33.1444 61.8883 33.1444L61.6368 34.6896C61.6009 35.1208 61.3135 36.7738 58.5829 37.2769C58.2955 37.3129 58.08 37.3488 57.8285 37.3488ZM49.7447 31.0602C51.3256 32.6413 55.6728 36.3426 58.2955 35.8395C60.1278 35.4802 60.1638 34.6177 60.1638 34.5818C60.1638 34.5459 60.1638 34.5099 60.1638 34.4381L60.3793 33.1444L60.5231 32.246C60.595 31.8867 60.9183 31.6351 61.2775 31.6351C63.0739 31.707 66.9182 31.4195 67.3853 29.9462C67.6008 29.3353 72.2355 14.6737 59.9123 10.2178C55.7087 8.70849 52.3315 9.03191 50.1399 11.224C46.7627 14.7456 46.5831 22.3279 49.7447 31.0602Z" fill="black"/>
<path d="M61.1699 10.074C60.1639 8.49283 58.4394 7.4507 56.643 6.98355C54.8466 6.48045 52.9066 6.48046 51.0024 6.55233C47.733 6.73201 44.4276 7.16323 41.1941 7.91786C42.4875 8.70844 44.1402 9.75056 45.4336 10.5052C43.0624 12.302 41.3019 10.9005 36.8828 13.2722C38.3199 13.7034 41.5893 15.8595 43.4216 15.9314C40.6192 17.5126 39.3259 18.1235 36.7031 21.2858C38.2839 20.6749 41.194 20.7827 42.8467 20.7827C41.4815 23.1544 39.1821 26.0651 37.8168 28.4369C39.5054 27.8978 42.1282 27.6822 43.7809 27.1432C41.8767 29.2634 40.5473 31.0242 39.9725 33.7912C42.4874 32.2101 45.2898 31.2039 48.164 30.8805C49.2778 30.7726 50.5353 31.707 51.3975 30.9523C52.4035 30.0899 52.5832 27.6463 52.7988 26.3526C53.2299 23.7294 53.8766 21.0701 55.17 18.6984C56.4634 16.3267 58.4754 14.2425 60.9544 13.3081C61.3855 13.1285 61.9244 12.9488 62.0681 12.5176C62.1759 12.2301 62.104 11.9067 61.9962 11.6192C61.7807 10.8286 61.6369 10.7927 61.1699 10.074Z" fill="black"/>
<path d="M45.5773 14.494C45.5773 14.494 38.9307 20.0999 38.9307 23.0106C38.9307 26.4244 74.3915 7.91788 74.0681 6.73202C73.7807 5.54616 69.0382 4.75559 60.7389 6.76795C60.7748 6.76795 53.1222 8.67251 45.5773 14.494Z" fill="white"/>
<path d="M39.6492 24.1245C39.2181 24.1245 39.0384 24.0167 38.8947 23.9808C38.4995 23.8011 38.248 23.4418 38.248 23.0105C38.248 19.8842 44.4276 14.5658 45.1461 13.9549C45.1461 13.9549 45.1461 13.9549 45.182 13.919C52.7268 8.09745 60.3076 6.15695 60.6309 6.08508C68.2117 4.25238 74.3194 4.43207 74.8224 6.55224C74.9661 7.09127 74.4991 7.48655 74.2476 7.70216C72.4512 9.1755 64.5112 13.5596 56.5712 17.4406C44.7869 23.2262 41.0144 24.1245 39.6492 24.1245ZM39.6852 22.7231C39.7211 22.7231 39.7211 22.7231 39.6852 22.7231C40.9426 22.7231 45.6132 21.2497 56.9305 15.6438C64.6549 11.7988 71.4452 7.98965 73.1338 6.73192C72.056 6.22883 68.2477 5.6898 60.9543 7.48656C60.8825 7.48656 53.3377 9.42705 46.0443 15.0689C43.6731 17.0453 40.0444 20.7466 39.6852 22.7231Z" fill="black"/>
<path d="M43.7812 13.1644C43.8172 10.0021 44.6076 5.15082 48.9189 2.59942C52.9069 0.227703 57.326 1.91666 60.272 3.71341C62.284 4.93521 63.6133 6.19294 63.6133 6.19294C63.6133 6.19294 55.1344 13.919 43.9969 16.111C43.9969 16.111 43.7812 14.8892 43.7812 13.1644Z" fill="white"/>
<path d="M43.9968 16.8297C43.8531 16.8297 43.7094 16.7938 43.6016 16.7219C43.4579 16.6141 43.3501 16.4345 43.3141 16.2548C43.3141 16.2188 43.0986 14.9611 43.0986 13.1644C43.1346 9.53489 44.1045 4.6477 48.5955 1.9885C52.8709 -0.526967 57.5056 1.19793 60.6673 3.10249C62.7152 4.36022 64.0804 5.61796 64.1164 5.68983C64.2601 5.83357 64.3319 6.01325 64.3319 6.22886C64.3319 6.44447 64.2601 6.62415 64.0804 6.76789C63.7211 7.0913 55.314 14.6377 44.1045 16.8657C44.1045 16.8297 44.0328 16.8297 43.9968 16.8297ZM44.4998 13.1644C44.4998 14.0268 44.5357 14.7455 44.6076 15.2486C53.374 13.2722 60.4517 7.88187 62.4996 6.15698C61.9248 5.68983 61.0266 5.00705 59.8769 4.28835C57.0745 2.59939 52.9428 1.01825 49.2782 3.17437C45.398 5.54609 44.5357 9.89425 44.4998 13.1644Z" fill="black"/>
<path d="M62.4995 21.1779C62.4635 22.1841 61.709 22.9747 60.8108 22.9747C59.9126 22.9388 59.2301 22.1123 59.266 21.1061C59.3019 20.0999 60.0564 19.3093 60.9186 19.3093C61.8168 19.3093 62.5354 20.1718 62.4995 21.1779Z" fill="black"/>
<path d="M69.0738 17.6921C69.0379 18.6983 68.2835 19.4889 67.4212 19.4889C66.5231 19.4529 65.8404 18.6264 65.8764 17.6202C65.9123 16.6141 66.6668 15.8235 67.529 15.8235C68.3913 15.8594 69.1098 16.6859 69.0738 17.6921Z" fill="black"/>
<path d="M107.804 22.256L67.6371 18.8781C67.0263 18.8062 66.5952 18.3031 66.5952 17.6922C66.5952 17.0814 66.9904 16.5783 67.6012 16.4705C70.8706 15.3205 72.3077 12.6973 77.0861 11.7989C83.1938 10.649 93.541 11.1161 107.517 8.52881L107.804 22.256Z" fill="black"/>
<path d="M68.14 17.3688C67.8166 17.4766 67.4933 17.5484 67.1699 17.6203C66.9544 17.6922 66.7746 17.6922 66.5591 17.6922C66.595 18.2671 67.0262 18.7702 67.601 18.8421L107.768 22.22L107.517 10.6848C103.457 11.4395 74.104 17.0453 68.14 17.3688Z" fill="#1C1E00"/>
<path d="M99.9 29.5509L61.0262 22.3998C60.4155 22.292 59.9484 21.717 59.9844 21.1061C59.9844 20.4593 60.4873 19.9203 61.0981 19.8484L100.295 14.9253L99.9 29.5509Z" fill="white"/>
<path d="M60.1999 20.4231C60.0921 20.6028 59.9844 20.8184 59.9844 21.07C59.9844 21.7168 60.4155 22.2558 61.0262 22.3996L71.5171 25.6697L79.0979 26.7118C95.6247 33.3239 95.6607 30.1975 99.8642 29.5507L100.224 17.3687C95.2655 19.7763 93.3254 22.2918 88.3673 21.2496C80.1399 19.5248 68.607 19.9919 60.1999 20.4231Z" fill="black"/>
</svg>
