<svg width="327" height="87" viewBox="0 0 327 87" fill="none" xmlns="http://www.w3.org/2000/svg">
<path fill-rule="evenodd" clip-rule="evenodd" d="M130.789 8.76402C126.154 7.07507 122.059 14.7292 123.891 16.3822C125.939 18.2508 131.831 22.7427 135.28 20.9819C148.142 14.4777 135.244 10.417 130.789 8.76402Z" class="main-color-fill"/>
<path fill-rule="evenodd" clip-rule="evenodd" d="M120.909 69.3506C121.34 69.4584 150.262 73.8066 165.747 70.7162C192.261 65.4337 223.339 54.5095 233.327 39.6682C267.817 -11.6112 202.321 36.1106 160.645 31.3672C125.543 27.3424 137.4 25.5097 127.34 33.0561C117.28 40.6025 112.538 38.4105 105.783 42.7227C99.9628 46.4241 94.8611 57.8514 99.891 61.8402C104.885 65.7931 115.232 67.9132 120.909 69.3506Z" class="main-color-fill"/>
<path d="M129.459 16.2744L129.495 15.1605L131.866 13.7231C132.908 13.0762 134.274 13.3637 134.992 14.334L135.639 15.1964C136.357 16.1666 136.285 17.4962 135.423 18.3227L133.627 20.1194L131.507 21.4491C131.471 22.0959 131.399 22.7427 131.363 23.3895C131.22 24.8269 131.004 26.2644 130.753 27.7377C130.465 29.1751 130.178 30.6125 129.783 32.0858C129.387 33.5232 128.92 34.9966 128.345 36.434C128.058 37.1886 127.519 37.7994 126.872 38.1947L126.549 38.4104C124.537 39.6322 122.489 40.4227 120.513 40.9977C118.501 41.5726 116.525 41.932 114.585 42.1476C112.609 42.3991 110.705 42.471 108.765 42.471C107.795 42.471 106.861 42.435 105.891 42.3991C105.424 42.3632 104.921 42.3273 104.453 42.2914L103.735 42.2194L102.945 42.1117C100.25 41.8242 98.3457 39.3806 98.6332 36.7215C98.9206 34.1341 101.184 32.2655 103.771 32.4093L105.172 32.4811L106.394 32.553C107.22 32.5889 108.046 32.6248 108.873 32.6248C110.525 32.6607 112.142 32.6248 113.723 32.517C114.513 32.4811 115.304 32.4092 116.094 32.3014C116.849 32.2296 117.639 32.1218 118.358 31.9421C119.399 31.7265 120.405 31.4749 121.304 31.1515C121.627 30.5406 121.914 29.9297 122.202 29.3188C122.741 28.133 123.316 26.9471 123.819 25.6893C124.357 24.4676 124.86 23.2099 125.399 21.9521C125.687 21.3053 125.938 20.6226 126.226 19.9757C125.04 18.5383 125.22 16.2026 124.645 14.6214C124.537 14.334 124.896 13.9746 125.148 13.9746C125.651 14.0105 126.154 15.2683 126.19 15.6995C126.226 15.987 127.016 16.2026 127.735 16.5619C128.633 15.7713 129.603 15.2323 129.603 15.2323L129.459 16.2744Z" fill="white"/>
<path d="M108.693 43.154C107.759 43.154 106.789 43.154 105.747 43.0821C105.244 43.0462 104.741 43.0102 104.274 42.9743L102.729 42.7946C99.6753 42.4353 97.4478 39.6683 97.8071 36.6138C98.1304 33.667 100.717 31.475 103.699 31.6547L106.789 31.7984C107.436 31.8343 108.082 31.8343 108.729 31.8343C110.346 31.8703 111.963 31.8343 113.543 31.7265C114.406 31.6546 115.16 31.6188 115.843 31.5109C116.705 31.4031 117.424 31.2953 118.034 31.1875C119.004 31.0078 119.867 30.7563 120.621 30.5047C120.873 30.0016 121.124 29.4626 121.376 28.9595L121.699 28.2408C122.13 27.3065 122.561 26.3362 122.957 25.366C123.388 24.3238 123.855 23.2817 124.25 22.2396L124.501 21.6287C124.717 21.0897 124.933 20.5507 125.148 20.0116C124.465 19.0054 124.286 17.7117 124.106 16.5618C123.998 15.915 123.891 15.2681 123.747 14.765C123.639 14.4416 123.711 14.0104 123.962 13.687C124.214 13.3276 124.609 13.148 125.004 13.1839C126.01 13.2558 126.513 14.6932 126.657 15.3041C126.765 15.3759 126.98 15.4478 127.16 15.5197C127.268 15.5556 127.34 15.5915 127.447 15.6274C128.202 15.0165 128.921 14.6213 129.1 14.5135L131.471 13.0761C132.837 12.2496 134.597 12.573 135.567 13.8666L136.214 14.7291C137.148 15.9868 137.04 17.7117 135.926 18.8257L134.13 20.5865C134.094 20.6225 134.022 20.6584 133.986 20.6944L132.19 21.8084C132.154 22.3115 132.118 22.8145 132.046 23.3535V23.3895C131.903 24.7191 131.723 26.1206 131.435 27.7736C131.184 29.1032 130.861 30.6485 130.429 32.1937C129.962 33.9186 129.495 35.32 128.956 36.6496C128.597 37.5121 127.986 38.2667 127.196 38.7339L126.873 38.9495C125.004 40.0995 122.957 40.9619 120.657 41.6087C118.789 42.1478 116.777 42.5431 114.585 42.7946C112.861 43.0462 110.957 43.154 108.693 43.154ZM103.376 33.0921C101.292 33.0921 99.4957 34.6732 99.2442 36.7934C98.9927 39.0574 100.645 41.1416 102.909 41.3932L104.418 41.5369C104.885 41.5728 105.352 41.6088 105.819 41.6447C106.789 41.7166 107.759 41.7166 108.657 41.7166C110.849 41.7166 112.681 41.6088 114.406 41.3932C116.525 41.1416 118.43 40.7822 120.226 40.2791C122.418 39.6682 124.322 38.8417 126.082 37.7637L126.406 37.548C126.944 37.2246 127.34 36.7215 127.591 36.1466C128.094 34.8888 128.561 33.5233 129.028 31.8703C129.423 30.3969 129.747 28.8876 129.998 27.5939C130.286 25.9768 130.465 24.6113 130.609 23.3177V23.2817C130.681 22.6708 130.717 22.024 130.753 21.4131C130.753 21.1975 130.897 20.9818 131.076 20.8381L133.16 19.5445L134.885 17.8195C135.495 17.2446 135.531 16.2743 135.028 15.6274L134.382 14.765C133.879 14.0823 132.908 13.9026 132.19 14.3338L130.178 15.5556L130.142 16.2743C130.142 16.6696 129.783 16.9931 129.388 16.9571C129.064 16.9571 128.813 16.7415 128.741 16.454C128.525 16.5977 128.31 16.8133 128.058 16.993C127.843 17.1727 127.519 17.2446 127.268 17.1008C127.052 16.993 126.837 16.9211 126.621 16.8133C126.226 16.6337 125.795 16.49 125.543 16.2384C125.543 16.2744 125.543 16.2743 125.543 16.3103C125.723 17.4602 125.903 18.646 126.549 19.4007C126.729 19.6163 126.765 19.9038 126.657 20.1194L126.585 20.335C126.334 20.91 126.118 21.5208 125.867 22.0958L125.615 22.7068C125.184 23.7489 124.753 24.791 124.286 25.8331C123.891 26.8034 123.424 27.8095 122.992 28.7439L122.669 29.4626C122.382 30.1094 122.058 30.7204 121.735 31.3313C121.663 31.475 121.519 31.6188 121.34 31.6906C120.442 32.014 119.436 32.3015 118.286 32.5171C117.603 32.6608 116.885 32.7686 115.987 32.8764C115.268 32.9842 114.478 33.0561 113.579 33.0921C111.963 33.1999 110.31 33.2358 108.657 33.1999C108.011 33.1999 107.328 33.1639 106.681 33.1639L104.957 33.0921L103.556 33.0202C103.556 33.0921 103.448 33.0921 103.376 33.0921ZM126.765 15.5556C126.765 15.5915 126.765 15.5915 126.765 15.5556C126.765 15.5915 126.765 15.5915 126.765 15.5556Z" fill="black"/>
<path d="M93.2804 14.9089C93.3163 14.873 93.3522 14.8371 93.3882 14.7652C93.4241 14.6574 93.3522 14.5136 93.2085 14.4777C91.987 14.1543 91.2325 14.873 91.1966 14.873C91.0888 14.9449 91.0888 15.0886 91.1966 15.1964C91.2684 15.3043 91.4121 15.3043 91.5199 15.1964C91.5558 15.1605 92.1666 14.6574 93.1367 14.9089C93.1367 14.9808 93.2085 14.9449 93.2804 14.9089Z" fill="black"/>
<path d="M83.0048 24.6833C82.8611 24.4677 82.7174 24.2879 82.5377 24.0723C79.7354 20.2272 81.7114 14.7292 86.5975 13.8308C91.5196 12.9324 95.8669 18.5024 97.2681 22.6349C98.3459 25.6894 97.0166 28.9595 94.5376 30.4329C94.6094 31.4031 94.7891 32.3374 95.2202 33.092C98.6693 32.2296 102.046 32.0499 104.49 32.553C109.304 33.4873 113.759 37.548 118.034 42.1836C136.753 47.1427 137.723 56.8092 137.723 56.8092L119.148 75.1002C99.2441 70.8598 83.5796 53.2875 82.5377 41.3211C83.7234 39.165 85.6275 37.4042 87.9269 36.0387C87.9269 33.7389 86.849 31.0437 85.6994 28.9235C84.7293 29.1032 83.5437 28.9236 82.5018 28.3127C81.2443 27.558 80.921 25.9409 82.0707 25.0785C82.3581 24.791 82.6814 24.7192 83.0048 24.6833Z" fill="white"/>
<path d="M119.148 75.7471C119.112 75.7471 119.04 75.7471 119.004 75.7471C109.699 73.7707 100.573 68.7398 93.2801 61.5527C86.6693 55.0484 82.394 47.4661 81.855 41.3212C81.855 41.1774 81.855 41.0337 81.9269 40.9259C83.0406 38.9136 84.8011 37.1168 87.2083 35.5715C87.1005 33.5592 86.1664 31.2953 85.3041 29.6064C84.1903 29.6782 83.0766 29.3908 82.1424 28.8158C81.2442 28.2768 80.7053 27.3784 80.6694 26.444C80.6335 25.6175 80.9928 24.8988 81.6754 24.3957C81.7473 24.3598 81.7832 24.3239 81.855 24.2879C80.4539 22.2755 80.1664 19.7241 81.0646 17.4602C81.9987 15.1244 83.9388 13.5433 86.4538 13.0762C91.8429 12.07 96.4058 17.8915 97.9507 22.3475C99.0285 25.4738 97.9148 28.9235 95.292 30.7203C95.3639 31.2953 95.4717 31.7624 95.6154 32.1577C98.9207 31.4031 102.19 31.2593 104.633 31.7265C109.771 32.7327 114.298 36.973 118.43 41.429C137.22 46.4959 138.405 56.2343 138.441 56.6296C138.477 56.8452 138.369 57.0609 138.226 57.2046L119.651 75.4956C119.507 75.6753 119.328 75.7471 119.148 75.7471ZM83.2921 41.429C84.5137 53.3236 100.178 70.1054 118.933 74.2738L136.968 56.5218C136.573 54.8688 133.914 47.0709 117.855 42.8305C117.711 42.7946 117.603 42.7227 117.495 42.6149C113.687 38.4823 109.124 34.1342 104.346 33.1999C102.011 32.7327 98.6692 32.9483 95.3998 33.7389C95.0765 33.8108 94.789 33.667 94.6094 33.4154C94.1423 32.6608 93.8908 31.6906 93.819 30.4329C93.819 30.1813 93.9268 29.8938 94.1783 29.786C96.5136 28.4205 97.5196 25.5097 96.6214 22.8505C95.292 19.0054 91.2322 13.6871 86.7412 14.5136C84.7293 14.8729 83.1484 16.1666 82.4299 17.9993C81.6754 19.8679 81.9628 21.9881 83.1484 23.6052L83.5795 24.2161C83.7233 24.4317 83.7592 24.6832 83.6514 24.9348C83.5436 25.1863 83.3281 25.33 83.0766 25.366C82.861 25.4019 82.6814 25.4378 82.5377 25.5457C82.1784 25.7972 82.1065 26.1566 82.1065 26.3722C82.1424 26.8393 82.4299 27.2705 82.897 27.5939C83.6874 28.097 84.6933 28.2767 85.5915 28.133C85.9149 28.097 86.2023 28.2408 86.346 28.4923C87.3879 30.4688 88.6095 33.3436 88.6454 35.9309C88.6454 36.1824 88.5017 36.4341 88.2861 36.5419C86.0227 37.9793 84.3341 39.5963 83.2921 41.429Z" fill="black"/>
<path d="M95.7591 16.5977C96.4776 17.7836 96.1543 19.2928 95.0405 19.9397C93.9267 20.6224 92.4537 20.1912 91.7352 19.0054C91.0166 17.8195 91.3759 16.3102 92.4537 15.6634C93.5675 15.0166 95.0764 15.4478 95.7591 16.5977Z" fill="black"/>
<path d="M134.31 11.7825C134.777 14.837 132.657 17.7118 129.567 18.143C126.514 18.6101 123.639 16.49 123.208 13.3995C122.741 10.3451 125.112 9.19513 128.202 8.72798C131.256 8.29676 133.843 8.72798 134.31 11.7825Z" fill="white"/>
<path d="M128.741 19.0414C127.376 19.0414 126.046 18.6102 124.897 17.7836C123.531 16.7415 122.633 15.2682 122.382 13.5433C122.202 12.2497 122.418 11.1356 123.1 10.2372C123.998 9.05133 125.615 8.29668 128.094 7.90139C129.963 7.61391 131.436 7.72179 132.549 8.15301C134.022 8.72798 134.885 9.91383 135.136 11.6387C135.639 15.1604 133.196 18.4305 129.711 18.9695C129.388 19.0414 129.064 19.0414 128.741 19.0414ZM130.07 9.44663C129.531 9.44663 128.957 9.48262 128.31 9.59043C126.298 9.87791 125.04 10.4169 124.43 11.2434C124.034 11.7824 123.927 12.4293 124.034 13.2917C124.214 14.5494 124.897 15.6635 125.903 16.4182C126.909 17.1728 128.202 17.4962 129.46 17.3165C132.046 16.9213 133.879 14.5135 133.483 11.8903C133.304 10.7763 132.837 10.0575 131.939 9.69816C131.436 9.55442 130.825 9.44663 130.07 9.44663Z" fill="black"/>
<path d="M132.908 10.3092C133.052 11.2795 131.184 12.3575 128.741 12.7168C126.298 13.0761 124.214 12.573 124.07 11.6028C123.927 10.6326 125.795 9.55459 128.238 9.19525C130.681 8.83591 132.765 9.33902 132.908 10.3092Z" fill="black"/>
<path d="M127.196 13.0045C125.975 13.0045 124.933 12.7889 124.358 12.3576C124.071 12.142 123.927 11.9264 123.891 11.6389C123.855 11.3873 123.927 11.0998 124.143 10.8123C124.753 10.0217 126.334 9.30299 128.202 9.0155C130.071 8.728 131.795 8.94362 132.622 9.55455C132.909 9.77017 133.053 9.98579 133.089 10.2733C133.125 10.5608 133.053 10.8123 132.837 11.0998C132.226 11.8904 130.646 12.6092 128.777 12.8967C128.238 12.9685 127.699 13.0045 127.196 13.0045ZM129.783 9.26704C129.28 9.26704 128.777 9.30299 128.238 9.37486C126.478 9.62642 124.933 10.3093 124.394 11.028C124.25 11.2077 124.179 11.4233 124.215 11.567C124.25 11.7467 124.358 11.8904 124.538 12.0341C125.256 12.5732 126.909 12.7529 128.669 12.5013C130.43 12.2498 131.975 11.567 132.514 10.8483C132.657 10.6686 132.729 10.453 132.693 10.3093C132.657 10.1296 132.55 9.9858 132.37 9.84206C131.903 9.48269 130.933 9.26704 129.783 9.26704Z" fill="black"/>
<path d="M126.693 12.2858L123.424 6.67985L121.448 9.66248L120.909 9.30313L123.496 5.42212L127.268 11.9623L126.693 12.2858Z" fill="black"/>
<path d="M45.6761 23.6412C45.5683 23.6412 45.4246 23.6053 45.3168 23.5693L0.514862 2.33157C0.0837284 2.11596 -0.0959019 1.64886 0.119665 1.21763C0.335232 0.786412 0.802285 0.6067 1.23342 0.822312L46.0354 22.0601C46.4665 22.2757 46.6462 22.7428 46.4306 23.174C46.2869 23.4615 45.9635 23.6412 45.6761 23.6412Z" fill="black"/>
<path d="M259.518 32.9125C259.195 32.9125 258.907 32.7329 258.763 32.4095C258.584 31.9782 258.763 31.511 259.195 31.2954L308.416 9.37484C308.703 9.2311 309.062 9.30294 309.314 9.51855L326.38 24.9349C326.739 25.2583 326.739 25.7614 326.451 26.1208C326.128 26.4801 325.625 26.4801 325.266 26.1926L308.595 11.1356L259.877 32.8407C259.734 32.8766 259.626 32.9125 259.518 32.9125Z" fill="black"/>
<path d="M92.7054 11.6029C92.0228 9.9858 90.6935 8.76402 89.1486 7.93751C87.6037 7.111 85.9151 6.71569 84.1906 6.39228C81.2445 5.85325 78.2984 5.52983 75.3164 5.4939C76.3583 6.46415 77.6517 7.7219 78.6936 8.65621C76.3224 9.73427 74.9931 8.1531 70.6817 9.26709C71.9033 9.94986 74.4542 12.5372 76.0709 12.9684C73.3404 13.759 72.1188 14.0106 69.3165 16.2386C70.8254 16.023 73.3763 16.7416 74.8494 17.101C73.3045 18.8977 70.7895 20.946 69.2446 22.7428C70.8255 22.635 73.1607 22.9944 74.7415 22.8506C72.7296 24.288 71.2925 25.5817 70.3584 27.8816C72.8015 27.0191 75.4961 26.7316 78.0469 27.055C79.0529 27.1628 80.023 28.2769 80.9212 27.8097C81.9271 27.2707 82.466 25.1504 82.8612 24.0724C83.6157 21.8444 84.6217 19.6883 86.0947 17.8915C87.6037 16.0948 89.6875 14.6933 92.0228 14.4058C92.4539 14.334 92.921 14.298 93.1366 13.9387C93.2803 13.6871 93.2444 13.3996 93.2084 13.1121C93.1006 12.3575 92.9929 12.3216 92.7054 11.6029Z" fill="black"/>
<path d="M75.532 19.832L77.4361 16.2025L81.9271 10.3092C88.5737 9.44675 90.6216 11.5669 82.6816 19.9757C82.6816 19.9757 81.3523 22.9943 79.52 23.4255C79.4481 23.5692 79.3763 23.7129 79.3403 23.8567C79.0529 24.4676 78.8014 25.1144 78.5499 25.7253C78.0469 26.983 77.6517 28.2407 77.3284 29.4985C77.005 30.7203 76.8254 31.978 76.7176 33.1279C76.6817 33.5232 76.6817 33.9184 76.6817 34.3137C77.1128 34.5293 77.5439 34.745 78.011 34.9247C78.478 35.1044 78.9811 35.284 79.484 35.4277C79.987 35.5715 80.49 35.7152 81.0289 35.7871C82.0708 35.9668 83.1846 36.1105 84.2983 36.1464C84.8372 36.1824 85.4121 36.1824 85.9869 36.1464C86.2744 36.1464 86.5258 36.1105 86.8133 36.1105L87.46 36.0746L87.9989 36.0386C90.6935 35.8949 92.9929 37.9432 93.1366 40.6383C93.2803 43.1538 91.448 45.3099 89.0049 45.7052L88.5737 45.7771L88.2145 45.8129L87.5678 45.8849C87.1366 45.9208 86.7055 45.9567 86.3103 45.9567C85.484 45.9927 84.6576 45.9567 83.7954 45.9208C82.1427 45.813 80.49 45.5614 78.8373 45.1302C77.1847 44.699 75.5679 44.0881 73.9871 43.2616C72.4422 42.471 70.9692 41.3929 69.6758 40.1712L69.3883 39.8837C68.6338 39.165 68.2027 38.2307 68.1668 37.2605C68.059 35.32 68.2746 33.4514 68.6698 31.6905C69.065 29.9297 69.7476 28.2766 70.4662 26.7674C71.2566 25.2581 72.1188 23.8208 73.1248 22.5271C73.6278 21.8803 74.1667 21.2334 74.7056 20.6225C74.9931 20.371 75.2805 20.0835 75.532 19.832Z" fill="white"/>
<path d="M85.3762 46.7472C84.8732 46.7472 84.3702 46.7472 83.7594 46.7112C81.8912 46.6034 80.2026 46.316 78.6577 45.8848C76.8973 45.4176 75.2086 44.7708 73.6638 43.9442C72.1189 43.1537 70.6099 42.0757 69.2087 40.7461L68.9213 40.4586C68.059 39.632 67.5201 38.554 67.4483 37.3681C67.3405 35.4995 67.5201 33.5231 67.9872 31.5826C68.3465 29.9655 68.9932 28.2766 69.8554 26.4798C70.6458 24.9346 71.544 23.4612 72.5859 22.0957C73.053 21.4848 73.5919 20.838 74.2027 20.1552C74.4542 19.8677 74.7057 19.6162 74.9931 19.3647L76.8613 15.843C76.8973 15.8071 76.8972 15.7711 76.9332 15.7352L81.4241 9.84187C81.5319 9.69813 81.7116 9.5903 81.8912 9.55437C85.5918 9.08721 87.6396 9.5184 88.3582 10.9558C89.2923 12.7885 87.7474 15.6633 83.3283 20.3349C83.0409 20.9458 81.8553 23.3175 80.0948 23.9644L80.023 24.1081C79.7356 24.7549 79.4481 25.4017 79.2325 25.9767C78.6936 27.3063 78.3344 28.5281 78.047 29.6421C77.7595 30.792 77.5439 31.9419 77.4721 33.1637C77.4721 33.3793 77.4362 33.6309 77.4362 33.8824C77.7236 34.0262 78.011 34.1699 78.3344 34.2777C78.7296 34.4574 79.1966 34.6012 79.7355 34.7449C80.2026 34.8887 80.6697 34.9965 81.2086 35.1043C82.2505 35.2839 83.3283 35.4277 84.3702 35.4636C84.8732 35.4995 85.3762 35.4995 85.8792 35.4636H85.987C86.2025 35.4636 86.4181 35.4636 86.6336 35.4276L87.963 35.3558C89.436 35.2839 90.8731 35.787 91.9869 36.7572C93.1006 37.7634 93.7474 39.1289 93.8552 40.6023C93.9989 43.4771 91.9869 45.9926 89.1486 46.4238L88.3582 46.5316L87.6756 46.6035C87.1726 46.6394 86.7415 46.6753 86.3463 46.6753C86.0229 46.7472 85.6995 46.7472 85.3762 46.7472ZM78.047 16.5977L76.1787 20.1552C76.1428 20.2271 76.1069 20.263 76.0709 20.3349C75.7835 20.6224 75.532 20.9099 75.2446 21.1614C74.6697 21.8083 74.1667 22.4191 73.6997 22.9941C72.7296 24.2877 71.8674 25.6892 71.1129 27.1266C70.2866 28.8155 69.7117 30.3608 69.3524 31.906C68.9213 33.7387 68.7416 35.5354 68.8494 37.2963C68.8854 38.1228 69.2447 38.8774 69.8554 39.4165L70.1429 39.7039C71.4722 40.9257 72.8734 41.9319 74.3105 42.6865C75.7476 43.4771 77.3284 44.088 78.9811 44.5192C80.4541 44.9145 82.0349 45.166 83.7954 45.2738C84.7654 45.3098 85.484 45.3457 86.2025 45.3098C86.5618 45.3098 86.9929 45.2739 87.4241 45.2379L88.8253 45.0583C90.945 44.7349 92.4539 42.8662 92.3462 40.7101C92.2743 39.5961 91.8073 38.5899 90.9809 37.8353C90.1546 37.0806 89.0767 36.7213 87.9989 36.7932L86.6696 36.865C86.454 36.865 86.2025 36.901 85.987 36.901H85.8792C85.3403 36.901 84.8013 36.901 84.2624 36.865C83.1487 36.8291 82.0349 36.6853 80.9212 36.4697C80.3104 36.3619 79.7715 36.2182 79.3044 36.0745C78.7296 35.9308 78.2266 35.751 77.7595 35.5713C77.2925 35.3917 76.8254 35.1761 76.3583 34.9246C76.1428 34.8168 75.9631 34.5652 75.9631 34.3136C75.9631 33.9183 75.9631 33.4871 75.9991 33.0559C76.1068 31.7622 76.2865 30.5045 76.6098 29.2827C76.8973 28.0968 77.3284 26.8391 77.8673 25.4377C78.0829 24.8627 78.3703 24.1799 78.6936 23.5331L78.8733 23.1019C78.9811 22.8863 79.1607 22.7426 79.3763 22.7067C80.5619 22.4551 81.7116 20.3708 82.0349 19.6881C82.0709 19.6162 82.1068 19.5444 82.1786 19.4725C87.3522 13.9744 87.3163 12.1776 87.0289 11.6386C86.8133 11.2074 85.9151 10.5606 82.3223 10.9918L78.047 16.5977Z" fill="black"/>
<path fill-rule="evenodd" clip-rule="evenodd" d="M111.962 46.1007C107.328 44.4117 103.232 52.0659 105.064 53.7189C107.112 55.5876 113.004 60.0795 116.453 58.3187C129.315 51.7785 116.417 47.7178 111.962 46.1007Z" class="main-color-fill"/>
<path d="M155.4 86.7074C152.274 86.7074 149.004 86.6355 145.663 86.4559C86.3105 83.2936 64.3586 44.7352 59.0413 33.0204C58.2868 31.4751 49.9516 28.8519 44.275 27.5223C43.9157 27.4504 43.4127 27.1629 43.1612 26.552C42.8019 25.5818 43.269 24.2521 44.5983 22.4554C44.742 22.2757 44.9576 22.168 45.2091 22.168C45.8918 22.2039 59.3287 27.8098 61.4485 30.6127C87.4243 46.5679 158.058 68.8836 240.513 39.5965C242.668 38.3028 258.512 30.433 262.644 29.7862C263.219 29.4268 263.578 29.319 263.937 29.4987C264.189 29.6424 264.369 29.8939 264.369 30.1814C264.369 30.5048 264.404 30.9001 261.602 33.9546C261.566 33.9906 259.015 36.7576 258.476 37.0451C258.44 37.081 258.369 37.081 258.333 37.1169C254.704 38.2669 244.932 41.6448 242.74 43.729L241.77 44.9868C229.59 60.7264 209.651 86.7074 155.4 86.7074ZM45.4606 23.6413C44.3468 25.2583 44.4546 25.8692 44.5265 25.977C44.5624 26.0489 44.5983 26.0849 44.5983 26.0849C47.0055 26.6598 59.0772 29.6784 60.3706 32.4095C65.6161 43.9806 87.2446 81.8921 145.771 85.0185C206.669 88.2886 227.974 60.5467 240.692 43.9806L241.662 42.6869C241.698 42.6509 241.698 42.651 241.734 42.615C244.429 39.9918 256.5 36.1107 257.83 35.6795C258.369 35.2483 260.632 32.8766 261.997 31.2955C257.794 32.5532 244.285 38.9496 241.231 40.7823C241.195 40.8182 241.159 40.8183 241.087 40.8542C157.986 70.4288 86.6698 47.7897 60.5862 31.6908C60.4784 31.6189 60.4066 31.547 60.3706 31.4751C59.1132 29.4628 47.9037 24.5756 45.4606 23.6413Z" fill="black"/>
<path d="M201.459 49.9816C196.788 44.4835 172.178 53.611 167.83 48.4723C160.501 56.4499 146.382 63.2056 133.124 66.9429C129.028 57.2404 130.825 47.4661 130.825 47.4661C130.825 47.4661 148.358 39.812 166.501 35.8591C175.878 33.8108 203.471 37.5122 205.159 40.4588C207.171 41.465 219.459 37.5481 222.98 35.8591C223.554 35.6076 236.704 32.4813 218.848 48.4005C217.519 49.5863 201.315 50.2331 201.459 49.9816Z" fill="white"/>
<path d="M133.088 67.6616C132.8 67.6616 132.549 67.482 132.441 67.2304C128.309 57.456 130.034 47.7535 130.106 47.3223C130.142 47.0708 130.321 46.8911 130.537 46.7833C130.717 46.7114 148.321 39.0571 166.321 35.1402C171.459 34.0262 181.303 34.6371 188.776 35.5714C192.297 36.0026 203.614 37.5838 205.59 39.8836C207.566 40.4227 218.632 37.1525 222.656 35.212C222.979 35.0683 227.254 33.8825 228.548 35.823C229.41 37.1526 229.41 39.9196 219.314 48.9394C219.027 49.1909 218.273 49.8377 209.83 50.4127C207.925 50.5564 205.842 50.6642 204.153 50.7002C201.351 50.808 201.279 50.7362 201.027 50.5565C200.991 50.5205 200.919 50.4486 200.884 50.4127C198.692 47.9691 191.039 48.9753 184.249 49.8737C177.279 50.772 170.668 51.6345 167.866 49.5143C159.674 58.031 144.728 64.4634 133.303 67.6616C133.232 67.6616 133.16 67.6616 133.088 67.6616ZM131.435 47.9691C131.184 49.8018 130.25 57.9591 133.519 66.0805C147.926 61.948 160.824 55.0843 167.291 48.005C167.435 47.8613 167.65 47.7535 167.83 47.7894C168.046 47.7894 168.225 47.8973 168.369 48.041C170.273 50.269 177.279 49.3706 184.069 48.4722C191.758 47.466 199.015 46.4957 201.818 49.3346C203.973 49.4424 217.123 48.7238 218.38 47.8613C228.117 39.165 227.578 37.0088 227.362 36.6494C226.859 35.8229 223.913 36.2901 223.267 36.5057C220.536 37.7994 207.386 42.3632 204.836 41.1055C204.692 41.0336 204.62 40.9258 204.548 40.818C203.219 38.4822 176.417 34.4215 166.68 36.5417C150.189 40.1352 134.022 46.8551 131.435 47.9691Z" fill="black"/>
<path d="M204.836 61.0498C201.208 61.0498 176.453 74.1302 156.226 81.1375C144.083 82.0359 130.466 79.7361 117.748 74.4177C120.55 64.2839 128.023 57.7078 128.023 57.7078C128.023 57.7078 148.071 69.6024 166.034 65.0026C169.16 64.2121 172.645 59.1092 176.202 58.0312C186.154 55.0485 196.573 55.2642 201.136 51.0957C204.405 48.1131 209.615 46.7475 212.309 45.2383C225.1 38.0512 244.896 32.0859 229.339 48.9755C226.788 51.7425 220.213 47.61 215.902 51.8144C214.285 53.4315 205.268 61.0498 204.836 61.0498Z" fill="white"/>
<path d="M151.052 82.0356C140.094 82.0356 128.346 79.628 117.496 75.0642C117.172 74.9205 116.993 74.5611 117.065 74.2017C119.903 63.9602 127.268 57.4201 127.591 57.1685C127.843 56.9529 128.166 56.917 128.418 57.0967C128.633 57.2045 148.429 68.7755 165.89 64.3196C167.256 63.9602 168.8 62.5948 170.453 61.1574C172.25 59.5762 174.082 57.9591 176.022 57.3842C179.83 56.2343 183.603 55.5874 187.267 54.9406C193.016 53.9344 198.01 53.0719 200.668 50.5924C202.968 48.5082 206.165 47.1786 208.716 46.1005C209.938 45.5974 211.123 45.0944 211.986 44.6272C219.53 40.3869 232.5 34.9966 235.267 38.4823C236.74 40.3509 235.051 43.8726 229.878 49.4785C228.512 50.9877 226.321 50.808 224.021 50.6643C221.327 50.4846 218.56 50.269 216.405 52.3533C215.507 53.2516 212.668 55.6592 210.333 57.5997C205.339 61.7682 205.123 61.7682 204.8 61.7682C203.255 61.7682 196.609 64.7867 188.848 68.2724C179.22 72.6206 167.256 78.0468 156.405 81.7841C156.334 81.82 156.298 81.82 156.226 81.82C154.573 81.9638 152.813 82.0356 151.052 82.0356ZM118.645 73.9862C130.861 79.0171 144.118 81.281 156.082 80.4185C166.824 76.6813 178.717 71.327 188.309 66.9788C197.65 62.7385 202.752 60.4746 204.656 60.3308C205.806 59.6121 213.638 53.036 215.435 51.2752C218.057 48.7238 221.435 48.9753 224.165 49.155C226.213 49.2987 227.973 49.4425 228.872 48.4363C235.123 41.6446 234.512 39.74 234.189 39.3088C232.608 37.2965 222.369 40.3868 212.704 45.813C211.77 46.352 210.549 46.8552 209.291 47.3582C206.704 48.4363 203.758 49.6581 201.638 51.5626C198.656 54.2937 193.483 55.1921 187.483 56.2342C183.854 56.881 180.118 57.5279 176.417 58.6419C174.764 59.145 173.04 60.6543 171.387 62.1276C169.627 63.7087 167.938 65.1821 166.25 65.6133C149.507 69.8896 131.364 60.2949 128.166 58.4981C126.693 60.0433 121.088 65.793 118.645 73.9862Z" fill="black"/>
<path d="M118.25 65.1462C119.903 60.0434 125.579 51.9939 130.681 47.6098C133.196 45.31 144.98 42.4352 149.327 40.4587C152.166 42.1477 153.603 55.0844 151.663 62.0917C151.052 62.6667 150.118 63.3136 148.968 63.9963C150.082 64.5353 151.124 65.1103 152.022 65.6134C152.022 65.6134 147.89 76.5378 142.465 81.4609C135.855 82.6108 123.352 78.4782 119.364 76.0346C116.454 76.2143 115.088 73.9863 115.088 73.9863C115.663 71.6146 116.777 68.4163 118.25 65.1462Z" fill="white"/>
<path d="M139.95 82.3591C133.088 82.3591 123.1 79.0531 119.184 76.7532C116.058 76.8251 114.549 74.4893 114.477 74.3815C114.369 74.2018 114.334 74.0222 114.369 73.8066C115.016 71.1833 116.202 67.9132 117.567 64.8946C119.292 59.6122 125.076 51.4548 130.214 47.0707C131.866 45.5255 136.968 43.9085 141.926 42.3273C144.764 41.4289 147.423 40.5665 149.04 39.8478C149.255 39.74 149.507 39.7759 149.686 39.8837C153.028 41.8961 154.213 55.5156 152.345 62.3073C152.309 62.451 152.237 62.5588 152.166 62.6307C151.734 63.0619 151.124 63.4931 150.441 63.9603C151.124 64.3196 151.77 64.679 152.381 65.0024C152.669 65.1821 152.812 65.5414 152.704 65.8648C152.525 66.332 148.429 77.0048 142.968 81.9638C142.86 82.0716 142.752 82.1076 142.609 82.1435C141.818 82.2872 140.92 82.3591 139.95 82.3591ZM119.363 75.2798C119.507 75.2798 119.615 75.3158 119.723 75.3877C123.711 77.8313 135.782 81.7123 142.142 80.7779C146.597 76.6095 150.189 68.2006 151.124 65.9367C150.405 65.5055 149.579 65.0743 148.645 64.6431C148.393 64.5353 148.249 64.2838 148.249 64.0322C148.249 63.7807 148.393 63.5291 148.609 63.3854C149.615 62.8104 150.441 62.2354 151.016 61.7323C152.74 55.0124 151.375 43.4413 149.219 41.3211C147.531 42.0398 145.016 42.8304 142.357 43.6929C137.794 45.1662 132.621 46.8192 131.184 48.1488C126.19 52.4251 120.585 60.3308 118.932 65.3977C118.932 65.4336 118.932 65.4337 118.896 65.4696C117.603 68.3085 116.489 71.3629 115.842 73.8424C116.238 74.3455 117.387 75.4236 119.292 75.3158C119.327 75.2799 119.363 75.2798 119.363 75.2798Z" fill="black"/>
<path d="M89.3282 21.3052C89.5438 21.6286 89.8672 21.7724 90.0827 21.6646C90.2983 21.5208 90.2983 21.1615 90.0827 20.8381C89.8672 20.5147 89.5438 20.371 89.3282 20.4788C89.1126 20.5866 89.1126 20.9818 89.3282 21.3052Z" fill="black"/>
<path d="M92.9932 18.9696C93.2088 19.293 93.5321 19.4367 93.7477 19.3289C93.9633 19.1852 93.9633 18.8258 93.7477 18.5024C93.5321 18.179 93.2088 18.0353 92.9932 18.1431C92.7776 18.2509 92.7776 18.6102 92.9932 18.9696Z" fill="black"/>
<path d="M91.915 19.8679C91.915 19.8679 93.8551 21.2694 95.2563 21.6646C95.0048 22.563 93.8911 22.9583 93.8911 22.9583L91.915 19.8679Z" fill="white"/>
<path d="M92.7419 24.8268C92.9934 24.755 93.2449 24.6112 93.4964 24.4675C93.5323 24.4316 93.5682 24.3597 93.5323 24.3238C93.4964 24.2879 93.4245 24.2519 93.3886 24.2878C91.9515 25.1862 90.6581 24.6471 90.6581 24.6112C90.5863 24.5753 90.5503 24.6113 90.5144 24.6831C90.4785 24.755 90.5144 24.7909 90.5503 24.8268C90.5862 24.7909 91.5563 25.2221 92.7419 24.8268Z" fill="black"/>
<path d="M85.7357 20.7661C85.8075 20.7301 85.8794 20.6583 85.8435 20.5505C85.7716 19.5444 86.4183 19.0412 86.4183 19.0412C86.5261 18.9694 86.5261 18.8257 86.4542 18.7179C86.3824 18.6101 86.2387 18.61 86.1309 18.6819C86.095 18.7178 85.2686 19.3647 85.3764 20.5864C85.3764 20.6942 85.4842 20.802 85.6279 20.802C85.6638 20.802 85.6997 20.7661 85.7357 20.7661Z" fill="black"/>
<path d="M91.1964 20.1914C91.915 21.3773 91.5197 22.9225 90.3341 23.6052C89.1485 24.3239 87.6035 23.9286 86.9209 22.7427C86.2023 21.5569 86.5976 20.0476 87.7832 19.3289C88.9688 18.6102 90.4778 19.0056 91.1964 20.1914Z" fill="black"/>
<path d="M82.8969 25.0425C82.861 25.0425 82.8969 25.0425 82.8969 25.0425C82.7891 25.0425 82.7173 24.9347 82.7173 24.8628C82.7891 24.3598 85.1603 23.4973 86.6334 23.0301L90.4777 20.0116C90.6573 19.5444 91.2321 18.7538 92.0944 18.8976C92.1663 18.8976 92.2381 19.0054 92.2381 19.0773C92.2381 19.1491 92.1303 19.221 92.0585 19.221C91.1962 19.1132 90.765 20.1553 90.765 20.1913C90.765 20.2272 90.7291 20.2272 90.7291 20.2631L86.849 23.3176L86.813 23.3535C85.1244 23.8925 83.2203 24.6832 83.1125 24.9347C83.0406 25.0066 82.9688 25.0425 82.8969 25.0425Z" fill="black"/>
<path d="M87.7831 19.3289C87.4598 19.5086 87.2082 19.7601 86.9927 20.0476L87.8909 23.6411C88.3579 23.8926 88.8609 24.0004 89.3998 23.8926L88.2142 19.0774C88.0705 19.1852 87.9268 19.257 87.7831 19.3289Z" fill="white"/>
<path d="M88.646 19.0055L89.8316 23.8208C90.0112 23.7489 90.1909 23.677 90.3705 23.5692C90.4424 23.5333 90.4783 23.4973 90.5501 23.4614L89.4364 18.9695C89.149 18.9695 88.8975 18.9695 88.646 19.0055Z" fill="white"/>
<path d="M90.226 19.0774C90.9445 20.2633 90.6212 21.7725 89.5074 22.4194C88.3936 23.1021 86.9206 22.6709 86.202 21.485C85.4835 20.2992 85.8068 18.7899 86.9206 18.1431C88.0344 17.4962 89.5074 17.8916 90.226 19.0774Z" fill="black"/>
<path d="M83.6516 35.2121C87.7833 34.5293 95.4719 37.9432 103.053 43.4053C110.633 48.8674 122.705 61.0854 122.705 61.0854C122.705 61.0854 115.771 73.7345 117.855 78.3342C99.5676 75.6032 82.6816 48.8315 82.6816 48.8315C82.6816 48.8315 75.496 48.2925 71.9751 45.0583C73.4122 39.0931 77.7595 33.9185 77.7595 33.9185L83.6516 35.2121Z" fill="white"/>
<path d="M117.855 79.0531C117.819 79.0531 117.783 79.0531 117.747 79.0531C100.179 76.4298 84.2627 52.6407 82.2508 49.5143C80.7059 49.3706 74.7059 48.58 71.4724 45.5614C71.2928 45.3818 71.185 45.1302 71.2569 44.8787C72.694 38.8416 77.0053 33.6669 77.2209 33.4513C77.4005 33.2357 77.652 33.1638 77.9394 33.1997L83.6879 34.5293C87.9274 33.9184 95.5081 37.1167 103.484 42.8663C111.029 48.2925 123.101 60.5106 123.208 60.6184C123.424 60.834 123.496 61.1933 123.316 61.4808C121.448 64.9306 116.921 74.5971 118.502 78.0829C118.61 78.3344 118.574 78.5859 118.43 78.8016C118.286 78.9453 118.071 79.0531 117.855 79.0531ZM72.7658 44.7709C76.179 47.5738 82.646 48.0769 82.7179 48.0769C82.9334 48.0769 83.149 48.2207 83.2568 48.4004C83.4364 48.6519 99.4961 73.8425 116.813 77.4001C116.023 72.5489 120.514 63.565 121.771 61.1933C119.688 59.109 109.304 48.7956 102.586 43.9803C94.9333 38.4822 87.4962 35.3199 83.7238 35.9308C83.616 35.9308 83.5442 35.9308 83.4364 35.9308L78.0113 34.673C77.1131 35.8589 74.0233 40.0634 72.7658 44.7709Z" fill="black"/>
<path d="M98.6337 22.3474C98.7774 22.3833 98.9211 22.3833 99.0648 22.4193C98.6696 25.0066 90.6218 26.9831 88.8613 25.2222L98.6337 22.3474Z" fill="black"/>
</svg>
