<svg width="227" height="158" viewBox="0 0 227 158" fill="none" xmlns="http://www.w3.org/2000/svg">
<path fill-rule="evenodd" clip-rule="evenodd" d="M61.3939 60.3986C61.1424 60.3626 44.1845 67.37 35.5619 69.6339C25.8973 72.1494 4.98734 57.0926 2.61611 75.4195C-6.1862 144.02 9.15491 117.284 23.3105 104.743C37.969 91.77 55.3221 109.306 60.1364 99.2445C64.9867 89.2186 76.6273 87.1343 79.9327 81.241C82.771 76.1382 83.0225 67.2263 79.9327 63.7765C76.8429 60.2908 64.5915 61.0095 61.3939 60.3986Z" class="main-color-fill"/>
<path fill-rule="evenodd" clip-rule="evenodd" d="M193.609 68.7714C193.465 68.5917 177.585 60.9016 170.112 56.3019C161.741 51.1632 128.723 63.0937 144.998 66.1122C161.849 69.2386 166.842 89.7216 175.034 87.7811C183.225 85.8765 192.854 92.5605 198.028 91.734C202.447 91.0153 206.686 86.6312 205.968 82.7861C205.213 79.0129 195.764 71.215 193.609 68.7714Z" class="main-color-fill"/>
<path d="M137.417 150.668C136.95 150.668 136.483 150.632 135.98 150.596C130.124 150.021 121.178 145.888 106.088 136.725C104.831 135.97 103.25 135.754 101.561 135.503C100.699 135.395 99.8007 135.251 98.8666 135.036C86.3278 132.161 80.7231 134.137 74.1842 136.401C67.9328 138.593 60.855 141.073 46.3402 139.528C39.8013 138.809 39.2265 132.197 38.7594 126.843C38.5079 123.824 38.2564 120.985 37.0708 119.907C33.1906 116.385 28.8793 115.2 24.2806 113.942C20.0052 112.792 15.622 111.606 11.5262 108.372C7.82567 105.461 7.93339 100.969 11.8136 95.7946C15.6219 90.7277 22.592 85.5171 30.1009 82.2111C38.3283 78.5457 45.2624 78.0426 49.1426 80.7737C49.4659 81.0252 50.2204 80.3066 50.8671 79.7316C51.3342 79.3004 51.8012 78.8692 52.3401 78.5457C55.1784 76.8927 58.8071 75.2038 62.3281 73.5867C67.1783 71.3587 72.1722 69.0229 74.795 66.8668C83.0224 60.0391 87.2978 53.7505 90.711 48.7196C95.0582 42.2512 98.2198 37.6157 106.663 37.1844L106.699 37.9032L106.663 37.1844C127.788 36.0705 132.818 41.7481 141.118 51.1272C143.92 54.2895 147.118 57.919 151.465 61.8C153.082 63.2374 156.064 63.7405 159.261 64.2795C162.998 64.8904 167.201 65.6091 170.147 68.0167C175.213 72.1133 191.273 82.283 196.015 84.8344C218.039 96.7649 226.159 103.305 226.23 103.341C226.374 103.485 226.482 103.664 226.482 103.844C226.482 104.06 226.41 104.239 226.266 104.383C226.051 104.599 220.374 110.061 200.434 107.653C189.979 106.395 185.848 110.995 179.632 118.003C175.105 123.105 169.429 129.466 159.513 135.395C154.519 138.378 151.321 141.648 148.734 144.235C145.285 147.829 142.483 150.668 137.417 150.668ZM87.8368 132.161C90.9984 132.161 94.699 132.592 99.2258 133.634C100.052 133.814 100.95 133.958 101.777 134.066C103.609 134.317 105.369 134.569 106.843 135.467C137.201 153.902 140.291 150.775 147.728 143.265C150.351 140.606 153.656 137.264 158.794 134.173C168.531 128.316 174.099 122.063 178.59 117.032C184.878 109.953 189.44 104.85 200.65 106.216C216.063 108.084 222.638 105.102 224.614 103.88C222.171 102.047 213.548 95.9383 195.369 86.0921C190.59 83.5048 174.387 73.2633 169.285 69.1308C166.626 66.9746 162.782 66.3278 159.082 65.7169C155.668 65.142 152.471 64.6029 150.567 62.914C146.148 58.9611 142.95 55.3316 140.112 52.1334C132.1 43.0778 127.25 37.6156 106.807 38.6577C99.0822 39.053 96.4235 43.0059 91.9685 49.5821C88.4835 54.7208 84.1721 61.0813 75.765 68.0527C72.9986 70.3525 68.1124 72.5805 62.9748 74.9882C59.4898 76.6053 55.897 78.2583 53.0946 79.9113C52.7354 80.1269 52.3042 80.5222 51.873 80.8815C50.8671 81.8158 49.6096 82.9658 48.3162 82.0674C40.951 76.8209 20.6519 86.5233 12.9633 96.7648C10.5921 99.9271 8.58016 104.311 12.4244 107.33C16.2687 110.384 20.544 111.534 24.6757 112.648C29.2386 113.87 33.9092 115.164 38.0408 118.937C39.6576 120.41 39.9091 123.393 40.1965 126.843C40.6636 132.161 41.1306 137.659 46.4839 138.234C60.6394 139.743 67.5735 137.3 73.6813 135.18C77.9567 133.598 81.9805 132.161 87.8368 132.161Z" fill="black"/>
<path d="M85.6448 111.211C85.6448 111.211 91.537 113.403 89.5969 117.787C87.6568 122.171 79.9682 125.944 78.3873 128.927C76.8065 131.909 73.537 139.132 71.0221 138.809C68.5071 138.486 71.0221 127.669 71.0221 127.669L85.6448 111.211Z" fill="white"/>
<path d="M71.1658 139.564C71.094 139.564 70.9861 139.564 70.9143 139.564C70.4472 139.492 70.088 139.276 69.8006 138.845C68.2916 136.689 69.9442 129.035 70.3035 127.525C70.3395 127.417 70.3754 127.31 70.4832 127.202L85.1058 110.744C85.2854 110.528 85.6088 110.456 85.8963 110.564C86.04 110.6 89.2734 111.858 90.3513 114.409C90.8543 115.595 90.8183 116.817 90.2435 118.11C89.0938 120.734 86.0759 123.105 83.4172 125.154C81.4771 126.663 79.6448 128.1 79.034 129.286C78.8544 129.645 78.6388 130.077 78.3873 130.544C75.9442 135.287 73.573 139.564 71.1658 139.564ZM71.6688 128.028C70.8784 131.514 70.1599 136.832 70.9862 138.018C71.0581 138.126 71.0939 138.126 71.0939 138.126C72.7825 138.342 75.8005 132.448 77.058 129.897C77.3095 129.43 77.5251 128.963 77.7047 128.603C78.4592 127.166 80.3274 125.693 82.4831 124.004C84.9981 122.027 87.8363 119.799 88.8782 117.499C89.2734 116.565 89.3094 115.739 88.986 114.948C88.3393 113.439 86.6148 112.468 85.7885 112.073L71.6688 128.028Z" fill="black"/>
<path d="M86.1839 73.9103C86.1839 73.9103 81.5852 83.1456 70.0524 95.9744C64.1243 102.587 43.5377 118.901 39.6934 125.333C28.4121 144.271 42.9628 145.924 48.819 145.313C54.6753 144.702 70.3398 132.413 83.7409 114.014C97.142 95.6151 105.872 93.0278 114.172 95.112C116.794 95.7589 119.489 97.9509 123.082 98.8852C146.076 104.922 141.656 107.438 148.519 106.18C162.243 103.629 164.075 109.522 172.447 115.811C172.447 115.811 185.632 115.2 188.758 104.527C188.758 104.527 171.369 99.1727 162.782 94.8964C154.231 90.5842 119.956 58.1708 86.1839 73.9103Z" fill="white"/>
<path d="M46.7708 146.14C42.7828 146.14 38.22 144.99 36.1003 141.648C33.729 137.911 34.735 132.305 39.1182 124.938C41.4894 120.985 49.6451 113.726 57.5132 106.719C62.5072 102.299 67.2137 98.0946 69.5491 95.4714C80.8304 82.8941 85.5009 73.6588 85.5728 73.551C85.6446 73.4072 85.7525 73.2994 85.8962 73.2275C114.171 60.0393 142.806 80.163 156.566 89.8654C159.44 91.8778 161.704 93.4949 163.141 94.2136C171.548 98.418 188.829 103.772 189.009 103.808C189.368 103.916 189.584 104.311 189.476 104.707C186.242 115.739 172.626 116.493 172.518 116.529C172.338 116.529 172.195 116.493 172.051 116.386C170.183 114.984 168.602 113.547 167.201 112.289C162.279 107.869 159.009 104.958 148.698 106.863C145.105 107.546 144.315 107.15 141.728 105.964C139.213 104.779 134.578 102.622 122.974 99.5679C120.962 99.0289 119.237 98.1305 117.692 97.34C116.399 96.6931 115.177 96.0463 114.064 95.7589C106.986 93.9621 98.5068 95.0042 84.3872 114.373C71.2376 132.413 55.4653 145.277 48.9624 145.996C48.2439 146.104 47.5253 146.14 46.7708 146.14ZM86.6866 74.4852C85.8962 75.9945 81.01 84.8346 70.5909 96.4776C68.1838 99.1368 63.4413 103.377 58.4473 107.833C51.0103 114.445 42.6032 121.956 40.3397 125.729C36.244 132.592 35.238 137.695 37.2859 140.893C39.6212 144.559 45.6211 144.954 48.7828 144.595C54.0282 144.02 69.2976 132.664 83.2016 113.583C95.0219 97.3759 104.04 91.8059 114.387 94.4292C115.68 94.7526 116.974 95.4354 118.339 96.1182C119.884 96.9088 121.465 97.7352 123.333 98.2024C135.045 101.293 139.788 103.485 142.339 104.671C144.854 105.857 145.321 106.072 148.446 105.461C159.44 103.413 163.105 106.683 168.171 111.211C169.572 112.433 170.973 113.726 172.734 115.056C174.494 114.912 184.877 113.619 187.931 104.958C184.59 103.916 170.111 99.2445 162.566 95.4714C161.021 94.7167 158.722 93.0637 155.812 91.0154C142.195 81.5644 114.135 61.8361 86.6866 74.4852Z" fill="black"/>
<path d="M87.6217 72.1135C87.6217 72.1135 86.1846 73.2275 86.1846 73.9462C86.1846 74.6289 95.0587 96.5134 125.454 83.0018L120.496 80.3786C120.496 80.3786 102.963 84.8704 87.6217 72.1135Z" fill="black"/>
<path d="M36.6758 36.0705C36.6758 36.0705 34.9871 39.0891 34.8075 40.9937C34.5919 42.8982 34.3764 47.2464 33.9812 48.2167C33.5501 49.1869 31.2506 52.0977 30.3165 51.5946C29.3824 51.0555 29.2746 50.0853 30.3165 48.2167C31.3584 46.3481 30.8196 43.6529 29.5621 43.8685C28.3046 44.0841 25.5023 43.9045 25.0711 48.2167C24.64 52.5289 24.4244 55.1522 23.5981 55.0444C22.7717 54.9366 21.4065 49.5463 22.2328 44.7669C23.0591 39.9875 31.8614 31.938 31.8614 31.938L36.6758 36.0705Z" fill="white"/>
<path d="M23.6344 55.7629C23.5984 55.7629 23.5625 55.7629 23.4906 55.7629C23.2032 55.727 22.9158 55.5473 22.7002 55.2239C21.7302 53.8943 20.7601 49.0071 21.5146 44.6231C22.3768 39.664 30.9996 31.7223 31.3589 31.363C31.6104 31.1114 32.0415 31.1114 32.3289 31.363L37.1432 35.4955C37.3947 35.7111 37.4666 36.1064 37.287 36.3939C37.287 36.4298 35.6702 39.3046 35.4906 41.0654C35.4187 41.6045 35.3828 42.3951 35.3109 43.1857C35.0954 45.8089 34.9157 47.7494 34.5924 48.4681C34.1972 49.3665 32.4366 51.7741 31.0355 52.2413C30.5325 52.4209 30.1373 52.3132 29.9217 52.1694C29.3828 51.8819 29.0235 51.4507 28.8798 50.9117C28.6642 50.1211 28.8798 49.1149 29.6343 47.8212C30.281 46.6713 30.1732 45.198 29.778 44.6589C29.7421 44.623 29.6702 44.5153 29.6343 44.5512C29.4906 44.5871 29.3469 44.5871 29.1672 44.6231C27.802 44.8027 26.0774 44.9824 25.7541 48.2884L25.7182 48.8634C25.2871 53.3194 25.1074 54.9004 24.317 55.5473C24.1373 55.691 23.8859 55.7629 23.6344 55.7629ZM31.8618 32.9082C30.0654 34.6331 23.5984 41.0296 22.9158 44.9106C22.2691 48.6478 23.0236 52.5287 23.5984 53.9302C23.8499 52.9599 24.0655 50.8038 24.2811 48.7196L24.317 48.1447C24.7481 43.6888 27.6223 43.3653 28.9876 43.1857C29.1313 43.1857 29.275 43.1497 29.3828 43.1138C29.9936 43.006 30.5685 43.2575 30.9277 43.8325C31.7182 44.9465 31.6822 47.0666 30.8558 48.5399C30.1732 49.7617 30.1732 50.3367 30.2451 50.5523C30.281 50.6601 30.3169 50.7679 30.5325 50.9117C31.1433 50.8039 32.8319 48.8274 33.2271 47.9291C33.4786 47.3541 33.6941 44.8027 33.8379 43.0778C33.9097 42.2513 33.9816 41.4607 34.0175 40.8858C34.1971 39.3406 35.2031 37.1845 35.7061 36.1783L31.8618 32.9082Z" fill="black"/>
<path d="M115.932 52.2773C117.189 56.5536 143.848 48.0369 143.237 79.8396C143.237 79.8396 150.135 86.1282 149.704 98.8852C149.704 98.8852 155.776 106.611 150.746 123.141H139.249C139.249 123.141 137.129 119.296 135.908 114.769C133.824 107.222 131.417 99.7477 128.65 92.4169C127.573 89.7217 126.854 87.0625 126.926 84.8705L120.495 82.5706C120.495 82.5706 106.591 91.1591 90.7106 77.1444C90.7106 77.1444 79.0341 66.6514 80.9023 46.7073C80.9023 46.7073 71.4893 37.3641 73.1779 31.6505C73.1779 31.6505 64.3755 31.0396 58.5193 24.2837C58.5193 24.2837 58.7349 29.5662 46.5913 30.9677L37.6094 24.6791C37.6094 24.6791 42.4237 18.6778 48.4955 14.8328C54.5673 11.0236 59.5612 11.0237 64.1959 13.3235C64.1959 13.3235 79.2496 12.0658 85.1059 20.223C85.0699 20.223 106.519 20.2591 115.932 52.2773Z" fill="white"/>
<path d="M150.746 123.86H139.249C138.998 123.86 138.746 123.716 138.602 123.501C138.531 123.357 136.447 119.512 135.189 114.984C133.141 107.51 130.698 99.9992 127.968 92.7044C126.854 89.9374 126.243 87.4219 126.171 85.4095L120.531 83.3971C119.561 83.9361 116.291 85.5173 111.585 85.8767C106.447 86.236 98.6149 85.122 90.2078 77.7193C90.1 77.6115 78.3875 66.8669 80.112 46.9947C78.6749 45.5214 71.5253 37.8672 72.2439 32.2973C70.0164 31.9739 63.729 30.7161 58.8428 25.793C58.0524 27.6616 55.3938 30.7161 46.6274 31.7583C46.4477 31.7942 46.2681 31.7223 46.1243 31.6504L37.1424 25.3618C36.9628 25.254 36.8551 25.0743 36.8551 24.8587C36.8191 24.679 36.8909 24.4634 36.9987 24.3197C37.2143 24.0681 41.9568 18.1748 48.0645 14.3297C53.8129 10.7002 59.0943 10.1612 64.2679 12.6766C66.172 12.5329 79.5731 11.922 85.3934 19.6122C86.7587 19.684 91.573 20.2231 97.2855 23.7088C103.357 27.4461 111.621 35.3877 116.543 52.1695C116.758 52.8522 119.058 53.1038 121.321 53.3553C129.333 54.2537 144.207 55.9067 143.884 79.6239C145.141 80.8816 150.674 87.1343 150.387 98.7414C151.357 100.143 156.063 108.049 151.393 123.429C151.321 123.645 151.069 123.86 150.746 123.86ZM139.68 122.423H150.207C154.77 106.863 149.201 99.3883 149.129 99.3164C149.022 99.1727 148.986 99.0289 148.986 98.8492C149.381 86.5953 142.806 80.4145 142.734 80.3786C142.59 80.2348 142.483 80.0552 142.483 79.8396C142.95 57.1285 129.333 55.6192 121.213 54.7208C117.908 54.3615 115.681 54.11 115.213 52.5288C110.435 36.2502 102.495 28.5601 96.6388 24.9665C90.3515 21.0855 85.106 21.0137 85.0341 21.0137C84.8186 21.0137 84.603 20.9059 84.4593 20.7262C78.9265 13.0001 64.3397 14.1141 64.196 14.1141C64.0523 14.1141 63.9446 14.1141 63.8009 14.0422C58.9866 11.6345 54.244 12.1017 48.8189 15.5156C44.0405 18.5341 39.9807 22.9901 38.6155 24.6072L46.7352 30.2849C57.6572 28.9553 57.729 24.3915 57.729 24.3556C57.729 24.0681 57.9087 23.7806 58.1961 23.6728C58.4835 23.565 58.8069 23.6369 58.9865 23.8525C64.5912 30.2849 73.0343 30.9677 73.1421 30.9677C73.3577 30.9677 73.5732 31.1114 73.681 31.2911C73.7888 31.4708 73.8246 31.6864 73.7887 31.902C72.2438 37.1485 81.2617 46.1682 81.3335 46.276C81.4773 46.4198 81.5492 46.6354 81.5492 46.851C79.7168 66.2201 90.9982 76.6054 91.106 76.7132C99.0819 83.7565 106.519 84.8345 111.333 84.5111C116.579 84.1518 119.992 82.1035 120.028 82.0675C120.207 81.9597 120.459 81.9238 120.639 81.9957L127.07 84.2955C127.357 84.4033 127.573 84.6908 127.537 84.9783C127.465 86.8829 128.076 89.3983 129.225 92.2372C131.992 99.6039 134.471 107.15 136.519 114.661C137.561 118.182 139.141 121.345 139.68 122.423Z" fill="black"/>
<path d="M91.7529 40.1312C94.3397 39.0532 95.0583 42.6107 95.0583 42.6107C95.0583 42.6107 95.4175 34.4534 96.172 32.4411C96.8906 30.4287 99.5851 30.6802 101.813 32.4411C104.004 34.2019 104.328 27.2664 104.507 25.0025C104.795 20.9778 108.89 25.0384 109.178 25.0025C110.399 24.8947 111.334 28.7757 113.13 27.3383C115.322 25.5775 116.938 30.4287 117.693 32.4411C118.411 34.4534 118.807 42.6107 118.807 42.6107C118.807 42.6107 119.525 39.0532 122.112 40.1312C124.663 41.2093 122.112 47.1027 118.807 47.9651C118.807 47.9651 117.441 54.9365 116.723 55.9068C116.004 56.8411 112.483 61.1174 110.867 62.1954C109.789 62.9141 108.711 62.5188 106.986 62.2673C105.262 62.4829 103.753 62.3032 103.106 62.1954C102.388 62.0876 97.9684 56.877 97.2498 55.9068C96.5313 54.9724 95.166 47.9651 95.166 47.9651C91.7529 47.1027 89.1661 41.2093 91.7529 40.1312Z" fill="white"/>
<path d="M109.357 63.2733C108.854 63.2733 108.315 63.2014 107.74 63.0936C107.489 63.0577 107.201 62.9858 106.878 62.9499C105.585 63.0936 104.255 63.0936 102.89 62.8421C101.668 62.6264 96.6026 56.3738 96.5667 56.3019C95.8481 55.3676 94.8422 50.5163 94.411 48.468C92.0398 47.5696 90.1356 44.587 89.9559 42.2872C89.8482 40.8857 90.3871 39.8436 91.429 39.4124C92.5068 38.9812 93.2973 39.1967 93.7643 39.4483C94.0158 39.592 94.2314 39.7358 94.411 39.9514C94.5907 37.3282 94.914 33.519 95.417 32.1535C95.7404 31.2551 96.4229 30.6442 97.3211 30.3926C98.7223 29.9974 100.591 30.5724 102.171 31.866C102.279 31.9738 102.387 32.0097 102.387 32.0097C102.674 31.866 103.249 30.8598 103.644 25.5414C103.644 25.3258 103.68 25.1102 103.68 24.9305C103.752 23.7447 104.183 22.9541 104.902 22.6307C106.231 22.0198 107.956 23.2775 108.962 24.0321C109.07 24.104 109.177 24.1759 109.249 24.2478C110.004 24.3197 110.543 25.0383 111.081 25.757C111.441 26.2242 111.908 26.871 112.195 26.907C112.303 26.907 112.411 26.8711 112.555 26.7632C113.309 26.1524 114.028 26.1523 114.459 26.2961C116.147 26.7632 117.189 29.3146 118.123 31.866L118.231 32.1894C118.734 33.5549 119.057 37.364 119.237 39.9873C119.417 39.8076 119.632 39.628 119.884 39.4842C120.387 39.2327 121.177 39.0171 122.219 39.4483C123.261 39.8795 123.8 40.9216 123.692 42.3231C123.513 44.6229 121.644 47.6056 119.273 48.504C118.878 50.5523 117.872 55.4035 117.117 56.3378C116.471 57.1643 112.842 61.6203 111.081 62.7702C110.579 63.1655 109.968 63.2733 109.357 63.2733ZM106.914 61.5125C106.95 61.5125 106.986 61.5125 107.022 61.5125C107.381 61.5484 107.704 61.6203 108.028 61.6562C109.213 61.8359 109.824 61.9436 110.435 61.5484C111.908 60.5781 115.285 56.5174 116.147 55.4394C116.543 54.9363 117.477 51.0913 118.087 47.8212C118.123 47.5337 118.339 47.3181 118.626 47.2463C120.566 46.7432 122.291 44.084 122.435 42.2153C122.507 41.4607 122.291 40.9936 121.86 40.7779C121.429 40.5983 121.034 40.5982 120.746 40.742C120.028 41.1373 119.632 42.3231 119.56 42.7184C119.489 43.0778 119.165 43.3293 118.806 43.2934C118.447 43.2575 118.159 42.9699 118.159 42.6106C118.051 40.3826 117.656 34.2018 117.117 32.6566L117.01 32.3332C116.543 31.0395 115.429 27.9491 114.315 27.6616C114.171 27.6257 113.992 27.6256 113.668 27.8772C113.201 28.2365 112.734 28.4162 112.231 28.3444C111.297 28.2366 110.686 27.3741 110.111 26.6195C109.896 26.296 109.501 25.7929 109.321 25.7211C108.998 25.757 108.782 25.5774 108.315 25.218C106.986 24.2118 106.088 23.7806 105.728 23.9603C105.549 24.0322 105.405 24.4634 105.333 25.0383C105.333 25.218 105.297 25.3977 105.297 25.6492C104.974 30.0692 104.507 32.7284 103.142 33.3393C102.854 33.483 102.207 33.5909 101.489 33.0159C100.267 32.0457 98.8661 31.5785 97.896 31.83C97.429 31.9738 97.1415 32.2613 96.9619 32.6925C96.387 34.2737 95.9918 40.4186 95.92 42.6465C95.92 43.0059 95.6325 43.2933 95.2733 43.3293C94.914 43.3652 94.5907 43.1137 94.5188 42.7544C94.4111 42.3232 94.0518 41.1373 93.3332 40.7779C93.0099 40.5983 92.6505 40.6341 92.2194 40.8138C91.7523 40.9935 91.5727 41.4966 91.6087 42.2512C91.7524 44.1199 93.4769 46.7791 95.417 47.2821C95.7045 47.354 95.8841 47.5697 95.9559 47.8571C96.6026 51.1272 97.5008 54.9723 97.896 55.4754C98.8301 56.6972 102.567 61.0094 103.393 61.4765C104.65 61.6562 105.836 61.6921 106.986 61.5484C106.842 61.5124 106.878 61.5125 106.914 61.5125Z" fill="black"/>
<path d="M148.231 139.132C148.231 139.132 148.878 154.297 148.231 155.339C147.621 156.381 137.058 157.315 135.8 156.058C134.543 154.8 134.112 153.327 133.932 152.716C133.717 152.105 132.136 152.392 132.351 150.416C132.567 148.44 132.567 146.14 133.609 145.277C134.651 144.451 138.818 140.139 139.573 137.551C140.291 134.964 148.231 139.132 148.231 139.132Z" fill="white"/>
<path d="M139.537 157.388C137.705 157.388 135.909 157.208 135.298 156.561C134.005 155.232 133.502 153.758 133.286 153.039C133.25 153.004 133.142 152.968 133.07 152.932C132.531 152.68 131.454 152.177 131.633 150.344C131.669 150.021 131.705 149.697 131.705 149.374C131.849 147.541 132.029 145.637 133.142 144.738C134.328 143.804 138.208 139.707 138.855 137.372C138.998 136.833 139.358 136.437 139.897 136.186C142.16 135.216 147.513 137.911 148.555 138.486C148.771 138.593 148.915 138.845 148.951 139.096C149.202 144.846 149.489 154.621 148.843 155.699C148.699 155.95 148.304 156.597 144.352 157.064C144.208 157.136 141.837 157.388 139.537 157.388ZM141.118 137.444C140.867 137.444 140.651 137.479 140.472 137.551C140.328 137.623 140.292 137.695 140.256 137.803C139.43 140.75 134.903 145.206 134.04 145.924C133.394 146.427 133.286 148.08 133.142 149.554C133.106 149.877 133.07 150.237 133.034 150.56C132.963 151.386 133.178 151.494 133.645 151.71C133.969 151.854 134.4 152.069 134.579 152.572L134.615 152.68C134.831 153.327 135.226 154.585 136.268 155.627C137.31 156.489 146.292 155.77 147.585 154.98C147.873 153.794 147.765 146.427 147.513 139.636C145.501 138.557 142.627 137.444 141.118 137.444Z" fill="black"/>
<path d="M152.722 117.823C152.722 117.823 145.07 122.53 136.914 121.74C136.914 121.74 140.974 129.753 138.782 138.378L148.663 140.103C148.698 140.067 152.83 127.31 152.722 117.823Z" fill="black"/>
<path d="M39.3699 21.373C39.3699 21.373 45.9446 27.7694 51.1901 30.213C51.1901 30.213 40.1962 32.0458 36.6393 37.9032C36.6393 37.9032 33.7291 33.555 30.2441 32.9081C30.2801 32.9081 33.334 24.715 39.3699 21.373Z" fill="black"/>
<path d="M169.716 115.811C169.716 115.811 187.069 108.372 184.77 98.1665C184.77 98.1665 193.967 106.791 199.608 116.637C205.248 126.483 214.877 130.724 217.392 136.006C219.907 141.289 222.601 150.919 217.392 151.566C212.182 152.177 203.165 151.135 201.907 142.367C200.65 133.598 196.266 131.586 192.278 128.927C188.326 126.268 176.219 121.668 169.716 115.811Z" fill="white"/>
<path d="M214.806 152.464C208.698 152.464 202.267 149.913 201.225 142.474C200.147 134.856 196.734 132.664 193.105 130.292C192.71 130.041 192.315 129.789 191.92 129.502C190.591 128.639 188.327 127.489 185.668 126.196C180.315 123.537 173.597 120.267 169.249 116.314C169.07 116.134 168.998 115.918 169.034 115.667C169.07 115.415 169.249 115.236 169.465 115.128C169.645 115.056 186.243 107.797 184.124 98.3101C184.052 97.9867 184.195 97.6993 184.483 97.5196C184.77 97.3758 185.094 97.4118 185.345 97.6274C185.453 97.6993 194.686 106.467 200.327 116.278C203.417 121.632 207.656 125.262 211.393 128.46C214.375 131.011 216.962 133.203 218.111 135.683C219.908 139.456 222.423 146.823 220.447 150.344C219.836 151.422 218.83 152.105 217.536 152.249C216.602 152.393 215.704 152.464 214.806 152.464ZM171.046 115.99C175.249 119.476 181.321 122.494 186.279 124.902C188.974 126.232 191.309 127.382 192.71 128.316C193.105 128.568 193.465 128.819 193.86 129.071C197.596 131.478 201.441 133.994 202.626 142.259C203.992 151.961 215.093 151.099 217.321 150.847C218.147 150.739 218.758 150.344 219.153 149.661C220.554 147.146 219.009 141.037 216.782 136.33C215.74 134.137 213.261 132.017 210.423 129.574C206.794 126.447 202.267 122.602 199.034 116.996C194.83 109.666 188.543 102.91 185.74 100.107C185.668 108.336 174.567 114.301 171.046 115.99Z" fill="black"/>
<path d="M101.309 42.9342C100.842 42.0358 102.064 40.4906 102.782 39.9516C104.112 38.9454 104.363 41.4608 104.471 42.2514C104.651 43.5451 106.663 43.2217 106.483 41.928C106.16 39.5922 105.154 36.6814 102.208 38.011C100.447 38.8016 98.4351 41.9639 99.4052 43.7966C99.98 44.9106 101.92 44.0841 101.309 42.9342Z" fill="black"/>
<path d="M110.974 42.2871C110.507 41.3888 111.729 39.8435 112.447 39.3045C113.813 38.2983 114.028 40.8138 114.136 41.6043C114.316 42.898 116.328 42.5746 116.148 41.2809C115.825 38.9452 114.819 36.0345 111.873 37.3641C110.112 38.1546 108.1 41.3169 109.07 43.1496C109.645 44.2635 111.585 43.4371 110.974 42.2871Z" fill="black"/>
<path d="M93.046 39.125C92.543 35.9268 92.7226 32.4411 93.1896 29.171C94.2315 21.8761 96.6028 15.0844 99.8363 10.0894C100.699 8.72382 101.633 7.50204 102.675 6.60366C103.824 5.59747 106.555 3.44139 107.776 2.86643C112.986 0.422835 114.387 0.458717 117.62 1.10555C115.501 1.4649 112.555 4.19602 110.687 6.17245C108.639 8.3645 106.555 10.6284 105.082 14.0063C106.806 12.3174 107.704 10.9159 109.213 9.73C110.507 8.72382 112.267 7.4302 113.633 6.63963C115.824 5.34596 118.159 4.98661 120.423 4.84287C119.345 5.31002 118.267 6.7474 117.297 7.86139C116.435 8.86758 115.68 10.0534 114.926 11.2752C113.884 12.9283 112.842 14.5813 111.8 16.2343C113.273 14.6172 114.746 12.8564 116.112 11.5986C118.914 9.01128 120.459 8.14891 124.698 6.8193C121.896 10.0175 117.405 13.4673 114.854 19.181C118.591 14.3657 121.357 12.9642 124.914 12.1018C121.896 14.8328 119.74 17.6717 117.549 22.3073C121.285 19.0732 125.309 14.6531 129.405 13.8626C127.213 16.0546 123.405 22.2714 121.86 25.829C120.207 29.5303 118.95 34.3816 118.016 34.6691C117.118 34.9566 116.04 31.4708 115.142 31.6505C111.225 32.3333 107.237 30.9318 103.429 32.8364C101.13 33.9863 99.01 36.2861 97.3932 39.4484C96.6388 40.8858 95.7765 42.6827 94.6987 42.3952C93.8005 42.1077 93.2974 40.5984 93.046 39.125Z" fill="black"/>
</svg>
