<svg width="205" height="183" viewBox="0 0 205 183" fill="none" xmlns="http://www.w3.org/2000/svg">
<path fill-rule="evenodd" clip-rule="evenodd" d="M40.9263 45.1829C41.537 45.1829 49.3334 38.9301 57.3093 42.4158C65.2853 45.8656 76.89 42.0564 76.89 42.0564C76.89 42.0564 74.6984 46.6921 71.896 49.0638C69.1296 51.4355 66.3272 51.184 66.3272 51.184C66.3272 51.184 69.8122 53.4838 77.1414 54.0947C84.5066 54.7056 87.812 51.2199 87.812 51.2199C87.812 51.2199 86.9497 57.293 84.0037 59.8084C81.0576 62.3239 79.9798 62.5395 79.9798 62.5395C79.9798 62.5395 83.5725 65.0191 88.9258 64.4082C94.3149 63.7973 97.764 61.4255 97.764 61.4255C97.764 61.4255 97.764 65.3425 95.4646 68.361C93.1652 71.3796 88.3868 72.7091 88.3868 72.7091C88.3868 72.7091 95.5365 74.8653 102.363 73.5716C109.189 72.278 111.093 69.4031 111.093 69.4031C111.093 69.4031 110.123 82.0523 93.4167 86.8317C76.7103 91.611 63.5248 84.3162 63.5248 84.3162L40.9263 45.1829Z" class="sec-color-fill"/>
<path fill-rule="evenodd" clip-rule="evenodd" d="M148.566 142.387C148.566 143.501 154.53 157.732 165.56 161.72C176.554 165.709 183.919 161.217 183.919 161.217C183.919 161.217 184.171 158.917 184.063 157.229C183.919 155.54 183.236 154.282 183.236 154.282C183.236 154.282 174.075 157.193 168.686 151.802C163.296 146.448 162.794 134.733 162.794 134.733C162.794 134.733 151.404 138.974 148.566 142.387ZM67.9082 137.608C67.9082 137.608 49.7288 139.513 43.4773 149.574C37.2259 159.636 38.0882 167.937 38.0882 167.937C38.0882 167.937 36.687 169.411 33.5972 169.59C30.4715 169.77 30.1481 168.476 30.1481 168.476C30.1481 168.476 27.3817 153.851 35.8607 139.297C44.3396 124.743 58.3874 122.839 58.3874 122.839L67.9082 137.608Z" class="main-color-fill"/>
<path fill-rule="evenodd" clip-rule="evenodd" d="M103.261 157.839C104.087 155.468 103.8 155.827 104.159 155.755C104.483 155.683 105.237 157.157 106.566 158.019C107.86 158.882 109.728 158.378 110.123 158.738C110.554 159.097 108.794 161.433 108.578 161.9C108.363 162.367 109.477 163.697 109.872 164.703C110.231 165.709 109.764 165.889 109.297 165.853C108.794 165.817 106.351 164.487 105.776 164.631C105.201 164.775 103.692 167.29 102.974 167.362C102.291 167.47 102.255 165.565 102.147 164.595C102.04 163.625 101.932 163.23 101.141 162.727C100.351 162.259 99.0935 161.9 98.806 161.217C98.4108 160.247 102.435 160.211 103.261 157.839Z" fill="#D9F0FC"/>
<path fill-rule="evenodd" clip-rule="evenodd" d="M48.2555 87.9456C52.8183 82.7709 51.7404 83.3818 52.6386 83.5256C53.5368 83.6693 54.0039 88.2331 56.4111 91.7188C58.8541 95.2045 64.0637 95.8873 64.7463 97.2528C65.4289 98.6183 58.6027 102.751 57.5967 103.721C56.5907 104.655 58.0637 109.219 57.9919 112.13C57.92 115.041 56.5188 115.077 55.3332 114.502C54.1476 113.927 49.2614 107.997 47.6447 107.746C46.0279 107.494 39.5609 112.346 37.6927 111.878C35.8244 111.411 37.6927 106.524 38.4112 104.009C39.1298 101.457 39.3094 100.271 37.7645 98.223C36.2196 96.1747 33.4173 93.9827 33.3813 92.0062C33.3813 89.1314 43.6926 93.1203 48.2555 87.9456Z" class="main-color-fill"/>
<path d="M94.9618 106.596C84.2194 106.596 76.7823 102.571 76.3871 102.355C76.2793 102.284 76.1716 102.212 76.0997 102.104L53.4652 62.9706C53.3215 62.755 53.3215 62.4675 53.4652 62.2519C53.573 62.0722 53.7526 61.9285 53.9323 61.8925C54.04 61.8207 54.3634 61.6409 54.6508 61.4972C57.1658 60.0239 63.8124 56.1429 70.7465 59.1614C78.3631 62.4675 89.6804 58.838 89.8241 58.8021C90.1115 58.6943 90.3989 58.8021 90.5786 59.0177C90.7582 59.2333 90.7942 59.5567 90.6864 59.8083C90.5786 59.9879 88.387 64.6236 85.5128 67.0671C84.2553 68.1452 82.9978 68.7202 81.9559 69.0436C83.6805 69.6904 86.4469 70.5169 90.363 70.8403C97.2611 71.4153 100.387 68.2171 100.423 68.2171C100.638 68.0014 100.962 67.9296 101.249 68.0733C101.537 68.2171 101.68 68.5045 101.644 68.8279C101.608 69.0795 100.71 75.1885 97.5845 77.8477C96.2911 78.9617 95.357 79.6445 94.6743 80.0398C96.0755 80.6866 98.6983 81.549 102.004 81.1537C107.105 80.5787 110.483 78.3148 110.519 78.2789C110.734 78.1351 111.021 78.0993 111.273 78.243C111.524 78.3508 111.668 78.6023 111.668 78.8898C111.668 79.0694 111.632 83.0582 109.225 86.2565C107.86 88.0532 105.704 89.2751 104.087 89.9938C106.71 90.5328 111.165 91.1077 115.441 90.3172C121.836 89.0954 123.704 86.4721 123.74 86.4721C123.92 86.2206 124.279 86.0768 124.566 86.1846C124.89 86.2924 125.069 86.5799 125.033 86.9033C125.033 87.0471 124.746 90.2812 122.375 94.1622C120.183 97.6838 115.728 102.427 106.854 104.979C102.614 106.165 98.5905 106.596 94.9618 106.596ZM77.2494 101.206C78.8302 101.996 91.2253 107.889 106.423 103.577C118.566 100.127 122.123 92.5092 123.165 88.8439C121.8 89.8141 119.429 91 115.656 91.7187C108.722 93.0483 101.644 90.9281 101.321 90.8203C100.998 90.7125 100.818 90.4609 100.818 90.1375C100.818 89.8141 101.034 89.5266 101.357 89.4547C101.393 89.4547 105.92 88.1611 108.039 85.3941C109.369 83.6332 109.872 81.549 110.087 80.2194C108.578 81.01 105.812 82.1958 102.183 82.5911C96.6144 83.2379 92.878 80.7225 92.7343 80.6147C92.4828 80.435 92.375 80.1476 92.4468 79.8601C92.5187 79.5726 92.7342 79.357 93.0217 79.2851C93.0217 79.2851 94.0636 78.9617 96.7222 76.6978C98.4827 75.2244 99.4527 72.2777 99.9198 70.3732C98.1953 71.3793 95.0696 72.6371 90.2912 72.2418C82.8182 71.6309 79.2613 69.3311 79.1176 69.2233C78.8302 69.0436 78.7224 68.6842 78.8302 68.3967C78.938 68.0733 79.2613 67.8936 79.5847 67.9296C79.6925 67.9296 82.1356 68.1093 84.6505 65.9891C86.3391 64.5517 87.8122 62.18 88.6744 60.6707C85.1176 61.605 76.6386 63.294 70.2435 60.527C63.992 57.7959 57.7765 61.4254 55.4412 62.7909C55.3334 62.8628 55.2256 62.8987 55.1538 62.9706L77.2494 101.206Z" fill="black"/>
<path fill-rule="evenodd" clip-rule="evenodd" d="M154.602 110.154C154.602 110.154 166.458 105.051 170.015 94.7375C173.572 84.4241 161.608 58.0117 179.967 49.531C198.326 41.0503 204.146 56.1071 204.146 56.1071C204.146 56.1071 193.943 51.0043 190.099 56.5384C186.29 62.0724 199.188 79.0698 198.829 91.1799C198.47 103.326 176.41 114.753 164.231 115.256C152.087 115.76 154.602 110.154 154.602 110.154Z" fill="white"/>
<path d="M162.757 116.011C158.338 116.011 155.5 115.113 154.314 113.316C153.2 111.663 153.955 109.902 153.955 109.83C154.027 109.65 154.17 109.543 154.314 109.471C154.422 109.435 165.919 104.368 169.332 94.4858C170.446 91.2517 169.943 86.1129 169.404 80.6508C168.254 69.1156 166.853 54.7775 179.679 48.8481C186.002 45.9374 191.571 45.3984 196.278 47.3029C202.457 49.8184 204.721 55.568 204.829 55.8195C204.936 56.107 204.864 56.3945 204.649 56.6101C204.433 56.8257 204.11 56.8617 203.858 56.7179C203.751 56.682 194.158 51.9385 190.745 56.8976C189.02 59.4131 191.499 65.3783 194.122 71.667C196.781 77.9916 199.763 85.1427 199.619 91.1798C199.403 98.9059 191.248 105.123 186.434 108.177C179.284 112.633 170.625 115.724 164.338 115.975C163.763 116.011 163.26 116.011 162.757 116.011ZM155.176 110.657C155.069 111.016 154.997 111.807 155.464 112.525C156.075 113.388 157.979 114.789 164.194 114.538C176.733 113.999 197.787 102.463 198.11 91.1438C198.29 85.4301 195.344 78.4227 192.757 72.2419C189.847 65.3064 187.332 59.3053 189.523 56.107C192.649 51.5792 199.296 53.3759 202.565 54.6337C201.451 52.8369 199.296 50.0699 195.703 48.6325C191.392 46.9076 186.218 47.4107 180.29 50.1418C168.398 55.6398 169.727 68.8281 170.841 80.507C171.416 86.3644 171.919 91.4314 170.697 94.953C167.356 104.655 157.116 109.794 155.176 110.657Z" fill="black"/>
<path d="M29.0701 171.207C25.9803 171.207 25.5132 169.698 25.4414 169.518V169.482C25.3336 168.871 22.7109 154.425 31.2257 139.8C39.7766 125.102 53.6806 123.054 54.2554 122.982C54.5429 122.946 54.7944 123.054 54.974 123.306L64.4948 138.111C64.6386 138.327 64.6386 138.578 64.5308 138.794C64.423 139.009 64.2074 139.189 63.9559 139.189C63.7763 139.225 46.028 141.165 40.064 150.796C34.0281 160.534 34.7826 168.62 34.8185 168.692C34.8544 168.907 34.7826 169.123 34.6389 169.267C34.567 169.338 33.0221 170.956 29.6449 171.135C29.4653 171.207 29.2856 171.207 29.0701 171.207ZM26.8426 169.159C26.9144 169.303 27.4533 169.878 29.5731 169.77C31.6928 169.662 32.9143 168.907 33.3814 168.548C33.2736 166.787 33.2736 159.169 38.8784 150.113C44.3753 141.237 58.5308 138.578 62.6985 137.967L54.0399 124.527C51.6327 124.995 39.8484 127.941 32.4832 140.555C24.5432 154.138 26.6629 167.973 26.8426 169.159ZM170.554 164.99C167.895 164.99 164.769 164.559 161.284 163.301C149.895 159.169 143.823 144.759 143.823 143.322C143.823 143.142 143.895 142.998 144.003 142.854C146.949 139.333 158.051 135.164 158.518 134.985C158.733 134.913 158.985 134.949 159.165 135.056C159.344 135.2 159.488 135.38 159.488 135.631C159.488 135.739 160.063 147.095 165.164 152.233C170.158 157.228 178.889 154.569 178.997 154.533C179.32 154.425 179.679 154.569 179.859 154.857C179.895 154.929 180.613 156.258 180.757 158.091C180.901 159.816 180.649 162.116 180.613 162.223C180.577 162.439 180.47 162.655 180.29 162.762C180.039 162.834 176.446 164.99 170.554 164.99ZM145.332 143.501C145.943 145.873 151.943 158.378 161.787 161.936C171.093 165.314 177.739 162.403 179.212 161.648C179.284 160.93 179.392 159.385 179.32 158.163C179.248 157.264 178.997 156.51 178.817 156.007C176.589 156.582 169.009 158.055 164.158 153.204C159.524 148.568 158.374 139.656 158.123 136.638C155.464 137.68 147.847 140.878 145.332 143.501Z" fill="black"/>
<path fill-rule="evenodd" clip-rule="evenodd" d="M172.458 164.164C177.129 163.769 179.931 162.08 179.931 162.08C179.931 162.08 180.183 159.78 180.075 158.091C179.931 156.402 179.248 155.144 179.248 155.144C179.248 155.144 176.698 155.935 173.536 155.935C173.177 158.307 172.745 161.828 172.458 164.164ZM25.765 161.577C27.741 161.828 30.5434 162.116 33.3098 162.188C33.8128 162.188 34.2799 162.188 34.711 162.188C33.8488 166.248 34.1362 168.836 34.1362 168.836C34.1362 168.836 32.735 170.309 29.6452 170.489C26.5195 170.668 26.1961 169.375 26.1961 169.375C26.1961 169.375 25.5854 166.284 25.765 161.577Z" fill="black"/>
<path fill-rule="evenodd" clip-rule="evenodd" d="M22.1722 62.755C22.1722 62.755 21.2021 49.9262 22.9626 48.884C24.6871 47.8419 30.9385 55.2805 30.9385 55.2805C30.9385 55.2805 36.3995 52.5135 44.0162 52.7651C51.6329 53.0166 54.3275 54.7415 54.3275 54.7415C54.3275 54.7415 59.1059 47.7342 60.9741 48.417C62.8783 49.0997 62.4472 60.7068 62.4472 60.7068C62.4472 60.7068 77.8602 97.2528 98.3031 100.199C118.746 103.146 134.482 92.2219 149.572 97.6121C164.662 103.002 171.739 120.575 168.039 134.589C164.302 148.64 152.051 153.204 151.404 153.743C150.758 154.282 153.237 164.128 154.961 169.95C156.686 175.771 158.59 179.472 158.59 179.472C158.59 179.472 156.255 181.377 154.171 181.736C152.087 182.096 151.548 181.916 151.548 181.916C151.548 181.916 143.177 168.907 139.692 166.679C136.171 164.416 132.363 161.361 132.363 161.361C132.363 161.361 106.171 168.297 91.0098 166.895C75.8483 165.494 64.6029 156.15 64.6029 156.15C64.6029 156.15 62.1598 156.941 59.3215 162.295C56.4473 167.65 55.5131 179.185 55.5131 179.185C55.5131 179.185 53.07 180.407 51.0221 180.407C48.9383 180.407 47.7168 179.365 47.7168 179.365C47.7168 179.365 46.3156 168.8 49.3695 159.169C52.3874 149.538 55.7646 145.837 55.7646 145.837C55.7646 145.837 50.6629 134.482 48.6509 124.096C46.6749 113.711 48.0401 107.099 48.0401 107.099C48.0401 107.099 40.4953 116.801 25.4416 119.245C10.3878 121.653 -0.0312099 114.214 0.831057 98.2949C1.72925 82.4115 22.1722 62.755 22.1722 62.755Z" fill="white"/>
<path d="M152.087 182.742C151.656 182.742 151.44 182.707 151.332 182.671C151.189 182.635 151.045 182.527 150.937 182.383C150.865 182.239 142.638 169.482 139.297 167.362C136.35 165.458 133.153 162.978 132.183 162.224C129.201 162.978 109.728 167.901 95.4287 167.901C93.8479 167.901 92.3389 167.829 90.9377 167.722C77.2493 166.464 66.5787 158.702 64.4949 157.121C63.8123 157.552 61.9799 158.918 59.9321 162.763C57.1656 167.937 56.2315 179.257 56.1956 179.365C56.1596 179.616 56.0159 179.832 55.8004 179.94C55.6926 179.976 53.2136 181.233 50.986 181.233C48.6867 181.233 47.2855 180.083 47.2136 180.011C47.0699 179.904 46.9981 179.724 46.9621 179.544C46.8903 179.113 45.5969 168.692 48.6507 159.061C51.2016 150.976 54.004 146.987 54.9022 145.837C53.9681 143.681 49.6926 133.583 47.9322 124.348C46.6029 117.448 46.7466 112.238 46.9981 109.435C44.052 112.417 36.9383 118.239 25.5132 120.072C17.3576 121.401 10.6032 119.892 6.04038 115.795C1.72904 111.914 -0.318842 105.877 0.0763635 98.3668C0.902703 83.0944 18.9385 64.9111 21.3456 62.5394C21.2738 61.641 21.13 58.9818 21.0941 56.2867C21.0582 50.034 21.7768 48.7762 22.4953 48.345C24.3636 47.231 28.4952 51.5073 31.0461 54.4899C32.591 53.8072 37.5131 51.9385 43.9442 52.1542C49.7645 52.3698 52.7824 53.4119 54.004 53.9509C55.6926 51.5073 59.1057 47.1233 61.1536 47.8779C61.9799 48.1654 62.8422 49.2434 63.0937 54.9211C63.2015 57.5085 63.1296 60.0599 63.1296 60.7067C64.2075 63.1863 79.1894 96.8575 98.3748 99.6245C108.039 101.026 116.482 99.3011 124.674 97.6481C133.44 95.8513 141.74 94.1983 149.787 97.0731C157.045 99.6604 162.973 105.23 166.494 112.705C169.799 119.748 170.59 127.834 168.721 134.949C166.458 143.429 160.961 149.898 152.338 154.21C152.195 154.282 152.087 154.354 151.979 154.39C151.907 155.899 153.668 163.409 155.608 169.914C157.296 175.591 159.165 179.293 159.201 179.329C159.344 179.616 159.272 180.011 159.021 180.227C158.913 180.299 156.506 182.239 154.278 182.635C153.237 182.671 152.554 182.742 152.087 182.742ZM151.979 181.305C152.266 181.305 152.913 181.305 154.063 181.09C155.428 180.874 156.937 179.868 157.692 179.329C157.117 178.071 155.644 174.801 154.278 170.237C153.344 167.111 152.302 163.23 151.584 160.103C150.147 153.887 150.542 153.599 150.937 153.276C151.081 153.168 151.26 153.06 151.692 152.844C159.919 148.712 165.165 142.531 167.32 134.518C170.805 121.401 164.374 103.757 149.32 98.4027C141.632 95.6716 133.548 97.2887 124.961 99.0495C117.057 100.667 108.075 102.463 98.1952 101.062C89.5006 99.8042 80.7342 92.689 72.1116 79.8961C65.7524 70.4451 61.8362 61.2098 61.7644 61.1379C61.7284 61.0301 61.6925 60.9224 61.6925 60.8146C61.9081 55.029 61.441 49.7465 60.6506 49.2075C60.0399 48.9919 57.3453 51.5792 54.8303 55.2805C54.6147 55.6039 54.1836 55.6758 53.8603 55.4961C53.8243 55.4961 51.1657 53.8791 43.9083 53.6275C36.579 53.376 31.2258 56.0351 31.1898 56.071C30.9024 56.2148 30.5431 56.1429 30.3276 55.8914C27.3456 52.3338 24.0402 49.4231 23.2498 49.6387C22.4953 50.3574 22.3875 57.0413 22.8187 62.8269C22.8187 63.0425 22.7468 63.2581 22.6031 63.4019C22.3875 63.5816 2.33981 83.0225 1.51347 98.5105C1.11827 105.59 3.02245 111.232 7.01043 114.789C11.2499 118.598 17.5732 119.964 25.2977 118.742C39.8844 116.406 47.3933 106.991 47.4651 106.883C47.6807 106.632 48.04 106.524 48.3274 106.668C48.6148 106.812 48.7944 107.135 48.7226 107.458C48.7226 107.53 47.3933 114.034 49.3334 124.168C51.2735 134.374 56.3393 145.621 56.3752 145.765C56.483 146.017 56.4471 146.34 56.2674 146.556C56.2315 146.592 52.9621 150.329 50.016 159.636C47.3573 168.081 48.1837 177.424 48.3633 179.221C48.7585 179.472 49.6567 179.94 50.986 179.94C52.4232 179.94 54.1118 179.293 54.8303 178.969C55.0459 176.813 56.0519 167.147 58.6746 162.224C61.5847 156.761 64.0997 155.827 64.3871 155.719C64.6386 155.647 64.8901 155.683 65.0697 155.863C65.1775 155.971 76.3511 165.098 91.0814 166.428C105.92 167.793 131.931 160.966 132.183 160.894C132.398 160.822 132.65 160.894 132.83 161.038C132.865 161.074 136.638 164.128 140.087 166.32C143.428 168.261 150.722 179.329 151.979 181.305Z" fill="black"/>
<path fill-rule="evenodd" clip-rule="evenodd" d="M156.182 173.795C157.476 177.388 158.589 179.544 158.589 179.544C158.589 179.544 156.254 181.449 154.17 181.808C152.086 182.168 151.547 181.988 151.547 181.988C151.547 181.988 150.038 179.652 148.062 176.813C150.937 175.843 154.817 174.477 156.182 173.795ZM56.3029 173.184C55.764 176.562 55.5125 179.257 55.5125 179.257C55.5125 179.257 53.0694 180.479 51.0215 180.479C48.9377 180.479 47.7162 179.437 47.7162 179.437C47.7162 179.437 47.285 176.274 47.4287 171.854C49.297 172.573 51.8119 173.22 54.6862 173.22C55.261 173.184 55.7999 173.184 56.3029 173.184Z" fill="black"/>
<path fill-rule="evenodd" clip-rule="evenodd" d="M21.9566 82.3398C24.0404 82.3398 25.729 80.9384 25.729 79.2135C25.729 77.4886 24.0404 76.0872 21.9566 76.0872C19.8728 76.0872 18.1842 77.4886 18.1842 79.2135C18.1482 80.9384 19.8368 82.3398 21.9566 82.3398Z" fill="black"/>
<path fill-rule="evenodd" clip-rule="evenodd" d="M44.088 85.9332C46.7107 85.9332 48.8663 84.4239 48.8663 82.5912C48.8663 80.7586 46.7107 79.2493 44.088 79.2493C41.4652 79.2493 39.3096 80.7586 39.3096 82.5912C39.3096 84.4239 41.4652 85.9332 44.088 85.9332Z" fill="black"/>
<path fill-rule="evenodd" clip-rule="evenodd" d="M32.3033 51.2199C29.7884 53.376 26.3393 56.5743 30.0399 63.2582C33.7764 69.9422 52.6025 68.9361 56.6983 64.2285C60.83 59.4851 60.4348 54.0947 60.4348 54.0947C60.4348 54.0947 58.6025 57.293 55.1534 56.7899C51.7043 56.2508 54.8301 42.5595 32.3033 51.2199Z" fill="black"/>
<path fill-rule="evenodd" clip-rule="evenodd" d="M37.6928 18.3752C37.6928 18.3752 36.1479 30.9525 35.7887 39.8644C35.4294 48.7763 35.8964 56.8617 35.8964 56.8617C35.8964 56.8617 38.3395 58.5865 42.2197 58.5865C46.0999 58.5865 49.3334 56.3227 49.3334 56.3227C49.3334 56.3227 45.5251 32.5695 43.4413 26.1012C41.3575 19.6329 38.7347 17.4408 37.6928 18.3752Z" fill="white"/>
<path d="M42.1834 59.3051C38.0877 59.3051 35.5368 57.5084 35.429 57.4365C35.2494 57.2928 35.1416 57.1131 35.1416 56.8975C35.1416 56.8256 34.7105 48.7043 35.0338 39.8643C35.3931 31.0242 36.938 18.4469 36.938 18.3032C36.9739 18.1235 37.0458 17.9798 37.1536 17.872C37.5488 17.5127 38.0877 17.3689 38.6625 17.5485C40.4948 18.0516 42.5068 21.178 44.0157 25.9214C46.0995 32.3897 49.7642 55.2804 49.9438 56.2506C49.9797 56.5381 49.8719 56.7897 49.6564 56.9693C49.5486 57.0053 46.2792 59.3051 42.1834 59.3051ZM36.5787 56.4303C37.2973 56.8615 39.3451 57.8677 42.2194 57.8677C45.0936 57.8677 47.6085 56.5381 48.5426 55.9991C48.0037 52.6571 44.6265 32.2101 42.7583 26.3526C41.0337 20.9624 39.1655 19.1297 38.411 18.9501C38.1236 21.2499 36.8661 32.0663 36.5428 39.9361C36.1835 47.6262 36.4709 54.7773 36.5787 56.4303Z" fill="black"/>
<path fill-rule="evenodd" clip-rule="evenodd" d="M59.1771 76.5183C58.3867 77.5604 57.5245 78.6026 56.5903 79.5728C57.4885 78.6385 58.3867 77.6323 59.1771 76.5183Z" fill="black"/>
<path fill-rule="evenodd" clip-rule="evenodd" d="M149.679 163.374C150.038 162.978 150.326 162.619 150.47 162.332C150.218 162.691 149.967 163.05 149.679 163.374Z" fill="black"/>
<path d="M118.207 86.3288C118.207 86.3288 112.53 78.7105 109.333 76.9497C106.135 75.1888 95.8237 73.967 90.4345 69.3673C85.0454 64.7316 83.2849 55.3526 88.4585 53.6996C88.4585 53.6996 91.692 57.5806 92.2309 57.0056C92.7698 56.4306 97.9794 44.572 103.333 43.7814C108.686 42.9908 117.883 43.6376 122.59 51.6871C127.332 59.7367 129.344 68.5408 136.925 76.195L118.207 86.3288Z" fill="white"/>
<path d="M118.207 87.0472C117.991 87.0472 117.776 86.9394 117.632 86.7597C117.56 86.6879 111.991 79.2493 108.973 77.5603C107.931 76.9854 105.991 76.4463 103.764 75.8354C99.2368 74.5777 93.5962 73.0325 89.9675 69.9062C86.2669 66.7439 84.0034 61.1021 84.7938 57.0774C85.225 55.0291 86.4106 53.5558 88.207 52.9808C88.4944 52.909 88.7818 52.9808 88.9974 53.1964C89.9675 54.3822 91.2249 55.7119 91.8716 56.1431C91.9794 55.9275 92.159 55.6041 92.3028 55.3166C94.1351 51.8309 98.4464 43.7096 103.225 42.9909C106.494 42.5237 117.596 41.6612 123.237 51.22C124.853 53.951 126.147 56.7899 127.404 59.521C129.919 64.9472 132.506 70.5531 137.464 75.548C137.608 75.6918 137.715 75.9433 137.68 76.1589C137.644 76.3745 137.5 76.5901 137.32 76.6979L118.602 86.9034C118.422 87.0112 118.314 87.0472 118.207 87.0472ZM88.1711 54.526C87.1292 55.0291 86.4465 55.9634 86.1591 57.3649C85.4406 60.9224 87.4884 65.9534 90.8297 68.7922C94.2429 71.703 99.7039 73.2122 104.087 74.434C106.422 75.0808 108.434 75.6558 109.62 76.3026C112.458 77.8838 117.021 83.6334 118.35 85.3942L135.703 75.9433C130.997 70.9483 128.482 65.4862 126.039 60.1678C124.781 57.4368 123.488 54.6338 121.943 51.9746C116.77 43.2065 106.422 43.9611 103.404 44.4283C99.3805 45.0392 95.1411 52.9808 93.5602 55.9993C93.0572 56.9696 92.8776 57.293 92.7339 57.4367C92.5543 57.6164 92.3028 57.7242 92.0153 57.7242C91.2609 57.7242 89.9675 56.6462 88.1711 54.526Z" fill="black"/>
<path d="M117.201 128.48C108.219 130.026 97.0453 129.523 89.3568 128.445C74.1953 126.252 84.8299 123.737 112.207 96.2107L134.231 75.4402C134.231 75.4402 154.458 76.9135 152.374 87.8378C150.614 97.0732 136.71 104.871 115.009 112.346C128.303 111.663 141.524 117.772 150.147 113.783C155.32 111.411 158.769 110.441 160.458 114.574C161.464 117.125 168.793 119.569 172.781 123.162C176.841 126.827 176.841 132.469 172.458 130.062C168.075 127.618 162.542 124.923 155.176 124.312C152.374 124.096 145.979 121.94 139.907 124.779C130.494 129.199 117.165 129.127 117.165 129.127C117.201 128.912 117.201 128.696 117.201 128.48Z" fill="white"/>
<path d="M174.254 131.319C173.68 131.319 172.961 131.14 172.063 130.636C167.356 128.049 162.039 125.534 155.069 124.995C154.458 124.959 153.704 124.815 152.841 124.671C149.644 124.096 144.794 123.27 140.195 125.426C130.746 129.882 117.704 129.846 117.129 129.846C116.914 129.846 116.734 129.774 116.59 129.594C116.518 129.523 116.482 129.415 116.447 129.343C107.321 130.78 96.4707 130.205 89.2492 129.163C84.7942 128.516 82.2792 127.87 81.7762 126.181C81.0936 123.953 84.1475 121.257 91.4767 114.717C96.4707 110.261 103.297 104.188 111.668 95.7076L133.728 74.9012C133.872 74.7575 134.087 74.6856 134.267 74.7216C134.806 74.7575 147.093 75.7277 151.584 81.5851C153.021 83.4537 153.524 85.6098 153.057 87.9816C151.476 96.2466 140.698 103.829 119.177 111.627C123.381 111.807 127.476 112.489 131.5 113.136C138.434 114.286 145.009 115.364 149.788 113.136C153.524 111.411 156.29 110.513 158.374 111.339C159.56 111.807 160.422 112.777 161.033 114.322C161.5 115.472 164.015 116.873 166.458 118.239C168.721 119.497 171.308 120.934 173.177 122.623C175.907 125.067 177.165 128.768 175.943 130.493C175.763 130.78 175.26 131.319 174.254 131.319ZM146.913 122.551C149.249 122.551 151.404 122.91 153.129 123.234C153.955 123.378 154.674 123.521 155.213 123.557C162.47 124.132 167.931 126.72 172.781 129.379C173.141 129.594 174.398 130.205 174.829 129.63C175.476 128.732 174.685 125.821 172.278 123.665C170.518 122.084 168.039 120.683 165.811 119.461C162.901 117.844 160.422 116.442 159.775 114.825C159.308 113.675 158.698 112.956 157.907 112.633C156.29 111.986 153.776 112.885 150.434 114.394C145.225 116.801 138.47 115.688 131.285 114.502C126.003 113.639 120.542 112.741 115.009 113.028C114.65 113.064 114.327 112.813 114.255 112.453C114.183 112.094 114.399 111.771 114.722 111.627C138.363 103.506 150.075 95.8873 151.62 87.6582C152.015 85.6458 151.62 83.9568 150.434 82.4116C146.698 77.5604 136.386 76.3386 134.446 76.159L112.638 96.7138C104.231 105.194 97.3689 111.303 92.3749 115.759C86.5546 120.97 82.6744 124.42 83.1056 125.749C83.4289 126.863 87.6325 127.474 89.3929 127.726C96.7581 128.768 107.86 129.343 117.021 127.762C117.237 127.726 117.453 127.798 117.632 127.941C117.776 128.049 117.848 128.229 117.884 128.409C120.83 128.337 131.68 127.834 139.548 124.132C142.099 122.946 144.614 122.551 146.913 122.551Z" fill="black"/>
<path d="M136.458 75.7637L139.261 77.9916L119.357 87.766C119.357 87.766 118.207 86.9395 118.207 86.3645C118.207 85.7896 136.458 75.7637 136.458 75.7637Z" fill="white"/>
<path d="M119.32 88.4486C119.177 88.4486 119.033 88.4127 118.889 88.3049C118.458 87.9815 117.452 87.155 117.452 86.3285C117.452 85.7535 117.452 85.5379 126.937 80.2195C131.464 77.6681 136.027 75.1527 136.063 75.1527C136.314 75.0089 136.638 75.0448 136.853 75.2245L139.656 77.4525C139.835 77.5962 139.943 77.8478 139.907 78.0993C139.871 78.3509 139.727 78.5665 139.512 78.6743L119.608 88.4486C119.536 88.4486 119.428 88.4486 119.32 88.4486ZM119.069 86.5081C119.177 86.6159 119.284 86.7597 119.428 86.8675L137.895 77.8118L136.35 76.5901C130.242 79.9679 120.937 85.1786 119.069 86.5081Z" fill="black"/>
<path d="M147.811 75.4043C147.811 75.4043 151.656 79.5729 153.021 81.6212C154.386 83.6695 155.464 84.4241 158.662 83.1304C161.859 81.8368 162.039 81.2618 161.895 79.8244C161.715 78.387 161.176 76.3028 159.488 75.9793C157.835 75.62 156.829 76.0152 156.829 76.0152C156.829 76.0152 157.081 74.3622 156.111 73.6794C155.177 72.9967 150.47 71.0203 150.47 71.0203C150.47 71.0203 147.632 73.1764 147.811 75.4043Z" fill="white"/>
<path d="M156.074 84.4958C154.457 84.4958 153.487 83.5974 152.446 82.0522C151.116 80.0758 147.344 75.9433 147.308 75.9073C147.2 75.7995 147.128 75.6557 147.128 75.476C146.913 72.8887 149.931 70.5529 150.074 70.4451C150.29 70.3013 150.541 70.2654 150.793 70.3732C151.296 70.5888 155.607 72.4215 156.577 73.1402C157.296 73.6793 157.547 74.5059 157.583 75.1886C158.086 75.1527 158.805 75.1527 159.667 75.3323C161.284 75.6557 162.326 77.2728 162.613 79.7883C162.829 81.7647 162.11 82.5553 158.948 83.849C157.799 84.2802 156.865 84.4958 156.074 84.4958ZM148.529 75.1167C149.32 75.9791 152.41 79.393 153.631 81.2257C154.853 83.0225 155.571 83.5975 158.41 82.4475C161.356 81.2617 161.284 80.9382 161.176 79.8961C161.068 79.0337 160.673 76.9494 159.344 76.6619C157.942 76.3744 157.08 76.6619 157.08 76.6619C156.829 76.7338 156.577 76.6978 156.398 76.5541C156.218 76.4104 156.11 76.1589 156.146 75.9073C156.182 75.5839 156.218 74.6136 155.751 74.2543C155.14 73.823 152.517 72.6372 150.649 71.8466C149.823 72.5294 148.565 73.8589 148.529 75.1167Z" fill="black"/>
<path d="M107.033 58.9457C107.033 58.9457 110.051 62.0721 116.518 62.3955C116.518 62.3955 122.769 64.3 127.44 65.0547C127.44 65.0547 130.458 71.523 139.296 73.3917C148.099 75.2603 148.458 76.1945 148.458 76.1945C148.458 76.1945 149.572 73.8228 151.871 71.9183C151.871 71.9183 143.212 62.4674 134.626 59.916C134.626 59.916 121.548 48.309 113.464 44.5717C105.38 40.8704 98.7697 52.9086 107.033 58.9457Z" fill="white"/>
<path d="M148.494 76.9134C148.458 76.9134 148.494 76.9134 148.494 76.9134C148.243 76.9134 148.063 76.8057 147.919 76.626C147.74 76.4822 146.374 75.6198 139.189 74.0746C131.213 72.3856 127.8 67.1031 127.009 65.7016C122.698 64.947 117.165 63.3299 116.41 63.0784C110.159 62.7549 106.997 59.9161 106.566 59.4848C101.752 55.9632 101.752 50.6448 103.764 47.195C105.56 44.1046 109.369 41.9126 113.752 43.9609C121.512 47.5544 133.584 58.0474 134.985 59.3052C143.608 61.9644 152.051 71.056 152.41 71.4513C152.554 71.595 152.626 71.7747 152.59 71.9903C152.59 72.17 152.482 72.3856 152.338 72.4934C150.219 74.2543 149.141 76.4822 149.141 76.5182C149.033 76.7697 148.781 76.9134 148.494 76.9134ZM107.572 58.4787C107.608 58.5147 110.482 61.4254 116.59 61.6769C116.662 61.6769 116.698 61.677 116.77 61.7129C116.842 61.7488 123.057 63.5815 127.62 64.3721C127.836 64.408 128.051 64.5518 128.159 64.7674C128.195 64.8393 131.177 70.9482 139.512 72.6731C144.829 73.7871 147.201 74.6136 148.278 75.1526C148.746 74.362 149.608 73.0683 150.901 71.8825C148.925 69.8701 141.596 62.755 134.482 60.6348C134.374 60.5989 134.303 60.5629 134.195 60.491C134.051 60.3832 121.081 48.9199 113.213 45.2905C109.656 43.6374 106.566 45.4342 105.093 47.9497C103.369 50.8605 103.405 55.3882 107.536 58.4068C107.5 58.4068 107.536 58.4428 107.572 58.4787Z" fill="black"/>
<path d="M93.8473 36.9896C94.0629 36.2709 95.9671 29.9103 93.1288 27.0714C89.2845 23.2263 83.7876 26.2809 83.7876 26.2809C83.7876 26.2809 81.9912 30.3057 81.3804 32.0665C81.0211 33.1086 76.2787 33.6476 73.7996 35.2287C70.7098 37.2052 75.9553 37.1693 77.8954 37.1693C78.5062 37.1693 80.7696 37.7802 80.7696 38.0317C80.7696 38.2833 80.1948 42.6315 82.1349 44.536C83.0331 45.3985 83.6439 47.0874 86.4462 46.764C87.5241 49.0998 88.6378 52.37 88.3863 55.4245C88.3863 55.4245 99.3084 62.7552 101.069 46.5484C101.069 46.5484 97.512 43.3142 95.7515 39.1457C96.9371 37.9599 98.2305 36.1631 96.9012 35.1569C95.033 33.7195 93.9911 36.5225 93.8473 36.9896V37.0255C93.8473 37.0255 93.8473 37.0255 93.8473 37.0615C93.8114 37.0255 93.8114 37.0256 93.8473 36.9896Z" fill="white"/>
<path d="M93.6326 57.832C90.6865 57.832 88.1357 56.1431 87.992 56.0353C87.7764 55.8915 87.6686 55.64 87.6686 55.3884C87.8842 52.6573 86.9141 49.6747 85.98 47.5545C83.7166 47.6264 82.7465 46.4406 82.0639 45.6141C81.9202 45.4344 81.7405 45.2188 81.5968 45.075C80.6986 44.2126 79.7286 42.3798 79.9801 38.4629C79.4052 38.2473 78.1837 37.9239 77.8603 37.9239H77.7526C74.3035 37.9239 72.4712 37.7083 72.1478 36.5943C71.8604 35.624 72.9742 34.9054 73.4053 34.6538C74.6987 33.8273 76.4951 33.2883 78.0759 32.7852C79.0819 32.4977 80.4471 32.0665 80.6986 31.779C81.3453 29.9822 83.0339 26.1372 83.1058 25.9575C83.1777 25.8138 83.2854 25.7059 83.4291 25.6341C83.501 25.5981 89.4291 22.364 93.5967 26.5324C95.5368 28.437 95.5008 31.7071 95.1775 34.1148C95.2134 34.1148 95.2493 34.0788 95.2853 34.0788C95.7523 33.9351 96.5068 33.8992 97.405 34.582C97.908 34.9773 98.1954 35.4803 98.2313 36.0553C98.3032 36.9536 97.7643 38.0317 96.6505 39.2535C98.3751 43.0267 101.537 45.9375 101.573 45.9734C101.752 46.1171 101.824 46.3687 101.788 46.5843C101.177 52.2261 99.381 55.7837 96.4709 57.1492C95.5368 57.6523 94.5667 57.832 93.6326 57.832ZM89.1416 55.065C90.1476 55.64 93.2374 57.1492 95.8601 55.9274C98.2314 54.8134 99.7403 51.759 100.315 46.8718C99.417 46.0093 96.6146 43.0986 95.1056 39.4691C94.9979 39.2176 95.0697 38.8942 95.2494 38.6785C96.6505 37.2411 96.7583 36.4865 96.7583 36.2349C96.7583 36.1271 96.7224 35.9475 96.5068 35.8037C96.0398 35.4444 95.7883 35.5163 95.7164 35.5522C95.1775 35.7319 94.7104 36.6662 94.5308 37.2411C94.5308 37.2411 94.5308 37.2412 94.5308 37.2771V37.313V37.349C94.423 37.6364 94.1715 37.8161 93.8482 37.8161C93.453 37.8161 93.1296 37.4927 93.1296 37.0974C93.1296 37.0256 93.1296 36.9896 93.1656 36.9178C93.1656 36.8459 93.2015 36.81 93.2374 36.7381C93.453 36.0194 95.1775 30.09 92.6626 27.6105C89.6087 24.556 85.3692 26.3528 84.3992 26.8559C84.004 27.7183 82.6387 30.8806 82.0998 32.3539C81.7765 33.2164 80.4831 33.6117 78.543 34.1866C77.034 34.6538 75.3454 35.1569 74.2316 35.8756C74.0161 36.0193 73.8724 36.1272 73.7646 36.1991C74.2317 36.3428 75.3454 36.4865 77.8244 36.4865H77.9322C77.9681 36.4865 81.489 36.8458 81.525 38.0317C81.525 38.0676 81.525 38.1395 81.525 38.2832C81.2375 41.9845 82.1357 43.4579 82.7106 44.0329C82.9261 44.2485 83.1058 44.4641 83.2854 44.6797C83.9681 45.5062 84.5788 46.2609 86.4471 46.0453C86.7704 46.0093 87.0578 46.189 87.1656 46.4765C88.1357 48.7044 89.2494 51.9387 89.1416 55.065Z" fill="black"/>
<path d="M83.5362 31.8507C83.7517 31.8867 87.3086 32.0304 88.7098 33.2163C88.8894 33.396 88.602 32.0304 87.5242 31.5992C86.4823 31.1679 83.3206 30.7367 83.2128 30.9163C83.141 31.132 83.5362 31.8507 83.5362 31.8507Z" fill="black"/>
<path d="M83.4287 34.0431C83.4287 34.3665 83.6084 34.6539 83.788 34.6539C84.0036 34.6539 84.1473 34.3665 84.1473 34.0431C84.1473 33.7197 83.9676 33.4321 83.788 33.4321C83.5724 33.4321 83.4287 33.7197 83.4287 34.0431Z" fill="black"/>
<path d="M91.9797 40.7627C91.9797 40.7627 88.387 42.5954 94.2073 43.8891C94.2073 43.8891 102.938 33.971 98.3749 32.4977C96.0037 31.743 88.6744 46.0451 103.584 16.7221C105.381 13.2364 97.2252 20.0282 95.4647 21.0703C91.2971 23.5857 102.399 13.0927 102.578 5.43849C102.578 5.43849 87.2014 14.9613 87.4529 16.9377C87.4529 16.9377 89.6085 2.99487 90.1474 0.730957C90.1474 0.730957 82.8182 14.4223 83.5727 17.0456C83.5727 17.0456 81.381 15.8956 80.7343 14.7098C78.8302 -9.07928 77.7883 17.908 81.0936 26.3887C82.4948 29.9463 88.4229 24.3404 90.8301 26.8559C93.2372 29.3713 88.854 35.6958 91.9438 37.4926C91.9438 37.4926 95.0336 35.2287 93.2013 35.0131" fill="black"/>
</svg>
