<svg width="157" height="255" viewBox="0 0 157 255" fill="none" xmlns="http://www.w3.org/2000/svg">
<path fill-rule="evenodd" clip-rule="evenodd" d="M49.1728 147.864C49.2538 148.107 51.6437 168.122 49.1728 176.063C46.0133 186.11 47.917 203.694 53.3449 210.946C93.8111 265.074 22.1953 211.432 27.4612 194.7C32.9296 177.359 16.2003 162.571 22.0737 155.846C27.9472 149.161 26.489 136.804 29.8106 132.387C32.6865 128.579 38.9245 126.796 42.1246 129.389C45.3651 131.942 47.9576 144.663 49.1728 147.864Z" class="main-color-fill"/>
<path fill-rule="evenodd" clip-rule="evenodd" d="M62.3785 7.60092C62.9051 5.00796 58.7734 2.29345 56.1405 2.65808C52.9809 3.10375 47.4315 7.39834 43.2998 10.1534C39.1681 12.9084 30.7426 22.3079 30.9046 24.6982C31.0667 27.0481 32.5654 37.2579 38.4794 31.5453C44.3934 25.8327 49.9429 23.5233 52.1708 22.9966C54.3176 22.4699 61.6899 11.0042 62.3785 7.60092Z" class="main-color-fill"/>
<path fill-rule="evenodd" clip-rule="evenodd" d="M115.24 35.7183C117.265 35.6372 118.359 31.7073 117.508 29.6005C116.495 27.0481 112.121 23.2802 109.204 20.3226C106.288 17.4055 97.5381 12.1791 95.8774 12.7463C94.1761 13.3135 87.0065 16.5142 92.5154 20.3631C97.9838 24.1715 100.9 28.385 101.751 30.1272C102.561 31.8693 112.607 35.7993 115.24 35.7183Z" class="sec-color-fill"/>
<path fill-rule="evenodd" clip-rule="evenodd" d="M135.534 111.684C138.572 111.563 140.151 105.688 138.936 102.528C137.437 98.7193 130.916 93.0877 126.582 88.7121C122.247 84.3364 109.204 76.5575 106.693 77.4489C104.181 78.3402 93.4875 83.0805 101.67 88.7931C109.852 94.5058 114.146 100.745 115.442 103.338C116.698 105.931 131.645 111.806 135.534 111.684Z" class="sec-color-fill"/>
<path d="M55.9784 240.198C55.8974 240.198 55.8164 240.198 55.7354 240.157C55.4924 240.076 55.2898 239.874 55.2088 239.631C55.1278 239.307 45.9733 208.556 43.7859 193.362C43.2999 189.919 40.829 184.814 38.2365 179.425C34.9555 172.619 31.2693 164.921 30.2972 158.236C28.9605 148.796 33.8618 141.544 35.4415 139.194C35.563 138.991 35.7251 138.789 35.8061 138.627C35.3201 136.398 34.915 133.684 34.6719 130.605C34.6719 130.402 34.7124 130.24 34.8339 130.078C35.5225 129.146 35.9276 128.174 36.1301 127.201C35.8466 126.837 35.2795 126.067 34.4288 124.851C34.3478 124.73 34.3073 124.568 34.3073 124.446C34.1858 121.934 34.1454 119.26 34.1859 116.465C34.1859 116.1 34.4289 115.776 34.7529 115.695C35.077 115.573 35.482 115.735 35.6441 116.019C38.4795 120.314 40.0188 122.096 40.5859 122.623C41.1529 122.137 42.4492 120.881 43.5024 119.828C44.5556 118.815 45.6087 117.761 46.4999 116.951C47.7556 115.817 48.4442 115.168 49.1328 115.695C49.2948 115.817 49.5379 116.1 50.7936 117.478C51.8468 118.653 53.305 120.233 54.5607 121.57C55.3303 122.38 55.8974 122.907 56.3025 123.271C56.424 122.988 56.6671 122.745 57.0316 122.745C57.4367 122.704 57.7608 122.988 57.8823 123.352L62.4595 142.151C62.5405 142.475 62.4191 142.8 62.1355 143.002C62.0545 143.083 52.7379 150.052 52.8594 159.937C52.9809 169.783 60.4747 194.294 61.0418 196.158C61.5683 196.968 64.971 202.316 65.5786 207.543C66.2267 213.215 62.7026 228.611 61.0823 233.108C60.9203 233.513 60.7987 233.918 60.6367 234.323C58.8949 238.253 56.5861 240.036 56.4646 240.117C56.3025 240.157 56.1404 240.198 55.9784 240.198ZM36.3326 130.767C36.6162 133.765 36.9808 136.398 37.4669 138.545C37.5479 138.951 37.3859 139.234 36.7783 140.126C35.077 142.638 30.6212 149.241 31.8769 158.033C32.8086 164.435 36.4542 172.051 39.6543 178.736C42.4087 184.49 44.7986 189.473 45.3252 193.16C47.229 206.489 54.6012 231.973 56.343 237.929C57.1127 237.119 58.2064 235.701 59.0975 233.634C59.2595 233.31 59.3811 232.946 59.5026 232.54C61.2444 227.638 64.4849 212.769 63.9178 207.705C63.3507 202.559 59.6241 197.009 59.5836 196.968C59.5431 196.887 59.5025 196.847 59.462 196.766C59.138 195.712 51.3202 170.39 51.1582 159.978C51.0366 150.416 58.6924 143.61 60.6772 142.07L56.6671 125.54C56.2215 125.459 55.5733 125.013 53.3455 122.704C52.0493 121.367 50.5911 119.746 49.5379 118.572C49.1328 118.126 48.7278 117.68 48.4442 117.356C47.6341 118.045 45.8518 119.787 44.5961 121.002C42.4492 123.109 41.5176 124.001 41.072 124.244C40.2214 124.689 39.3707 124.041 37.3859 121.408C36.8188 120.678 36.2516 119.868 35.725 119.058C35.725 120.8 35.7656 122.502 35.8466 124.122C36.9403 125.702 37.5074 126.391 37.5074 126.391C37.6694 126.553 37.7504 126.796 37.7099 127.039C37.6289 128.295 37.1428 129.551 36.3326 130.767ZM35.8871 138.87C35.8871 138.87 35.8871 138.91 35.8871 138.87C35.8871 138.87 35.8871 138.91 35.8871 138.87Z" fill="black"/>
<path d="M61.2444 229.988H61.2039C61.1229 229.948 61.0824 229.867 61.0824 229.786C61.8115 227.476 65.4572 213.58 64.647 207.583C63.8369 201.871 60.3533 196.725 60.3128 196.685C60.2723 196.604 60.2722 196.523 60.3532 196.482C60.4342 196.442 60.5152 196.442 60.5557 196.523C60.5963 196.563 64.1609 201.79 64.9306 207.543C65.7812 213.58 62.095 227.557 61.3659 229.867C61.3659 229.948 61.2849 229.988 61.2444 229.988Z" fill="#350502"/>
<path d="M120.384 232.298C120.384 232.419 120.384 232.541 120.425 232.703C120.425 232.703 117.589 231.771 114.794 231.811C108.232 226.18 98.3081 217.064 92.9207 208.961C85.7105 198.143 81.7814 172.619 75.9079 160.91C71.9383 152.969 65.1331 154.468 63.4318 149.12C62.6217 146.568 62.0141 144.177 61.609 141.949C60.5154 136.196 56.9912 124.73 56.9912 124.73C56.9912 124.73 66.7939 116.505 67.2394 116.667C67.685 116.829 73.6801 122.258 73.6801 122.258L78.5813 116.384C78.5813 116.384 75.2193 139.761 86.6826 150.011C102.764 164.435 108.88 186.151 109.366 201.02C109.569 206.976 123.26 212.931 120.992 226.18C120.506 227.76 120.141 229.867 120.384 232.298Z" fill="white"/>
<path d="M120.425 233.513C120.344 233.513 120.263 233.513 120.182 233.472C120.141 233.472 117.428 232.621 114.795 232.621C114.592 232.621 114.39 232.54 114.268 232.419C103.858 223.425 96.445 215.686 92.2323 209.406C88.1006 203.248 85.1032 192.512 82.1867 182.14C79.8778 173.996 77.7309 166.339 75.179 161.274C73.1941 157.263 70.3992 155.805 67.9688 154.508C65.7004 153.293 63.5535 152.158 62.6623 149.363C61.8522 146.81 61.2446 144.42 60.7991 142.07C59.7054 136.398 56.2623 125.054 56.2218 124.932C56.1408 124.608 56.2218 124.284 56.4649 124.082C66.5916 115.573 66.9966 115.695 67.4827 115.857C67.6447 115.897 68.0902 116.06 73.5992 121.043L77.9739 115.816C78.217 115.533 78.5815 115.452 78.9056 115.614C79.2296 115.776 79.4322 116.1 79.3916 116.465C79.3511 116.708 76.2322 139.518 87.25 149.403C103.412 163.867 109.691 185.543 110.217 200.979C110.298 202.924 112.202 205.071 114.39 207.583C118.359 212.08 123.301 217.671 121.802 226.301C121.802 226.342 121.802 226.382 121.762 226.423C121.154 228.327 120.952 230.272 121.154 232.257C121.154 232.257 121.154 232.257 121.154 232.297C121.154 232.419 121.154 232.5 121.195 232.621C121.235 232.905 121.114 233.189 120.911 233.351C120.79 233.432 120.587 233.513 120.425 233.513ZM115.078 231.001C116.779 231.001 118.44 231.366 119.493 231.609C119.412 229.704 119.655 227.8 120.223 225.977C121.559 218.117 116.901 212.891 113.174 208.637C110.744 205.922 108.678 203.572 108.597 201.02C108.111 185.908 101.954 164.718 86.1563 150.578C76.7182 142.111 77.0018 125.418 77.4879 118.896L74.2879 122.744C74.1663 122.907 73.9232 123.028 73.7207 123.028C73.5182 123.028 73.2751 122.988 73.1131 122.826C70.7232 120.638 68.0497 118.288 67.1181 117.559C65.7813 118.45 61.2042 122.177 57.8826 124.973C58.5712 127.282 61.3662 136.641 62.3383 141.746C62.7839 144.055 63.351 146.365 64.1612 148.836C64.8498 151.024 66.551 151.915 68.6979 153.05C71.2498 154.387 74.3688 156.048 76.5967 160.505C79.1892 165.731 81.3765 173.469 83.6854 181.653C86.5614 191.904 89.5589 202.519 93.5286 208.474C97.5793 214.552 105.032 222.331 115.078 231.001Z" fill="black"/>
<path d="M56.9911 125.5C56.8696 125.5 56.7481 125.459 56.6266 125.419C56.343 125.257 56.1404 124.933 56.1809 124.608C56.1809 124.487 57.3962 112.089 59.6646 96.734C59.9076 94.9918 60.2317 93.1686 60.5557 91.3454C60.6367 91.0213 60.8797 90.7377 61.2443 90.6972C61.3658 90.6972 61.4874 90.6972 61.6089 90.7377C62.1355 88.5094 63.1076 84.7009 64.4849 80.6089C66.5912 74.2886 69.3457 69.6293 69.4672 69.4268C69.5887 69.2242 69.7913 69.1026 70.0344 69.0621C70.2774 69.0216 70.5204 69.0621 70.6824 69.2242C70.9255 69.4268 76.637 73.9645 80.6472 79.9202C82.2269 82.2701 83.7662 84.7415 85.2649 87.375C85.2244 86.9293 85.1434 86.4431 85.0624 85.9569C84.6978 83.445 84.2928 81.0951 83.7662 78.9478C82.9965 75.6661 82.2674 73.1136 81.8218 71.5741C81.1737 69.3052 80.6472 67.9277 80.6472 67.9277C80.5256 67.6036 80.6066 67.2794 80.8901 67.0363C81.1332 66.8338 81.4978 66.7528 81.7814 66.9148C81.8624 66.9553 89.8017 71.0879 94.5005 74.2481C96.6069 75.7066 98.8348 77.3677 100.617 78.7857C99.7259 77.4487 98.6727 75.8687 97.498 74.2076C97.2549 73.8429 97.336 73.3567 97.6601 73.1136C97.9841 72.83 98.4702 72.9111 98.7537 73.1947C99.5639 74.1265 100.536 75.1394 101.589 76.2333C101.67 76.3143 101.711 76.3954 101.751 76.5169C102.116 77.3272 102.359 78.0565 102.521 78.7857C102.926 79.3935 103.25 79.9202 103.574 80.4063C104.263 81.4597 104.668 82.1485 104.708 82.2295C104.911 82.5942 104.83 83.0399 104.506 83.283C104.182 83.526 103.736 83.4855 103.453 83.2019C103.412 83.1614 103.209 82.9993 102.926 82.7967C102.845 82.7562 102.764 82.6347 102.642 82.5537C102.642 82.6347 102.642 82.7157 102.602 82.7967C102.521 83.8501 102.44 84.4984 102.764 84.782C103.574 85.5923 107.301 85.2682 110.015 84.9441C116.698 84.1743 124.314 92.723 128.445 97.3012C129.498 98.4761 130.349 99.4485 130.835 99.8536C132.253 101.029 133.104 101.96 133.873 102.811C135.007 104.067 135.98 105.161 138.45 106.66C138.572 106.741 138.613 106.782 138.694 106.822C140.314 107.795 141.326 108.443 141.326 108.443C141.61 108.605 141.772 108.929 141.732 109.253C141.286 112.616 139.342 115.087 137.802 116.546C136.466 117.802 135.291 118.45 135.25 118.491C135.129 118.572 135.007 118.572 134.845 118.612C134.116 118.612 133.306 118.572 132.415 118.45H132.293C132.212 118.45 132.091 118.41 132.01 118.41C129.904 118.085 128.445 116.951 126.622 115.492C123.99 113.426 120.708 110.833 113.741 109.01C111.189 108.362 109.204 106.822 107.422 105.485C106.409 104.675 105.397 103.946 104.506 103.541C97.822 100.542 89.5587 98.2736 87.2093 97.6658C85.1839 102.163 79.918 115.776 79.837 115.898C79.7965 115.979 79.756 116.06 79.7155 116.1L79.0673 116.87L74.1255 122.745C74.004 122.907 73.761 123.028 73.5585 123.028C73.3559 123.028 73.1129 122.988 72.9509 122.826C70.5204 120.638 67.7255 118.207 66.8748 117.518C65.6191 118.207 61.2038 121.853 57.3152 125.297C57.3557 125.459 57.1936 125.5 56.9911 125.5ZM61.8115 93.6548C61.6089 94.7892 61.4469 95.8831 61.2848 96.977C59.5431 108.645 58.4493 118.572 58.0038 122.704C66.3887 115.33 67.0773 115.655 67.5634 115.898C67.6849 115.938 68.09 116.141 73.5989 121.084L78.5408 115.168C79.1484 113.629 84.4548 99.9347 86.1966 96.3288C86.3586 95.9642 86.7637 95.8021 87.1283 95.8832C87.2093 95.9237 97.336 98.4761 105.316 102.041C106.369 102.528 107.422 103.338 108.556 104.189C110.177 105.445 112.04 106.863 114.308 107.43C121.6 109.334 125.164 112.13 127.797 114.196C129.539 115.573 130.754 116.546 132.455 116.789C132.536 116.789 132.617 116.789 132.658 116.829H132.78C133.509 116.91 134.157 116.951 134.764 116.951C135.088 116.748 135.939 116.181 136.83 115.371C138.126 114.155 139.706 112.211 140.192 109.577C139.747 109.294 138.977 108.848 138.005 108.24C137.924 108.2 137.802 108.119 137.721 108.038C135.088 106.417 133.995 105.202 132.82 103.905C132.05 103.054 131.281 102.204 129.944 101.11C129.377 100.623 128.526 99.6916 127.392 98.3951C123.503 94.0194 116.212 85.9164 110.379 86.6052C105.113 87.2129 102.885 87.0508 101.792 85.9974C100.941 85.1466 101.063 83.9717 101.184 82.6752C101.225 82.2701 101.265 81.7839 101.265 81.2977C99.4018 79.7986 96.4854 77.4893 93.7309 75.6256C90.4498 73.3973 85.5485 70.7233 82.956 69.3052C83.1181 69.8319 83.3206 70.4397 83.5231 71.1284C84.0092 72.668 84.7384 75.2609 85.508 78.5832C85.9941 80.771 86.4396 83.1614 86.8042 85.7139C87.1688 88.3068 87.3307 90.0895 87.3712 90.5757C87.4118 91.0213 87.4118 91.3049 87.4118 91.3049C87.4523 91.7101 87.2093 92.0342 86.8042 92.1557C86.4396 92.2368 86.0345 92.0747 85.8725 91.7101C85.8725 91.7101 85.2244 90.4136 84.1307 88.4689C82.6319 85.7543 81.0522 83.2019 79.432 80.8115C76.3534 76.3143 72.1812 72.5059 70.5204 71.0879C69.6293 72.7085 67.6849 76.4764 66.1457 81.0951C64.2824 86.7267 63.1482 91.7911 62.9051 92.8445C62.9051 92.8445 62.9051 92.8445 62.9051 92.885L62.8646 93.0066C62.7836 93.3307 62.5405 93.6143 62.176 93.6548C62.014 93.6953 61.8925 93.6953 61.8115 93.6548Z" fill="black"/>
<path d="M102.966 80.8926C101.913 79.2315 100.211 76.6385 98.2266 73.8025C99.0367 74.7343 100.009 75.7472 101.062 76.8816C101.832 78.3402 102.439 79.7177 102.966 80.8926Z" class="main-color-fill"/>
<path d="M61.3656 91.5074C61.3251 91.629 61.3252 91.791 61.2846 91.9126C61.0011 93.4521 60.7176 95.1133 60.4745 96.8554C58.6112 109.496 57.4365 120.03 57.1124 123.474C57.0314 124.244 56.9909 124.689 56.9909 124.689C55.9782 124.568 49.092 116.586 48.687 116.262C48.2819 115.979 41.6793 122.947 40.7881 123.474C40.5046 123.636 39.8565 122.988 39.0059 121.975C37.6286 120.314 35.8869 117.721 34.9957 116.384C34.6717 115.857 34.4691 115.573 34.4691 115.573C34.4691 115.573 34.2666 113.386 35.2793 104.148C36.2919 94.9512 37.0211 89.6437 37.0211 89.6437C34.1451 91.4264 26.7323 96.1667 26.7323 96.1667C0.605365 102.771 24.95 106.903 30.702 111.968C35.4008 116.1 33.4969 121.894 34.9146 123.96C34.9957 124.082 35.0767 124.203 35.1577 124.325C36.3729 126.148 37.0211 126.877 37.0211 126.877C36.8186 128.255 36.2515 129.43 35.6033 130.361C35.6033 130.402 35.5628 130.442 35.5223 130.483C34.5501 131.82 33.4969 132.59 33.4969 132.59C30.3779 131.82 24.2208 122.988 16.8891 119.26C-4.25548 108.524 1.29396 105.364 2.1041 102.73C2.50917 101.393 9.55738 93.128 10.5295 90.6566C11.5422 87.9421 19.1981 84.2553 21.4259 80.852C25.5576 74.6532 21.2234 79.3124 26.9754 73.0326C27.2184 72.749 27.5019 72.4654 27.745 72.1818C27.5424 72.4654 27.2994 72.749 27.0969 73.0731L26.8538 73.6403L26.0031 75.666C26.0031 75.666 26.2057 75.504 26.6513 75.2204C27.9475 74.2885 31.1071 71.9792 35.4008 68.6975C41.1123 64.2813 48.687 61.2832 48.687 61.2832C48.687 61.2832 44.7983 64.9701 41.8008 72.9921C41.1527 74.7342 40.6262 76.3953 40.2211 77.9754C39.897 79.2314 39.654 80.4468 39.4515 81.5407C38.7224 85.3897 38.7224 87.9826 38.7224 87.9826C38.7224 87.9826 39.0464 87.618 39.654 86.9698C40.4642 86.0784 41.7604 84.6604 43.3806 82.8372C44.1098 81.9864 44.8794 81.0951 45.7301 80.0822C49.8212 75.1799 58.1251 68.0898 58.1251 68.0898C58.1251 68.0898 58.1251 74.4911 58.8137 81.2166C59.2593 85.7948 60.596 89.6032 61.3656 91.5074Z" fill="white"/>
<path d="M33.4566 133.441C33.3756 133.441 33.3351 133.441 33.254 133.4C31.6338 132.995 29.6084 131.01 27.0565 128.498C24.0995 125.621 20.4538 122.015 16.4842 119.99C6.43849 114.885 1.29419 110.955 0.241009 107.633C-0.326086 105.769 0.36247 104.432 0.889058 103.419C1.05109 103.095 1.21311 102.771 1.29413 102.528C1.49666 101.839 2.63089 100.34 4.77775 97.5038C6.76258 94.9108 9.23348 91.6696 9.71956 90.3731C10.3272 88.7525 12.5955 87.1319 15.188 85.2277C17.4158 83.6071 19.6843 81.946 20.6969 80.4064C22.3982 77.8134 22.6008 77.2057 22.7223 76.8816C22.9653 76.1928 23.0058 76.1118 26.3273 72.4654C26.5299 72.2629 26.6919 72.0603 26.8539 71.8577L27.097 71.5741C27.3806 71.25 27.8666 71.2094 28.1907 71.4931C28.5147 71.7767 28.5957 72.2629 28.3527 72.587C28.2312 72.7896 28.0691 72.9516 27.9476 73.1542C29.6489 71.8982 32.0388 70.1561 34.8743 67.9278C40.6263 63.5116 48.0795 60.554 48.3631 60.392C48.7277 60.2299 49.1327 60.3919 49.3352 60.716C49.5377 61.0402 49.4972 61.4858 49.2137 61.7289C49.1732 61.7694 45.4061 65.4158 42.4896 73.1542C41.882 74.7343 41.3959 76.3954 40.9503 78.0565C40.9503 78.097 40.9503 78.1375 40.9098 78.1375C40.6262 79.1909 40.3832 80.3254 40.1806 81.5408C39.8971 83.1614 39.6946 84.5794 39.6136 85.6328C40.3832 84.782 41.4364 83.6071 42.6921 82.1891C43.3808 81.3788 44.1503 80.4874 45.0415 79.4341C49.1326 74.5317 57.1936 67.6036 57.5581 67.32C57.8012 67.1175 58.1251 67.0769 58.4087 67.1985C58.6922 67.32 58.8949 67.6036 58.8949 67.9278C58.8949 68.0088 58.8948 74.3696 59.5835 80.9736C60.0695 85.5923 61.4063 89.2792 62.1354 91.1024C62.2164 91.2644 62.2164 91.4265 62.1758 91.5886V91.6291C62.1353 91.7506 62.1354 91.8316 62.1354 91.9532V91.9937C61.8113 93.7359 61.5278 95.3565 61.3253 96.8961C59.5025 109.294 58.3682 119.625 57.9632 123.474C57.8822 124.244 57.8416 124.649 57.8416 124.649C57.8416 124.851 57.7201 125.054 57.5581 125.216C57.3961 125.338 57.1936 125.419 56.9505 125.378C56.2214 125.297 55.0466 124.325 49.6997 118.41C49.2947 117.964 48.8896 117.518 48.6061 117.194C47.7959 117.883 46.0136 119.625 44.7579 120.84C42.6111 122.947 41.6794 123.839 41.2339 124.082C40.4237 124.527 39.6136 123.798 38.4389 122.38C38.4389 122.34 38.3984 122.34 38.3984 122.299C37.4262 121.124 36.211 119.422 34.6312 117.032C34.9148 118.248 34.9958 119.422 35.0768 120.476C35.1579 121.732 35.2389 122.826 35.6035 123.393L35.7249 123.555C35.7654 123.636 35.8465 123.717 35.887 123.798C37.0617 125.54 37.6692 126.27 37.6692 126.27C37.8313 126.432 37.9123 126.675 37.8718 126.918C37.6692 128.255 37.1831 129.511 36.3325 130.726C36.292 130.767 36.2515 130.807 36.2515 130.888C35.2388 132.306 34.1046 133.157 34.0236 133.157C33.7806 133.4 33.6186 133.441 33.4566 133.441ZM25.2742 76.0713C24.3831 77.0436 24.3426 77.2057 24.2616 77.4083C24.0995 77.854 23.8969 78.5427 22.0741 81.3382C20.8994 83.1209 18.5096 84.8631 16.1602 86.5647C13.9728 88.1448 11.7044 89.8059 11.2588 90.9809C10.6917 92.4799 8.34237 95.5185 6.11449 98.5167C4.73726 100.299 3.03598 102.568 2.87395 103.054C2.75243 103.459 2.54988 103.824 2.34734 104.229C1.86126 105.121 1.41573 106.012 1.78029 107.187C2.67144 109.982 7.85625 113.831 17.2133 118.612C21.3855 120.719 25.1527 124.406 28.1907 127.404C30.1755 129.349 32.0793 131.212 33.2945 131.78C33.659 131.455 34.2667 130.888 34.8338 130.118L34.8743 130.078C34.8743 130.037 34.8743 130.037 34.9148 129.997C35.5629 129.106 35.9679 128.174 36.13 127.201C35.8464 126.837 35.2794 126.067 34.4692 124.892C34.4287 124.811 34.3882 124.77 34.3477 124.689L34.2262 124.527C33.6186 123.636 33.5375 122.34 33.416 120.84C33.2135 118.288 32.9705 115.168 30.1755 112.656C28.7172 111.36 25.8413 110.104 23.0464 108.848C18.1045 106.62 13.8513 104.715 14.0943 102.001C14.2968 99.6106 18.1045 97.6253 26.4489 95.5185C27.3805 94.9108 33.9831 90.7377 36.6566 89.0766C36.9401 88.9146 37.2642 88.9146 37.5073 89.0766C37.7908 89.2387 37.9123 89.5628 37.8718 89.8869C37.8718 89.9274 37.1426 95.2755 36.13 104.391C35.3198 111.968 35.3198 114.763 35.3198 115.452C35.4008 115.614 35.5629 115.817 35.7249 116.1C37.3857 118.572 38.7225 120.435 39.6541 121.61C39.6541 121.61 39.6946 121.651 39.6946 121.691C40.1807 122.259 40.4643 122.583 40.6668 122.745C41.2339 122.258 42.5301 121.003 43.5833 119.949C44.6364 118.936 45.6896 117.883 46.5807 117.073C47.8364 115.938 48.5251 115.29 49.2137 115.817C49.3757 115.938 49.6188 116.222 50.8745 117.599C52.0897 118.936 54.8442 121.975 56.3429 123.393C56.748 119.382 57.8822 109.172 59.705 96.9366C59.9075 95.3565 60.1911 93.7359 60.5151 91.9937C60.5151 91.9127 60.5151 91.8722 60.5556 91.7912C59.7859 89.8464 58.4897 86.0785 58.0036 81.4598C57.5175 76.8816 57.3555 72.3844 57.315 70.0345C54.8036 72.2223 49.3757 77.1652 46.2972 80.8115C45.4061 81.8649 44.6364 82.7968 43.9478 83.5666C42.287 85.4708 41.0313 86.8888 40.2212 87.7397C39.6136 88.3879 39.2895 88.7525 39.2895 88.7525C39.0465 88.9956 38.7224 89.0767 38.3984 88.9551C38.0743 88.8336 37.8718 88.5094 37.9123 88.1853C37.9123 88.0638 37.9528 85.4708 38.6819 81.5813C38.9249 80.2848 39.168 79.1099 39.4516 77.9755C39.4516 77.935 39.4515 77.935 39.492 77.8945C39.9376 76.1928 40.4643 74.4912 41.0719 72.9111C42.6921 68.657 44.5149 65.5779 45.9327 63.6332C43.2187 64.9296 39.249 66.9959 35.9274 69.5484C31.7957 72.7491 28.6767 75.0179 27.1375 76.1118C26.6919 76.4359 26.4894 76.598 26.4894 76.598C26.2059 76.8006 25.8008 76.8005 25.5172 76.5574C25.3957 76.2333 25.3147 76.1523 25.2742 76.0713ZM35.968 91.2645C32.6059 93.3712 27.178 96.815 27.1375 96.8556C27.0565 96.8961 26.9755 96.9366 26.8945 96.9771C17.2944 99.408 15.7146 101.231 15.6336 102.082C15.5121 103.662 20.2109 105.769 23.654 107.308C26.692 108.686 29.5679 109.942 31.1882 111.4C32.3223 112.413 33.092 113.467 33.6591 114.561C33.6591 113.102 33.8211 110.063 34.4692 104.108C35.1174 97.9494 35.6844 93.5333 35.968 91.2645Z" fill="black"/>
<path d="M27.0566 73.0732L26.8135 73.6405C26.854 73.4379 26.8945 73.2758 26.935 73.0732C27.1781 72.7896 27.4617 72.506 27.7047 72.2224C27.5022 72.4655 27.2591 72.7491 27.0566 73.0732Z" class="main-color-fill"/>
<path d="M85.3865 34.4218C85.2245 34.4218 85.0624 34.3813 84.9409 34.2597C84.7384 34.0977 84.5764 33.8545 84.5764 33.6115V33.3684C84.5764 31.2616 84.4143 29.3979 84.1308 27.6963C83.6447 24.8197 82.6725 22.5103 81.3358 20.7682C81.2143 20.6061 81.1738 20.4441 81.1738 20.282C81.1738 19.9579 81.1738 19.5933 85.3055 17.0003C88.141 15.2176 90.3283 14.2453 91.7461 14.0832C97.174 13.5565 100.941 15.5418 102.966 19.9174C104.87 24.0904 106.41 27.3316 106.977 28.5471L107.22 29.0738C107.26 29.1548 107.26 29.1954 107.26 29.1954C107.382 29.5195 107.26 29.8841 107.017 30.0867C106.774 30.2892 106.41 30.3297 106.086 30.1677C98.7133 25.8731 95.9993 24.212 94.9462 23.5637C94.217 24.212 92.5967 25.6705 90.9765 27.4937C89.6803 28.9522 87.9385 31.2616 86.1156 33.8951C85.9941 34.0977 85.8726 34.2192 85.67 34.3002C85.5485 34.4218 85.4675 34.4218 85.3865 34.4218ZM83.0776 20.4441C84.3333 22.3078 85.2245 24.6576 85.7106 27.4532C85.9131 28.6281 86.0751 29.8436 86.1156 31.1806C87.4929 29.2763 88.7485 27.6557 89.8017 26.5213C92.1106 23.8878 94.298 22.1052 94.379 22.0242C94.7031 21.7811 95.1487 21.7811 95.4322 22.0242C95.9183 22.3888 100.698 25.1843 104.668 27.5342C103.898 25.9136 102.764 23.4827 101.468 20.6467C99.7259 16.8788 96.6069 15.2987 91.8676 15.7443C89.6397 15.9469 84.7789 19.1881 83.0776 20.4441ZM95.4322 22.0242L95.4727 22.0647C95.4727 22.0647 95.4727 22.0242 95.4322 22.0242Z" fill="black"/>
<path d="M59.9479 26.4403C59.6238 26.4403 59.3403 26.2377 59.2187 25.9541C58.2466 23.5637 55.2086 20.201 51.8465 18.7019C48.2415 17.0813 40.4237 21.7 38.1148 23.1586C37.4262 23.6042 35.2793 24.9412 34.3072 23.6042C33.9021 23.0775 33.9832 22.4698 33.9832 22.3483C33.9832 22.2267 34.0236 22.1052 34.1046 22.0241C36.5755 18.2157 46.4187 9.99115 50.0238 8.04643C53.1023 6.38531 56.7883 4.88625 61.2441 8.65416C65.0922 11.8954 68.6163 16.7167 68.7783 16.9192C68.8999 17.0813 68.9404 17.3244 68.8999 17.527C68.8594 17.7295 68.7378 17.9321 68.5353 18.0537C68.5353 18.0537 68.4948 18.0942 68.3733 18.1347C66.3479 18.9855 63.634 20.6061 61.8922 23.6042L61.8112 23.7663C61.7707 23.8878 61.6896 23.9688 61.6491 24.0904C61.3656 24.6576 61.0415 25.3059 60.758 26.0351C60.5555 26.2377 60.2719 26.4403 59.9479 26.4403ZM50.0643 16.7167C50.9554 16.7167 51.8061 16.8382 52.4947 17.2029C55.3302 18.4588 58.2466 21.1328 59.8669 23.8068C59.9479 23.6447 60.0289 23.4422 60.11 23.2801C60.191 23.1585 60.272 23.037 60.3125 22.875L60.3935 22.7129C62.1353 19.7958 64.6872 18.0132 66.753 17.0003C65.5783 15.5012 62.8644 12.179 60.11 9.8291C56.7884 6.99305 54.2364 7.51974 50.7123 9.42395C47.4718 11.1661 38.3578 18.7424 35.6439 22.4698C35.8869 22.3888 36.373 22.2267 37.1426 21.7405C40.5047 19.6743 45.9731 16.7167 50.0643 16.7167Z" fill="black"/>
<path d="M104.141 82.6751C104.141 82.6751 98.8347 78.178 94.1359 74.9773C92.232 73.6808 89.8016 72.2222 87.5737 70.9663C84.4142 69.1836 81.6597 67.7656 81.4977 67.6846C81.5382 67.8466 82.3889 70.237 83.4016 73.9238C83.8066 75.3824 88.7484 77.5702 89.1535 79.3529C90.6523 85.8353 86.5206 91.3859 86.5206 91.3859C86.5206 91.3859 84.0092 86.2809 80.0395 80.3657C78.9053 78.7046 77.609 77.1245 76.3533 75.7065C73.1938 72.2222 70.2369 69.8723 70.2369 69.8723C70.2369 69.8723 68.7786 72.3033 67.1989 76.0307C66.5913 77.4892 69.0622 81.095 68.4951 82.8777C66.3887 89.1981 62.0544 92.8849 62.0544 92.8849C62.0544 92.8849 61.8924 92.5608 61.6494 91.953C61.6089 91.8315 61.5279 91.71 61.4874 91.5479C60.6772 89.6032 59.3811 85.7948 58.895 81.176C58.6519 78.9072 54.8037 77.2056 54.6822 75.2204C54.4797 71.4119 58.1658 68.0492 58.1658 68.0492C58.1658 68.0492 55.8164 70.0749 52.9809 72.7084C50.51 75.0177 49.8619 79.758 47.9176 82.0674C43.8264 86.9697 38.7226 87.9826 38.7226 87.9826C38.7226 87.9826 38.8036 80.9735 41.8416 72.9515C42.8948 70.156 44.0695 67.8871 45.1227 66.1045C47.0265 62.9443 48.6063 61.3642 48.7683 61.2426C48.6468 61.2832 46.5404 62.134 43.7454 63.552C41.1935 64.8485 38.1149 66.5906 35.4415 68.6569C29.73 73.073 26.0439 75.666 26.0439 75.666L27.1376 73.073C27.3806 72.7489 27.7452 72.5464 27.8262 72.1817C29.73 62.296 33.2946 56.9075 42.4086 57.8394C44.7985 58.0825 46.2973 55.8541 47.9176 55.4895C48.4037 55.3679 47.8771 55.449 49.3353 55.2869C61.3253 53.8284 63.5127 54.6387 60.3937 56.0162C60.4342 56.0162 60.4747 56.0162 60.4747 56.0162C60.4747 56.0162 59.057 50.2631 58.2874 43.9832C57.5583 38.3111 57.5987 31.6261 60.0696 25.6704C60.3532 24.9816 60.6773 24.3334 61.0013 23.6852C62.3785 21.0922 64.4849 19.269 66.7533 18.0536C67.1988 17.8105 67.6849 17.6079 68.1304 17.4053C68.414 17.2838 68.6976 17.1623 68.9811 17.0812C71.5331 16.1494 73.9634 15.9873 75.4217 16.2709C77.3255 16.6761 78.8648 17.4053 80.1205 18.3777C80.8496 18.9449 81.4977 19.6337 82.0648 20.3224C84.8193 23.8472 85.5079 28.9522 85.4674 33.6519C85.4674 35.0699 85.3864 36.4474 85.3054 37.7439C84.6978 45.6444 80.8091 52.1672 78.5002 54.4766C76.1913 56.786 74.6926 58.5687 74.6926 58.5687C80.6471 54.0715 88.6674 49.8984 92.3535 65.9019C92.394 66.0234 96.2017 69.3051 96.3232 69.3457C102.642 70.9258 92.1105 70.6016 98.3485 73.8428C103.331 76.4358 104.141 82.6751 104.141 82.6751Z" fill="white"/>
<path d="M62.014 93.6955C61.9735 93.6955 61.8925 93.6955 61.852 93.6955C61.6089 93.655 61.4064 93.4929 61.2849 93.2498C61.2849 93.2498 61.1228 92.8852 60.8393 92.237C60.7988 92.1559 60.7583 92.0749 60.7178 91.9939L60.6367 91.8318C59.8671 89.9276 58.4899 86.0381 57.9634 81.2574C57.8823 80.366 56.9101 79.4747 55.9785 78.6239C54.9253 77.611 53.8316 76.5576 53.7506 75.3016C53.7101 74.4103 53.8317 73.5189 54.1152 72.7086C53.9127 72.9112 53.6697 73.1138 53.4266 73.3164C52.2114 74.4508 51.4418 76.3955 50.6721 78.2592C50.024 79.9203 49.3759 81.4599 48.4443 82.5943C44.191 87.6587 39.0062 88.7526 38.8036 88.7932C38.5606 88.8337 38.3176 88.7932 38.115 88.6311C37.9125 88.469 37.8315 88.226 37.8315 87.9829C37.8315 87.6993 37.9529 80.7306 40.9909 72.7086C41.9226 70.1967 43.0569 67.8468 44.3126 65.7401C44.8392 64.8487 45.3657 64.079 45.8518 63.4307C45.2847 63.7143 44.6771 63.9979 43.9885 64.322C40.829 65.9021 37.9935 67.6443 35.8062 69.3459C30.1757 73.7215 26.4086 76.355 26.368 76.355C26.0845 76.5576 25.6794 76.5576 25.3958 76.3145C25.1123 76.0714 25.0313 75.7068 25.1528 75.3827L26.2465 72.7897C26.287 72.7087 26.287 72.6681 26.3275 72.6276C26.449 72.4656 26.5706 72.344 26.6516 72.263C26.7326 72.1819 26.8541 72.0604 26.8541 72.0199C28.4744 63.5927 31.4719 55.9354 42.2872 57.0293C43.4214 57.1508 44.353 56.5026 45.3657 55.8544C46.0543 55.3682 46.7834 54.882 47.5936 54.72C47.6746 54.6794 47.7556 54.6794 47.7961 54.6794C47.9581 54.6389 47.9582 54.6389 48.5252 54.5579L49.1329 54.4768C54.0342 53.8691 57.0722 53.7071 58.976 53.7071C58.4899 51.4382 57.8013 47.8324 57.3152 44.0645C56.3836 36.7717 56.9912 30.4514 59.138 25.3059C59.4621 24.4956 59.7862 23.8474 60.1102 23.2397C61.447 20.7277 63.4723 18.7425 66.1863 17.284C66.6318 17.0409 67.1179 16.7978 67.6444 16.5952C67.8875 16.4737 68.171 16.3926 68.4546 16.2711L68.5356 16.2306C71.047 15.3392 73.6799 15.0151 75.4217 15.4203C77.3256 15.8254 79.0269 16.5952 80.4446 17.6891C81.2143 18.2968 81.9029 18.9856 82.551 19.7959C84.9814 22.9156 86.156 27.5748 86.156 33.6521C86.156 34.9081 86.1156 36.2855 85.994 37.8251C85.4269 45.4825 81.8218 51.9244 79.3104 54.6794C81.4573 53.7476 83.6852 53.3019 85.8321 54.0717C89.1131 55.2871 91.4625 59.0146 93.0017 65.4565C93.6093 66.0237 95.9993 68.0899 96.5664 68.5356C98.2271 68.9813 99.0372 69.3054 99.1182 70.1157C99.1992 70.8855 98.4701 71.2501 97.822 71.5337C97.6195 71.6553 97.1739 71.8173 97.0119 71.9794C97.1334 72.1414 97.498 72.5061 98.5917 73.0733C103.979 75.8688 104.87 82.3107 104.911 82.5538C104.951 82.8779 104.789 83.2021 104.506 83.3641C104.222 83.5262 103.858 83.4857 103.615 83.2831C103.574 83.2426 98.3081 78.7859 93.6903 75.6257C91.584 74.1672 88.9915 72.6681 87.1687 71.6552C85.5484 70.7234 84.0092 69.9131 82.875 69.3054C83.4016 70.9665 83.8472 72.5466 84.1712 73.681C84.2928 74.0862 85.67 75.0585 86.4801 75.6257C88.1004 76.8007 89.6396 77.8946 89.9232 79.1505C91.503 85.9571 87.3307 91.6292 87.1687 91.8723C87.0067 92.1154 86.7232 92.237 86.4397 92.1964C86.1561 92.1559 85.913 91.9938 85.7915 91.7507C85.751 91.7102 83.2801 86.6054 79.351 80.8522C78.3383 79.3531 77.123 77.8136 75.7458 76.274C73.5989 73.8836 71.5331 72.0199 70.4799 71.1286C69.9128 72.1415 68.9406 74.0051 67.928 76.355C67.7659 76.7601 68.2115 78.0566 68.5356 78.9885C69.0622 80.447 69.6293 81.9461 69.2243 83.121C67.0774 89.563 62.7432 93.3308 62.5406 93.4929C62.3786 93.6145 62.1761 93.6955 62.014 93.6955ZM58.0849 67.2391C58.3279 67.2391 58.5305 67.3201 58.6925 67.5227C58.976 67.8468 58.976 68.3735 58.6114 68.6571C58.5709 68.6976 55.2088 71.8173 55.3709 75.1801C55.4114 75.8283 56.262 76.6386 57.1127 77.4084C58.2064 78.4213 59.4216 79.5962 59.5836 81.0548C60.0697 85.6735 61.4065 89.3604 62.1356 91.1836L62.2166 91.3456C62.2166 91.3861 62.257 91.4266 62.257 91.4672C63.5532 90.0896 66.1862 86.97 67.6444 82.5943C67.847 81.9461 67.3609 80.6091 66.9558 79.5152C66.4293 78.0566 65.9432 76.6791 66.3482 75.7068C67.9685 71.9794 69.3862 69.5485 69.4673 69.4269C69.5888 69.2243 69.7914 69.1028 70.0344 69.0623C70.2774 69.0218 70.5204 69.0623 70.6825 69.2243C70.804 69.3054 73.7205 71.6553 76.88 75.1801C78.3383 76.7602 79.594 78.3808 80.6472 79.9203C83.4421 84.0529 85.5484 87.8613 86.5611 89.7655C87.6143 87.8613 89.3156 83.9313 88.3029 79.5557C88.1409 78.9075 86.6017 77.8136 85.508 77.0033C83.8472 75.8283 82.8346 75.0585 82.5915 74.1672C82.1864 72.6682 81.5383 70.3993 80.7282 68.0899L80.6876 67.9684C80.6066 67.6443 80.6877 67.3201 80.9307 67.1176C81.1737 66.915 81.5383 66.8745 81.8218 66.996C82.0244 67.077 84.7789 68.5356 87.9384 70.3183C89.7612 71.3312 92.3942 72.8707 94.541 74.3698C97.498 76.3955 100.698 78.9075 102.683 80.5281C101.994 78.6239 100.577 76.0309 97.8626 74.6129C96.0803 73.681 95.3512 72.9112 95.3512 72.0199C95.3512 71.1691 96.0802 70.6829 96.7283 70.3588C96.5258 70.3183 96.2828 70.2372 95.9992 70.1562C95.7967 70.1157 95.7156 70.0752 93.6498 68.2925C91.5434 66.4693 91.503 66.4288 91.4625 66.1047C90.0852 60.149 88.0194 56.6647 85.3054 55.6518C82.0649 54.4768 78.1358 56.9483 75.0978 59.2576C74.7737 59.5007 74.2875 59.4602 74.004 59.1766C73.7204 58.893 73.7205 58.4068 73.9635 58.0827C74.0446 58.0017 75.5028 56.3 77.8117 53.9502C80.0396 51.6813 83.8067 45.2799 84.3738 37.7036C84.4953 36.2045 84.5358 34.9081 84.5358 33.6521C84.5763 27.9395 83.4826 23.6043 81.2952 20.8088C80.7686 20.12 80.161 19.5123 79.4724 18.9856C78.2572 18.0537 76.7585 17.365 75.0978 17.0004C74.0041 16.7573 71.7762 16.7978 69.1027 17.7701L69.0622 17.8107C68.8191 17.8917 68.5761 18.0132 68.333 18.0943C67.847 18.2968 67.442 18.4994 66.9964 18.7425C64.566 20.039 62.7431 21.8217 61.5684 24.0095C61.2849 24.5767 61.0013 25.1844 60.6773 25.9542C58.652 30.816 58.0849 36.8528 58.976 43.8619C59.4621 47.8324 60.2318 51.5598 60.7178 53.7881C62.1761 53.9907 62.2975 54.3958 62.3786 54.801C62.6216 55.7328 61.609 56.3 60.9204 56.6241C60.7178 56.7862 60.4747 56.8672 60.2317 56.8267H60.1507C59.8266 56.7457 59.5431 56.4621 59.5026 56.0974C59.5026 56.0164 59.5026 55.9759 59.5026 55.8949C59.4621 55.7328 59.4216 55.5708 59.3811 55.3277C57.8418 55.2872 54.9254 55.4087 49.3759 56.0974L48.7683 56.1785C48.3228 56.219 48.2822 56.219 48.2417 56.2595C48.2012 56.2595 48.1202 56.3 47.9986 56.3C47.5126 56.4216 46.9455 56.7862 46.3784 57.1914C45.3252 57.9206 43.9885 58.8525 42.2467 58.6499C34.4289 57.8396 30.5807 61.6886 28.5554 72.344C28.4744 72.6682 28.3123 72.9517 28.1503 73.1138C29.7706 71.8983 32.12 70.1967 34.8745 68.0494C37.1834 66.2667 40.0189 64.5246 43.2999 62.8635C46.0544 61.4455 48.1607 60.5946 48.4037 60.5136C48.7683 60.392 49.1734 60.5136 49.3759 60.8377C49.5785 61.1619 49.5379 61.6075 49.2544 61.8506C49.2544 61.8506 47.6746 63.3497 45.7708 66.5504C44.5556 68.5761 43.4619 70.8449 42.5708 73.2759C40.3429 79.2316 39.7352 84.6606 39.5732 86.9295C41.1935 86.3623 44.4745 84.9037 47.2695 81.5815C48.0391 80.6496 48.6062 79.2316 49.2138 77.692C50.024 75.6663 50.8746 73.5595 52.3734 72.1415C55.1684 69.5485 57.5582 67.4822 57.5987 67.4822C57.7203 67.3202 57.9229 67.2391 58.0849 67.2391Z" fill="black"/>
<path d="M81.0518 48.1967C78.6619 55.692 71.0061 56.9885 66.3073 55.4084C66.1048 55.3274 65.9023 55.2464 65.7403 55.1653C61.3655 53.0586 58.692 44.4289 59.8262 35.8802C60.4743 30.8968 62.9858 28.1418 65.8618 26.7643C68.1707 25.6704 70.7226 25.5083 72.8289 25.8729C83.9683 27.8582 83.4417 40.6609 81.0518 48.1967Z" fill="white"/>
<path d="M70.0746 56.786C68.6974 56.786 67.3201 56.5834 66.0239 56.1377C65.7809 56.0567 65.5379 55.9757 65.3353 55.8541C60.677 53.6258 57.8011 44.5909 58.9758 35.7587C59.7454 29.8435 62.9454 27.21 65.4569 26.0351C67.6847 24.9817 70.3176 24.6575 72.9101 25.1032C76.5962 25.7514 79.3507 27.5341 81.0924 30.4512C84.2115 35.5966 83.4824 43.1324 81.7811 48.4399C80.7685 51.6001 78.7431 54.0309 75.9481 55.449C74.2063 56.3403 72.1405 56.786 70.0746 56.786ZM70.7228 26.5212C69.1025 26.5212 67.5227 26.8454 66.186 27.4936C63.1075 28.9521 61.1631 31.8692 60.6365 35.9612C59.5428 44.0237 62.0542 52.4509 66.1049 54.3956C66.2669 54.4766 66.429 54.5576 66.5911 54.5982C68.7784 55.3274 72.181 55.53 75.3 53.9904C77.69 52.775 79.4317 50.6682 80.3229 47.9537C81.8621 43.2134 82.6317 36.0018 79.7962 31.302C78.2975 28.8306 75.9076 27.2505 72.7075 26.7238C72.0189 26.5617 71.3709 26.5212 70.7228 26.5212Z" fill="black"/>
<path d="M147.847 117.032C148.131 117.113 152.263 118.45 152.263 119.463C152.263 119.504 152.263 119.544 152.263 119.544C152.06 120.273 149.346 119.787 147.605 119.382C146.916 119.22 146.389 119.098 146.187 119.058C146.268 119.098 146.389 119.139 146.551 119.179C147.442 119.544 149.346 120.395 148.901 121.205C148.293 122.259 142.906 121.813 134.926 117.761C134.926 117.761 136.424 116.708 137.802 115.33C138.409 114.682 139.057 113.953 139.422 113.264C140.678 111.036 141.002 109.132 141.002 109.132C141.245 109.132 151.898 107.835 151.817 109.132C151.736 110.428 146.43 111.238 146.43 111.238C146.43 111.238 147.645 111.765 150.926 112.211C154.288 112.656 155.706 113.224 155.22 113.872C154.734 114.561 152.06 114.763 148.577 114.399C149.144 114.48 153.559 115.047 155.098 115.817C156.638 116.546 156.759 118.896 147.847 117.032Z" fill="white"/>
<path d="M147.119 122.502C144.324 122.502 139.585 121.043 134.562 118.491C134.319 118.369 134.157 118.126 134.116 117.842C134.116 117.559 134.238 117.275 134.481 117.113C134.481 117.113 135.939 116.1 137.235 114.804C137.924 114.075 138.45 113.467 138.734 112.9C139.909 110.833 140.233 109.051 140.233 109.051C140.314 108.646 140.638 108.362 141.043 108.362C141.043 108.362 141.205 108.362 141.448 108.321C150.44 107.39 151.777 107.876 152.304 108.402C152.547 108.605 152.668 108.929 152.628 109.213C152.587 110.145 151.453 110.793 149.995 111.279C150.319 111.32 150.643 111.401 151.007 111.441C154.734 111.927 155.706 112.494 156.03 113.224C156.192 113.588 156.152 114.034 155.868 114.399C155.706 114.642 155.423 114.804 155.099 114.966C155.22 115.006 155.342 115.047 155.423 115.128C156.395 115.614 156.881 116.465 156.597 117.235C156.273 118.248 154.977 118.693 152.668 118.572C153.073 119.017 153.073 119.342 153.073 119.504C153.073 119.585 153.073 119.706 153.033 119.868C152.83 120.598 152.142 121.003 149.711 120.679C149.792 121.003 149.752 121.367 149.59 121.691C149.225 122.218 148.375 122.502 147.119 122.502ZM136.466 117.64C142.947 120.76 146.835 121.084 147.969 120.881C147.686 120.679 147.159 120.354 146.268 119.99C146.228 119.99 146.228 119.99 146.187 119.949L145.904 119.868C145.499 119.706 145.256 119.301 145.377 118.855C145.499 118.45 145.944 118.207 146.349 118.288L146.552 118.329C146.795 118.369 147.2 118.491 147.686 118.612C147.726 118.612 147.726 118.612 147.767 118.612C149.185 118.936 150.157 119.058 150.764 119.098C150.035 118.693 148.82 118.167 147.605 117.802C147.2 117.68 146.957 117.235 147.078 116.83C147.2 116.424 147.605 116.141 148.01 116.222C152.992 117.275 154.572 116.87 154.977 116.668C154.937 116.627 154.856 116.546 154.734 116.506C153.883 116.1 151.534 115.574 148.496 115.168H148.456C148.01 115.128 147.726 114.723 147.767 114.277C147.807 113.832 148.213 113.507 148.658 113.548C151.332 113.831 153.033 113.75 153.884 113.588C153.357 113.426 152.425 113.224 150.805 112.981C147.443 112.535 146.147 111.968 146.106 111.927C145.782 111.765 145.58 111.441 145.62 111.076C145.661 110.712 145.944 110.428 146.309 110.388C147.888 110.145 149.428 109.739 150.319 109.375C149.185 109.294 146.795 109.334 141.691 109.861C141.488 110.631 141.043 112.049 140.152 113.629C139.787 114.318 139.18 115.047 138.369 115.857C137.721 116.586 136.992 117.194 136.466 117.64Z" fill="black"/>
<path d="M152.263 119.463C152.263 119.504 152.263 119.544 152.263 119.544C152.06 120.273 149.346 119.787 147.604 119.382C149.184 119.666 150.764 119.706 152.263 119.463Z" class="main-color-fill"/>
<path d="M92.8394 19.6338C92.7989 19.6338 92.7179 19.6338 92.6774 19.6338C92.3129 19.5527 84.9406 17.9321 81.0114 16.3926C81.0924 17.0408 81.0519 17.8106 80.8089 18.6209C80.7279 18.864 80.5253 19.0665 80.2823 19.1476C80.0393 19.2286 79.7558 19.1881 79.5532 19.026C78.338 18.0942 76.8393 17.4054 75.1785 17.0408C74.0848 16.7977 71.8569 16.8787 69.1835 17.8106C69.0619 17.8511 68.8999 17.8511 68.7784 17.8511C68.4138 17.8106 68.1303 17.527 68.0898 17.1623C68.0493 16.8787 68.1708 16.5951 68.3733 16.3926C68.6164 16.0279 69.3049 14.3668 69.953 12.9488C70.9252 10.6799 72.1405 7.84389 73.3557 5.53454C74.976 2.41488 76.3127 0.956322 77.7304 0.753747C78.6216 0.632201 79.5127 0.996842 80.3634 1.84766C80.6469 2.13126 81.4165 2.73898 82.2672 3.38722C86.6419 6.74997 94.7433 12.9488 93.6901 18.9855C93.6496 19.1881 93.5281 19.3907 93.3256 19.5122C93.123 19.5932 93.0014 19.6338 92.8394 19.6338ZM79.6747 14.0022C79.8367 14.0022 79.9583 14.0427 80.1203 14.1237C82.0646 15.3391 88.7483 17.0408 92.1104 17.8106C92.0699 12.9488 84.8191 7.39822 81.214 4.6432C80.2418 3.87342 79.5127 3.34672 79.1482 2.94157C78.4596 2.25281 78.0545 2.29333 77.933 2.33384C77.1228 2.45539 76.0696 3.79239 74.7734 6.2638C73.5987 8.49213 72.3835 11.2877 71.4519 13.5565C71.0873 14.4478 70.7632 15.1366 70.5202 15.6633C72.3835 15.2176 74.2063 15.0961 75.543 15.3797C77.0013 15.7038 78.2975 16.19 79.4722 16.9192C79.4722 15.9469 79.0671 15.2176 79.0671 15.1771C78.9051 14.853 78.9456 14.4478 79.2292 14.2047C79.2697 14.0832 79.4722 14.0022 79.6747 14.0022Z" fill="black"/>
<path d="M56.9912 235.62C56.9912 235.62 49.0519 236.552 49.1735 237.443C49.1735 237.443 48.4038 246.113 46.1759 247.815C43.9885 249.517 38.6417 252.312 34.996 250.732C31.3504 249.111 30.0541 245.344 31.4719 242.913C32.8896 240.522 34.1859 243.318 33.6593 244.533C33.6593 244.533 35.2796 243.723 35.4821 242.264C35.6846 240.806 33.0922 238.132 29.9731 241.211C26.8541 244.331 29.5681 249.03 31.7959 251.623C33.9833 254.216 40.2214 256.04 47.9177 253.811C55.614 251.623 62.8243 247.41 62.8243 247.41C62.8243 247.41 68.5762 244.128 67.361 241.657C67.361 241.657 65.1331 231.001 62.7027 235.053" fill="black"/>
<path d="M117.386 224.802C117.386 224.802 125.204 223.263 125.407 224.154C125.407 224.154 128.769 232.176 131.402 233.108C134.035 234.04 139.949 235.093 142.946 232.46C145.903 229.826 145.984 225.815 143.959 223.951C141.893 222.088 141.529 225.167 142.339 226.139C142.339 226.139 140.556 225.856 139.949 224.519C139.341 223.222 140.961 219.859 144.891 221.845C148.779 223.87 147.645 229.178 146.349 232.298C145.012 235.458 139.665 239.064 131.645 239.307C123.624 239.55 115.483 237.727 115.483 237.727C115.483 237.727 109.001 236.349 109.407 233.594C109.407 233.594 108.313 222.776 111.837 225.896" fill="black"/>
<path d="M49.0923 135.709C48.4847 136.317 46.0948 133.562 45.8113 133.238C46.0543 133.522 48.0392 135.547 47.4315 136.236C46.905 136.844 44.3935 135.183 43.7454 134.778C44.2315 135.142 45.7707 136.398 45.2441 137.168C45.1226 137.33 44.9201 137.411 44.6365 137.371C43.9074 137.33 42.7327 136.803 41.9226 136.398C41.4365 136.155 41.0719 135.953 40.9909 135.912C41.0719 135.993 41.477 136.317 41.801 136.722C42.2061 137.209 42.4492 137.735 41.8821 137.938C40.7479 138.302 34.9958 134.778 33.4971 132.671C33.4971 132.671 34.1857 131.861 35.1174 130.442C35.2794 130.24 35.4414 129.997 35.563 129.754C36.7782 127.89 36.9807 126.958 36.9807 126.958C40.5048 125.743 43.6644 124.608 44.9201 126.958C46.2164 129.268 49.7404 135.021 49.0923 135.709Z" fill="white"/>
<path d="M41.7198 138.708C39.6134 138.708 34.145 135.021 32.8083 133.117C32.6058 132.833 32.6058 132.387 32.8488 132.104C32.8488 132.104 33.4969 131.334 34.4286 129.956L34.5096 129.835C34.6311 129.673 34.7527 129.47 34.8742 129.308C35.9679 127.607 36.2109 126.756 36.2109 126.756C36.2919 126.513 36.4944 126.27 36.7374 126.189L36.94 126.108C40.4235 124.933 44.0692 123.677 45.6489 126.553C45.892 126.958 46.1755 127.485 46.4996 128.093C49.8212 133.967 50.4287 135.467 49.6186 136.277C49.4161 136.479 49.0921 136.601 48.768 136.601C48.606 136.601 48.4034 136.56 48.2009 136.479C48.1604 136.601 48.0793 136.682 47.9983 136.763C47.5933 137.209 47.0262 137.29 46.1351 136.966C46.0946 137.209 46.0135 137.411 45.892 137.573C45.73 137.816 45.3654 138.181 44.5553 138.141C44.1097 138.1 43.5426 137.938 42.9755 137.735C42.9755 137.776 42.9755 137.776 42.9755 137.816C42.8945 138.06 42.6919 138.465 42.1249 138.667C42.0033 138.708 41.8818 138.708 41.7198 138.708ZM34.5096 132.63C35.9678 134.211 39.2894 136.277 40.9096 136.925C40.7071 136.722 40.5046 136.56 40.4641 136.52C40.1401 136.236 40.059 135.75 40.302 135.386C40.5451 135.021 41.0311 134.94 41.3957 135.183C41.4362 135.223 41.7603 135.386 42.2058 135.629C42.2058 135.629 42.2464 135.629 42.2464 135.669C43.0565 136.115 43.8262 136.398 44.3123 136.52C44.1502 136.277 43.7857 135.872 43.1781 135.426C42.8135 135.142 42.7729 134.656 43.016 134.332C43.259 133.967 43.7452 133.886 44.1097 134.13C45.2439 134.859 45.9325 135.223 46.3781 135.426C46.1755 135.142 45.8515 134.697 45.2844 134.089C45.1629 133.967 45.0818 133.886 45.0413 133.805C44.7983 133.481 44.8388 132.995 45.1629 132.712C45.4869 132.428 45.973 132.468 46.2565 132.752C46.297 132.793 46.3375 132.874 46.4591 132.955C47.1072 133.643 47.5933 134.13 47.9173 134.454C47.2692 132.914 45.7705 130.281 45.0009 128.944C44.6768 128.336 44.3528 127.809 44.1097 127.364C43.2591 125.824 41.0312 126.432 37.5071 127.607C37.3046 128.093 36.94 128.944 36.1298 130.159C36.0083 130.362 35.8868 130.564 35.7653 130.726L35.6843 130.848C35.2387 131.618 34.7931 132.225 34.5096 132.63Z" fill="black"/>
<path d="M69.3051 36.8934C69.3051 36.1236 66.6721 34.7866 64.3632 36.0426C62.0543 37.258 62.2163 39.6079 62.2163 39.6079C62.2163 39.6079 62.9454 39.0002 65.6189 37.9873C68.0088 37.1365 69.3051 36.8934 69.3051 36.8934Z" fill="black"/>
<path d="M75.1783 36.0017C75.0567 35.394 77.001 34.7458 78.9048 35.1914C80.8086 35.6776 81.3352 37.8249 80.4441 37.9869C79.5124 38.1085 75.1783 36.0017 75.1783 36.0017Z" fill="black"/>
<path d="M144.607 90.8998C144.607 88.5094 146.552 86.5647 148.942 86.5647C151.332 86.5647 153.276 88.5094 153.276 90.8998C153.276 93.2902 151.332 95.2349 148.942 95.2349C146.552 95.2349 144.607 93.2902 144.607 90.8998Z" fill="black"/>
<path d="M139.706 68.0492C139.706 65.6588 141.65 63.7141 144.04 63.7141C146.43 63.7141 148.374 65.6588 148.374 68.0492C148.374 70.4396 146.43 72.3843 144.04 72.3843C141.65 72.3843 139.706 70.4396 139.706 68.0492Z" fill="black"/>
</svg>
