<svg width="272" height="165" viewBox="0 0 272 165" fill="none" xmlns="http://www.w3.org/2000/svg">
<path fill-rule="evenodd" clip-rule="evenodd" d="M183.308 66.3343C181.651 67.25 174.108 81.4659 173.542 86.6115C172.975 91.7571 179.209 117.267 186.577 116.221C193.902 115.174 222.328 100.478 226.077 97.1643C229.87 93.8502 235.364 79.3291 235.974 74.8812C236.323 72.4393 236.366 69.5612 235.364 65.811C230.524 47.3653 199.7 57.2641 183.308 66.3343Z" class="main-color-fill"/>
<path fill-rule="evenodd" clip-rule="evenodd" d="M81.7244 113.037C81.4629 112.95 63.1081 112.645 52.9934 112.427C41.7016 112.165 11.401 114.258 5.51529 128.823C-16.5889 183.506 34.0283 161.397 52.2086 154.464C70.9993 147.268 66.9012 153.94 74.0948 146.832C81.3321 139.681 84.1223 141.643 88.918 137.544C93.0162 134.012 97.4196 123.372 94.5858 119.753C91.7083 116.09 85.2123 114.302 81.7244 113.037Z" class="main-color-fill"/>
<path d="M32.1101 134.666C29.4071 134.666 27.0528 134.056 25.7884 132.137C24.4805 130.175 23.5649 127.776 22.9546 124.593C22.911 124.375 22.9546 124.113 23.0854 123.895C23.2162 123.677 23.4342 123.59 23.6958 123.546C28.23 123.023 32.7205 120.407 37.0803 117.877C53.9963 108.022 71.4354 98.5596 88.9618 89.7946C92.6676 87.9632 95.3271 86.9166 96.8966 86.6986C99.9484 86.2625 102.303 86.3497 104.613 86.3933C106.27 86.4369 107.796 86.4805 109.453 86.3497C112.505 86.0445 116.952 85.1723 120.875 84.3874C124.276 83.7333 127.197 83.1228 128.985 82.9484C139.405 81.9454 145.77 82.8612 148.168 83.21C148.473 83.2536 148.822 83.2972 148.909 83.2972C148.691 83.2972 148.299 83.4717 148.168 83.8641C148.081 84.0385 148.081 84.2566 148.168 84.431L148.778 84.3438L149.519 83.4717C149.781 83.6897 149.912 84.0385 149.868 84.3438C150.26 87.3527 150.217 98.3852 149.781 99.4318C149.04 101.263 148.604 103.008 148.168 104.665C147.034 109.025 146.075 112.775 140.625 114.258C134.173 116.002 127.415 115.087 120.875 114.214C114.336 113.342 107.622 112.427 101.344 114.258C99.0765 114.912 97.8993 113.691 96.9838 112.819C96.1118 111.947 95.7195 111.554 94.5424 112.209L81.7246 119.186C75.8824 122.369 69.8659 125.639 63.5442 127.994C56.0018 130.785 48.3722 132.181 41.0041 133.489L40.045 133.663C37.4727 134.143 34.6388 134.666 32.1101 134.666ZM24.8293 125.16C25.3961 127.689 26.1808 129.608 27.2272 131.178C29.0583 133.925 35.2056 132.791 39.6962 131.962L40.6553 131.788C47.9362 130.48 55.5222 129.128 62.8902 126.381C69.1247 124.07 75.0977 120.799 80.8526 117.659L93.6704 110.682C95.9811 109.418 97.2454 110.682 98.161 111.598C99.033 112.47 99.5997 112.95 100.777 112.601C107.404 110.682 114.336 111.598 121.006 112.514C127.372 113.386 133.955 114.258 140.059 112.601C144.549 111.38 145.334 108.371 146.38 104.229C146.816 102.571 147.296 100.696 148.081 98.7777C148.299 97.8183 148.473 88.4428 148.124 84.9543C148.037 84.9543 147.95 84.9107 147.863 84.9107C145.508 84.5618 139.274 83.6897 129.072 84.649C127.372 84.8235 124.363 85.434 121.137 86.0445C117.17 86.8294 112.723 87.7015 109.54 88.0504C107.752 88.2248 106.183 88.1812 104.483 88.1376C102.259 88.0504 99.9485 88.0068 97.0711 88.3992C96.1119 88.53 94.0627 89.1405 89.7029 91.3645C72.2202 100.129 54.7811 109.549 37.9523 119.404C33.7669 121.846 29.4071 124.375 24.8293 125.16ZM148.124 98.7341C148.124 98.7777 148.124 98.7777 148.124 98.7341C148.124 98.7777 148.124 98.7777 148.124 98.7341Z" fill="black"/>
<path d="M166.566 133.445C166.392 133.445 166.261 133.445 166.086 133.358C165.607 133.227 165.302 132.922 164.996 132.617C160.07 127.689 156.059 121.715 153.399 115.305C149.999 107.194 148.342 97.6439 148.081 85.2596C148.037 82.9048 148.081 80.5936 149.04 78.5441C150.042 76.3201 151.917 74.7067 153.748 73.1805L154.053 72.9188C166.784 62.1043 176.593 48.0629 182.392 32.3644C182.61 31.7103 182.828 31.0562 183.046 30.4021C183.918 27.6985 184.79 24.9077 187.624 23.5558C192.027 21.4191 198.131 24.0791 201.88 27.7857C204.104 29.9661 206.153 32.3644 207.94 34.85L208.158 35.1553C209.248 36.6815 210.338 38.2078 211.951 38.8182C213.259 39.2979 216.355 45.4465 216.616 48.1065C216.834 50.4177 218.36 52.598 220.671 53.9498C222.982 55.3016 225.641 55.4761 227.777 54.5167C227.995 54.4295 228.17 54.2987 228.388 54.2115C229.26 53.7754 230.219 53.2521 231.352 53.3393C232.268 53.3829 233.053 53.819 233.794 54.2551C238.938 57.3948 242.775 62.0171 246.481 66.5086C247.309 67.5552 248.879 69.4303 248.399 71.567C248.007 73.2677 246.394 74.2706 245.26 74.8811C241.467 76.887 237.238 77.9336 233.184 78.9366C230.742 79.5471 228.213 80.1575 225.815 80.9861C219.232 83.2972 213.346 87.2219 207.94 91.1465C195.384 100.304 186.534 108.764 180.125 117.834C179.34 118.968 178.512 120.145 177.771 121.322C175.068 125.334 172.277 129.521 168.441 132.617C168.092 132.878 167.394 133.445 166.566 133.445ZM191.112 24.5588C190.152 24.5588 189.237 24.7332 188.365 25.1257C186.185 26.1723 185.487 28.3962 184.703 30.9254C184.485 31.5795 184.267 32.2772 184.005 32.9749C178.119 48.935 168.136 63.1945 155.143 74.227L154.838 74.4887C153.181 75.8841 151.481 77.3231 150.609 79.2418C149.824 80.9861 149.781 82.9484 149.824 85.2159C150.042 97.4259 151.699 106.758 155.013 114.651C157.585 120.843 161.509 126.642 166.261 131.396C166.348 131.483 166.522 131.657 166.61 131.701C166.61 131.701 166.784 131.744 167.307 131.308C170.969 128.343 173.672 124.331 176.288 120.407C177.073 119.229 177.858 118.052 178.686 116.918C185.226 107.673 194.207 99.0829 206.938 89.8383C212.431 85.8264 218.447 81.8146 225.249 79.4598C227.734 78.5877 230.306 77.9772 232.791 77.3667C236.758 76.3638 240.857 75.3608 244.475 73.4421C245.87 72.7008 246.568 72.0467 246.742 71.2618C247.004 70.0844 246.088 68.8198 245.173 67.7296C241.554 63.3689 237.805 58.8338 232.922 55.8249C232.312 55.4325 231.788 55.1708 231.309 55.1708C230.655 55.1272 229.957 55.4761 229.216 55.8685C228.998 55.9994 228.78 56.0866 228.519 56.2174C225.903 57.4384 222.633 57.2203 219.843 55.6069C217.052 53.9934 215.178 51.2898 214.916 48.4118C214.654 45.8826 211.995 41.2166 211.297 40.5189C209.248 39.734 207.94 37.9025 206.807 36.289L206.589 35.9838C204.845 33.5418 202.883 31.2743 200.703 29.1375C198.174 26.5647 194.381 24.5588 191.112 24.5588Z" fill="black"/>
<path d="M204.365 80.4629C205.76 80.0268 206.283 78.3261 206.501 76.8871C206.981 73.7038 207.155 70.4769 206.937 67.2936C203.842 65.9854 200.441 65.5493 197.128 65.1133C187.754 63.8923 178.381 62.6713 169.007 61.4503C166.435 61.1014 162.555 60.6654 161.334 58.3978C159.634 55.1709 160.07 51.2027 161.596 47.9322C162.555 45.9262 164.517 43.8767 165.781 42.0888C168.222 38.6875 175.721 45.3157 178.206 41.958C180.735 38.6439 179.471 34.6757 183.656 34.2396C187.536 33.8035 223.635 47.8013 186.49 13.1775C182.523 13.8316 171.405 20.4162 169.225 23.8176C167.394 26.652 159.677 21.5936 157.149 23.774C155.187 25.431 153.094 26.9137 151.219 28.6143C147.034 32.4953 144.2 37.6845 142.5 43.1354C140.843 48.5863 140.233 54.3424 140.102 60.0549C140.058 61.6683 140.058 63.2818 140.407 64.8516C141.148 68.0785 143.502 70.913 146.511 72.2212C155.666 76.1022 165.519 79.4163 175.373 80.6373C185.182 81.7275 194.904 83.4717 204.365 80.4629Z" fill="white"/>
<path d="M192.594 82.992C187.798 82.992 182.959 82.3815 178.207 81.7274C177.204 81.5966 176.201 81.4658 175.198 81.335C166.566 80.2884 157.018 77.4976 146.119 72.8316C142.805 71.4362 140.276 68.3837 139.492 64.8516C139.099 63.1945 139.143 61.4502 139.187 59.8368C139.361 52.9469 140.146 47.496 141.628 42.6993C143.503 36.6379 146.598 31.4487 150.609 27.7857C151.699 26.7828 152.92 25.8234 154.053 24.9513C154.882 24.2972 155.754 23.5995 156.582 22.9018C158.152 21.55 160.811 22.2477 163.427 22.9018C165.52 23.4251 167.918 24.0792 168.528 23.1198C170.926 19.4568 182.261 12.7414 186.403 12.0873C186.665 12.0437 186.926 12.1309 187.144 12.3053C204.365 28.3526 204.845 33.1058 203.711 35.2861C201.88 38.7747 194.294 37.074 188.234 35.6786C186.359 35.2425 184.398 34.8065 183.831 34.8937C181.913 35.1117 181.52 36.0274 180.866 38.1642C180.474 39.4288 180.038 40.8678 178.991 42.2632C177.378 44.4436 174.414 43.4842 171.798 42.6121C169.138 41.7399 167.351 41.2603 166.566 42.394C166.13 43.0481 165.607 43.6586 165.04 44.3563C164.037 45.5773 162.991 46.8856 162.424 48.1065C160.811 51.5515 160.68 55.1272 162.119 57.8309C163.078 59.6624 166.566 60.0984 168.877 60.4037L169.138 60.4473C173.847 61.0578 178.512 61.6683 183.177 62.2788C187.842 62.8893 192.55 63.4998 197.215 64.1103C200.572 64.5463 204.06 64.9824 207.286 66.3778C207.592 66.5086 207.81 66.8139 207.81 67.1191C208.028 70.346 207.853 73.6602 207.374 76.9307C207.243 77.8028 206.85 80.5064 204.627 81.2041C200.66 82.5559 196.649 82.992 192.594 82.992ZM159.024 23.9484C158.457 23.9484 157.977 24.0356 157.716 24.2972C156.887 25.0385 155.972 25.7362 155.143 26.3903C154.01 27.2625 152.876 28.1782 151.83 29.1376C148.08 32.6261 145.116 37.5101 143.372 43.2662C141.933 47.9321 141.192 53.2521 141.018 59.9676C140.974 61.4502 140.974 63.0637 141.279 64.5463C141.933 67.5116 144.113 70.0844 146.903 71.3054C157.672 75.8841 167.046 78.6313 175.547 79.6779C176.55 79.8087 177.553 79.9395 178.555 80.0704C187.449 81.2477 195.864 82.3379 204.191 79.6779C204.976 79.4163 205.455 78.4569 205.717 76.7998C206.153 73.8346 206.327 70.8693 206.153 67.904C203.275 66.7703 200.093 66.3778 197.041 65.9854C192.332 65.3749 187.667 64.7644 183.002 64.1539C178.337 63.5434 173.629 62.9329 168.964 62.3224L168.702 62.2788C165.868 61.9299 162.032 61.4066 160.637 58.7902C158.936 55.6069 159.024 51.5079 160.898 47.5397C161.552 46.1006 162.686 44.7488 163.732 43.397C164.255 42.7429 164.779 42.1324 165.171 41.5219C166.74 39.298 169.749 40.2573 172.365 41.0858C175.024 41.958 176.811 42.4377 177.64 41.3475C178.512 40.2137 178.861 38.9927 179.253 37.8153C179.863 35.7658 180.517 33.6291 183.7 33.3238C184.528 33.2366 186.054 33.5855 188.67 34.1524C192.986 35.1117 201.052 36.9432 202.229 34.632C202.97 33.193 201.924 28.6143 186.359 14.0496C182.348 15.0089 172.103 21.0703 170.097 24.21C168.79 26.2159 165.912 25.431 163.122 24.7333C161.596 24.2972 160.114 23.9484 159.024 23.9484Z" fill="black"/>
<path d="M209.641 79.765C208.115 78.326 205.368 79.1109 203.755 77.8027C202.49 76.7562 202.49 74.8811 202.534 73.2676C202.621 71.1745 202.796 68.9069 204.278 67.4679C205.324 66.4213 206.85 65.9853 208.333 65.7672C216.093 64.5462 230.001 69.561 229.521 73.442C229.347 74.7502 226.862 73.7909 225.554 73.442C225.554 75.6224 227.036 77.4975 228.17 79.3726C229.303 81.2477 230.131 84.5182 228.867 86.306C228.387 86.9601 227.123 87.7451 226.426 88.1811C224.769 89.2277 224.333 89.2713 222.72 90.3179C222.327 90.5795 221.325 90.7539 220.889 90.7539C220.453 90.7539 220.06 90.5359 219.668 90.3179C218.055 89.4021 210.948 80.986 209.641 79.765Z" fill="white"/>
<path d="M220.889 91.5827C220.235 91.5827 219.712 91.2775 219.276 91.0594C218.142 90.4053 215.265 87.2656 211.69 83.2538C210.513 81.902 209.466 80.7682 209.074 80.3758C208.507 79.8525 207.592 79.7217 206.589 79.5908C205.499 79.46 204.235 79.2856 203.232 78.4571C201.531 77.0616 201.662 74.5324 201.706 73.1806C201.793 71.3491 201.924 68.5583 203.668 66.814C204.932 65.5058 206.763 65.1134 208.202 64.8953C214.872 63.8488 225.598 67.2065 229.042 70.5642C230.045 71.5672 230.524 72.5701 230.393 73.5295C230.35 74.0092 230.088 74.4016 229.696 74.6633C228.911 75.1865 227.734 74.9685 226.6 74.6633C226.906 75.7534 227.603 76.8436 228.301 77.9338C228.519 78.2826 228.737 78.5879 228.911 78.9367C230.045 80.7682 231.222 84.562 229.565 86.8296C229.085 87.5273 228.126 88.1378 227.08 88.7919L226.862 88.9227C226.034 89.446 225.467 89.7512 224.944 90.0565C224.42 90.3181 223.941 90.5798 223.156 91.103C222.546 91.4955 221.281 91.6699 220.889 91.6699C220.889 91.5827 220.889 91.5827 220.889 91.5827ZM210.949 66.378C210.077 66.378 209.248 66.4216 208.507 66.5524C207.33 66.7268 205.848 67.0757 204.932 67.9914C203.711 69.2124 203.537 71.1747 203.45 73.2242C203.406 74.6633 203.406 76.2767 204.365 77.0616C204.976 77.5413 205.848 77.6721 206.807 77.803C207.984 77.9774 209.292 78.1518 210.251 79.0676C210.687 79.5036 211.69 80.5938 212.954 82.0328C215.265 84.6056 219.101 88.9227 220.061 89.4896C220.322 89.6204 220.627 89.7948 220.845 89.7948C221.238 89.7948 222.023 89.6204 222.241 89.4896C223.112 88.9227 223.636 88.661 224.159 88.3558C224.682 88.0942 225.162 87.8325 225.946 87.3092L226.164 87.1784C226.731 86.8296 227.821 86.1319 228.17 85.6522C229.085 84.344 228.562 81.5095 227.429 79.7217C227.254 79.4164 227.036 79.0675 226.818 78.7623C225.772 77.1052 224.638 75.4046 224.682 73.3114C224.682 73.0498 224.813 72.7882 225.031 72.6137C225.249 72.4393 225.51 72.3957 225.772 72.4829C225.946 72.5265 226.208 72.6137 226.426 72.6573C226.993 72.8318 228.213 73.1806 228.649 73.0934C228.649 72.701 228.344 72.2213 227.821 71.6544C225.118 69.1252 217.052 66.378 210.949 66.378Z" fill="black"/>
<path d="M246.176 14.9217C248.573 13.9623 251.32 14.0931 253.805 14.8781C256.29 15.663 258.514 17.0584 260.65 18.541C264.312 21.0702 267.757 23.9483 270.896 27.088C268.803 26.9572 266.1 26.9136 263.964 26.7827C265.315 30.4893 268.411 30.2277 271.724 35.9402C269.718 35.3733 264.312 35.3297 262.132 34.0651C264.138 37.7717 265.141 39.3851 265.707 44.6616C264.356 42.8737 260.912 40.8678 258.993 39.6468C258.688 43.1789 259.124 47.9757 258.819 51.5514C257.293 49.7636 254.459 47.6268 252.933 45.7953C253.5 49.4583 253.631 52.3364 252.148 55.7377C250.492 52.2055 248.007 49.1095 244.955 46.6675C243.778 45.7081 241.598 45.8389 241.162 44.3563C240.682 42.6992 242.339 39.9084 243.124 38.3822C244.65 35.2425 245.957 31.9284 246.306 28.4398C246.655 24.9513 245.958 21.2883 243.821 18.4974C243.429 18.0178 242.993 17.4073 243.167 16.7968C243.298 16.4043 243.603 16.0991 243.952 15.881C244.911 15.2705 245.129 15.3577 246.176 14.9217Z" fill="black"/>
<path d="M177.64 143.082C186.665 138.678 182.305 118.532 186.49 109.374C168.353 109.156 162.991 111.249 150.827 99.083C148.865 103.923 146.642 108.982 142.761 112.47C137.617 117.093 130.249 118.27 123.36 117.921C116.472 117.529 109.714 115.828 102.826 115.566C98.8584 115.392 94.8473 115.741 90.8799 116.046C83.2938 116.657 75.7078 117.267 68.2526 118.575C60.7974 119.883 52.6446 121.759 45.9741 118.139C43.5762 120.668 41.5271 123.546 39.8704 126.599C48.372 131.527 55.8272 138.94 64.2852 144.042C72.7432 149.1 82.9015 152.545 92.4058 150.016C98.3787 148.446 103.698 144.652 109.801 143.693C120.832 141.949 130.99 149.667 141.933 151.629C154.271 153.897 166.304 148.577 177.64 143.082Z" fill="white"/>
<path d="M147.906 153.068C145.857 153.068 143.764 152.894 141.715 152.501C137.443 151.717 133.301 150.103 129.29 148.533C122.707 145.96 116.472 143.518 109.889 144.565C106.575 145.088 103.567 146.44 100.384 147.879C97.8993 149.013 95.2835 150.19 92.5804 150.888C81.8989 153.722 70.9994 149.144 63.7622 144.827C59.6204 142.341 55.653 139.245 51.86 136.28C47.849 133.14 43.7072 129.913 39.391 127.427C38.9986 127.209 38.8242 126.686 39.0422 126.25C40.7425 123.11 42.8353 120.189 45.2767 117.572C45.5383 117.267 45.9743 117.223 46.323 117.398C52.1652 120.538 59.2716 119.273 66.1165 118.052C66.7704 117.921 67.3808 117.834 68.0348 117.703C75.4464 116.439 83.0325 115.784 90.4005 115.218L90.9673 115.174C94.8475 114.869 98.8585 114.563 102.826 114.694C106.445 114.825 110.063 115.392 113.551 115.915C116.777 116.395 120.091 116.875 123.36 117.049C128.985 117.354 136.789 116.7 142.151 111.86C145.813 108.546 147.95 103.793 149.955 98.7778C150.086 98.5162 150.304 98.2981 150.609 98.2545C150.914 98.2109 151.176 98.2981 151.394 98.4726C161.596 108.633 166.784 108.589 179.427 108.502C181.52 108.502 183.874 108.459 186.49 108.502C186.795 108.502 187.057 108.677 187.231 108.895C187.406 109.113 187.406 109.461 187.275 109.723C185.705 113.168 185.4 118.226 185.051 123.59C184.528 132.137 183.962 140.946 178.032 143.867C168.005 148.708 158.152 153.068 147.906 153.068ZM112.984 142.559C118.826 142.559 124.407 144.739 129.9 146.876C133.824 148.402 137.922 150.016 142.02 150.757C154.01 152.937 165.52 147.966 177.247 142.254C182.305 139.812 182.828 131.483 183.307 123.459C183.613 118.488 183.918 113.779 185.182 110.203C183.09 110.203 181.171 110.203 179.427 110.203C167.089 110.29 161.247 110.334 151.089 100.566C149.17 105.144 146.947 109.81 143.328 113.081C137.53 118.314 129.203 119.055 123.273 118.75C119.916 118.575 116.559 118.052 113.289 117.572C109.845 117.049 106.27 116.526 102.739 116.395C98.9021 116.221 94.9346 116.569 91.098 116.875L90.5313 116.918C83.2069 117.529 75.6644 118.139 68.34 119.404C67.7296 119.491 67.0757 119.622 66.4653 119.753C59.5332 120.974 52.3832 122.282 46.1487 119.229C44.1868 121.366 42.4429 123.765 41.0041 126.294C45.1895 128.779 49.1133 131.875 52.95 134.884C56.743 137.85 60.6232 140.858 64.6778 143.3C71.6098 147.443 82.0297 151.847 92.1444 149.187C94.7167 148.49 97.2454 147.356 99.6869 146.266C102.826 144.827 106.096 143.388 109.627 142.821C110.717 142.646 111.851 142.559 112.984 142.559Z" fill="black"/>
<path d="M22.3876 134.23C21.7337 135.102 25.1343 137.806 26.355 137.85C28.6221 136.236 30.2788 133.576 30.4967 131.832C30.7147 130.088 30.2787 130.742 29.058 129.477C27.8373 128.212 26.3114 127.34 24.9163 126.294C20.2513 122.849 15.7608 115.61 11.7063 113.517C10.5291 112.906 10.3547 117.79 10.5291 119.055C10.9651 122.413 13.4066 125.378 16.066 127.471C18.7255 129.564 21.5156 130.916 24.3059 132.835C23.3903 133.314 22.998 133.402 22.3876 134.23Z" fill="black"/>
<path d="M223.243 37.8154C223.2 37.6846 223.156 37.5974 223.112 37.4666C222.458 35.5915 221.805 33.8036 222.153 31.8413C222.633 29.0941 222.589 26.3904 226.469 22.6838C226.993 21.1576 225.685 19.8494 224.508 18.7156C223.374 17.5818 221.935 16.6225 221.238 15.1399C221.063 14.791 220.933 14.3549 220.976 13.9625C221.151 12.9595 222.371 12.6107 223.374 12.5234C227.69 12.2182 231.483 17.9743 235.8 17.7127C237.195 17.6255 238.546 17.1022 239.898 16.8405C244.083 16.012 248.661 17.7999 251.32 21.1576C253.936 24.5589 254.59 29.3557 253.064 33.3239C251.8 36.5944 249.271 39.2108 246.525 41.4348C243.865 43.6151 240.813 45.5338 237.413 45.8391C236.105 45.9699 234.797 45.8391 233.532 45.5338C233.184 46.1007 232.878 46.624 232.573 47.1909C230.35 51.3772 233.227 54.4296 233.096 54.8221C233.009 55.0837 230.829 58.7031 221.935 57.2641C218.36 56.6972 213.739 53.5575 212.911 50.2434C212.039 46.842 211.777 43.2227 211.733 39.7341C215.396 40.9115 220.715 40.6499 223.243 37.8154Z" fill="white"/>
<path d="M225.728 58.3979C224.551 58.3979 223.2 58.3107 221.674 58.0491C217.837 57.4386 212.911 54.1244 211.951 50.3743C211.167 47.3654 210.774 43.8332 210.774 39.647C210.774 39.3853 210.905 39.0801 211.123 38.9493C211.341 38.8184 211.646 38.7312 211.908 38.8184C215.221 39.9522 219.843 39.7778 222.197 37.5975L222.153 37.5102C221.499 35.6788 220.845 33.8037 221.238 31.6669C221.281 31.3617 221.325 31.0128 221.412 30.7076C221.761 28.3092 222.197 25.6056 225.641 22.2042C225.815 21.3321 225.031 20.46 223.897 19.3262L223.854 19.2826C223.548 18.9773 223.243 18.7157 222.894 18.4104C221.979 17.5819 221.02 16.7098 220.409 15.4888C220.104 14.8783 219.973 14.3114 220.104 13.7445C220.322 12.5235 221.499 11.7386 223.287 11.6078C225.728 11.4334 227.952 12.916 230.088 14.355C232.05 15.6632 233.881 16.8842 235.756 16.797C236.541 16.7534 237.369 16.5354 238.197 16.3173C238.677 16.1865 239.2 16.0557 239.723 15.9249C244.214 15.0091 249.14 16.8842 251.974 20.5472C254.764 24.1229 255.506 29.2249 253.805 33.5856C252.672 36.5509 250.535 39.2109 247.004 42.089C244.781 43.8768 241.424 46.3188 237.413 46.6677C236.279 46.7549 235.102 46.7113 233.881 46.4496C233.663 46.7985 233.489 47.191 233.271 47.5398C231.745 50.4179 232.922 52.6418 233.532 53.732C233.794 54.2117 233.968 54.6041 233.838 55.0402C233.838 55.0402 232.399 58.3979 225.728 58.3979ZM212.518 40.8244C212.605 44.3565 212.954 47.3654 213.652 49.9382C214.436 52.9035 218.753 55.8251 221.979 56.3048C228.955 57.4386 231.44 55.3454 232.05 54.6041C232.05 54.5605 232.006 54.5605 232.006 54.5169C231.352 53.2959 229.783 50.3743 231.745 46.6677C232.05 46.1008 232.355 45.5339 232.704 44.9234C232.922 44.6182 233.271 44.4437 233.663 44.5309C234.884 44.8362 236.105 44.9234 237.282 44.8362C239.985 44.5745 242.732 43.2663 245.958 40.6063C249.228 37.9899 251.189 35.5043 252.236 32.8443C253.675 29.0505 253.064 24.6462 250.623 21.5065C248.138 18.3668 243.909 16.7534 240.072 17.4947C239.592 17.5819 239.156 17.7127 238.677 17.8436C237.761 18.1052 236.846 18.3232 235.843 18.4104C233.401 18.5413 231.222 17.0586 229.129 15.6632C227.167 14.355 225.292 13.0904 223.418 13.2212C222.72 13.2648 221.892 13.5265 221.848 13.9189C221.805 14.0498 221.892 14.3114 222.022 14.573C222.458 15.4888 223.287 16.2301 224.115 16.9714C224.464 17.2767 224.813 17.5819 225.118 17.9308C226.339 19.1518 227.995 20.7652 227.254 22.8147C227.211 22.9456 227.123 23.0764 227.036 23.1636C223.854 26.2597 223.505 28.4836 223.156 30.8384C223.112 31.1872 223.069 31.4925 222.982 31.8413C222.676 33.542 223.2 35.0683 223.81 36.8125L223.941 37.1614C223.984 37.205 223.984 37.2922 224.028 37.3358C224.159 37.6411 224.115 37.9899 223.854 38.2516C221.325 41.2604 216.398 41.7401 212.518 40.8244Z" fill="black"/>
<path d="M239.244 24.9079C239.68 23.905 241.642 23.9486 242.514 24.2102C244.17 24.6899 242.296 26.565 241.685 27.2191C240.77 28.222 242.252 29.7483 243.211 28.7453C244.868 26.9138 246.612 24.123 243.735 22.4223C241.991 21.4194 238.241 21.7682 237.369 23.8614C236.846 25.0823 238.721 26.1725 239.244 24.9079Z" fill="black"/>
<path d="M185.4 153.025C185.139 153.025 184.877 152.894 184.746 152.719L172.844 138.373C172.626 138.111 172.582 137.762 172.713 137.457C172.844 137.152 173.149 136.934 173.454 136.934C173.978 136.89 224.726 134.317 232.006 125.073C239.2 115.959 223.941 89.7076 223.81 89.4459C223.548 89.0099 223.723 88.4866 224.115 88.2686C224.551 88.0069 225.074 88.1813 225.292 88.5738C225.946 89.7076 241.293 116.133 233.358 126.163C226.295 135.146 184.485 138.068 175.242 138.591L185.749 151.237C189.804 150.932 220.148 148.62 232.573 147.312C236.235 146.92 240.857 147.443 245.347 147.966C254.982 149.056 264.094 150.103 265.228 143.344C267.277 131.134 244.737 73.573 244.475 72.9625C244.301 72.5265 244.519 72.0032 244.955 71.8288C245.391 71.6543 245.914 71.8724 246.088 72.3084C247.048 74.7068 269.065 130.916 266.928 143.606C265.533 151.978 255.157 150.801 245.129 149.667C240.726 149.187 236.192 148.664 232.748 149.013C219.45 150.452 185.749 152.981 185.4 152.981C185.444 153.025 185.444 153.025 185.4 153.025Z" fill="black"/>
<path d="M186.447 149.798C186.054 146.745 187.013 141.12 185.88 140.204C184.528 139.114 182.436 138.504 180.387 137.98C178.294 137.457 176.288 138.242 174.152 138.547C169.531 139.114 164.648 140.204 161.334 143.475C161.029 143.78 160.68 144.129 160.593 144.565C160.332 145.655 161.596 146.615 162.729 146.571C163.863 146.527 164.822 145.873 165.868 145.394C166.871 144.914 168.179 144.609 169.095 145.263C167.002 146.527 165.04 147.923 163.122 149.493C162.381 150.103 161.639 150.801 161.291 151.673C160.462 153.81 162.206 155.99 163.776 157.603C164.255 158.083 164.778 158.606 165.476 158.606C165.912 158.606 166.261 158.388 166.653 158.17C169.4 156.601 171.841 154.551 174.675 153.112C177.422 151.673 186.795 152.501 186.447 149.798Z" fill="white"/>
<path d="M165.476 159.435C164.386 159.435 163.602 158.65 163.122 158.17C161.509 156.469 159.46 153.94 160.462 151.324C160.898 150.234 161.77 149.405 162.555 148.795C163.558 147.966 164.604 147.181 165.694 146.396C165.651 146.44 165.607 146.44 165.563 146.483C164.735 146.92 163.82 147.356 162.773 147.399C161.814 147.443 160.855 147.007 160.244 146.309C159.765 145.742 159.59 145.044 159.765 144.347C159.939 143.649 160.419 143.126 160.768 142.82C164.386 139.332 169.531 138.242 174.065 137.675C174.632 137.588 175.242 137.5 175.853 137.37C177.379 137.064 178.948 136.759 180.605 137.152C182.741 137.675 184.965 138.329 186.447 139.55C187.406 140.335 187.406 142.254 187.275 145.48C187.232 147.007 187.145 148.577 187.319 149.71C187.363 150.234 187.232 150.713 186.926 151.106C185.924 152.37 183.221 152.676 180.125 152.981C178.12 153.199 176.027 153.417 175.068 153.897C173.542 154.682 172.059 155.685 170.664 156.644C169.531 157.429 168.354 158.214 167.133 158.911C166.61 159.173 166.087 159.435 165.476 159.435ZM167.787 143.954C168.485 143.954 169.095 144.129 169.574 144.478C169.792 144.652 169.967 144.914 169.923 145.219C169.923 145.524 169.749 145.786 169.487 145.917C167.438 147.138 165.476 148.533 163.645 150.059C162.991 150.582 162.337 151.193 162.076 151.891C161.596 153.199 162.294 154.769 164.386 156.905C164.735 157.254 165.127 157.647 165.476 157.647C165.651 157.647 165.956 157.516 166.217 157.342C167.395 156.644 168.528 155.903 169.662 155.118C171.144 154.115 172.626 153.112 174.283 152.283C175.547 151.629 177.684 151.411 179.994 151.193C182.131 150.975 185.052 150.67 185.619 149.972C185.662 149.928 185.662 149.928 185.662 149.841C185.488 148.577 185.575 146.92 185.619 145.35C185.662 143.823 185.749 141.251 185.401 140.771C184.223 139.812 182.218 139.245 180.256 138.765C178.992 138.46 177.64 138.721 176.245 138.983C175.635 139.114 174.981 139.245 174.327 139.332C170.054 139.855 165.258 140.858 161.988 143.998C161.683 144.26 161.509 144.478 161.465 144.696C161.465 144.739 161.422 144.87 161.596 145.132C161.858 145.437 162.294 145.655 162.686 145.611C163.384 145.568 164.038 145.219 164.735 144.87C164.997 144.739 165.215 144.608 165.476 144.521C166.305 144.172 167.089 143.954 167.787 143.954Z" fill="black"/>
<path d="M22.213 101.7C21.995 101.743 21.8642 101.961 21.8206 102.179C21.2974 106.104 23.3902 110.116 26.7472 112.122C27.8372 112.776 29.058 113.212 30.2351 113.648C31.1943 113.997 32.1534 114.345 33.069 114.694C33.9846 115.043 34.3769 116.133 33.8101 116.962C33.2434 117.79 32.197 118.401 32.1098 119.447C32.0662 119.796 33.2433 121.192 34.1153 122.544C34.3333 122.892 34.7693 123.067 35.1617 122.98C39.4343 121.977 38.6931 123.328 40.8295 123.198C41.4834 123.154 42.1374 123.198 42.7478 122.98C44.0122 122.587 44.8405 121.366 45.5817 120.232C45.7125 120.014 45.8433 119.796 45.9305 119.535C46.0613 118.968 48.1104 118.357 47.5872 118.096C47.064 117.79 46.4536 117.703 45.8869 117.572C43.3582 116.918 38.9984 114.869 37.4288 112.819C35.8593 110.726 35.3797 109.2 33.3742 107.586C32.197 106.627 29.9735 105.188 28.6219 104.534C26.7036 103.487 24.3057 101.045 22.213 101.7Z" fill="black"/>
<path fill-rule="evenodd" clip-rule="evenodd" d="M200.877 8.90405C200.703 9.64536 199.831 20.2418 201.183 21.7681C202.578 23.2943 212.126 27.437 213.739 24.995C215.352 22.553 220.192 13.788 220.192 11.7821C220.192 9.81979 220.54 8.6424 217.924 7.59584C215.352 6.59288 215.657 4.06369 211.821 2.14498C205.063 -1.25635 202.447 1.66531 200.877 8.90405Z" class="sec-color-fill"/>
<path d="M232.748 40.3445C232.486 40.3445 232.181 40.2137 232.05 39.952C231.963 39.8212 222.894 26.7828 211.167 18.2794C210.774 18.0178 210.687 17.4509 210.992 17.0584C211.297 16.666 211.82 16.5787 212.213 16.884C224.202 25.5618 233.402 38.8619 233.489 38.9927C233.75 39.3851 233.663 39.952 233.271 40.2137C233.053 40.3009 232.878 40.3445 232.748 40.3445Z" fill="black"/>
<path d="M211.21 20.0238C211.123 20.0238 210.992 20.0238 210.905 19.9802C209.117 19.4569 207.984 18.6284 207.635 17.5382C207.417 16.8405 207.504 16.0992 207.94 15.4887C207.984 15.4451 207.984 15.3579 208.028 15.3143C208.246 15.009 208.463 14.6165 208.725 14.1805C209.161 13.3955 209.553 12.6978 210.077 12.349C210.338 12.2182 211.036 11.7821 212.954 13.0903C212.998 13.0903 212.998 13.1339 213.041 13.1339C213.39 13.3955 213.739 13.788 214.044 14.1369C214.131 14.2241 214.218 14.3549 214.306 14.4421C214.785 15.009 214.436 16.3608 214.306 16.6225C213.652 17.9307 212.431 20.0238 211.21 20.0238ZM209.423 16.1864C209.379 16.23 209.379 16.3172 209.335 16.3608C209.248 16.448 209.117 16.7097 209.205 17.0149C209.292 17.233 209.641 17.8434 211.167 18.3231C211.559 17.9743 212.387 16.7533 212.823 15.8811C212.867 15.7939 212.91 15.5323 212.91 15.3579C212.867 15.3142 212.867 15.3142 212.823 15.2706C212.562 15.009 212.256 14.6601 211.995 14.4421C211.472 14.0933 211.036 13.9188 210.818 13.8316C210.643 14.0496 210.338 14.5729 210.12 14.9218C209.946 15.3579 209.684 15.7939 209.423 16.1864Z" fill="black"/>
<path d="M213.085 14.4858C212.649 14.4858 212.3 14.1369 212.257 13.7009C212.257 13.2648 212.605 12.8723 213.041 12.8287C213.739 12.7851 214.654 12.6107 215.09 11.8258C215.483 11.1281 215.352 10.0815 214.785 8.90411C212.039 7.98837 210.425 8.07558 210.077 8.55526C209.771 8.94772 210.033 10.2123 211.733 12.4799C211.995 12.8287 211.908 13.352 211.559 13.6136C211.21 13.8753 210.687 13.7881 210.425 13.4392C208.42 10.692 207.853 8.77329 208.769 7.5523C209.989 5.89524 213.216 6.54934 215.657 7.42148C215.832 7.50869 216.006 7.63951 216.093 7.81394C217.096 9.64543 217.27 11.3461 216.529 12.6107C215.919 13.7445 214.698 14.3986 213.085 14.4858C213.128 14.4858 213.128 14.4858 213.085 14.4858Z" fill="black"/>
<path d="M215.919 20.4599C215.57 20.4599 215.178 20.4163 214.829 20.2855C213.608 19.893 212.736 18.8465 212.387 17.3202C212.3 16.8842 212.562 16.4481 212.998 16.3173C213.434 16.2301 213.87 16.4917 214 16.9278C214.218 17.8871 214.698 18.4976 215.352 18.7156C216.137 18.9773 217.139 18.672 218.142 17.8435C218.491 14.9655 218.099 13.3956 217.575 13.134C217.139 12.9159 215.962 13.4392 214.044 15.4887C213.739 15.8376 213.216 15.8376 212.867 15.5323C212.518 15.2271 212.518 14.7038 212.823 14.355C215.134 11.8694 216.922 10.9536 218.273 11.6077C220.148 12.4799 220.104 15.7504 219.712 18.3668C219.668 18.5848 219.581 18.7593 219.407 18.8901C218.273 19.9366 217.009 20.4599 215.919 20.4599Z" fill="black"/>
<path d="M212.692 25.2565C212.605 25.2565 212.562 25.2565 212.474 25.2129C210.469 24.6896 209.117 23.643 208.725 22.204C208.333 20.983 208.725 19.6748 209.728 18.4974C210.033 18.1486 210.556 18.105 210.905 18.4102C211.254 18.7155 211.297 19.2388 210.992 19.5876C210.338 20.3289 210.12 21.0702 210.295 21.7243C210.513 22.5093 211.385 23.1198 212.605 23.5122C215.178 22.1604 216.224 20.9394 216.093 20.3289C216.006 19.8493 214.916 19.1515 212.126 18.8027C211.69 18.7591 211.341 18.323 211.428 17.8869C211.472 17.4509 211.908 17.102 212.344 17.1892C215.701 17.6253 217.488 18.5846 217.75 20.0673C218.099 22.1168 215.396 23.9483 213.085 25.1257C212.954 25.2129 212.823 25.2565 212.692 25.2565Z" fill="black"/>
<path d="M207.374 24.1667C205.543 24.1667 203.711 21.9863 202.404 20.024C202.273 19.8496 202.229 19.6315 202.273 19.4571C202.578 17.4076 203.45 15.9686 204.801 15.3581C205.978 14.8348 207.33 15.0528 208.594 15.9686C208.987 16.2302 209.074 16.7535 208.812 17.1024C208.551 17.4948 208.028 17.582 207.679 17.3204C207.112 16.9279 206.284 16.5355 205.455 16.8843C204.714 17.1896 204.191 18.1053 203.929 19.4135C205.542 21.8119 206.894 22.684 207.504 22.5096C207.984 22.3788 208.551 21.2014 208.551 18.367C208.551 17.9309 208.943 17.5384 209.379 17.5384C209.815 17.5384 210.207 17.9309 210.207 18.367C210.164 21.7683 209.423 23.6434 207.94 24.0358C207.766 24.1667 207.548 24.1667 207.374 24.1667Z" fill="black"/>
<path d="M204.758 16.9276C203.973 16.9276 203.362 16.7096 202.883 16.2299C201.444 14.7037 202.665 11.6948 203.973 9.42728C204.06 9.25285 204.234 9.12203 204.409 9.03482C206.371 8.33711 208.071 8.51154 209.205 9.42728C210.207 10.2558 210.643 11.5204 210.425 13.0902C210.382 13.5263 209.946 13.8752 209.51 13.788C209.074 13.7444 208.725 13.3083 208.812 12.8722C208.943 11.9129 208.725 11.1279 208.202 10.6919C207.591 10.1686 206.545 10.125 205.281 10.4738C203.886 13.003 203.711 14.6165 204.104 15.0526C204.452 15.4014 205.717 15.3578 208.245 14.1368C208.638 13.9188 209.161 14.0932 209.335 14.5293C209.553 14.9217 209.379 15.445 208.943 15.6194C207.243 16.4916 205.848 16.9276 204.758 16.9276Z" fill="black"/>
</svg>
