<svg width="229" height="262" viewBox="0 0 229 262" fill="none" xmlns="http://www.w3.org/2000/svg">
<path d="M108.299 92.4304C108.299 92.6339 108.299 92.8374 108.299 93.0409C108.583 90.6398 108.705 88.3201 108.665 86.2446C108.421 88.076 108.339 90.2736 108.299 92.4304Z" class="main-color-fill"/>
<path d="M126.364 88.0759C124.777 76.5589 112.245 58.7341 108.095 51.9785C105.491 53.8912 103.538 55.4377 103.294 55.9667C103.253 56.0888 103.212 56.1702 103.131 56.2516C101.829 57.6353 78.5964 83.1517 77.4571 84.454C77.213 84.7389 53.3293 112.087 49.6267 116.238L54.143 122.912C54.2651 123.115 54.3058 123.359 54.2651 123.563C54.3872 123.888 55.4451 124.377 57.5608 124.743C66.5121 123.97 76.1958 121.243 77.7012 115.831C80.3459 106.348 82.2583 123.034 84.5775 119.778C87.3442 115.871 90.0703 113.226 90.8027 114.854C93.1219 109.889 97.5162 107.854 100.853 106.267C102.643 105.412 104.189 104.721 104.881 103.785C106.467 101.709 106.59 96.7442 106.671 92.349C106.793 87.9945 106.874 83.8842 108.258 81.8494C108.42 81.646 108.665 81.4832 108.909 81.4832C108.949 81.4832 108.99 81.4832 109.071 81.4832C109.397 81.5239 109.641 81.7681 109.722 82.0936C111.472 88.9713 108.624 101.587 106.752 109.93C105.979 113.267 105.328 116.156 105.41 117.052C105.45 117.662 105.491 118.313 105.613 118.964C110.74 114.447 118.796 111.151 118.796 111.151C118.796 111.151 128.073 100.488 126.364 88.0759Z" class="main-color-fill"/>
<path d="M52.597 123.563L47.9179 116.604C47.7145 116.278 47.7551 115.831 47.9993 115.587C48.813 114.773 74.5684 85.268 76.1959 83.396C77.2944 82.0937 99.9168 57.2691 101.829 55.1936C102.399 54.2576 104.677 52.4263 107.241 50.5542C104.352 45.3452 101.056 42.9441 101.056 42.9441C101.056 42.9441 89.5008 51.124 88.9718 52.7518C87.4664 54.4611 65.2102 80.4658 64.193 81.7681C63.1758 83.0297 37.7867 113.959 36.9729 114.854L41.652 122.261C41.2044 124.092 46.5752 125.15 53.3294 125.028C52.7597 124.499 52.597 124.011 52.597 123.563Z" class="main-color-fill"/>
<path d="M103.742 117.174C103.701 116.116 104.189 113.837 105.125 109.604C105.45 108.058 105.857 106.389 106.223 104.639C106.183 104.68 106.142 104.721 106.101 104.761C105.166 105.982 103.457 106.796 101.463 107.732C97.8011 109.442 93.2034 111.598 91.4945 117.377C91.4132 117.621 91.3318 117.866 91.2097 118.11C92.7152 124.743 99.1845 129.464 101.87 123.482C102.358 122.424 103.091 121.406 104.026 120.389C103.945 119.29 103.823 118.191 103.742 117.174Z" class="main-color-fill"/>
<path d="M120.83 130.929C119.935 133.615 132.874 149.527 132.589 164.829C131.897 201.13 119.121 252.936 119.121 252.936H125.184C123.109 253.221 135.559 271.371 151.468 188.432C151.549 188.107 161.64 174.555 165.709 172.48C184.384 163.038 155.903 103.378 155.903 103.378C155.903 103.378 158.1 123.97 151.753 123.97C139.994 123.97 122.824 125.028 120.83 130.929Z" class="main-color-fill"/>
<path d="M129.904 18.6892C129.009 17.9567 129.66 15.8812 130.189 15.0673C131.206 13.5208 132.548 16.0847 133.037 16.8579C133.81 18.1602 135.844 17.0614 135.071 15.7591C133.728 13.4394 131.328 10.7942 128.724 13.236C127.137 14.701 126.364 18.7299 128.195 20.2764C129.293 21.2124 131.043 19.6659 129.904 18.6892Z" fill="black"/>
<path d="M216.487 67.2398C216.365 67.2398 216.284 67.2398 216.202 67.1991C215.877 67.1177 215.633 66.8328 215.551 66.4665L215.51 66.141L215.836 66.0189C217.789 65.327 217.992 65.5712 218.115 65.7747C218.196 65.8561 218.318 66.141 217.992 66.4665C217.586 66.9549 216.975 67.2398 216.487 67.2398Z" fill="black"/>
<path d="M219.091 61.9899L218.359 61.6236C218.928 60.4027 220.474 60.0771 221.247 60.0771V60.8911C220.759 60.8911 219.498 61.0946 219.091 61.9899Z" fill="black"/>
<path d="M199.236 117.988C199.073 117.988 198.951 117.988 198.788 117.947C198.422 117.865 198.096 117.621 197.934 117.255C197.689 116.807 197.73 116.319 197.811 115.953C197.608 115.587 197.364 115.057 197.445 114.447C197.567 113.715 199.358 109.604 200.334 108.709C200.497 108.261 200.375 106.633 200.293 105.29C200.212 103.907 200.09 102.401 200.09 100.732C200.09 96.4594 204.199 86.0005 204.566 85.0645L204.81 84.0471C205.013 83.2739 205.176 82.5413 205.339 81.8495C206.559 76.6811 206.152 72.0825 205.949 71.5127C205.542 70.6988 204.81 66.1408 207.048 64.1467C207.332 63.9025 207.658 63.6583 208.024 63.4549C207.78 60.4027 209.001 57.7167 209.774 56.0889C209.936 55.7226 210.099 55.3971 210.181 55.1529C210.465 54.2169 210.058 46.5253 209.814 41.9267C209.57 37.7757 209.489 35.5781 209.53 35.0083C209.692 33.6654 211.198 33.0549 212.54 33.0549C212.988 33.0549 213.761 33.1363 214.209 33.6247C214.29 33.7468 214.453 33.8689 214.575 34.8456C214.9 34.2758 215.47 33.7875 216.202 33.5433C217.382 33.1363 218.725 33.3805 219.376 34.1537C220.027 34.8863 219.905 37.0025 218.603 46.1184C218.196 48.9671 217.789 51.8972 217.83 52.6704C217.911 54.2576 218.481 54.9901 219.579 56.3331C219.824 56.6179 220.068 56.9435 220.312 57.2691C222.021 59.4667 222.305 62.8038 222.102 64.3909C222.061 64.5944 221.98 64.8385 221.899 65.0827C222.916 66.1815 223.607 67.4024 223.974 68.7454C225.683 70.2104 226.822 76.4369 226.822 76.4776C226.903 77.5357 226.293 78.3089 226.008 78.7159C226.008 78.7566 225.967 78.7566 225.967 78.7973C225.967 79.2042 225.764 79.6519 225.52 79.9368C225.072 80.5065 224.381 80.7507 223.689 80.6286C223.526 80.5879 223.363 80.5472 223.201 80.5065C223.201 80.6693 223.201 80.8728 223.241 81.0356C223.363 82.7041 223.648 84.1285 223.892 85.5121C224.218 87.2621 224.543 89.0934 224.584 91.291C225.235 92.3084 227.92 96.7035 228.246 99.7557C228.49 101.791 227.961 103.378 226.7 104.477C227.839 105.413 228.124 105.819 228.246 106.104C228.653 107 228.449 107.854 228.327 108.261C228.368 108.953 228.327 110.215 227.473 110.622C226.822 110.947 225.886 110.825 225.398 110.744C224.543 110.947 223.485 110.866 223.079 110.011C222.834 109.604 222.875 109.075 222.875 108.546C222.875 107.814 222.875 107.285 222.59 107.04C222.265 106.755 221.573 106.552 220.759 106.552C220.637 106.552 220.515 106.552 220.434 106.552H220.312C220.19 106.552 220.108 106.552 220.108 106.552C220.068 106.552 220.027 106.552 219.946 106.552C219.132 106.511 218.359 106.389 217.708 106.186C217.016 106.43 216.284 106.633 215.551 106.796C213.639 107.162 212.052 107.285 210.709 107.203C210.669 107.203 210.669 107.203 210.628 107.203C208.756 107.244 204.81 110.337 204.322 110.947C204.199 111.232 203.833 112.453 203.589 113.348C203.06 115.302 202.816 116.116 202.572 116.482C202.124 117.133 201.351 117.255 200.944 117.296C200.497 117.621 199.887 117.988 199.236 117.988ZM212.581 34.7235C211.849 34.7235 211.238 35.0083 211.198 35.2525C211.157 35.7002 211.32 38.8338 211.483 41.886C211.971 50.7577 212.134 54.8273 211.727 55.804C211.605 56.0889 211.442 56.4145 211.279 56.8214C210.506 58.49 209.326 61.0131 209.733 63.8618C209.774 64.2281 209.57 64.5944 209.245 64.7165C208.756 64.9199 208.39 65.1234 208.146 65.3676C206.763 66.6292 207.17 70.2511 207.454 70.8209C207.983 71.879 208.187 77.0474 206.966 82.2158C206.803 82.9076 206.6 83.6808 206.397 84.454L206.112 85.5121C206.112 85.5528 206.112 85.5935 206.071 85.6342C206.03 85.7563 201.677 96.6629 201.677 100.732C201.677 102.32 201.758 103.866 201.88 105.209C202.084 107.976 202.165 109.36 201.351 109.93C200.822 110.377 199.113 114.04 198.991 114.651C198.991 114.813 199.113 115.098 199.276 115.261C199.48 115.505 199.52 115.79 199.398 116.075C199.358 116.156 199.358 116.238 199.317 116.319C199.52 116.238 199.805 116.116 200.009 115.953C200.171 115.831 200.375 115.749 200.578 115.79C200.782 115.79 201.026 115.749 201.066 115.709C201.189 115.464 201.595 114.04 201.84 113.104C202.328 111.313 202.531 110.54 202.775 110.215C203.182 109.563 207.577 105.86 210.343 105.738C210.425 105.738 210.465 105.738 210.547 105.738C211.767 105.819 213.232 105.697 215.063 105.331C215.836 105.168 216.569 104.965 217.22 104.721C217.423 104.639 217.626 104.639 217.83 104.721C218.44 104.965 219.173 105.087 219.986 105.087C220.027 105.087 220.027 105.087 220.068 105.087C220.068 105.087 220.068 105.087 220.108 105.087C220.149 105.087 220.149 105.087 220.19 105.087H220.352C220.434 105.087 220.515 105.087 220.597 105.087C220.637 105.087 220.637 105.087 220.678 105.087C221.532 105.128 222.753 105.29 223.567 105.982C224.462 106.755 224.462 107.976 224.421 108.75C224.421 108.912 224.421 109.197 224.421 109.319C224.584 109.36 224.869 109.319 225.072 109.238C225.194 109.197 225.357 109.197 225.479 109.238C225.845 109.319 226.334 109.36 226.537 109.319C226.578 109.116 226.618 108.668 226.578 108.302C226.578 108.139 226.578 108.017 226.659 107.854C226.659 107.854 226.863 107.366 226.659 106.837C226.659 106.796 226.415 106.43 224.747 105.128C224.543 104.965 224.421 104.721 224.421 104.436C224.421 104.151 224.584 103.907 224.828 103.785C226.212 102.971 226.74 101.791 226.537 99.9592C226.252 97.4768 223.892 93.3665 222.997 92.0235C222.916 91.9014 222.875 91.7386 222.875 91.5759C222.875 89.3783 222.55 87.669 222.224 85.8377C221.98 84.4133 221.695 82.9483 221.573 81.1984C221.532 80.4658 221.532 79.8554 221.532 79.2856C221.532 79.0008 221.695 78.7566 221.939 78.5938C222.183 78.4717 222.509 78.4717 222.753 78.5938C223.119 78.7973 223.567 78.9601 223.933 79.0415C224.136 79.0822 224.258 78.8787 224.299 78.7973C224.218 78.3496 224.503 78.0241 224.706 77.7392C224.95 77.4136 225.235 77.0474 225.194 76.5997C225.113 75.4195 223.689 70.6581 222.997 70.007C222.753 69.9256 222.55 69.6814 222.468 69.4372C222.143 68.0942 221.451 66.8734 220.312 65.8153C220.027 65.5304 219.986 65.1234 220.19 64.7571C220.393 64.4723 220.475 64.2281 220.475 64.1467C220.678 62.8037 220.352 59.955 219.01 58.2865C218.766 57.9609 218.522 57.676 218.277 57.3912C217.138 55.9668 216.243 54.868 216.162 52.7518C216.121 51.8565 216.446 49.5775 216.975 45.8742C217.504 42.2929 218.318 36.3106 218.074 35.1711C217.789 34.9677 217.22 34.8863 216.65 35.0897C216.284 35.2118 215.836 35.456 215.795 36.0258C215.633 37.8571 215.022 44.6126 215.022 44.694C214.982 45.1417 214.616 45.4672 214.168 45.4265C213.72 45.4265 213.395 45.0603 213.395 44.6126C213.313 40.4616 213.069 35.8223 212.825 34.7235C212.866 34.7235 212.744 34.7235 212.581 34.7235ZM224.381 78.9601V79.0008C224.381 79.0008 224.381 79.0008 224.381 78.9601Z" fill="black"/>
<path d="M155.415 116.929C155.415 116.522 155.415 116.115 155.415 115.708C154.886 115.993 154.601 116.115 154.601 116.156C154.682 116.685 154.031 113.877 153.787 112.127C153.787 113.918 153.787 115.546 153.828 116.929C153.828 119.575 153.828 121.487 153.909 122.423C154.153 125.516 154.031 127.47 153.991 128.324C153.055 128.568 152.119 128.65 151.834 128.568C151.183 127.999 150.329 124.865 149.922 122.301C149.84 121.894 149.474 121.609 149.067 121.609C148.66 121.65 148.335 121.976 148.294 122.383C148.172 124.906 147.521 127.917 146.789 128.324C144.673 129.464 132.304 129.22 126.608 128.202C121.766 127.307 118.023 125.069 116.843 124.255C117.25 121.162 119.284 105.168 118.348 98.372C117.901 95.157 115.948 86.6922 113.954 77.7797C111.594 67.4429 108.664 54.5423 108.868 53.1993C109.153 51.9377 114.035 47.8274 118.755 44.4496L131.694 49.1704C131.938 49.2518 132.182 49.2111 132.385 49.089C132.589 48.9669 132.752 48.7634 132.752 48.5193L133.728 41.3567C135.234 41.6823 136.942 42.13 138.489 42.659C137.471 41.8044 136.739 41.2754 136.739 41.2754C136.739 41.2754 140.726 42.3335 143.534 43.2695C140.889 41.194 134.583 39.8917 133.158 39.6068C132.955 39.5661 132.711 39.6068 132.548 39.7289C132.385 39.851 132.263 40.0545 132.223 40.2987L131.287 47.2984L118.877 42.7404C118.633 42.659 118.348 42.6997 118.145 42.8218C116.436 44.0427 107.851 50.2285 107.281 52.7923C106.996 54.176 108.665 61.9489 112.367 78.1053C114.401 87.0177 116.314 95.4418 116.761 98.5754C117.779 105.738 115.215 124.336 115.215 124.499C115.175 124.784 115.297 125.069 115.541 125.272C115.744 125.394 120.138 128.609 126.364 129.749C129.171 130.278 134.46 130.644 139.14 130.644C142.964 130.644 146.341 130.359 147.603 129.667C148.416 129.22 148.945 128.08 149.311 126.778C149.718 128.08 150.207 129.26 150.858 129.749C151.753 130.481 153.828 129.993 155.008 129.667C155.293 129.586 155.537 129.342 155.577 129.016C155.577 128.935 155.944 126.737 155.577 122.22C155.415 121.447 155.415 119.534 155.415 116.929Z" fill="black"/>
<path d="M154.601 117.051C154.479 117.051 154.357 117.011 154.235 116.97C153.828 116.767 153.828 116.767 153.299 114.121C152.974 112.493 152.811 111.476 152.811 111.028C152.811 106.145 150.939 101.302 149.149 96.622C147.644 92.6745 146.219 88.9712 145.813 85.2271C145.446 81.768 146.382 78.5123 147.277 75.338C148.172 72.2451 148.986 69.2743 148.498 66.5476C145.731 65.0419 143.778 63.9431 143.778 63.9431C143.493 63.7803 143.331 63.4547 143.371 63.1292L144.429 52.9958C143.982 51.775 143.453 50.5541 142.924 49.3739C141.011 45.2229 136.373 41.9672 136.292 41.9265C135.966 41.6823 135.844 41.2754 136.007 40.9091C136.17 40.5429 136.576 40.3801 136.943 40.4615C142.313 41.8858 145.528 42.9439 146.504 43.595C147.766 44.1241 152.241 47.217 161.884 54.0946C164.163 55.7225 166.482 57.3503 168.15 58.5305C168.109 58.2049 168.191 57.9608 168.354 57.7166C168.923 56.9434 169.981 57.3096 171.446 57.798C172.666 58.2049 174.335 58.8154 175.352 58.4898C185.483 55.3562 206.559 48.3972 206.763 48.3158C207.007 48.2344 207.251 48.2751 207.454 48.3972C207.658 48.5193 207.78 48.7635 207.821 49.0076L208.431 55.3562C208.553 55.4783 208.634 55.6818 208.675 55.8446C208.716 56.2515 208.716 56.2922 206.803 58.327C205.827 59.3851 204.24 61.013 202.206 62.885C198.666 66.1814 193.173 70.78 187.111 74.0357C184.222 75.5822 180.438 75.2566 177.101 75.0124C174.05 74.7682 171.161 74.5241 169.696 75.7449C167.906 77.21 164.732 76.7624 159.809 74.3613C160.379 77.8205 161.233 81.4424 162.047 84.9423C163.552 91.2909 164.976 97.2732 164.814 102.645C164.61 108.79 161.477 113.47 155.496 116.563C155.415 116.604 155.374 116.644 155.333 116.644C155.252 116.726 155.211 116.807 155.13 116.848C154.927 117.011 154.764 117.051 154.601 117.051ZM145.04 62.7629C145.813 63.2106 147.481 64.1059 149.597 65.286C149.8 65.4081 149.963 65.5709 150.003 65.8151C150.736 69.0301 149.841 72.2858 148.864 75.7449C148.01 78.7565 147.115 81.89 147.44 85.0236C147.806 88.5642 149.19 92.1862 150.695 96.0116C152.526 100.814 154.438 105.819 154.438 110.988C154.438 111.517 154.845 113.633 155.13 114.935C160.297 112.127 162.983 108.017 163.146 102.645C163.308 97.5174 161.925 91.6164 160.419 85.3899C159.443 81.3203 158.426 77.0879 157.897 73.0997C157.856 72.8148 157.978 72.4893 158.222 72.3265C158.466 72.1637 158.792 72.123 159.077 72.2858C165.261 75.5008 167.662 75.2973 168.598 74.5241C170.551 72.8962 173.765 73.1811 177.183 73.466C180.438 73.7508 183.856 73.995 186.297 72.6927C196.509 67.1988 205.013 57.9608 206.803 55.8853L206.234 50.1878C201.962 51.6122 184.669 57.3096 175.759 60.0363C174.253 60.4839 172.382 59.8328 170.836 59.3037C170.551 59.2223 170.225 59.1003 169.94 59.0189C170.103 59.3037 170.347 59.7107 170.754 60.3211C170.958 60.6467 170.958 61.1351 170.673 61.3792C170.185 61.8676 169.656 61.542 168.883 61.0537C168.435 60.7688 167.825 60.3211 166.97 59.7107C165.383 58.6119 163.186 57.0248 160.867 55.3562C155.293 51.4087 146.911 45.4264 145.853 45.0601C145.691 45.0194 145.568 44.938 145.487 44.8566C145.04 44.5311 142.761 43.7985 140.076 43.0253C141.581 44.4497 143.29 46.4438 144.307 48.6821C144.877 49.9436 145.446 51.2866 145.935 52.5889C145.975 52.711 146.016 52.8331 145.975 52.9551L145.04 62.7629Z" fill="black"/>
<path d="M131.897 37.7754C129.741 37.7754 126.445 37.0021 123.312 35.6592C120.342 34.3976 115.134 31.5896 113.384 26.9095C111.553 21.9446 111.35 17.8343 112.815 14.66C113.954 12.2589 115.988 10.509 118.918 9.45091C119.691 9.20673 120.464 9.04395 121.278 9.04395C126.16 9.04395 131.49 13.7647 133.932 20.2761C136.861 28.1304 136.698 36.1882 133.647 37.4905C133.24 37.694 132.63 37.7754 131.897 37.7754ZM119.488 10.9567C116.965 11.852 115.215 13.317 114.28 15.3111C113.018 18.0378 113.222 21.8225 114.89 26.2991C116.436 30.4094 121.196 32.9732 123.922 34.1127C128.235 35.944 131.979 36.3917 132.955 35.9847C134.664 35.2522 135.193 28.4153 132.386 20.8458C129.904 14.1716 124.899 10.6718 121.278 10.6718C120.708 10.6718 120.098 10.7532 119.488 10.9567Z" fill="black"/>
<path d="M132.345 47.5426C133.037 46.5659 134.501 44.4904 134.99 44.4497C135.681 44.4497 136.821 48.1937 136.739 48.56C136.658 48.8449 134.461 49.1704 133.281 49.2925C133.321 49.496 133.24 49.6995 133.037 49.8216L132.63 50.0251C132.508 50.1065 132.345 50.1065 132.223 50.0251C131.45 51.2866 129.741 53.9319 129.415 53.8912C128.968 53.8098 127.096 49.7402 127.096 49.4146C127.096 49.1705 129.863 48.5193 131.206 48.2344C131.206 48.031 131.287 47.8682 131.45 47.7868L131.857 47.5833C131.938 47.5426 131.979 47.5426 132.06 47.5426C132.223 47.5019 132.264 47.5019 132.345 47.5426Z" fill="black"/>
<path d="M107.973 179.072C107.932 179.072 107.892 179.072 107.81 179.072C106.915 178.909 106.915 178.909 107.607 166.579C107.932 160.596 108.421 153.352 108.705 149.242C109.234 141.428 107.403 134.103 105.735 127.632C104.718 123.604 103.864 120.144 103.701 117.174C103.66 116.115 104.148 113.836 105.084 109.604C105.41 108.058 105.817 106.389 106.183 104.639C106.142 104.68 106.101 104.721 106.061 104.761C105.125 105.982 103.416 106.796 101.422 107.732C97.7604 109.441 93.1627 111.598 91.4538 117.377C88.6463 126.859 63.0131 128.08 55.4452 125.964C53.0853 125.313 52.5156 124.336 52.5156 123.563L47.8366 116.604C47.6331 116.278 47.6738 115.831 47.9179 115.586C48.7317 114.772 74.487 85.2678 76.1145 83.3958C77.2131 82.0936 99.8355 57.269 101.748 55.1935C102.887 53.2808 110.943 47.7868 114.483 45.4671C114.768 45.2636 115.134 45.3043 115.378 45.4671C115.541 45.5485 118.999 47.9903 122.01 53.1587C122.661 54.2575 123.841 56.0074 125.387 58.2457C131.043 66.507 140.483 80.3436 141.907 89.9886C143.738 102.319 134.257 112.778 133.85 113.185C133.769 113.267 133.647 113.348 133.566 113.389C133.444 113.43 119.488 118.883 116.599 124.947C113.384 131.621 111.92 144.521 111.309 151.602C111.269 151.847 109.072 177.282 108.705 178.38C108.665 178.869 108.299 179.072 107.973 179.072ZM108.95 81.5238C108.99 81.5238 109.031 81.5238 109.112 81.5238C109.438 81.5645 109.682 81.8087 109.763 82.1343C111.513 89.0119 108.665 101.628 106.793 109.97C106.02 113.307 105.369 116.197 105.45 117.092C105.572 119.9 106.427 123.278 107.444 127.225C108.746 132.394 110.292 138.58 110.496 145.132C111.35 138.091 112.815 129.423 115.297 124.255C118.348 117.947 131.206 112.656 132.955 111.964C134.054 110.703 142.069 101.058 140.483 90.2328C139.14 80.9541 129.782 67.3209 124.207 59.141C122.661 56.9027 121.441 55.1121 120.79 53.9726C118.552 50.1472 116.029 47.9089 115.053 47.1357C109.56 50.7983 103.782 55.0307 103.335 55.9667C103.294 56.0888 103.253 56.1702 103.172 56.2516C101.87 57.6352 78.6372 83.1517 77.4979 84.4539C77.2538 84.7388 53.3701 112.087 49.6675 116.238L54.1838 122.912C54.3059 123.115 54.3466 123.359 54.3059 123.563C54.5093 124.173 58.2119 125.353 65.7392 125.231C76.318 125.028 88.4429 122.342 90.0704 116.929C91.9827 110.459 97.1501 108.017 100.893 106.267C102.684 105.412 104.23 104.721 104.921 103.785C106.508 101.709 106.63 96.7441 106.712 92.349C106.834 87.9945 106.915 83.8842 108.299 81.8494C108.421 81.6459 108.665 81.5238 108.95 81.5238ZM108.624 86.2446C108.421 88.0352 108.339 90.2328 108.299 92.3897C108.299 92.5932 108.299 92.7966 108.299 93.0001C108.543 90.6397 108.705 88.32 108.624 86.2446Z" fill="black"/>
<path d="M107.973 179.072C107.932 179.072 107.892 179.072 107.81 179.072C106.915 178.909 106.915 178.909 107.607 166.579C107.932 160.596 108.421 153.352 108.705 149.242C109.234 141.428 107.403 134.103 105.735 127.632C104.718 123.604 103.864 120.144 103.701 117.174C103.66 116.115 104.148 113.836 105.084 109.604C105.41 108.058 105.817 106.389 106.183 104.639C106.142 104.68 106.101 104.721 106.061 104.761C105.125 105.982 103.416 106.796 101.422 107.732C97.7604 109.441 93.1627 111.598 91.4538 117.377C88.6463 126.859 63.0131 128.08 55.4452 125.964C53.0853 125.313 52.5156 124.336 52.5156 123.563L47.8366 116.604C47.6331 116.278 47.6738 115.831 47.9179 115.586C48.7317 114.772 74.487 85.2678 76.1145 83.3958C77.2131 82.0936 99.8355 57.269 101.748 55.1935C102.887 53.2808 110.943 47.7868 114.483 45.4671C114.768 45.2636 115.134 45.3043 115.378 45.4671C115.541 45.5485 118.999 47.9903 122.01 53.1587C122.661 54.2575 123.841 56.0074 125.387 58.2457C131.043 66.507 140.483 80.3436 141.907 89.9886C143.738 102.319 134.257 112.778 133.85 113.185C133.769 113.267 133.647 113.348 133.566 113.389C133.444 113.43 119.488 118.883 116.599 124.947C113.384 131.621 111.92 144.521 111.309 151.602C111.269 151.847 109.072 177.282 108.705 178.38C108.665 178.869 108.299 179.072 107.973 179.072ZM108.95 81.5238C108.99 81.5238 109.031 81.5238 109.112 81.5238C109.438 81.5645 109.682 81.8087 109.763 82.1343C111.513 89.0119 108.665 101.628 106.793 109.97C106.02 113.307 105.369 116.197 105.45 117.092C105.572 119.9 106.427 123.278 107.444 127.225C108.746 132.394 110.292 138.58 110.496 145.132C111.35 138.091 112.815 129.423 115.297 124.255C118.348 117.947 131.206 112.656 132.955 111.964C134.054 110.703 142.069 101.058 140.483 90.2328C139.14 80.9541 129.782 67.3209 124.207 59.141C122.661 56.9027 121.441 55.1121 120.79 53.9726C118.552 50.1472 116.029 47.9089 115.053 47.1357C109.56 50.7983 103.782 55.0307 103.335 55.9667C103.294 56.0888 103.253 56.1702 103.172 56.2516C101.87 57.6352 78.6372 83.1517 77.4979 84.4539C77.2538 84.7388 53.3701 112.087 49.6675 116.238L54.1838 122.912C54.3059 123.115 54.3466 123.359 54.3059 123.563C54.5093 124.173 58.2119 125.353 65.7392 125.231C76.318 125.028 88.4429 122.342 90.0704 116.929C91.9827 110.459 97.1501 108.017 100.893 106.267C102.684 105.412 104.23 104.721 104.921 103.785C106.508 101.709 106.63 96.7441 106.712 92.349C106.834 87.9945 106.915 83.8842 108.299 81.8494C108.421 81.6459 108.665 81.5238 108.95 81.5238ZM108.624 86.2446C108.421 88.0352 108.339 90.2328 108.299 92.3897C108.299 92.5932 108.299 92.7966 108.299 93.0001C108.543 90.6397 108.705 88.32 108.624 86.2446Z" fill="black"/>
<path d="M127.096 31.9966C126.852 31.9966 126.608 31.9152 126.405 31.7118C126.038 31.3455 126.038 30.7351 126.405 30.3688L130.473 26.3806C130.636 26.2178 130.88 26.0957 131.124 26.0957H137.96C138.489 26.0957 138.896 26.5027 138.896 27.0317C138.896 27.5608 138.489 27.9677 137.96 27.9677H131.49L127.707 31.6711C127.584 31.9152 127.34 31.9966 127.096 31.9966Z" fill="black"/>
<path d="M16.8324 135.528C16.1001 135.69 23.3425 142.283 24.1969 149.283C24.97 155.713 29.2015 168.044 32.4972 169.305C37.3797 171.177 57.5609 157.422 54.4686 155.428C54.0617 155.184 52.8818 148.347 48.5689 143.423C46.7786 141.347 43.727 140.452 42.2216 138.417C36.9729 131.295 31.6428 126.859 31.6428 126.859L16.8324 135.528Z" fill="black"/>
<path d="M125.998 5.17807C123.923 2.8177 120.871 1.51543 117.779 0.986385C114.687 0.498032 111.513 0.782907 108.421 1.23056C103.091 2.00379 97.8418 3.22466 92.7558 4.93389C95.075 5.95129 98.0453 7.33497 100.364 8.35237C96.9467 11.6081 93.7324 9.65463 87.0596 14.0905C89.5415 14.5382 95.4005 17.4276 98.4521 17.2648C94.2613 20.2356 92.349 21.3751 88.8498 26.7877C91.2911 25.5668 96.0922 25.2819 98.8183 24.997C97.2315 28.9853 94.1799 33.9502 92.5931 37.9384C95.1971 36.7989 99.4286 36.0257 102.033 34.9269C99.4286 38.5488 97.7198 41.601 97.5163 46.0369C101.219 43.1475 105.572 41.1127 110.17 40.136C111.96 39.7697 114.239 41.072 115.5 39.729C116.924 38.2232 116.599 34.3164 116.599 32.2002C116.599 27.9678 117.006 23.6541 118.511 19.7066C120.017 15.759 122.783 12.1778 126.567 10.2651C127.259 9.93951 128.032 9.53254 128.195 8.80001C128.317 8.31166 128.073 7.82331 127.829 7.37565C127.178 6.23616 126.934 6.19547 125.998 5.17807Z" fill="black"/>
<path d="M121.318 25.2007C120.423 24.4682 121.074 22.3927 121.603 21.5788C122.62 20.0323 123.963 22.5962 124.451 23.3694C125.224 24.6717 127.259 23.5729 126.486 22.2706C125.143 19.9509 122.742 17.3057 120.138 19.7474C118.552 21.2125 117.738 25.2414 119.609 26.7879C120.749 27.7239 122.458 26.1367 121.318 25.2007Z" fill="black"/>
<path d="M16.8325 136.667C20.413 137.806 24.6853 141.835 23.546 146.027L37.0136 135.446L31.8056 127.551L16.8325 136.667Z" fill="black"/>
<path d="M23.5459 146.841C23.3832 146.841 23.2204 146.8 23.0984 146.719C22.8135 146.515 22.6508 146.149 22.7729 145.824C23.7494 142.202 19.8433 138.498 16.5883 137.481C16.3035 137.4 16.0594 137.115 16.0187 136.789C15.978 136.464 16.1407 136.179 16.3849 136.016L31.3173 126.9C31.6835 126.656 32.1717 126.778 32.4159 127.144L37.6239 135.039C37.868 135.405 37.7866 135.853 37.4611 136.138L23.9935 146.719C23.9121 146.8 23.7087 146.841 23.5459 146.841ZM18.6227 136.545C21.4302 138.01 24.319 140.899 24.5224 144.196L35.8743 135.283L31.48 128.65L18.6227 136.545Z" fill="black"/>
<path d="M44.9771 117.364L0.0280762 143.436L2.1102 147.027L47.0593 120.955L44.9771 117.364Z" fill="black"/>
<path d="M39.8618 121.732C39.3736 121.894 38.8853 122.22 38.3971 122.708C38.8853 122.383 39.3736 122.057 39.8618 121.732ZM48.5283 116.197C49.3421 115.709 49.9117 115.342 49.9117 115.342L51.6206 120.307C51.6206 120.307 47.1856 126.045 45.4361 126.778C43.6865 127.51 29.7306 131.743 30.7071 129.26C31.0733 128.284 33.1484 126.534 35.5489 124.743C34.4097 125.272 33.4739 125.435 33.4332 125.313C33.1484 124.702 34.8979 123.482 35.8744 122.179C37.1764 120.511 38.6005 119.086 39.8211 118.028C40.879 117.174 46.9415 116.4 48.5283 116.197Z" fill="black"/>
<path d="M31.8869 130.888C30.6663 130.888 30.3815 130.603 30.1781 130.4C29.8119 130.034 29.7305 129.545 29.9339 129.016C30.1374 128.487 30.6663 127.673 32.7821 125.923C32.7414 125.883 32.7007 125.801 32.66 125.761C32.2125 124.865 33.0669 124.051 34.0434 123.075C34.4503 122.668 34.8978 122.22 35.2233 121.813C36.7288 119.9 38.2342 118.435 39.2514 117.54C40.1059 116.807 43.1167 116.116 48.2434 115.464C48.9351 115.017 49.464 114.732 49.464 114.732C49.6675 114.61 49.9523 114.569 50.1557 114.651C50.3998 114.732 50.5626 114.935 50.644 115.139L52.3529 120.104C52.4342 120.348 52.3935 120.633 52.2308 120.877C51.4577 121.854 47.5517 126.819 45.7208 127.592C44.8256 127.958 41.4486 129.057 38.1529 129.871C34.8978 130.644 33.0262 130.888 31.8869 130.888ZM31.6021 129.26C33.8806 129.505 43.0761 126.9 45.0698 126.045C46.1276 125.598 48.9351 122.342 50.644 120.185L49.4233 116.604C49.2606 116.685 49.0978 116.807 48.8944 116.929C48.813 116.97 48.691 117.011 48.5689 117.052C43.4829 117.662 40.7162 118.354 40.2686 118.761C38.9259 119.941 37.5425 121.365 36.444 122.79C36.1185 123.237 35.7116 123.644 35.3047 124.051C35.6302 124.011 35.9557 124.133 36.1592 124.418C36.3626 124.784 36.2812 125.231 35.9557 125.476C33.0669 127.633 32.009 128.731 31.6021 129.26ZM38.397 123.522C38.1529 123.522 37.9494 123.441 37.7867 123.237C37.5018 122.912 37.5425 122.464 37.8273 122.139C38.3563 121.569 38.9666 121.162 39.5769 120.958C39.9838 120.836 40.3907 120.999 40.5941 121.365C40.7976 121.732 40.6755 122.179 40.3093 122.423C39.8617 122.749 39.3735 123.075 38.8852 123.4C38.7225 123.482 38.5597 123.522 38.397 123.522Z" fill="black"/>
<path d="M213.273 63.2921C212.825 62.3968 211.564 62.1933 211.116 62.1933V61.3794C211.93 61.3794 213.435 61.705 214.005 62.9258L213.273 63.2921Z" fill="black"/>
<path d="M132.304 54.0133L138.448 51.3274C138.448 51.3274 148.254 85.1458 148.05 93.0408C143.249 82.6633 140.238 74.5241 140.238 74.5241L141.255 68.5011L137.472 68.0942C137.472 68.0942 136.617 59.3445 132.304 54.0133Z" fill="black"/>
<path d="M123.76 252.122H118.837C118.592 252.122 118.348 252 118.226 251.837C118.064 251.633 118.023 251.389 118.064 251.145C118.186 250.616 128.398 198.973 128.968 163.16C129.131 153.352 124.777 143.219 121.888 136.545C120.017 132.19 119.203 130.237 119.528 129.057C121.196 122.79 134.461 121.487 145.324 121.487C150.41 121.487 154.357 121.772 154.398 121.813C154.642 121.813 154.845 121.935 154.967 122.138C155.496 122.83 168.191 139.312 166.116 151.236C165.505 154.777 163.593 157.585 160.46 159.538C157.775 161.207 149.068 170.974 146.057 186.072C136.292 234.948 127.91 247.971 124.574 251.389C124.533 251.796 124.167 252.122 123.76 252.122ZM119.813 250.494H123.109C123.149 250.453 123.149 250.453 123.19 250.412C126.282 247.442 134.542 235.233 144.388 185.746C147.277 171.137 155.659 160.556 159.524 158.154C162.25 156.445 163.878 154.044 164.407 150.951C166.238 140.574 155.496 125.679 153.787 123.441C152.729 123.359 149.352 123.156 145.202 123.156C130.88 123.156 122.092 125.476 120.993 129.504C120.83 130.156 122.132 133.208 123.312 135.894C126.242 142.69 130.677 152.986 130.555 163.16C130.026 196.449 121.237 243.209 119.813 250.494Z" fill="black"/>
<path d="M115.338 126.493C116.111 130.4 133.606 147.289 115.419 169.061C111.431 173.823 120.546 180.334 113.873 183.142C111.554 184.119 113.913 188.025 113.954 190.304C114.035 195.595 116.965 202.839 113.751 208.74C96.6619 240.32 110.903 255.54 111.513 255.174H120.627C120.627 255.174 135.844 235.152 136.78 204.914C137.716 174.759 141.418 142.08 146.911 141.225C161.599 138.946 149.352 118.801 149.352 118.801L125.876 117.052C125.835 117.052 116.395 120.551 115.338 126.493Z" fill="black"/>
<path d="M111.472 255.988C111.025 255.988 110.618 255.622 110.414 255.418C108.746 253.831 105.735 249.151 104.84 241.663C103.66 231.814 106.427 220.623 113.059 208.373C115.175 204.467 114.402 199.787 113.751 195.676C113.466 193.804 113.181 192.014 113.14 190.345C113.14 189.694 112.896 188.799 112.652 187.944C112.082 185.869 111.35 183.305 113.588 182.409C116.314 181.27 115.866 179.642 114.727 176.59C113.832 174.148 112.693 171.137 114.849 168.573C129.293 151.277 120.668 137.155 116.517 130.4C115.5 128.731 114.768 127.551 114.605 126.656C114.605 126.574 114.564 126.452 114.605 126.371C115.744 120.022 125.225 116.441 125.631 116.278C125.754 116.238 125.876 116.238 125.957 116.238L149.434 117.987C149.678 117.987 149.922 118.15 150.085 118.394C150.37 118.883 157.368 130.481 154.154 137.4C152.974 139.963 150.573 141.51 147.074 142.08C146.545 142.161 143.656 143.545 141.011 162.265C139.384 173.66 138.163 189.246 137.675 204.996C136.739 235.151 121.481 255.499 121.359 255.703C121.197 255.906 120.952 256.029 120.708 256.029H111.676C111.554 255.988 111.513 255.988 111.472 255.988ZM111.635 254.36H120.179C122.092 251.674 135.071 232.466 135.966 204.914C136.454 189.124 137.675 173.456 139.343 161.98C142.029 143.3 144.877 140.737 146.789 140.411C149.759 139.963 151.672 138.742 152.648 136.667C155.211 131.173 150.003 121.528 148.905 119.534L126.038 117.825C124.818 118.313 117.25 121.528 116.233 126.452C116.436 127.063 117.128 128.202 117.901 129.504C122.254 136.586 131.287 151.358 116.111 169.549C114.564 171.381 115.419 173.578 116.273 175.939C117.29 178.665 118.552 182.043 114.239 183.834C113.425 184.159 113.71 185.502 114.239 187.456C114.524 188.432 114.768 189.409 114.809 190.264C114.849 191.81 115.093 193.519 115.378 195.351C116.07 199.746 116.884 204.711 114.483 209.106C106.061 224.693 105.572 236.006 106.63 242.721C107.77 250.087 110.903 253.75 111.635 254.36Z" fill="black"/>
<path d="M111.431 254.482L107.159 261.848H151.631C151.631 261.848 133.281 252.976 123.068 252.122C112.855 251.267 111.431 254.482 111.431 254.482Z" fill="black"/>
<path d="M118.552 36.921C117.819 33.6653 116.273 30.5725 115.459 29.1074L115.582 29.0667C115.256 28.619 114.931 28.1307 114.686 27.6423L114.035 27.8458C113.791 27.9272 113.588 28.09 113.506 28.3342C113.425 28.5783 113.466 28.8225 113.588 29.026C113.629 29.0667 116.07 33.0956 117.006 37.2466C117.901 41.3976 117.86 43.3917 117.86 43.4324C117.86 43.5952 117.901 43.7173 117.941 43.8394L117.982 43.9208C118.389 43.6359 118.633 43.4324 118.633 43.4324L119.772 43.8394L119.447 43.2289C119.406 42.6185 119.325 40.543 118.552 36.921Z" fill="black"/>
<path d="M132.06 36.9617C131.531 36.9617 130.921 36.921 130.188 36.8396C131.124 38.9151 132.264 40.7057 132.304 40.7871L132.833 41.6417L132.996 40.3801C132.996 40.3801 133.403 40.4615 134.094 40.6243L133.688 39.9325C133.688 39.8918 132.874 38.5895 132.06 36.9617Z" fill="black"/>
</svg>
