<svg width="216" height="265" viewBox="0 0 216 265" fill="none" xmlns="http://www.w3.org/2000/svg">
<path d="M178.413 51.8697C136.504 45.1164 102.978 43.3466 73.409 48.9821C60.138 48.9821 56.8785 70.0337 58.8342 81.9568L64.2823 114.932L73.4556 159.55H184.559L193.733 114.932L199.181 81.9568C201.137 70.0337 190.613 51.8697 177.388 51.8697" class="sec-color-fill"/>
<path d="M166.818 174.64H55.7143C55.2952 174.64 54.8762 174.314 54.783 173.895L45.6097 129.276L40.1616 96.3017C38.6716 87.1731 40.2082 73.7597 46.0288 66.8666C48.6365 63.7927 51.8494 62.2558 55.5746 62.2092C83.2342 56.9463 115.736 57.8778 160.858 65.1434V65.19C165.84 65.5626 170.776 68.4036 174.874 73.2473C180.555 79.9541 183.582 89.2224 182.371 96.3017L176.923 129.276L167.749 173.895C167.61 174.314 167.237 174.64 166.818 174.64ZM56.4594 172.777H166.073L175.107 128.904L180.555 95.9757C181.672 89.3621 178.785 80.6993 173.477 74.4117C169.426 69.6145 164.536 67.0064 159.694 67.0064V66.8666C115.224 59.7873 83.1876 58.9024 55.9006 64.1188C55.854 64.1188 55.8075 64.1188 55.7143 64.1188C52.5013 64.1188 49.754 65.4694 47.5189 68.1242C41.9777 74.5514 40.5807 87.2663 41.9777 95.9757L47.4258 128.95L56.4594 172.777Z" fill="black"/>
<path d="M50.1731 196.576L41.9312 247.575H47.3326L60.6501 197.322L50.1731 196.576Z" fill="black"/>
<path d="M162.162 212.319L170.404 263.271H165.002L151.731 213.017L162.162 212.319Z" fill="black"/>
<path d="M209.378 120.52L208.633 118.564C204.21 107.2 190.007 103.474 180.555 111.206C169.426 120.474 162.767 145.764 162.255 188.566C162.208 191.5 159.833 193.968 156.9 193.968H164.862H65.6327C62.6991 193.968 60.3243 191.546 60.2777 188.566C59.7655 145.717 53.1068 120.474 41.9778 111.206L41.6518 110.926C32.432 103.288 18.4159 106.967 14.0854 118.145L13.1541 120.52C10.0342 128.671 13.061 137.893 20.4648 142.55C26.3785 146.276 35.8312 150.747 34.248 154.753C29.964 165.418 33.2236 181.812 41.8846 192.664C50.9648 204.075 55.9472 218.001 70.5686 218.001C97.7159 221.96 124.91 224.754 152.104 218.001C166.678 218.001 185.444 205.612 187.26 191.127C189.262 175.013 182.883 156.569 188.424 154.753C195.595 152.424 209.565 147.999 212.079 142.923C217.155 132.35 212.498 128.671 209.378 120.52Z" fill="#FCFFF8"/>
<path d="M116.295 223.031C100.649 223.031 85.283 221.075 70.4288 218.932C58.8341 218.886 53.0601 210.409 46.9601 201.42C45.0975 198.719 43.1883 195.878 41.0929 193.223C32.2456 182.138 28.8929 165.418 33.3166 154.38C34.341 151.818 28.0082 148.092 23.3983 145.391C22.1876 144.646 21.0235 143.994 19.9059 143.295C12.1761 138.451 8.91659 128.717 12.2227 120.148L13.154 117.772C15.3425 112.183 19.9059 108.085 25.7265 106.548C31.5471 105.011 37.554 106.362 42.1639 110.181L42.4899 110.46C54.3639 120.381 60.6502 146.649 61.1158 188.519C61.1624 190.987 63.1181 192.99 65.5395 192.99H156.807C159.228 192.99 161.23 190.987 161.23 188.519C161.743 146.602 167.982 120.334 179.856 110.46C184.559 106.548 190.659 105.197 196.573 106.781C202.487 108.318 207.143 112.509 209.378 118.192L210.123 120.148C210.775 121.871 211.52 123.408 212.265 124.852C214.92 130.301 216.968 134.586 212.731 143.249C210.17 148.512 197.225 152.75 189.449 155.265L188.517 155.591C186.143 156.383 186.748 162.624 187.493 169.843C188.098 176.13 188.89 183.955 188.005 191.174C187.12 198.113 182.324 205.193 174.827 210.688C167.843 215.765 159.321 218.839 152.057 218.886C140.136 221.913 128.123 223.031 116.295 223.031ZM30.4761 107.852C29.0792 107.852 27.6357 108.038 26.1922 108.411C20.9769 109.762 16.8326 113.441 14.8769 118.518L13.9456 120.893C10.9655 128.624 13.899 137.38 20.8838 141.805C21.9548 142.457 23.0723 143.155 24.3296 143.854C30.383 147.44 36.6693 151.12 35.0395 155.172C30.8487 165.604 34.0616 181.533 42.5365 192.152C44.6784 194.853 46.6342 197.694 48.4968 200.442C54.5502 209.384 59.812 217.116 70.4754 217.116C70.5219 217.116 70.5685 217.116 70.6151 217.116C96.5517 220.888 124.211 224.009 151.778 217.116C151.871 217.116 151.917 217.069 152.011 217.069C165.933 217.069 184.466 205.053 186.236 191.034C187.12 184.001 186.375 176.596 185.723 170.122C184.839 161.413 184.233 155.172 188.005 153.914L188.936 153.588C195.921 151.306 208.866 147.068 211.101 142.55C214.966 134.679 213.15 130.953 210.636 125.783C209.891 124.293 209.146 122.709 208.447 120.939L207.702 118.983C205.7 113.86 201.509 110.088 196.201 108.69C190.892 107.293 185.398 108.504 181.114 111.997C169.845 121.405 163.652 147.906 163.139 188.659C163.139 190.382 162.394 191.965 161.277 193.083H164.816C165.328 193.083 165.747 193.502 165.747 194.015C165.747 194.527 165.328 194.946 164.816 194.946H65.6326C62.1868 194.946 59.3929 192.105 59.3464 188.659C58.8807 147.906 52.641 121.405 41.3723 111.997L41.0464 111.718C37.9731 109.156 34.2945 107.852 30.4761 107.852Z" fill="black"/>
<path d="M153.221 165.511H69.2647C63.2113 165.511 58.2754 170.448 58.2754 176.503V194.201H164.21V176.503C164.21 170.448 159.321 165.511 153.221 165.511Z" fill="#FCFFF8"/>
<path d="M161.463 194.62H61.0692C60.8364 194.62 60.6501 194.434 60.6501 194.201C60.6501 193.968 60.8364 193.782 61.0692 193.782H161.463C161.696 193.782 161.882 193.968 161.882 194.201C161.882 194.434 161.696 194.62 161.463 194.62Z" fill="black"/>
<path d="M162.72 174.687C162.534 174.687 162.348 174.547 162.301 174.361C161.324 169.47 156.946 165.977 152.011 165.977H68.8456C65.2135 165.977 61.8609 167.84 59.9517 170.914C59.812 171.1 59.5792 171.194 59.3464 171.054C59.1601 170.914 59.067 170.681 59.2067 170.448C61.3021 167.095 64.9342 165.092 68.8456 165.092H151.964C157.319 165.092 162.022 168.911 163.093 174.174C163.14 174.407 163 174.64 162.767 174.687H162.72Z" fill="black"/>
<path d="M84.5379 75.2967L101.162 66.075L117.459 73.9926L126.4 156.243L80.2539 149.769L84.5379 75.2967Z" fill="#FCFFF8"/>
<path d="M94.4563 59.3682H107.075C107.075 66.168 109.869 69.8474 109.869 69.8474C109.869 69.8474 106.377 72.735 100.789 72.735C95.1082 72.735 91.709 69.8474 91.709 69.8474C91.709 69.8474 94.4563 66.2146 94.4563 59.3682Z" fill="#FCFFF8"/>
<path d="M100.743 73.6666C94.7823 73.6666 91.1968 70.6858 91.0571 70.5461C90.6846 70.2201 90.638 69.6612 90.9174 69.2886C90.964 69.242 93.525 65.749 93.525 59.3683C93.525 58.8559 93.9441 58.4368 94.4563 58.4368H107.075C107.588 58.4368 108.007 58.8559 108.007 59.3683C108.007 65.749 110.568 69.242 110.614 69.2886C110.894 69.7078 110.847 70.2667 110.475 70.5461C110.288 70.6858 106.61 73.6666 100.743 73.6666ZM92.9197 69.6146C94.1304 70.3598 96.8777 71.8036 100.743 71.8036C104.561 71.8036 107.355 70.3598 108.565 69.6146C107.774 68.2174 106.284 65.0503 106.144 60.3463H95.3876C95.2014 65.0503 93.7113 68.2174 92.9197 69.6146Z" fill="black"/>
<path d="M145.957 87.639C151.405 89.6883 165.095 108.271 166.027 111.206C179.344 154.38 147.214 123.548 140.788 111.206C123.932 116.049 152.383 161.832 142.185 162.81C131.01 171.38 87.6113 171.566 79.1831 165.325C82.1167 153.914 83.6533 145.345 82.3961 138.498C80.9525 130.487 77.0877 124.666 72.8968 118.797C61.861 123.268 52.0358 124.526 49.8472 123.641C49.2884 123.408 35.7846 113.488 36.6693 120.567C33.3167 121.405 28.9862 126.762 27.2633 125.737C24.1434 123.827 5.79685 144.832 0.954102 138.405L9.19606 123.641C9.19606 123.641 33.3167 102.357 40.9999 107.433C47.6587 100.866 57.3441 92.2965 67.635 84.0062C68.3335 83.4007 69.0785 82.7953 69.8701 82.1898C69.9632 82.0967 70.0564 82.0501 70.1495 81.9569C74.8525 78.4173 80.8128 75.3434 86.7266 73.6667C88.9617 73.0146 91.0571 72.5489 92.9197 72.2229C93.106 71.99 93.3854 71.8503 93.7579 71.8037C95.8067 71.3845 114.107 74.6447 126.353 74.0393C136.737 73.4804 139.671 86.4747 145.957 87.639Z" fill="white"/>
<path d="M105.958 170.634C93.8976 170.634 82.722 169.051 78.6243 166.07C78.2983 165.837 78.2052 165.465 78.2983 165.092C81.1388 154.194 82.722 145.531 81.5113 138.684C80.1609 131.232 76.6685 125.737 72.6174 119.915C62.3266 123.967 52.2685 125.597 49.5212 124.479C49.3815 124.433 49.2418 124.339 48.5899 123.92C40.5342 118.564 38.3922 118.751 37.88 119.077C37.554 119.309 37.6006 120.008 37.6472 120.474C37.6937 120.94 37.4143 121.405 36.9487 121.498C35.5983 121.824 33.8754 123.175 32.3388 124.339C30.1502 126.016 28.2876 127.46 26.7976 126.575C25.8663 126.342 21.7685 129.556 18.7884 131.885C13.2472 136.216 6.9609 141.106 2.90975 140.547C1.7922 140.408 0.907468 139.895 0.208995 139.01C-0.0238294 138.731 -0.0238181 138.312 0.162441 137.986L8.40443 123.222C8.451 123.129 8.54411 123.035 8.59067 122.989C11.0586 120.8 32.2922 102.403 40.8601 106.315C47.9846 99.329 57.4838 90.9921 67.0762 83.3074C67.7747 82.6553 68.5663 82.0499 69.3113 81.4444C69.4044 81.3512 69.4976 81.3047 69.6373 81.2115C74.6197 77.4856 80.6265 74.4582 86.4937 72.7815C88.5891 72.1761 90.638 71.7103 92.5472 71.3843C92.8265 71.1514 93.1991 71.0117 93.6182 70.9186C94.4563 70.7323 96.7846 71.0117 101.581 71.5706C108.379 72.3624 118.67 73.5267 126.353 73.1541C132.872 72.8281 136.598 77.3924 139.857 81.4444C141.906 84.006 143.862 86.3813 146.143 86.8004C146.19 86.8004 146.236 86.847 146.283 86.847C151.964 88.9894 165.887 107.666 166.911 110.973C171.195 124.805 171.242 132.35 167.098 134.074C160.206 136.915 144.933 120.474 140.369 112.37C139.019 112.882 138.041 113.767 137.389 115.025C134.362 120.707 138.134 132.676 141.487 143.202C144.374 152.284 146.656 159.41 144.7 162.391C144.234 163.136 143.489 163.602 142.604 163.741C136.132 168.352 120.393 170.634 105.958 170.634ZM80.254 164.859C84.538 167.421 96.3655 168.958 109.636 168.632C124.537 168.259 136.784 165.744 141.627 162.018C141.766 161.925 141.953 161.832 142.092 161.832C142.558 161.785 142.884 161.599 143.117 161.273C144.56 159.037 142.092 151.259 139.717 143.668C136.272 132.769 132.314 120.427 135.759 114.046C136.784 112.137 138.414 110.833 140.556 110.227C140.975 110.088 141.44 110.321 141.627 110.693C146.236 119.542 161.23 134.353 166.399 132.211C167.796 131.652 170.45 128.485 165.142 111.392C164.304 108.644 150.893 90.5264 145.724 88.4771C142.837 87.9182 140.695 85.2635 138.414 82.469C135.294 78.6033 132.034 74.5979 126.446 74.8774C118.624 75.25 108.24 74.0856 101.394 73.2939C98.0418 72.9213 94.6426 72.5021 94.0372 72.6418C93.8044 72.6884 93.7113 72.7815 93.6647 72.7815C93.525 72.9213 93.3388 73.0144 93.1525 73.061C91.2434 73.387 89.1945 73.8528 87.0525 74.4582C81.4647 76.0418 75.5044 79.0225 70.7548 82.6087C70.6617 82.7019 70.5686 82.7485 70.4754 82.795C69.7304 83.3539 68.9853 83.9594 68.2869 84.6115C58.5082 92.436 48.8228 100.959 41.6983 107.992C41.3724 108.318 40.9067 108.364 40.5342 108.085C34.7602 104.266 16.6464 118.238 9.98762 124.107L2.16473 138.125C2.44412 138.358 2.77008 138.498 3.18916 138.545C6.49527 138.964 12.6884 134.12 17.6708 130.254C23.3052 125.876 26.0991 123.781 27.7754 124.852C28.2876 124.991 30.1037 123.594 31.1746 122.756C32.6182 121.685 34.2014 120.427 35.6914 119.868C35.6914 118.471 36.2968 117.772 36.8556 117.446C38.8113 116.235 42.6296 117.679 49.5678 122.337C49.8472 122.523 50.1266 122.709 50.2197 122.756C52.0823 123.455 61.4884 122.383 72.5243 117.912C72.9433 117.772 73.3624 117.866 73.6418 118.238C78.0189 124.433 81.7907 130.208 83.2808 138.312C84.5846 145.345 83.0014 154.054 80.254 164.859Z" fill="black"/>
<path d="M95.8066 67.9378C90.4982 67.9378 85.1898 65.0036 83.4669 66.5406C81.744 68.0776 87.2853 81.9567 90.2188 81.9567C91.7555 81.9567 95.1547 78.2308 96.1792 74.598C97.2036 71.198 95.8066 67.9378 95.8066 67.9378Z" fill="black"/>
<path d="M104.095 66.075C109.404 66.075 114.712 63.1409 116.435 64.6778C118.158 66.2148 112.617 80.0939 109.683 80.0939C108.146 80.0939 104.747 76.368 103.723 72.7352C102.698 69.3352 104.095 66.075 104.095 66.075Z" fill="black"/>
<path d="M114.805 41.5767C114.805 41.5767 115.038 24.8564 100.743 24.8564C86.4473 24.8564 86.6801 41.5767 86.6801 41.5767C86.6801 41.5767 83.8396 41.6232 84.0259 46.0012C84.2121 50.3792 88.2633 50.4724 88.2633 50.4724C90.5915 60.6722 94.7824 63.6064 100.743 63.6064C106.703 63.6064 110.894 60.6722 113.222 50.4724C113.222 50.4724 117.32 50.3792 117.506 46.0012C117.646 41.6232 114.805 41.5767 114.805 41.5767Z" fill="#FCFFF8"/>
<path d="M113.921 44.0918C113.921 44.0918 114.153 27.3716 99.8579 27.3716C85.5625 27.3716 85.7953 44.0918 85.7953 44.0918C85.7953 44.0918 82.9548 44.1384 83.1411 48.4698C83.3274 52.8478 87.3785 52.941 87.3785 52.941C89.7068 63.1408 93.8976 66.075 99.8579 66.075C105.818 66.075 110.009 63.1408 112.337 52.941C112.337 52.941 116.435 52.8478 116.621 48.4698C116.761 44.0918 113.921 44.0918 113.921 44.0918Z" fill="#FCFFF8"/>
<path d="M99.8578 67.0065C92.8265 67.0065 88.8685 63.0477 86.6334 53.7794C84.8639 53.4534 82.3494 52.1027 82.2097 48.5165C82.1166 46.6535 82.5357 45.2097 83.467 44.2316C83.9326 43.7193 84.4448 43.4399 84.9105 43.3001C85.0036 41.0646 85.6555 34.5907 89.8929 30.3059C92.4074 27.7443 95.7601 26.4402 99.8578 26.4402C103.956 26.4402 107.308 27.7443 109.823 30.3059C114.06 34.5907 114.712 41.0646 114.805 43.3001C115.224 43.4399 115.783 43.7193 116.249 44.2316C117.18 45.2097 117.599 46.6069 117.506 48.5165C117.366 52.1493 114.852 53.4999 113.082 53.7794C110.894 63.0477 106.889 67.0065 99.8578 67.0065ZM99.8578 28.3032C96.2723 28.3032 93.3853 29.421 91.1967 31.61C86.6799 36.1742 86.7265 43.9522 86.7265 44.0453C86.7265 44.2782 86.6334 44.5111 86.4471 44.6974C86.2609 44.8837 86.028 44.9768 85.7952 44.9768C85.6089 44.9768 83.9326 45.1631 84.0257 48.4233C84.1654 51.7767 87.0525 51.963 87.3784 52.0096C87.7975 52.0096 88.17 52.3356 88.2632 52.7547C90.7311 63.6532 95.2479 65.1435 99.8113 65.1435C104.375 65.1435 108.891 63.6532 111.359 52.7547C111.452 52.3356 111.825 52.0561 112.244 52.0096C112.57 52.0096 115.457 51.8233 115.597 48.4233C115.736 45.1631 114.014 45.0234 113.827 44.9768C113.315 44.9302 112.896 44.5576 112.943 44.0453C112.943 43.9522 112.989 36.1742 108.472 31.61C106.377 29.421 103.443 28.3032 99.8578 28.3032Z" fill="black"/>
<path d="M98.5076 250.277L101.534 263.271H128.076C128.076 263.271 127.843 252.373 116.156 250.091L112.244 244.874L98.5076 250.277Z" fill="black"/>
<path d="M128.123 264.203H101.581C101.162 264.203 100.789 263.923 100.696 263.504L97.6693 250.51C97.5762 250.044 97.809 249.578 98.2281 249.439L112.011 243.989C112.384 243.85 112.849 243.943 113.082 244.315L116.807 249.252C128.775 251.814 129.101 263.178 129.101 263.271C129.101 263.504 129.007 263.784 128.821 263.923C128.588 264.11 128.356 264.203 128.123 264.203ZM102.279 262.34H127.098C126.726 259.732 124.956 252.745 116.016 250.976C115.783 250.929 115.597 250.789 115.457 250.603L111.965 245.946L99.625 250.836L102.279 262.34Z" fill="black"/>
<path d="M72.4312 149.862C91.5228 147.58 105.213 221.028 106.656 226.058C108.1 231.088 115.504 229.877 113.827 236.072C112.151 242.266 116.062 242.918 116.156 245.899L95.8068 254.422C95.8533 254.375 39.0442 153.868 72.4312 149.862Z" fill="white"/>
<path d="M95.8533 255.307C95.5274 255.307 95.2014 255.121 95.0617 254.841C93.2923 251.674 51.6167 177.574 62.932 155.265C64.7945 151.586 67.961 149.49 72.3381 148.977C90.0793 146.882 102.512 203.097 106.61 221.587C107.075 223.729 107.401 225.266 107.588 225.825C108.1 227.642 109.59 228.48 111.173 229.412C113.269 230.622 115.923 232.159 114.759 236.351C113.827 239.844 114.805 241.288 115.783 242.685C116.435 243.617 117.087 244.548 117.133 245.899C117.133 246.272 116.901 246.644 116.575 246.784L96.2258 255.307C96.1327 255.26 95.993 255.307 95.8533 255.307ZM72.5709 150.794C68.7991 151.26 66.1915 152.983 64.6083 156.103C54.3174 176.41 91.9419 245.34 96.2724 253.211L115.178 245.293C115.038 244.781 114.666 244.269 114.293 243.71C113.175 242.126 111.825 240.17 112.989 235.839C113.734 233.044 112.337 232.253 110.242 231.042C108.519 230.017 106.517 228.899 105.772 226.338C105.585 225.732 105.259 224.242 104.794 222.006C103.024 213.995 98.8801 195.226 93.1526 179.158C86.261 159.829 79.1365 150.002 72.5709 150.794Z" fill="black"/>
<path d="M110.894 154.566C110.894 154.566 98.0884 159.177 98.3213 160.807C98.5075 162.391 106.47 179.949 109.031 179.856C111.592 179.763 115.457 169.004 115.457 169.004L110.894 154.566Z" fill="black"/>
<path d="M106.889 156.988C106.889 156.988 110.102 171.007 111.453 171.426C112.756 171.845 119.136 176.037 121.743 171.845C124.351 167.654 127.704 168.166 134.782 167.002C141.859 165.837 176.923 153.448 174.455 135.191C171.987 116.981 106.889 156.988 106.889 156.988Z" fill="white"/>
<path d="M118.298 174.594C115.969 174.594 113.501 173.383 112.104 172.731C111.732 172.544 111.313 172.358 111.173 172.311C110.661 172.172 109.311 171.752 106.004 157.221C105.911 156.849 106.098 156.429 106.424 156.197C108.566 154.893 158.856 124.107 172.08 130.348C173.989 131.233 175.107 132.816 175.386 135.052C176.457 143.156 170.683 151.167 158.669 158.292C149.17 163.881 138.507 167.328 134.921 167.887C133.524 168.12 132.267 168.259 131.15 168.446C126.633 169.051 124.398 169.331 122.535 172.311C121.464 174.035 119.881 174.594 118.298 174.594ZM111.872 170.588C112.151 170.681 112.477 170.868 112.943 171.054C116.202 172.637 119.462 173.755 120.952 171.333C123.28 167.607 126.167 167.235 130.917 166.583C132.034 166.443 133.291 166.257 134.642 166.07C141.813 164.906 175.898 152.75 173.524 135.331C173.291 133.748 172.546 132.677 171.242 132.071C167.75 130.394 158.623 130.907 134.875 142.643C122.209 148.931 110.614 155.824 107.96 157.454C109.311 163.183 111.08 169.61 111.872 170.588Z" fill="black"/>
<path d="M36.0641 151.353C35.9244 151.353 35.7381 151.259 35.6915 151.12C30.1503 140.315 22.4671 139.849 22.4206 139.849C22.1877 139.849 22.0015 139.616 22.0015 139.383C22.0015 139.15 22.1877 138.964 22.4671 138.964C22.7931 138.964 30.7091 139.43 36.4832 150.701C36.5763 150.887 36.4831 151.166 36.2969 151.26C36.2037 151.353 36.1572 151.353 36.0641 151.353Z" fill="#FCFFF8"/>
<path d="M8.49745 125.085C9.42875 123.408 8.03183 121.173 8.86999 119.403C9.5219 118.052 11.1517 117.54 12.6417 117.214C14.5043 116.795 16.5532 116.375 18.2295 117.354C19.4402 118.052 20.1853 119.31 20.7441 120.567C23.6776 127.181 22.6066 140.734 19.0211 141.246C17.8105 141.432 18.0433 138.964 18.0433 137.707C16.0875 138.219 14.7837 139.989 13.3868 141.479C11.9898 142.923 9.28907 144.46 7.37991 143.761C6.68144 143.482 5.70358 142.55 5.1448 142.038C3.84098 140.827 3.65472 140.454 2.3509 139.243C2.02495 138.964 1.65241 138.126 1.51271 137.707C1.37302 137.334 1.51272 136.915 1.60585 136.542C1.97837 134.866 7.75241 126.529 8.49745 125.085Z" fill="white"/>
<path d="M8.40447 144.879C7.93882 144.879 7.47317 144.786 7.00752 144.646C6.30905 144.366 5.51745 143.668 4.67928 142.923L4.44645 142.736C3.74798 142.131 3.37545 141.712 3.00293 141.293C2.63041 140.873 2.30447 140.501 1.65256 139.942C1.14035 139.476 0.67468 138.358 0.581551 137.986C0.395291 137.38 0.535003 136.775 0.628132 136.309C0.907521 135.098 3.00293 131.884 5.65713 127.739C6.58842 126.296 7.42659 125.038 7.65941 124.619C7.98536 124.013 7.89224 123.222 7.75255 122.29C7.61285 121.266 7.47316 120.101 7.98537 118.983C8.8701 117.074 11.1518 116.562 12.3625 116.282C14.0388 115.909 16.5533 115.351 18.6021 116.515C20.1388 117.4 20.977 119.03 21.4892 120.148C24.0968 126.016 23.6312 136.216 21.4426 140.128C20.7907 141.293 19.9525 141.991 19.0212 142.131C18.5556 142.224 18.0899 142.084 17.764 141.758C17.1121 141.199 17.0189 140.175 16.9724 139.104C16.1342 139.616 15.4358 140.454 14.6907 141.293C14.4579 141.572 14.2251 141.805 13.9457 142.084C12.8747 143.295 10.5464 144.879 8.40447 144.879ZM9.33576 125.504C9.05637 126.016 8.26477 127.227 7.24034 128.764C5.65714 131.232 2.67697 135.75 2.44414 136.728C2.39758 136.961 2.30447 137.287 2.35104 137.427C2.44417 137.753 2.7701 138.405 2.90979 138.545C3.60826 139.197 3.98079 139.616 4.39987 139.988C4.77239 140.361 5.09836 140.734 5.75026 141.339L5.98309 141.525C6.44874 141.945 7.28691 142.69 7.70599 142.876C9.05637 143.388 11.3846 142.224 12.6884 140.827C12.9212 140.594 13.1541 140.314 13.3869 140.082C14.551 138.777 15.9014 137.334 17.764 136.821C18.0434 136.728 18.3228 136.821 18.5556 136.961C18.7884 137.147 18.9281 137.38 18.9281 137.706C18.9281 137.893 18.9281 138.125 18.9281 138.405C18.9281 138.871 18.8815 139.849 19.0212 140.268C19.3006 140.128 19.6266 139.802 19.906 139.29C21.8151 135.843 22.1876 126.109 19.8594 120.94C19.4403 120.055 18.7884 118.751 17.764 118.145C16.4602 117.4 14.6907 117.679 12.8747 118.098C11.6174 118.378 10.2205 118.797 9.75483 119.775C9.47544 120.381 9.56858 121.219 9.70827 122.057C9.8014 123.128 9.9411 124.386 9.33576 125.504Z" fill="black"/>
<path d="M82.7219 34.2646C83.8395 30.3523 85.9349 26.4866 88.2631 22.947C93.3853 15.169 99.7181 8.69519 106.098 4.73636C107.82 3.66515 109.543 2.78023 111.22 2.26791C113.036 1.70902 117.32 0.730957 119.043 0.730957C126.307 0.730957 127.89 1.5693 131.243 3.99117C128.635 3.24598 123.839 4.78293 120.579 6.08702C117.087 7.48425 113.455 8.92806 109.962 12.002C112.849 10.9773 114.619 9.90612 116.994 9.34723C119.043 8.88148 121.743 8.36917 123.699 8.18287C126.912 7.85685 129.752 8.69519 132.407 9.81297C130.917 9.7664 128.914 10.791 127.191 11.5828C125.701 12.2348 124.165 13.2129 122.628 14.191C120.533 15.4951 118.437 16.8457 116.388 18.1964C118.903 17.1717 121.557 15.9142 123.792 15.2156C128.356 13.7718 130.637 13.6321 136.178 14.3773C131.243 16.5197 124.258 18.0567 118.298 23.1798C125.143 19.6868 129.054 19.5936 133.617 20.5251C128.728 22.0155 124.723 24.1113 119.694 28.2099C125.701 26.5332 132.686 23.6456 137.762 24.9497C134.083 26.2538 126.4 31.3304 122.721 34.544C118.856 37.8974 114.805 42.7411 113.594 42.5548C112.43 42.3685 113.036 37.8508 111.918 37.5713C107.075 36.2673 103.304 32.4947 97.9021 32.6345C94.6891 32.681 91.0105 34.218 87.4715 36.9193C85.8418 38.1768 83.8395 39.7603 82.815 38.8289C81.9769 38.0837 82.2097 36.0344 82.7219 34.2646Z" fill="black"/>
<path d="M103.49 44.511C103.164 43.3001 105.073 41.8563 106.051 41.4837C107.96 40.7385 107.541 43.9055 107.448 44.8836C107.308 46.5137 109.823 46.8397 109.962 45.2096C110.195 42.2754 109.776 38.4097 105.865 38.9221C103.536 39.2481 100.277 42.322 100.929 44.8836C101.348 46.374 103.909 46.0945 103.49 44.511Z" fill="black"/>
<path d="M91.7091 44.8369C91.3831 43.626 93.2923 42.1822 94.2702 41.8096C96.1793 41.0644 95.7603 44.2315 95.6671 45.2095C95.5274 46.8396 98.042 47.1656 98.1817 45.5355C98.4145 42.6014 97.9954 38.7357 94.0839 39.248C91.7557 39.574 88.4961 42.6479 89.148 45.2095C89.6137 46.7465 92.1282 46.4205 91.7091 44.8369Z" fill="black"/>
<path fill-rule="evenodd" clip-rule="evenodd" d="M74.3403 20.8513L85.5159 37.4784H118.623L126.26 17.4048L114.479 25.043L110.009 12.8871L102.559 25.4622L94.4098 12.561L88.5426 27.558L74.8525 21.6431" fill="white"/>
<path d="M118.623 38.596H85.5158C85.1433 38.596 84.8173 38.4097 84.6311 38.1303L74.0143 22.3881C73.9677 22.3415 73.9211 22.295 73.9211 22.2018L73.4555 21.5032C73.1295 20.9909 73.2692 20.3388 73.7349 20.0128C74.2471 19.6868 74.899 19.8265 75.225 20.2923L75.5975 20.8046L87.9372 26.1141L93.3853 12.1883C93.525 11.8157 93.8975 11.5363 94.27 11.4897C94.6891 11.4431 95.0616 11.6294 95.2944 12.002L102.512 23.4128L109.078 12.3746C109.31 12.002 109.683 11.8157 110.102 11.8623C110.521 11.9089 110.894 12.1883 111.033 12.5609L115.038 23.4128L125.655 16.5197C126.027 16.2869 126.54 16.2869 126.912 16.5663C127.285 16.8458 127.424 17.3581 127.238 17.7772L119.648 37.8508C119.508 38.3166 119.089 38.596 118.623 38.596ZM86.1211 36.407H117.878L124.072 20.106L115.085 25.9278C114.805 26.1141 114.479 26.1606 114.153 26.0675C113.827 25.9744 113.594 25.7415 113.501 25.4155L109.776 15.402L103.49 25.9743C103.304 26.3004 102.931 26.4867 102.559 26.4867C102.186 26.4867 101.86 26.3004 101.627 25.9743L94.6425 14.9362L89.567 27.9305C89.4738 28.2099 89.241 28.4428 88.9616 28.5359C88.6822 28.6291 88.4028 28.6291 88.1234 28.5359L77.8326 24.1114L86.1211 36.407Z" fill="black"/>
</svg>
