<svg width="215" height="232" viewBox="0 0 215 232" fill="none" xmlns="http://www.w3.org/2000/svg">
<path fill-rule="evenodd" clip-rule="evenodd" d="M0.0283203 80.2336L81.5635 156.848L73.6474 167.84L0.0283203 130.907V80.2336Z" class="sec-color-fill"/>
<path fill-rule="evenodd" clip-rule="evenodd" d="M41.7968 29.2344L95.8586 127.227L84.9159 135.238L26.2441 77.4855L41.7968 29.2344Z" class="sec-color-fill"/>
<path fill-rule="evenodd" clip-rule="evenodd" d="M118.955 0.730957L117.418 112.603L103.961 114.14L81.5635 34.9165L118.955 0.730957Z" class="sec-color-fill"/>
<path d="M100.05 229.784H102.378C102.378 229.784 105.637 193.922 105.218 189.73C104.613 184.095 111.179 176.27 111.179 176.27C111.179 176.27 136.51 151.399 130.177 159.317C127.942 162.065 138.512 175.571 148.523 179.251C151.923 180.508 172.365 195.692 173.203 197.508C175.438 202.352 201.188 229.784 201.188 229.784H203.61C203.61 229.784 190.525 201.42 175.345 173.802C164.588 154.24 152.947 144.273 146.335 134.12C134.275 128.578 119.281 130.627 109.968 136.915C111.458 143.901 90.3174 170.169 90.5502 173.382C91.2022 182.464 100.05 229.784 100.05 229.784Z" fill="white"/>
<path d="M203.657 230.716H201.235C200.956 230.716 200.723 230.622 200.537 230.436C199.466 229.318 174.693 202.818 172.412 197.881C171.387 196.204 151.783 181.393 148.244 180.089C139.444 176.876 130.596 166.676 129.199 161.646C129.106 161.273 129.013 160.901 129.013 160.575C125.009 164.161 117.139 171.706 111.924 176.829C111.458 177.388 105.684 184.56 106.196 189.544C106.615 193.782 103.496 228.34 103.356 229.784C103.309 230.25 102.89 230.622 102.425 230.622H100.096C99.6307 230.622 99.2581 230.297 99.165 229.877C98.7925 227.921 90.2712 182.418 89.6658 173.383C89.5727 171.985 91.4818 168.958 96.5108 161.32C101.866 153.216 109.968 140.967 109.13 137.008C109.037 136.635 109.223 136.263 109.502 136.03C119.933 129.044 135.253 127.879 146.801 133.189C146.941 133.282 147.08 133.375 147.173 133.515C149.548 137.148 152.575 140.734 156.067 144.926C161.981 151.958 169.338 160.761 176.23 173.243C191.27 200.582 204.402 228.992 204.541 229.272C204.681 229.551 204.634 229.877 204.495 230.157C204.355 230.436 203.936 230.716 203.657 230.716ZM201.608 228.853H202.166C199.419 222.938 187.685 198.16 174.554 174.267C167.755 161.925 160.77 153.588 154.624 146.23C151.178 142.084 148.151 138.545 145.73 134.865C134.973 130.022 120.771 131.046 110.946 137.38C111.225 141.991 105.498 151.073 98.0009 162.438C94.9742 167.048 91.4818 172.265 91.4818 173.336C92.0406 181.626 99.6773 222.705 100.841 228.806H101.586C102.751 216.184 104.706 192.944 104.38 189.777C103.775 183.815 110.294 175.944 110.573 175.618L110.62 175.572C110.667 175.525 115.509 170.774 120.399 166.117C123.239 163.369 125.567 161.227 127.244 159.736C130.457 156.849 131.109 156.383 131.854 157.081C132.645 157.78 131.947 158.665 130.969 159.876C130.876 160.016 130.829 160.435 131.015 161.18C132.319 165.884 140.887 175.432 148.896 178.366C150.852 179.065 157.185 183.489 162.447 187.401C165.753 189.823 173.436 195.645 174.134 197.089C175.811 200.768 192.667 219.305 201.608 228.853Z" fill="black"/>
<path d="M199.512 231.507H214.693C214.693 231.507 205.193 225.686 203.517 226.058C200.35 226.757 199.512 231.507 199.512 231.507Z" fill="black"/>
<path d="M102.517 89.3622L97.9541 76.4611L109.362 74.7378L116.72 85.2171C116.766 85.2171 110.573 90.2937 102.517 89.3622Z" fill="white"/>
<path d="M104.566 90.4333C103.868 90.4333 103.169 90.3867 102.424 90.2935C102.052 90.247 101.772 90.0141 101.633 89.6881L97.0694 76.787C96.9763 76.5075 97.0229 76.2281 97.1626 75.9952C97.3023 75.7623 97.5351 75.5761 97.8145 75.5295L109.223 73.8062C109.549 73.7596 109.921 73.8994 110.108 74.1788L117.465 84.658C117.744 85.0772 117.651 85.5895 117.279 85.9155C117.092 86.1484 111.831 90.4333 104.566 90.4333ZM103.216 88.4771C109.037 88.9429 113.74 86.1484 115.463 84.984L108.943 75.7158L99.2115 77.2061L103.216 88.4771Z" fill="black"/>
<path d="M93.7167 73.2938C92.4594 71.7103 85.009 62.0228 89.6189 57.9243C90.364 57.2722 91.2022 57.2722 92.1335 57.738C94.7877 53.5463 100.236 50.4258 102.378 50.5655C105.544 50.7518 110.061 56.0613 112.482 62.7215C112.855 63.6995 122.866 60.6256 123.565 62.7215C124.031 64.0255 115.509 66.7269 114.95 68.3104C113.647 72.0363 115.137 75.6226 115.602 77.6718C110.154 81.9567 108.292 82.9813 105.405 80.9321C104.799 80.5129 104.147 79.954 103.402 79.2554L101.493 80.0006L100.515 79.1622C100.515 79.2088 100.515 79.2554 100.515 79.3019C100.329 81.2581 90.8762 80.0005 89.8053 76.8335C89.1068 74.6445 91.435 73.5267 93.7167 73.2938Z" fill="white"/>
<path d="M108.106 82.8416C107.035 82.8416 106.01 82.469 104.893 81.6773C104.38 81.3047 103.822 80.8389 103.263 80.3266L101.913 80.839C101.587 80.9787 101.214 80.8855 100.981 80.6992L100.795 80.5129C100.422 80.7458 99.8636 80.9787 99.072 81.0718C96.0918 81.3978 90.0385 80.1403 89.014 77.0664C88.7347 76.1349 88.8277 75.25 89.2934 74.5048C89.9453 73.4802 91.1094 72.9679 92.1339 72.6884C89.6659 69.2885 84.5903 61.2777 89.0605 57.2258C89.8521 56.5271 90.83 56.2943 91.8544 56.5737C94.6483 52.6615 99.9568 49.4479 102.518 49.6342C106.057 49.867 110.713 55.2231 113.274 62.0229C113.926 62.0229 115.323 61.79 116.394 61.6503C120.212 61.0448 123.845 60.486 124.496 62.4421C125.009 63.8859 123.053 64.8174 119.84 66.4009C118.443 67.053 116.161 68.1707 115.835 68.683C114.858 71.4775 115.649 74.2719 116.255 76.3212C116.394 76.7404 116.487 77.113 116.58 77.4856C116.674 77.8582 116.534 78.2308 116.255 78.4171C112.669 81.1184 110.341 82.8416 108.106 82.8416ZM103.403 78.2774C103.635 78.2774 103.868 78.3705 104.054 78.5568C104.753 79.2088 105.358 79.7677 105.917 80.1403C108.106 81.6773 109.363 81.3046 114.485 77.2993C114.438 77.1595 114.392 76.9733 114.345 76.787C113.74 74.6445 112.809 71.3843 114.019 67.9844C114.392 66.9132 116.068 66.0749 118.955 64.6776C120.026 64.1653 121.516 63.4202 122.261 62.9544C121.051 62.7681 118.117 63.2338 116.58 63.4667C113.414 63.979 111.971 64.1653 111.551 63.0475C109.13 56.3408 104.8 51.6369 102.285 51.4971C100.609 51.404 95.3933 54.245 92.8788 58.2038C92.5995 58.623 92.0873 58.7627 91.6682 58.5299C90.8766 58.1107 90.5041 58.297 90.1782 58.5764C86.1736 62.1626 93.5308 71.6172 94.369 72.6884C94.6018 72.9679 94.6483 73.2939 94.5086 73.6199C94.3689 73.946 94.0896 74.1322 93.7636 74.1788C92.3201 74.3185 91.156 74.8309 90.7369 75.4829C90.6438 75.6692 90.5041 75.9486 90.6438 76.461C90.9232 77.2993 92.3667 78.1376 94.369 78.6965C96.9301 79.3951 99.0254 79.2554 99.5377 78.976C99.5842 78.65 99.7705 78.3705 100.096 78.2774C100.422 78.1376 100.795 78.1842 101.074 78.4171L101.633 78.8828L103.03 78.3239C103.17 78.3239 103.309 78.2774 103.403 78.2774Z" fill="black"/>
<path d="M105.311 60.3462C106.289 59.3215 105.498 58.4832 104.613 57.5983C103.914 56.8997 97.4419 58.8092 97.3022 59.7873C97.1625 60.7653 97.4419 62.3023 98.0007 62.3489C98.5129 62.3954 104.613 61.0448 105.311 60.3462Z" fill="black"/>
<path d="M107.313 57.4118C106.103 57.3652 105.916 56.9926 105.916 55.8283C105.87 54.8969 109.828 51.7299 110.526 52.2888C111.178 52.8477 111.97 54.1051 111.691 54.4777C111.411 54.8968 108.152 57.4584 107.313 57.4118Z" fill="black"/>
<path d="M194.669 90.1539C186.288 91.9703 178.744 90.7593 176.742 90.9922C174.553 91.2251 160.072 96.4414 158.349 95.5099C145.45 98.7236 140.328 94.5319 134.787 100.447C150.34 124.898 162.586 143.575 154.763 144.227C146.242 149.909 113.088 150.049 106.662 145.903C108.897 138.312 110.061 132.676 109.13 128.112C108.012 122.803 105.079 118.937 101.912 115.025C93.484 118.005 79.2818 122.104 77.6054 121.498C77.1864 121.359 76.7207 121.079 76.3016 120.753C73.7405 121.312 70.7138 121.079 69.41 120.381C67.0352 119.123 50.9703 98.1647 47.2451 93.8798L47.7108 92.9484C47.7108 92.9484 71.6451 104.08 77.5588 107.48C82.6344 103.148 90.0382 97.4194 97.9076 91.9702C98.4664 91.5511 99.0252 91.1319 99.6305 90.7593C99.7236 90.7127 99.7702 90.6662 99.8633 90.6196C103.495 88.2443 108.012 86.2416 112.529 85.1238C114.252 84.7047 115.835 84.3787 117.279 84.1458C117.418 84.0061 117.651 83.9129 117.93 83.8663C119.514 83.5869 127.383 80.7924 136.696 80.3733C144.612 80.0473 148.896 81.2582 153.692 82.0034C157.883 83.354 163.471 79.628 169.664 80.3267C177.766 81.2116 186.66 86.3348 192.62 87.4526C194.669 87.2663 196.951 86.7539 198.115 86.8005C199.233 86.5211 200.956 85.7759 201.095 86.1951C201.281 86.8005 200.117 87.2663 199.046 87.6389C199.139 87.8252 199.186 88.1046 199.279 88.3375C200.536 88.1978 202.958 87.8717 203.098 88.2909C203.33 88.943 200.862 89.3155 199.605 89.5018C199.652 89.6416 199.652 89.7813 199.698 89.921C200.956 89.921 202.958 89.921 203.004 90.3401C203.191 91.2251 199.931 91.1785 198.953 91.0388C198.86 91.0388 198.814 90.9922 198.767 90.9922C198.488 90.9922 198.162 90.9457 197.836 90.8525C197.23 92.0169 199.372 92.8552 199.14 93.7401C198.814 95.0442 195.694 91.6442 194.902 90.2936C194.716 90.247 194.669 90.2005 194.669 90.1539Z" fill="white"/>
<path d="M127.057 149.676C117.791 149.676 109.223 148.651 106.103 146.602C105.777 146.369 105.591 145.95 105.731 145.531C107.873 138.358 109.083 132.63 108.152 128.205C107.128 123.361 104.567 119.775 101.493 116.003C95.9521 117.912 79.5147 123.082 77.1865 122.244C76.8139 122.104 76.3949 121.871 75.9758 121.638C73.3682 122.104 70.2949 121.871 68.8514 121.079C67.1751 120.194 60.8888 112.37 52.7865 102.263C49.9926 98.7701 47.5712 95.7427 46.4536 94.3921C46.2208 94.1126 46.1742 93.6934 46.3139 93.3674L46.7796 92.4359C47.0124 91.9702 47.5247 91.8305 47.9903 92.0168C48.9216 92.4825 70.6674 102.589 77.3262 106.269C82.6811 101.704 89.8987 96.2085 97.256 91.0853C97.7682 90.7127 98.3735 90.2935 98.9788 89.8743C99.072 89.8278 99.1185 89.7812 99.2117 89.7346C103.03 87.2196 107.64 85.2169 112.157 84.0991C113.786 83.68 115.323 83.4005 116.767 83.1676C116.999 83.0279 117.279 82.9347 117.605 82.8416C117.884 82.795 118.49 82.6087 119.235 82.4224C122.401 81.5375 128.967 79.6745 136.51 79.3485C142.936 79.0691 146.941 79.8143 150.852 80.5129C151.83 80.6992 152.715 80.8389 153.693 80.9786C153.739 80.9786 153.786 80.9786 153.832 81.0252C155.695 81.6306 158.023 81.0718 160.724 80.3732C163.378 79.7211 166.451 78.9293 169.618 79.3019C174.414 79.8143 179.443 81.7704 183.913 83.5402C187.08 84.7977 190.106 85.9621 192.528 86.4279C193.366 86.3347 194.251 86.2415 195.089 86.1018C196.16 85.9155 197.091 85.7758 197.79 85.7758H197.836C198.069 85.6827 198.348 85.6361 198.628 85.5429C200.071 85.0772 201.375 84.658 201.794 85.7758C201.98 86.2881 201.841 86.7073 201.561 87.0799C202.865 87.0333 203.564 87.2196 203.796 87.9182C203.89 88.2442 203.89 88.6168 203.657 88.9428C203.564 89.1291 203.424 89.2689 203.191 89.4086C203.47 89.5949 203.61 89.8278 203.703 90.1538C203.796 90.573 203.657 90.9921 203.377 91.2716C202.539 92.1565 199.978 92.0633 199 91.9702C199.466 92.4359 200.025 93.088 199.838 93.9729C199.699 94.4852 199.326 94.8578 198.814 94.951C197.277 95.1838 194.996 92.2496 194.204 91.1784C188.197 92.3894 182.749 92.1099 179.443 91.9702C178.232 91.9236 177.254 91.877 176.789 91.9236C176.09 92.0168 173.716 92.7154 171.201 93.5072C163.564 95.8359 159.839 96.8605 158.256 96.4879C152.854 97.792 148.803 97.8386 145.497 97.8852C141.26 97.9317 138.606 97.9783 135.858 100.54L137.255 102.775C151.783 125.597 159.886 138.731 157.604 143.388C157.278 144.087 156.533 144.925 154.95 145.112C150.154 148.186 138.093 149.676 127.057 149.676ZM107.686 145.391C111.086 147.021 119.933 147.999 129.851 147.766C141.213 147.534 150.526 145.857 154.205 143.388C154.345 143.295 154.484 143.249 154.624 143.249C155.555 143.156 155.835 142.783 155.974 142.503C157.93 138.545 147.127 121.638 135.718 103.707L133.903 100.866C133.67 100.493 133.716 100.028 133.996 99.7016C137.488 96.0222 140.841 95.9756 145.451 95.929C148.664 95.8824 152.668 95.8359 158.023 94.5318C158.256 94.4852 158.442 94.4852 158.675 94.5784C159.886 94.9044 166.87 92.762 170.642 91.5976C173.855 90.6196 175.718 90.0607 176.556 89.9675C177.208 89.9209 178.139 89.9675 179.489 90.0141C182.842 90.1538 188.383 90.4332 194.39 89.1291C194.576 89.0826 194.763 89.0826 194.902 89.1757C195.135 89.2689 195.322 89.4086 195.415 89.6415L195.461 89.6881C195.694 90.1072 196.113 90.6196 196.579 91.1319C196.579 90.899 196.625 90.6195 196.765 90.3401C196.951 89.9675 197.324 89.7812 197.743 89.8278C198.022 89.8743 198.302 89.9209 198.535 89.9209C198.535 89.8278 198.488 89.688 198.488 89.5949C198.441 89.4086 198.488 89.1757 198.581 88.9428C198.395 88.8031 198.255 88.6634 198.209 88.4305C198.162 88.1977 198.069 87.9648 197.976 87.7785C197.929 87.6853 197.929 87.5922 197.929 87.5456H197.883C197.324 87.5456 196.346 87.6854 195.322 87.8251C194.437 87.9648 193.459 88.1045 192.528 88.1977C192.435 88.1977 192.341 88.1977 192.295 88.1977C189.641 87.7319 186.521 86.4744 183.215 85.2169C178.884 83.5402 173.948 81.5841 169.385 81.1184C166.544 80.7923 163.797 81.4909 161.143 82.143C158.303 82.8416 155.648 83.4936 153.274 82.795C152.342 82.6553 151.364 82.469 150.48 82.3293C146.708 81.6307 142.75 80.932 136.557 81.2115C129.246 81.5375 122.773 83.3539 119.7 84.1923C118.815 84.4251 118.257 84.6114 117.884 84.658C117.745 84.7046 117.698 84.7046 117.698 84.7511C117.558 84.8443 117.419 84.9374 117.232 84.984C115.789 85.2169 114.206 85.5429 112.576 85.9155C108.338 86.9867 103.822 88.9428 100.19 91.2716C100.19 91.2716 100.143 91.2716 100.143 91.3182C100.096 91.3182 100.096 91.3647 100.05 91.4113L100.003 91.4579C99.3979 91.877 98.8392 92.2496 98.327 92.6688C90.8766 97.8386 83.2865 103.614 78.0247 108.178C77.7453 108.458 77.2796 108.458 76.9536 108.271C72.1109 105.477 54.5094 97.1866 48.9216 94.5784C50.2254 96.1619 52.1345 98.5372 54.23 101.192C59.4918 107.759 68.2461 118.751 69.6896 119.542C70.714 120.101 73.4613 120.334 75.9292 119.822C76.2086 119.775 76.4881 119.822 76.6743 120.008C77.0468 120.287 77.4193 120.474 77.7452 120.613C79.2353 120.94 91.8544 117.493 101.447 114.14C101.819 114 102.238 114.14 102.471 114.419C105.87 118.564 108.757 122.43 109.922 127.879C110.946 132.537 109.782 138.265 107.686 145.391Z" fill="black"/>
<path fill-rule="evenodd" clip-rule="evenodd" d="M47.1517 62.2559C45.2426 140.454 47.1517 184.141 47.1517 184.141L48.735 183.908L50.97 183.117L47.1983 67.379" fill="white"/>
<path d="M47.152 184.607C47.0589 184.607 46.9193 184.56 46.8727 184.514C46.7796 184.421 46.733 184.327 46.6864 184.188C46.6864 183.769 44.7773 139.569 46.6864 62.2558C46.6864 61.9763 46.9192 61.79 47.152 61.79C47.4314 61.79 47.6177 62.0229 47.6177 62.2558C47.5711 63.8859 47.5246 65.4694 47.5246 67.0529C47.5711 67.1461 47.6177 67.2393 47.6177 67.3324L51.3894 183.07C51.3894 183.256 51.2497 183.443 51.0635 183.536L48.8284 184.327C48.7818 184.327 48.7818 184.327 48.7353 184.374L47.152 184.607C47.1986 184.607 47.152 184.607 47.152 184.607ZM47.152 82.702C46.0811 143.156 47.3849 178.971 47.5712 183.629L48.5956 183.489L50.4581 182.79L47.152 82.702Z" fill="black"/>
<path fill-rule="evenodd" clip-rule="evenodd" d="M8.68945 42.0425L16.8848 84.1458L79.5613 69.5214L73.8804 35.0098L8.68945 42.0425Z" fill="white"/>
<path d="M16.8847 84.6116C16.7916 84.6116 16.6985 84.565 16.6519 84.5184C16.5588 84.4718 16.4657 84.3321 16.4657 84.239L8.27022 42.089C8.22366 41.9493 8.2702 41.8096 8.36333 41.7165C8.45646 41.6233 8.54968 41.5302 8.68938 41.5302L73.8803 34.4974C74.1131 34.4508 74.3459 34.6371 74.3924 34.87L80.0733 69.3817C80.1199 69.6145 79.9803 69.8475 79.7009 69.894L17.0245 84.5184C16.9313 84.6115 16.9313 84.6116 16.8847 84.6116ZM9.24813 42.4616L17.2573 83.6335L79.0489 69.1954L73.5077 35.522L9.24813 42.4616Z" fill="black"/>
<path d="M65.5915 61.6037C65.0793 61.6037 64.3342 61.2777 64.2877 60.7188C64.2411 60.4859 64.3343 60.0201 65.2655 59.8338C65.4984 59.7873 65.7776 59.7873 66.3364 59.7873C66.8952 59.7873 68.1059 59.8339 68.4784 59.6476C68.3387 59.2284 68.2455 58.7161 68.199 58.2504C68.0127 57.2257 67.873 56.201 67.1746 55.6421C66.383 55.0367 65.4517 54.6175 64.4739 54.1518C62.4251 53.1737 60.2832 52.1957 59.4451 49.6806C58.8397 47.9108 60.7022 46.6533 61.9129 45.8149C62.1922 45.6286 62.4251 45.4889 62.6113 45.3492L62.7976 45.2095C63.3564 44.7903 64.1479 44.0917 64.9395 44.278C65.7311 44.4643 65.638 45.6752 65.5915 46.467C65.5915 46.5601 65.5915 46.6067 65.5915 46.6533C65.5915 46.9327 65.4052 47.119 65.1258 47.119C64.8464 47.119 64.6602 46.9327 64.6602 46.6533C64.6602 46.6067 64.6602 46.5136 64.6602 46.3739C64.7068 45.6287 64.6602 45.3026 64.6602 45.1629C64.2877 45.1629 63.6824 45.6752 63.403 45.9081L63.2167 46.0478C62.9838 46.1875 62.7511 46.3738 62.4717 46.5601C61.1214 47.4916 60.0504 48.3299 60.3763 49.3546C61.0748 51.497 62.9373 52.3354 64.893 53.2669C65.8708 53.7326 66.8952 54.1984 67.7333 54.8504C68.7577 55.5956 68.944 56.8997 69.1302 58.064C69.2234 58.5298 69.27 58.9955 69.4097 59.3681C69.5028 59.6475 69.4563 59.927 69.3166 60.1133C68.8975 60.6722 67.8265 60.6722 66.3364 60.6722C66.1967 60.6722 66.0571 60.6722 65.9174 60.6722C66.0571 60.7654 66.1036 60.9051 66.1036 61.0448C66.057 61.4174 65.8708 61.6037 65.5915 61.6037Z" fill="black"/>
<path d="M71.1328 59.1817C70.8535 59.1817 70.6672 58.9954 70.6672 58.716V57.3187C70.6672 57.179 70.6672 56.9927 70.6672 56.853C70.6672 56.5736 70.7138 56.2475 70.6672 56.0146C70.3878 54.012 70.1084 52.3819 69.829 50.9381C69.3634 48.1902 68.9443 46.0478 68.9443 43.0671C68.9443 42.7876 69.1306 42.6013 69.41 42.6013C69.6894 42.6013 69.8756 42.7876 69.8756 43.0671C69.8756 46.0012 70.2482 48.0039 70.7138 50.7984C70.9466 52.2422 71.2726 53.8723 71.552 55.9215C71.5986 56.2475 71.5986 56.6201 71.552 56.9461C71.552 57.0858 71.552 57.2256 71.552 57.3653V58.7625C71.5986 58.9488 71.4122 59.1817 71.1328 59.1817Z" fill="black"/>
<path d="M66.9886 44.0918C66.7092 44.0918 66.5229 43.9055 66.5229 43.6261C66.5229 43.3466 66.7092 43.1603 66.9886 43.1603C68.2459 43.1603 69.5031 43.0206 70.7138 42.9274C71.9245 42.8343 73.1352 42.6946 74.3459 42.6946C74.6253 42.6946 74.8115 42.8809 74.8115 43.1603C74.8115 43.4398 74.6253 43.6261 74.3459 43.6261C73.1818 43.6261 72.0176 43.7192 70.8069 43.8589C69.5962 43.9986 68.2924 44.0918 66.9886 44.0918Z" fill="black"/>
<path fill-rule="evenodd" clip-rule="evenodd" d="M14.1376 51.9628C13.7651 51.8696 13.5322 51.497 13.5322 51.1244C13.5322 50.6587 13.9047 50.2395 14.4169 50.2395C14.6963 50.2395 14.9292 50.3326 15.2086 50.5189C15.488 50.7518 15.8138 51.1244 16.0467 51.6833C16.652 53.0805 17.0246 55.4559 17.0246 56.2476C17.0246 58.6229 17.9093 61.6037 18.794 64.5845C19.7253 67.7515 20.6566 70.9186 20.6566 73.2938C20.6566 73.7596 20.284 74.1788 19.7718 74.1788C19.3062 74.1788 18.8871 73.8062 18.8871 73.2938C18.8871 71.0117 18.0024 68.0775 17.1177 65.0502C16.1864 61.8831 15.2551 58.6695 15.2551 56.2011C15.2551 55.6422 15.0223 54.0586 14.6032 52.8477C14.4635 52.5216 14.2307 52.1025 14.1376 51.9628Z" fill="black"/>
<path fill-rule="evenodd" clip-rule="evenodd" d="M17.164 50.3329C16.9778 50.4726 16.7449 50.5657 16.5121 50.5657C15.9998 50.5657 15.5343 50.1465 15.5343 49.5876C15.5343 49.2616 15.6274 49.0288 15.7671 48.7959C15.9533 48.563 16.2327 48.3767 16.6518 48.2836C16.9777 48.237 17.49 48.3302 17.9556 48.4699C18.7938 48.7494 19.8183 49.2151 19.9579 49.2616C23.2175 50.3329 26.7098 52.1493 25.2663 56.4807C24.8007 57.8313 23.4503 58.8093 21.6808 59.3682C19.7717 59.9271 17.3969 60.1135 15.5343 60.16C15.4877 60.16 15.4411 60.16 15.3945 60.16H14.5098H14.4632C13.3922 60.16 13.1595 59.6477 13.3457 59.182C13.1595 58.7162 13.3922 58.2505 14.4632 58.2039H14.5098H14.5563C16.3258 58.2039 19.0266 58.1573 21.1221 57.5053C22.2396 57.1792 23.1709 56.7135 23.4503 55.8752C23.7297 55.0368 23.7297 54.3848 23.5434 53.7793C23.3106 53.2204 22.8915 52.8013 22.3327 52.4287C21.4945 51.8233 20.3771 51.4506 19.3992 51.1246C19.2595 51.078 18.5145 50.7054 17.7694 50.4726C17.5831 50.426 17.3503 50.3795 17.164 50.3329Z" fill="black"/>
<path d="M29.9694 68.2639C29.9228 68.2639 29.8296 68.2638 29.7831 68.2172C29.5037 68.0775 29.5037 67.8446 29.5037 67.7515C29.5037 67.7049 29.5037 67.7049 29.5037 67.6584C29.5037 67.5652 29.5037 67.3789 29.5037 67.2858C29.364 66.82 29.1778 66.3077 29.1778 65.6557C29.1778 64.631 28.8517 63.3269 28.6189 62.1626C28.5723 61.8831 28.4793 61.6037 28.4327 61.3709C28.1067 59.9271 27.8274 58.4832 27.548 57.0394C27.222 55.3162 26.8495 53.593 26.477 51.8697C26.3838 51.5437 26.2441 51.1711 26.0578 50.7519C25.7784 50.1464 25.499 49.4944 25.499 48.7958C25.499 48.5164 25.6853 48.3301 25.9647 48.3301C26.2441 48.3301 26.4303 48.5164 26.4303 48.7958C26.4303 49.2616 26.6632 49.8205 26.896 50.3794C27.0823 50.7985 27.2685 51.2177 27.3617 51.6834C27.7808 53.4066 28.1067 55.1765 28.4327 56.8997C28.7121 58.297 28.9914 59.7873 29.3174 61.1845C29.364 61.4174 29.4572 61.6969 29.5037 61.9763C29.7831 63.1873 30.1091 64.5379 30.1091 65.6557C30.1091 66.168 30.2487 66.5871 30.3884 67.0529C30.3884 67.0995 30.5747 67.8912 30.2487 68.1707C30.2022 68.2172 30.1091 68.2639 29.9694 68.2639Z" fill="black"/>
<path d="M35.9765 68.4501C35.7437 68.4501 35.5574 68.3104 35.5108 68.0776C35.4643 67.7516 35.278 67.1461 35.1383 66.9132C34.7658 66.3077 34.3467 65.6557 33.9742 64.957C33.8345 64.7242 33.6948 64.4913 33.5551 64.2584C33.3223 63.8858 32.9964 63.5598 32.6238 63.1873C32.2979 62.9078 32.0185 62.5818 31.7392 62.2558C30.7613 60.9517 29.6437 58.949 29.3643 57.2257C29.2712 56.6668 29.3643 56.2477 29.6902 55.9216C30.249 55.3628 31.2734 55.4559 32.2513 55.5956C32.7169 55.6422 33.5552 55.7353 33.6949 55.6422C33.788 55.4559 33.788 54.4778 33.5551 53.3134C33.5086 53.0806 33.462 52.8011 33.462 52.5217C33.4155 51.9628 33.3223 51.4505 33.0895 51.0779C32.9964 50.9382 32.3911 50.7053 32.2048 50.6121C32.0651 50.5656 31.9719 50.519 31.8788 50.4724C30.3421 49.7738 28.6193 49.4012 26.617 49.4012C26.3376 49.4012 26.1514 49.2149 26.1514 48.9355C26.1514 48.656 26.3376 48.4697 26.617 48.4697C28.759 48.4697 30.6216 48.8423 32.2979 49.5875C32.391 49.634 32.4841 49.6807 32.5772 49.6807C33.1826 49.9135 33.6949 50.1464 33.9277 50.519C34.3002 51.0779 34.3933 51.7765 34.4398 52.3819C34.4864 52.6148 34.4865 52.8477 34.533 53.0806C34.859 54.7572 34.8124 55.8285 34.3933 56.2476C33.9277 56.7134 33.0895 56.6202 32.2048 56.4805C31.5529 56.3874 30.6681 56.2942 30.4353 56.5271C30.3422 56.6202 30.3421 56.8997 30.3887 57.0394C30.6681 58.5763 31.7391 60.4859 32.5772 61.6503C32.7635 61.9297 33.043 62.2092 33.3689 62.4886C33.788 62.8612 34.207 63.2804 34.4864 63.7927C34.6261 64.0256 34.7658 64.2584 34.9055 64.4913C35.0917 64.8173 35.278 65.1433 35.4177 65.4228H35.4643C35.6972 65.3296 35.9765 65.516 36.0231 65.7488C36.0697 65.8886 36.1162 65.9817 36.1162 66.0748C36.2093 66.4474 36.3025 66.6803 36.349 67.2392C36.349 67.4255 36.4421 67.7516 36.4421 67.8447V67.8913C36.4421 68.1241 36.3024 68.3104 36.0696 68.357C36.023 68.4036 36.0231 68.4501 35.9765 68.4501Z" fill="black"/>
<path d="M43.1476 67.938C41.5178 67.938 40.4468 66.1682 39.7483 65.0038C39.6552 64.8175 39.5155 64.6312 39.4224 64.4915C38.1186 62.4422 37.4666 59.6478 37.0475 56.8533C36.9544 56.8999 36.8612 56.9464 36.7681 56.9464C36.0231 56.9464 35.8368 55.8286 35.7437 54.804C35.6971 54.6177 35.6972 54.478 35.6972 54.3848C35.2781 52.8013 35.6041 51.5438 36.256 50.3794V50.3328C36.2094 50.1 36.3957 49.867 36.6285 49.8205C36.8148 49.541 37.0009 49.2151 37.2338 48.9356C37.3269 48.7959 37.4667 48.563 37.5598 48.3767C37.8392 47.8644 38.1651 47.2589 38.6773 46.9329C38.817 46.8397 39.2361 46.6069 40.8193 47.7712C41.285 48.0973 41.6574 48.3767 42.03 48.6095C42.6819 49.0287 43.2872 49.4013 44.172 50.2862C46.8262 52.941 46.7796 58.7628 46.2674 63.1408L46.2208 63.5134C46.0811 64.8175 45.8483 67.0065 44.4979 67.7051C43.9391 67.8448 43.5201 67.938 43.1476 67.938ZM37.1407 50.5657C37.2804 51.4041 37.3735 52.2889 37.4666 53.2204C37.9322 56.9464 38.3979 61.2313 40.1674 63.9792C40.2605 64.1654 40.4002 64.3518 40.4933 64.5381C41.5177 66.2613 42.4491 67.5188 43.9392 66.7736C44.8705 66.3079 45.0566 64.3517 45.1498 63.3271L45.1964 62.9545C45.8949 56.9464 45.2896 52.7547 43.3804 50.8451C42.5888 50.0534 42.0299 49.7273 41.4246 49.3082C41.0521 49.0753 40.633 48.7958 40.1674 48.4232C39.7948 48.1438 39.1896 47.7712 38.9567 47.6781C38.6774 47.8644 38.4911 48.2836 38.2583 48.7027C38.1186 48.9356 38.0254 49.1684 37.8857 49.3547C37.6063 49.8205 37.3735 50.1931 37.1407 50.5657ZM36.9078 56.0615C36.7681 55.13 36.675 54.2451 36.5819 53.3602C36.5353 53.0342 36.4888 52.7081 36.4888 52.3821C36.3957 52.941 36.3956 53.4999 36.5819 54.1985C36.6285 54.2916 36.6284 54.4779 36.675 54.7108C36.675 54.9903 36.7681 55.782 36.9078 56.0615Z" fill="black"/>
<path d="M41.6572 48.0507C41.4709 48.0507 41.2381 47.9109 41.1915 47.678C41.145 47.4452 41.2848 47.1658 41.5176 47.1192C42.4023 46.8863 43.1939 46.7 43.9389 46.5603C46.3137 46.0014 48.2228 45.5822 50.5045 44.4179C50.7373 44.3247 51.0167 44.4179 51.1098 44.6042C51.2029 44.8371 51.1099 45.1165 50.9236 45.2097C48.5488 46.4206 46.5931 46.8397 44.1717 47.3986C43.4267 47.5849 42.6351 47.7712 41.7969 47.9575C41.7038 48.0506 41.6572 48.0507 41.6572 48.0507Z" fill="black"/>
<path d="M51.2031 65.749C51.0169 65.749 50.8307 65.6559 50.7841 65.4696C50.4116 64.4915 50.2253 63.4669 50.0856 62.4422C49.9925 61.7902 49.8993 61.1847 49.7596 60.5793C49.0146 57.5519 48.4558 54.3383 47.897 51.2643C47.6641 50.0534 47.4778 48.8424 47.245 47.6315C47.1984 47.3986 47.3847 47.1192 47.6175 47.0726C47.8504 47.026 48.1297 47.2123 48.1763 47.4452C48.4091 48.6561 48.5955 49.8671 48.8283 51.078C49.3871 54.1519 49.9459 57.2724 50.691 60.2998C50.8307 60.9518 50.9238 61.6039 51.0169 62.2559C51.1566 63.234 51.2963 64.1655 51.6223 65.0504C51.7154 65.2833 51.6223 65.5627 51.3429 65.6558C51.2963 65.749 51.2497 65.749 51.2031 65.749Z" fill="black"/>
<path d="M52.367 45.3494C52.0876 45.3494 51.9014 45.1631 51.9014 44.8836C51.9014 44.6042 52.0876 44.4179 52.367 44.4179C53.438 44.4179 54.5091 44.3247 55.5801 44.185C56.6511 44.0919 57.7686 43.9521 58.8396 43.9521C59.119 43.9521 59.3053 44.1384 59.3053 44.4179C59.3053 44.6973 59.119 44.8836 58.8396 44.8836C57.8152 44.8836 56.7442 44.9768 55.6732 45.1165C54.6022 45.2096 53.4846 45.3494 52.367 45.3494Z" fill="black"/>
<path d="M54.2297 50.938C53.9968 50.938 53.8106 50.7984 53.764 50.5655C53.7175 50.3326 53.9037 50.0531 54.1366 50.0065C55.7664 49.727 57.2099 49.4476 58.7 49.0284C58.9328 48.9353 59.2122 49.1215 59.2588 49.3544C59.3053 49.5873 59.1657 49.8668 58.9328 49.9134C57.3962 50.3326 55.9527 50.612 54.3229 50.8915C54.2763 50.9381 54.2762 50.938 54.2297 50.938Z" fill="black"/>
<path d="M54.2298 61.8831C53.9504 61.8831 53.7642 61.6968 53.7642 61.4173C53.7642 61.1379 53.9504 60.9516 54.2298 60.9516C55.2076 60.9516 56.1855 60.8584 57.1634 60.8119C58.1412 60.7187 59.1191 60.6256 60.1435 60.6256C60.4229 60.6256 60.7022 60.6255 60.9816 60.6721C61.8663 60.7187 62.5648 60.7652 63.1236 60.2995C63.3099 60.1598 63.6358 60.2064 63.7755 60.3927C63.9152 60.579 63.8686 60.905 63.6824 61.0447C62.8442 61.6968 61.913 61.6502 60.9351 61.6036C60.7023 61.6036 60.4229 61.5571 60.1435 61.5571C59.1657 61.5571 58.1878 61.6502 57.2565 61.6967C56.2786 61.7899 55.2542 61.8831 54.2298 61.8831Z" fill="black"/>
<path d="M54.7418 61.8832C54.2762 61.8832 54.2761 61.4641 54.2296 60.8586C54.2296 60.6723 54.183 60.4394 54.1364 60.2531C54.0899 60.0668 54.0433 59.8806 54.0433 59.6477C53.9037 58.297 53.7174 57.0861 53.5311 55.9217L53.4846 55.7354C53.1121 53.4998 52.693 51.2177 52.4136 49.0287C52.3671 48.6561 52.3205 48.1904 52.3205 47.7712C52.274 46.8397 52.2273 45.7685 51.9014 45.1164C51.8083 44.8835 51.8549 44.6041 52.0877 44.511C52.3205 44.3712 52.5999 44.4644 52.6931 44.6972C53.1121 45.5356 53.1587 46.6534 53.2518 47.7246C53.2984 48.1437 53.2983 48.563 53.3449 48.9356C53.6243 51.1246 54.0434 53.4067 54.4159 55.6422L54.4624 55.8751C54.6486 57.0395 54.7884 58.2504 54.9746 59.6011C55.1143 59.6942 55.254 59.834 55.254 60.0203V61.4175C55.2075 61.6038 55.0212 61.8832 54.7418 61.8832Z" fill="black"/>
<path d="M101.121 47.9575C98.6993 47.1657 96.0451 47.2123 93.5306 47.6315C87.9428 48.5164 82.7275 51.078 78.8161 54.7574C77.7451 55.7354 76.8138 56.8532 76.0688 58.0641C75.2772 59.4148 73.5543 62.6284 73.0421 64.0722C70.9932 70.3132 70.9932 72.0364 71.3657 76.0418C71.6916 73.4336 73.8802 70.0337 75.4634 67.8447C77.1863 65.4694 79.0023 63.001 81.61 61.4175C80.2596 63.4667 79.1886 64.4448 78.2107 66.2612C77.4191 67.7981 76.3482 69.894 75.6962 71.4775C74.6253 74.0857 74.2993 76.9267 74.1131 79.7212C74.4856 78.4171 75.6497 77.1596 76.4878 76.0418C77.2794 75.0637 78.2107 74.1788 79.142 73.2939C80.4458 72.083 81.7031 70.9186 83.0069 69.7077C81.7497 71.431 80.3528 73.1542 79.3283 74.7377C77.2795 77.9979 76.5344 79.9074 75.4168 84.984C77.9313 81.7238 80.7253 76.4144 85.1489 73.5733C81.3772 77.9047 80.213 81.2116 79.4214 85.543C81.61 81.9567 83.8451 79.4883 87.4306 77.0198C84.8695 81.4444 81.3772 86.1484 80.6322 91.0853C82.3551 88.4772 87.2444 84.1923 89.9451 82.4225C92.7856 80.6061 96.5573 79.302 96.7901 78.1842C97.023 77.113 94.4153 75.576 94.555 74.5048C95.2069 69.7542 94.229 64.8174 95.8122 60.2531C96.7435 57.5052 98.6061 55.0368 101.027 53.2204C102.145 52.382 103.542 51.404 103.356 50.0999C103.356 49.0287 102.192 48.3301 101.121 47.9575Z" fill="black"/>
<path d="M103.682 72.6418C103.495 72.735 103.356 72.7816 103.169 72.8747C104.566 75.902 115.09 75.6226 116.673 72.8747L103.682 72.6418Z" fill="black"/>
</svg>
