<svg width="178" height="191" viewBox="0 0 178 191" fill="none" xmlns="http://www.w3.org/2000/svg">
<path fill-rule="evenodd" clip-rule="evenodd" d="M89.0311 128.709C88.7437 128.601 68.7678 128.278 57.738 128.026C45.4148 127.739 12.4331 130.002 6.00201 145.922C-18.0696 205.466 37.0795 181.39 56.8398 173.843C77.2827 166.009 72.8636 173.304 80.6958 165.506C88.564 157.744 91.6179 159.865 96.8274 155.409C101.282 151.563 106.097 139.956 102.971 136.004C99.9172 132.051 92.8394 130.074 89.0311 128.709Z" class="sec-color-fill"/>
<path fill-rule="evenodd" clip-rule="evenodd" d="M104.229 116.599C104.337 116.419 107.893 101.901 109.905 93.9594C112.133 85.0475 125.282 77.3933 107.103 61.546C92.9115 49.1843 97.0073 49.6514 72.6842 51.2326C58.4567 52.1669 74.5165 97.4452 78.8637 104.453C83.211 111.46 81.1631 113.328 83.5343 117.856C85.5822 121.737 93.2348 127.163 96.6121 125.546C99.9893 123.929 102.612 119.114 104.229 116.599Z" class="sec-color-fill"/>
<path d="M160.491 190.733C157.33 190.733 154.204 190.194 151.438 189.655C140.408 187.499 129.45 184.301 118.851 181.174C115.294 180.132 111.953 178.946 110.157 176C109.654 175.209 109.438 174.347 109.258 173.592C108.899 172.155 108.684 171.651 107.821 171.544C105.378 171.256 103.007 170.609 100.743 169.675L100.42 169.531C99.8812 169.316 99.4142 169.1 98.9112 168.956C98.3004 168.813 97.6537 168.777 96.9711 168.741H96.5759C94.2765 168.633 92.013 168.238 89.8574 167.591C89.4622 167.735 88.528 168.094 87.3784 168.525C80.6958 171.076 63.0193 177.904 51.3069 180.779C42.0016 183.079 39.6303 182.719 34.7801 181.641C30.5765 180.707 28.4927 179.162 27.4868 178.443C26.0856 177.401 24.4688 175.389 23.7503 173.7C22.7802 171.436 22.6365 169.459 22.5646 167.124C22.4569 164.249 23.6066 161.554 24.7562 159.29C29.1754 150.45 37.1873 144.664 44.9117 139.022C46.6003 137.8 48.3249 136.543 50.0135 135.249C53.4625 132.626 57.2709 130.613 61.3307 129.248C61.3307 129.248 61.3666 129.248 61.4026 129.212V129.176C61.2589 127.271 61.5463 125.295 62.2648 123.462C62.3726 123.247 62.5523 123.067 62.8038 123.031C75.0551 120.659 87.4502 119.725 96.8633 119.15L116.013 118.036C119.067 117.856 122.48 117.641 125.57 118.97C125.713 119.042 125.821 119.114 125.893 119.258C129.665 125.079 135.09 129.751 141.198 132.41C142.599 133.021 144.108 133.56 145.545 134.099C146.372 134.387 147.234 134.71 148.06 135.033C157.222 138.555 164.767 143.945 169.976 150.629C175.868 158.248 178.599 167.627 177.413 176.287C176.91 180.096 175.653 183.151 173.749 185.415C171.342 188.218 167.569 190.014 163.15 190.481C162.18 190.661 161.318 190.733 160.491 190.733ZM107.965 170.142C109.869 170.358 110.264 171.903 110.624 173.268C110.803 173.951 110.983 174.67 111.342 175.281C112.887 177.76 115.941 178.838 119.246 179.809C129.809 182.899 140.731 186.133 151.689 188.254C155.102 188.9 159.054 189.583 162.899 189.188C166.958 188.757 170.407 187.139 172.563 184.624C174.288 182.612 175.401 179.773 175.904 176.251C177.018 167.95 174.431 159.002 168.755 151.671C163.725 145.203 156.36 139.957 147.486 136.507C146.659 136.183 145.797 135.896 145.007 135.572C143.533 135.033 142.024 134.494 140.587 133.848C134.3 131.081 128.695 126.301 124.779 120.336C122.049 119.222 118.851 119.402 116.049 119.581L96.8992 120.695C87.6299 121.234 75.4863 122.169 63.4505 124.469C62.9115 125.978 62.696 127.595 62.8038 129.176V129.212C62.8038 129.392 62.8397 129.715 62.66 130.003C62.4085 130.434 61.9774 130.578 61.7618 130.649C57.8098 131.979 54.1452 133.919 50.8398 136.435C49.1512 137.729 47.3907 138.986 45.7381 140.208C37.798 145.994 30.2891 151.456 26.0137 159.972C24.9718 162.057 23.894 164.536 24.0018 167.088C24.0736 169.28 24.1814 171.076 25.0796 173.125C25.6904 174.562 27.1275 176.395 28.349 177.257C29.2831 177.94 31.2232 179.342 35.1394 180.204C39.5944 181.21 41.6423 181.641 50.9835 179.342C62.5882 176.467 80.2287 169.675 86.8754 167.124C89.8214 166.01 89.8214 166.01 90.0729 166.081C92.2286 166.728 94.4202 167.124 96.6836 167.231H97.0789C97.7974 167.267 98.5519 167.303 99.3064 167.483C99.9171 167.627 100.492 167.878 101.067 168.13L101.39 168.274C103.438 169.244 105.666 169.855 107.965 170.142Z" fill="black"/>
<path d="M113.57 135.968C112.923 135.968 112.815 135.788 112.707 135.501C112.456 134.926 112.24 134.279 112.061 133.524C110.408 133.668 108.54 133.56 106.887 133.452C105.666 133.38 104.516 133.309 103.654 133.345L92.4082 133.955C92.3364 134.279 92.1927 134.566 91.7615 134.638C90.1448 134.818 87.6298 134.89 85.1867 134.926C82.7796 134.962 80.3006 135.033 78.7557 135.213C78.576 135.249 78.3605 135.177 78.2168 135.033C78.073 134.89 77.9653 134.71 77.9653 134.53C77.7497 130.721 77.5341 126.84 77.3545 123.067C76.8874 113.221 76.4204 103.015 74.9833 93.205C74.2647 88.0663 73.4743 82.7838 71.8575 77.7888C70.8516 74.6984 66.8276 72.1111 63.2708 69.8112C61.2948 68.5535 59.4625 67.3676 58.0972 66.1099C57.9535 65.9662 57.8457 65.7505 57.8457 65.5709C57.8457 65.3553 57.9535 65.1756 58.0972 65.0318C59.175 64.1335 62.5522 62.4445 65.2828 61.079C66.2887 60.5759 67.151 60.1447 67.6181 59.8931C71.9294 57.5214 75.9892 56.1559 79.7976 55.006C83.8574 52.9936 88.3484 51.8437 92.8753 51.664C93.3064 51.664 94.2765 51.5203 94.5639 51.4125C94.7435 51.3406 94.9591 51.3406 95.1387 51.4484C95.3184 51.5562 95.4621 51.6999 95.498 51.9155C95.8932 53.5326 97.0788 54.97 98.6597 55.8325C100.133 56.623 101.965 56.8746 103.833 56.5871C105.019 56.4074 106.348 55.7965 106.6 54.7185C106.672 54.431 106.672 54.1076 106.672 53.7483C106.672 53.2452 106.672 52.6702 106.851 52.1312C106.923 51.8796 107.139 51.7359 107.39 51.664L107.426 51.6281C107.534 51.5203 107.642 51.4484 107.785 51.4125C108.181 51.2687 108.36 51.1609 108.54 51.089C109.186 50.7656 109.438 50.7656 110.444 51.0531C112.707 51.6281 114.755 52.778 116.48 53.8201C118.851 54.3591 121.366 55.2216 123.27 56.1559L123.989 56.5152C127.653 58.2761 130.528 59.6416 133.617 63.2711C133.761 63.4507 133.833 63.6663 133.761 63.8819C132.791 67.9785 131.605 71.9314 130.456 75.7405C128.049 83.79 125.749 91.4082 125.605 99.9967C125.426 110.562 125.246 121.486 128.587 131.763C128.659 131.943 128.623 132.159 128.552 132.302C128.48 132.446 128.3 132.59 128.12 132.662C125.893 133.309 122.3 134.243 119.103 134.962C115.905 135.68 114.324 135.968 113.57 135.968ZM112.636 132.015C112.995 132.015 113.282 132.266 113.354 132.626C113.498 133.38 113.642 133.991 113.857 134.53C115.582 134.387 122.695 132.734 127.079 131.476C123.917 121.162 124.097 109.915 124.276 99.9608C124.42 91.1926 126.719 83.4666 129.198 75.3093C130.312 71.608 131.462 67.7989 132.396 63.8819C129.593 60.6837 126.899 59.3901 123.486 57.737L122.767 57.3777C120.935 56.4793 118.456 55.6528 116.156 55.1497C116.085 55.1497 116.013 55.1138 115.941 55.0778C114.252 54.0717 112.276 52.9577 110.157 52.3827C109.977 52.3468 109.546 52.203 109.438 52.239C109.438 52.239 109.33 52.2749 109.294 52.3108C109.115 52.4187 108.863 52.5264 108.432 52.7061C108.396 52.7061 108.396 52.7421 108.36 52.7421C108.324 52.778 108.252 52.8139 108.216 52.8499C108.181 53.1014 108.181 53.3889 108.181 53.6764C108.181 54.0716 108.181 54.5388 108.073 55.006C107.713 56.5153 106.24 57.6292 104.121 57.9526C101.965 58.312 99.8093 57.9886 98.0489 57.0543C96.3243 56.1559 94.995 54.6466 94.3483 52.9217C93.8094 53.0295 93.2346 53.0655 92.9471 53.0655C88.6358 53.2452 84.2885 54.3232 80.4083 56.2637C80.3724 56.2637 80.3365 56.2996 80.3006 56.2996C76.5641 57.4496 72.5402 58.7792 68.3366 61.115C67.8696 61.3665 66.9714 61.8336 65.9654 62.3367C64.0253 63.307 61.2229 64.7085 59.7858 65.6068C60.9714 66.5771 62.4804 67.5473 64.0971 68.5894C68.0492 71.1408 72.109 73.7641 73.2587 77.3217C74.9473 82.4245 75.7018 87.8147 76.4563 92.9894C77.8575 102.872 78.3605 113.077 78.8275 122.995C79.0072 126.517 79.1509 130.146 79.3664 133.704C80.9473 133.56 83.1029 133.524 85.1867 133.488C87.3065 133.452 89.4621 133.38 91.007 133.273C91.007 132.913 91.2945 132.59 91.6897 132.554L103.582 131.907C104.516 131.871 105.702 131.943 106.959 132.015C108.791 132.123 110.839 132.266 112.528 132.051C112.564 132.015 112.6 132.015 112.636 132.015Z" fill="black"/>
<path d="M94.169 97.5529C94.169 96.2233 94.0253 94.8937 93.7019 93.6C93.5223 92.8454 93.2708 92.0908 93.0912 91.3002C92.5522 88.8566 92.8037 86.3412 93.0912 83.8976C93.5942 83.4664 94.2768 83.3226 94.8876 83.4664C94.8157 80.4119 95.139 77.2856 96.5761 74.6264C96.8276 74.1592 97.151 73.692 97.6181 73.4764C98.1929 73.2249 98.9115 73.4046 99.4144 73.7999C99.9174 74.1951 100.277 74.7342 100.564 75.3092C102.935 79.6213 103.618 84.8319 102.396 89.5753C102.54 88.5691 102.864 87.3474 103.869 87.2036C105.127 91.9111 103.762 97.1935 100.42 100.715C100.277 100.859 100.133 101.003 99.9174 101.039C99.7019 101.075 99.4863 100.931 99.2707 100.823C97.5103 99.7809 95.8935 98.6668 94.169 97.5529Z" fill="white"/>
<path d="M99.8456 101.757C99.4503 101.757 99.127 101.578 98.9114 101.434C97.9055 100.823 96.9713 100.212 96.0372 99.6013C95.3187 99.1342 94.5642 98.6311 93.8097 98.1639C93.5941 98.0202 93.4864 97.8046 93.4864 97.553C93.4864 96.2953 93.3426 95.0375 93.0193 93.7798C92.9474 93.4564 92.8397 93.133 92.7678 92.8096C92.66 92.3784 92.5163 91.9472 92.4085 91.48C91.8696 88.9286 92.1211 86.3413 92.3726 83.8258C92.4085 83.6461 92.4804 83.4664 92.6241 83.3586C93.0552 82.9993 93.5941 82.7837 94.169 82.7118C94.169 79.2261 94.7438 76.531 95.9654 74.2671C96.2528 73.764 96.648 73.1172 97.3665 72.8297C98.1569 72.4703 99.127 72.65 99.8815 73.225C100.492 73.6921 100.923 74.3749 101.247 74.9499C103.187 78.4356 104.013 82.4962 103.69 86.485C103.726 86.485 103.798 86.4491 103.834 86.4491C104.193 86.3772 104.552 86.6288 104.624 86.9881C105.953 91.9112 104.552 97.4812 100.995 101.182C100.816 101.362 100.528 101.65 100.097 101.722C99.9533 101.757 99.8815 101.757 99.8456 101.757ZM94.8875 97.1577C95.5342 97.5889 96.1809 97.9842 96.8276 98.4155C97.7617 99.0264 98.6959 99.6372 99.6659 100.212C99.7018 100.248 99.7737 100.284 99.8096 100.284C99.8455 100.248 99.8815 100.212 99.9174 100.176C102.863 97.1218 104.193 92.6299 103.438 88.4255C103.402 88.4974 103.366 88.5693 103.366 88.6411C103.295 89.0005 103.223 89.3598 103.115 89.7192C103.007 90.0785 102.648 90.3301 102.289 90.2582C101.929 90.1863 101.678 89.827 101.714 89.4676C101.786 89.0005 101.858 88.6052 101.965 88.2818C102.756 84.0055 102.073 79.4417 99.9533 75.6326C99.7018 75.1654 99.4144 74.6623 98.9833 74.3749C98.6959 74.1593 98.2647 74.0155 97.9055 74.1593C97.618 74.303 97.3665 74.6624 97.1869 74.9858C96.0013 77.1778 95.4983 79.873 95.6061 83.4665C95.6061 83.6821 95.4983 83.8977 95.3546 84.0414C95.1749 84.1852 94.9594 84.2211 94.7438 84.1852C94.4205 84.1133 94.0612 84.1852 93.7738 84.3289C93.5582 86.6288 93.3426 88.9645 93.8097 91.1925C93.9175 91.5878 94.0253 92.019 94.133 92.4502C94.2408 92.7737 94.3127 93.133 94.4205 93.4564C94.672 94.6782 94.8516 95.9359 94.8875 97.1577Z" fill="black"/>
<path d="M113.031 100.931C112.744 100.464 112.851 99.8889 112.995 99.3858C114.145 94.9299 116.049 90.6176 116.588 86.0538C116.013 85.7304 115.294 85.6585 114.648 85.8382C113.426 82.1369 113.103 76.8903 110.157 74.3389C109.69 73.9436 108.576 73.3328 107.426 73.3328C105.774 73.3328 104.193 75.8123 104.3 77.4653C104.588 81.0948 104.372 84.6164 104.839 88.2099C104.624 87.6709 104.121 87.2756 103.582 87.1319C103.402 89.5755 103.187 92.055 103.438 94.5346C103.69 96.9782 104.372 99.4577 105.774 101.47C106.205 102.081 106.744 102.656 107.426 102.8C107.857 102.907 108.288 102.836 108.72 102.8C110.552 102.548 112.169 102.476 113.031 100.931Z" fill="white"/>
<path d="M108.001 103.59C107.785 103.59 107.534 103.554 107.318 103.518C106.312 103.267 105.666 102.476 105.235 101.901C103.869 99.9606 103.043 97.517 102.756 94.6063C102.504 92.1267 102.72 89.6472 102.899 87.2036V87.0958C102.899 86.8802 103.007 86.7005 103.187 86.5568C103.366 86.449 103.582 86.3771 103.797 86.449C103.869 86.449 103.905 86.4849 103.977 86.5209C103.869 84.9756 103.833 83.4305 103.797 81.9571C103.762 80.5197 103.726 79.0104 103.618 77.5371C103.51 76.3512 104.121 74.8779 105.055 73.8357C105.774 73.0452 106.6 72.6499 107.426 72.6499C108.791 72.6499 110.085 73.3686 110.624 73.8357C112.923 75.8122 113.678 79.1182 114.432 82.2805C114.648 83.2507 114.863 84.1851 115.151 85.0475C115.761 85.0116 116.372 85.1553 116.947 85.4428C117.199 85.5865 117.342 85.874 117.306 86.1615C116.947 89.1801 116.013 92.0549 115.115 94.8578C114.612 96.403 114.109 97.9842 113.714 99.5653C113.606 99.9247 113.534 100.356 113.678 100.571C113.821 100.787 113.821 101.075 113.678 101.29C112.708 103.015 110.983 103.231 109.33 103.446L108.899 103.518C108.612 103.554 108.324 103.59 108.001 103.59ZM104.229 88.5332C104.085 90.5097 103.977 92.522 104.193 94.4625C104.444 97.1217 105.199 99.3138 106.42 101.039C106.887 101.686 107.282 102.009 107.678 102.117C107.965 102.189 108.36 102.153 108.72 102.081L109.187 102.009C110.696 101.829 111.666 101.65 112.276 100.859C112.097 100.212 112.276 99.5653 112.348 99.206C112.779 97.5889 113.282 95.9718 113.785 94.3907C114.612 91.8393 115.474 89.1801 115.833 86.4849C115.51 86.4131 115.187 86.4131 114.863 86.4849C114.504 86.5927 114.109 86.3771 114.001 86.0178C113.642 84.9397 113.354 83.7898 113.067 82.5321C112.384 79.5854 111.666 76.5309 109.726 74.8419C109.402 74.5545 108.432 74.0154 107.462 74.0154C107.067 74.0154 106.6 74.267 106.133 74.7701C105.45 75.5247 104.983 76.6028 105.055 77.3933C105.163 78.9026 105.199 80.4119 105.235 81.8852C105.271 83.9335 105.342 86.0537 105.594 88.102C105.63 88.4614 105.414 88.7848 105.091 88.8926C104.732 89.0363 104.372 88.8566 104.229 88.5332Z" fill="black"/>
<path d="M108.324 53.4607C108.504 52.4186 108.396 50.8375 108.432 49.7953C108.54 45.9144 109.546 44.5488 109.582 42.8599C106.708 43.5067 101.067 45.6269 98.1568 45.1597C96.7916 44.9441 95.4263 44.6925 94.061 44.4769C94.564 46.13 95.4263 48.0705 95.4981 51.8077C95.4981 52.1311 95.4263 56.4433 99.9532 57.8088C102.288 58.4916 104.732 57.198 106.672 55.7246C107.426 55.1137 108.217 54.4309 108.324 53.4607Z" fill="white"/>
<path d="M101.282 58.7072C100.743 58.7072 100.24 58.6354 99.7375 58.4916C95.2106 57.1261 94.8153 53.0654 94.7794 51.8795C94.7435 48.825 94.1327 46.9924 93.6297 45.5549C93.522 45.2675 93.4501 44.98 93.3423 44.7284C93.2705 44.4769 93.3064 44.2254 93.486 44.0457C93.6657 43.866 93.8812 43.7582 94.1327 43.7941C95.498 44.0097 96.8632 44.2613 98.2285 44.4769C100.205 44.8003 103.725 43.7941 106.564 42.9676C107.606 42.6442 108.612 42.3567 109.402 42.177C109.618 42.1411 109.833 42.177 110.013 42.3208C110.192 42.4645 110.264 42.6801 110.264 42.8957C110.228 43.6504 110.049 44.3331 109.833 45.0878C109.546 46.2018 109.151 47.5673 109.079 49.8312C109.079 50.1187 109.079 50.4781 109.079 50.8734C109.079 51.7718 109.079 52.8139 108.971 53.6044C108.791 54.7903 107.893 55.6168 107.031 56.2996C104.983 57.8807 103.043 58.7072 101.282 58.7072ZM95.1028 45.3753C95.6058 46.8486 96.1447 48.7532 96.2165 51.7718V51.8077C96.2165 53.0295 96.6477 56.048 100.133 57.0901C101.821 57.5932 103.833 56.9105 106.204 55.1137C106.887 54.6106 107.498 54.0356 107.606 53.3529C107.713 52.706 107.713 51.6999 107.713 50.8374C107.713 50.4421 107.713 50.0828 107.713 49.7594C107.785 47.3158 108.18 45.8424 108.504 44.6925C108.576 44.3691 108.683 44.0816 108.719 43.83C108.18 43.9738 107.606 44.1535 106.959 44.3331C103.977 45.1956 100.312 46.2737 98.0129 45.8784C97.0788 45.6987 96.1088 45.5549 95.1028 45.3753Z" fill="black"/>
<path d="M103.474 49.6157C107.138 49.0767 110.336 46.669 112.599 43.7224C114.863 40.7757 116.3 37.29 117.629 33.8402C119.893 27.9109 121.977 21.6941 121.402 15.3695C121.222 13.3571 120.755 11.3448 119.749 9.61986C118.312 7.14033 116.372 4.1577 113.605 3.36713C110.12 2.36095 106.456 1.71413 102.863 2.03755C99.2343 2.36096 95.6415 3.69056 93.0188 6.20602C90.0008 9.0449 88.4919 13.1056 87.0907 17.0225C85.7973 20.5801 87.0189 24.4611 87.917 28.1624C89.5338 34.9542 91.6176 42.3927 95.0307 45.591C97.4738 47.8549 100.132 50.1188 103.474 49.6157Z" fill="white"/>
<path d="M102.504 50.4061C99.4504 50.4061 96.9714 48.3578 94.5283 46.0939C91.0792 42.8597 88.9595 35.6367 87.199 28.3059C87.0912 27.9107 87.0194 27.5154 86.9116 27.1201C86.0493 23.7062 85.187 20.1487 86.4086 16.7708C87.7738 12.9976 89.3187 8.68533 92.5163 5.66678C95.1031 3.22318 98.7318 1.67798 102.792 1.31863C106.097 1.03115 109.69 1.46235 113.821 2.64821C116.732 3.51066 118.78 6.45736 120.36 9.22437C121.294 10.8774 121.869 12.8538 122.121 15.2615C122.732 21.8735 120.468 28.4497 118.312 34.0556C116.983 37.4694 115.51 41.0989 113.175 44.1174C110.516 47.5672 107.139 49.7592 103.582 50.2983C103.223 50.3701 102.864 50.4061 102.504 50.4061ZM104.804 2.64821C104.157 2.64821 103.51 2.68417 102.899 2.72011C99.163 3.04352 95.8217 4.445 93.4864 6.67298C90.5403 9.47592 89.0313 13.5725 87.7379 17.202C86.6601 20.1846 87.4864 23.5266 88.2768 26.7248C88.3846 27.1201 88.4924 27.5154 88.5643 27.9107C90.2888 35.0258 92.3007 41.9973 95.4983 44.9799C98.0492 47.3516 100.42 49.2921 103.331 48.8609C106.492 48.3937 109.582 46.3814 111.989 43.2191C114.217 40.3442 115.654 36.8226 116.911 33.5166C119.031 28.0544 121.223 21.6939 120.648 15.3693C120.432 13.1413 119.929 11.3446 119.103 9.90715C117.63 7.39168 115.833 4.69654 113.39 3.97784C110.265 3.1154 107.426 2.64821 104.804 2.64821Z" fill="black"/>
<path d="M92.7312 19.1066C95.4617 17.8848 97.4378 15.4771 99.3419 13.1413C101.498 10.4821 101.749 7.14011 101.785 3.72627C101.785 2.46853 104.983 0.671773 102.288 0.851449C101.498 0.887384 97.5096 0.528049 94.815 1.4983C91.0426 2.8279 89.6055 4.33718 86.8391 7.24793C83.5337 10.7336 82.7792 15.7646 82.5996 20.5799C82.5996 21.1549 82.5996 21.8017 83.0307 22.2329C83.7852 23.0235 91.6893 19.5378 92.7312 19.1066Z" fill="black"/>
<path d="M123.557 20.8315C121.473 20.7237 119.354 20.6518 117.27 20.58C115.006 20.4722 111.162 19.8253 107.21 16.6271C105.45 15.1897 97.797 8.82909 96.9707 3.87001C96.8629 3.18724 96.827 2.39666 97.294 1.89356C97.5455 1.60608 97.9408 1.46234 98.336 1.35453C101.102 0.563955 104.013 0.671744 106.887 0.887356C111.881 1.24671 117.306 2.18106 120.539 5.99021C123.665 9.72749 123.629 15.9083 123.557 20.8315Z" fill="black"/>
<path d="M101.821 20.6158C101.103 20.4361 100.312 20.6876 99.8095 21.1907C99.3065 21.7297 99.0909 22.5204 99.2706 23.2031C99.3424 23.4547 99.4502 23.6703 99.5939 23.8499C99.8454 24.1734 100.241 24.353 100.672 24.4249C101.354 24.5327 102.073 24.2812 102.576 23.7781C103.043 23.275 103.259 22.5203 103.079 21.8376C102.971 21.4423 102.756 21.1189 102.432 20.8673C102.253 20.7595 102.037 20.6517 101.821 20.6158Z" fill="black"/>
<path d="M100.995 101.182C98.3361 106.645 95.6056 112.071 92.7313 117.425C90.6116 121.414 88.3841 125.403 85.438 128.816C83.0308 131.619 80.0488 134.063 76.492 135.069C74.3363 135.68 72.0369 135.788 69.8094 135.716C66.7196 135.608 63.5221 135.249 60.8275 133.632C58.5281 132.23 56.8036 130.038 55.2946 127.81C47.9294 116.994 43.7618 103.949 44.2288 90.8689C44.3726 87.1317 44.8755 83.3225 46.3845 79.8728C49.7977 72.1467 56.1928 63.2707 64.5999 62.8754C66.1089 62.8035 68.7316 64.8159 71.6777 68.0142C72.8274 69.2359 73.007 71.1046 73.2944 72.7576C73.6896 75.0215 73.977 77.3573 73.3663 79.5493C73.3303 79.729 72.9711 79.8009 73.0788 79.6572C67.51 84.6162 65.7137 93.636 68.3364 100.643C68.6238 101.398 68.9472 102.117 69.3783 102.835C70.7435 105.135 73.0429 106.896 75.6297 107.615C78.2165 108.333 81.0907 108.046 83.462 106.788C85.0069 105.962 86.3362 104.776 87.5937 103.554C89.7134 101.47 91.6535 99.2059 93.414 96.7982C94.1685 96.7982 99.9169 100.787 100.995 101.182Z" fill="white"/>
<path d="M71.0318 136.507C70.6007 136.507 70.1695 136.507 69.7743 136.471C67.0079 136.399 63.4151 136.075 60.469 134.279C57.99 132.769 56.1577 130.398 54.7206 128.242C47.068 116.994 43.08 103.734 43.5111 90.869C43.6548 86.2693 44.3734 82.7117 45.7386 79.6213C47.4991 75.6684 54.038 62.6599 64.6007 62.1927C66.2893 62.1209 68.8402 63.9176 72.2174 67.5471C73.3671 68.8048 73.6545 70.5297 73.906 72.0749C73.9419 72.2905 73.9779 72.4702 74.0138 72.6858C74.3731 74.8778 74.7324 77.3933 74.0497 79.801C73.9419 80.1963 73.5827 80.4478 73.2593 80.4837C68.2654 85.1553 66.433 93.636 68.9839 100.428C69.2713 101.218 69.5947 101.865 69.954 102.476C71.2474 104.632 73.3671 106.249 75.7743 106.932C78.1814 107.615 80.8401 107.327 83.0676 106.141C84.5766 105.351 85.87 104.165 87.0197 103.015C89.0675 100.967 91.0076 98.7388 92.7681 96.3671C92.9118 96.1874 93.0914 96.0796 93.307 96.0796C93.9537 96.0437 95.0675 96.6905 98.4087 98.7747C99.5944 99.4934 100.924 100.356 101.283 100.5C101.463 100.571 101.606 100.715 101.714 100.895C101.786 101.075 101.786 101.29 101.678 101.47C99.0555 106.86 96.289 112.358 93.3789 117.749C91.1873 121.845 88.9597 125.798 85.9777 129.284C83.0676 132.626 79.9419 134.818 76.6725 135.788C74.7683 136.363 72.7563 136.507 71.0318 136.507ZM64.6726 63.6661H64.6367C54.9002 64.1332 48.7206 76.459 47.032 80.2322C45.7386 83.1429 45.0919 86.5568 44.9123 90.9409C44.4812 103.482 48.3614 116.455 55.8703 127.451C57.3074 129.571 58.9241 131.691 61.1876 133.057C63.8462 134.674 67.1875 134.961 69.8103 135.033C71.7863 135.105 74.0857 135.069 76.2772 134.422C79.2952 133.56 82.1694 131.512 84.8999 128.385C87.8101 125.043 89.9657 121.126 92.1214 117.138C94.8878 111.963 97.5465 106.716 100.061 101.542C99.4866 101.218 98.6962 100.715 97.6183 100.068C96.3968 99.3137 94.4567 98.092 93.5944 97.6967C91.8699 99.9965 90.0017 102.153 87.9897 104.129C86.8041 105.279 85.4029 106.609 83.7143 107.507C81.1634 108.837 78.1455 109.16 75.3791 108.405C72.6126 107.615 70.1695 105.782 68.7324 103.303C68.3372 102.62 67.9779 101.865 67.6546 101.003C64.8522 93.6001 66.972 84.221 72.6126 79.262C72.6845 79.226 72.7204 79.1901 72.7923 79.1541C73.2593 77.1418 72.936 74.9497 72.6126 73.0452C72.5767 72.8295 72.5408 72.6499 72.5048 72.4343C72.2893 71.0328 72.0378 69.5954 71.1755 68.6611C66.972 64.0614 65.1756 63.6661 64.6726 63.6661Z" fill="black"/>
<path d="M120.539 76.7825C119.965 74.6623 120.18 72.3624 120.755 70.2063C121.653 66.7565 123.45 62.9115 126.647 61.3663C127.222 61.0788 128.659 60.2163 130.563 61.0788C134.192 62.7677 136.312 64.5645 139.366 67.1518C147.27 73.7998 153.377 82.7477 156.144 92.7017C158.91 102.656 158.228 113.688 153.665 122.959C150.755 128.888 146.084 134.243 139.904 136.435C137.497 137.297 134.946 137.657 132.36 137.764C125.821 138.052 118.815 136.543 114.144 131.979C112.959 130.829 111.989 129.535 111.09 128.134C106.456 120.803 107.354 111.136 106.563 102.512C108.432 101.937 110.623 100.931 113.066 100.356C113.533 100.248 116.408 105.818 117.234 107.327C118.06 108.837 119.138 110.31 120.647 111.136C122.048 111.891 123.701 111.999 125.282 111.927C126.719 111.855 128.228 111.675 129.521 110.993C131.533 109.951 132.863 107.902 133.653 105.782C135.198 101.614 135.054 96.8702 133.366 92.7377C131.677 88.6051 127.976 85.91 124.743 82.8555C123.378 81.6337 121.438 80.1604 120.539 76.7825Z" fill="white"/>
<path d="M130.815 138.555C126.108 138.555 118.851 137.621 113.641 132.518C112.527 131.404 111.449 130.074 110.479 128.565C106.815 122.78 106.491 115.628 106.204 108.729C106.132 106.717 106.024 104.596 105.845 102.62C105.809 102.297 106.024 101.973 106.348 101.865C107.03 101.65 107.785 101.362 108.539 101.075C109.833 100.608 111.306 100.033 112.887 99.6732C113.605 99.4936 113.928 99.7092 117.198 105.782C117.449 106.285 117.701 106.717 117.845 107.004C118.815 108.801 119.821 109.915 120.97 110.526C122.336 111.244 123.988 111.28 125.246 111.244C126.395 111.208 127.904 111.065 129.198 110.418C131.21 109.376 132.359 107.22 132.97 105.603C134.443 101.686 134.335 97.1218 132.719 93.0612C131.425 89.863 128.838 87.5631 126.108 85.1195C125.497 84.5805 124.886 84.0055 124.276 83.4665C124.132 83.3587 124.024 83.215 123.88 83.1072C122.551 81.8854 120.755 80.2683 119.857 76.9982C119.318 74.9858 119.389 72.65 120.072 70.0627C120.934 66.7567 122.731 62.4804 126.359 60.7555L126.503 60.6837C127.186 60.3243 128.838 59.4978 130.886 60.468C134.479 62.1211 136.563 63.8819 139.473 66.3255L139.868 66.6489C148.132 73.6203 154.168 82.8197 156.898 92.5581C159.772 102.943 158.874 114.155 154.383 123.319C151.006 130.182 145.976 135.105 140.192 137.154C137.964 137.944 135.449 138.411 132.467 138.519C131.892 138.555 131.353 138.555 130.815 138.555ZM107.318 103.051C107.461 104.884 107.533 106.788 107.641 108.657C107.929 115.377 108.216 122.312 111.701 127.81C112.599 129.248 113.605 130.506 114.647 131.512C120.072 136.83 128.048 137.297 132.323 137.118C135.162 136.974 137.569 136.579 139.653 135.824C145.078 133.883 149.82 129.212 153.018 122.708C157.365 113.868 158.263 103.015 155.461 92.9534C152.838 83.5025 146.946 74.5546 138.898 67.7629L138.503 67.4395C135.701 65.0678 133.653 63.3428 130.24 61.7617C128.803 61.1149 127.689 61.6539 127.114 61.9773L126.97 62.0492C123.845 63.5585 122.264 67.4394 121.437 70.4221C120.827 72.7578 120.755 74.8421 121.222 76.6029C121.976 79.4418 123.557 80.8792 124.815 82.0291C124.958 82.1729 125.102 82.2807 125.246 82.4244C125.856 82.9634 126.467 83.5384 127.078 84.0774C129.809 86.521 132.647 89.0365 134.084 92.5581C135.844 96.9063 135.952 101.865 134.371 106.142C133.689 108.01 132.323 110.49 129.916 111.747C128.371 112.538 126.683 112.682 125.389 112.754C123.916 112.826 122.048 112.754 120.36 111.855C118.491 110.849 117.342 109.052 116.659 107.759C116.515 107.471 116.264 107.04 116.012 106.537C115.258 105.171 113.605 102.081 112.958 101.218C111.593 101.578 110.336 102.045 109.114 102.476C108.467 102.656 107.893 102.871 107.318 103.051Z" fill="black"/>
<path d="M88.2047 29.1326C88.2766 32.2949 89.8933 35.9244 93.4861 36.14C97.1148 36.3556 99.3064 33.1214 99.8453 29.9231C100.133 28.4138 97.7974 27.767 97.5459 29.2763C97.1866 31.3246 96.1807 33.7323 93.7735 33.7682C91.4382 33.8041 90.6119 30.9653 90.5759 29.1326C90.54 27.5873 88.1328 27.5873 88.2047 29.1326Z" fill="black"/>
<path d="M106.384 29.1685C107.354 32.7261 108.253 36.5711 112.744 36.4633C116.588 36.3915 118.851 32.8339 118.995 29.3123C119.067 27.7671 116.66 27.7671 116.588 29.3123C116.48 31.8277 115.043 34.0198 112.348 34.0916C109.51 34.1276 109.259 30.57 108.684 28.5217C108.289 27.0484 105.953 27.6593 106.384 29.1685Z" fill="black"/>
<path d="M41.8217 165.758C41.2109 165.758 40.5642 165.758 39.9534 165.758C39.5582 165.758 39.2349 165.435 39.2349 165.039C39.2349 164.644 39.5582 164.356 39.9534 164.321C72.2166 164.896 93.881 151.707 103.402 139.202C103.653 138.878 104.084 138.842 104.408 139.058C104.731 139.31 104.767 139.741 104.552 140.064C98.7672 147.647 90.0008 154.079 79.1865 158.643C68.0849 163.314 55.1868 165.758 41.8217 165.758Z" fill="black"/>
<path d="M162.719 174.167C153.521 174.167 143.533 171.4 133.689 166.117C122.552 160.152 112.097 151.132 103.438 140.064C103.186 139.741 103.258 139.31 103.546 139.058C103.869 138.807 104.3 138.878 104.552 139.166C124.42 164.608 148.312 173.125 164.012 172.693C164.407 172.657 164.731 172.981 164.767 173.376C164.767 173.771 164.479 174.095 164.084 174.131C163.617 174.167 163.186 174.167 162.719 174.167Z" fill="black"/>
<path d="M113.749 164.859C113.749 164.859 91.0428 152.821 90.0728 152.39C88.6357 151.743 85.0429 155.912 86.8033 157.421C87.6297 158.14 100.168 170.968 101.929 172.442C103.689 173.879 110.48 176.646 110.48 176.646L113.749 164.859Z" fill="white"/>
<path d="M110.48 177.365C110.372 177.365 110.3 177.365 110.228 177.329C109.941 177.221 103.294 174.526 101.462 173.017C100.348 172.083 95.0669 166.8 90.8634 162.524C88.5999 160.224 86.6239 158.247 86.3365 157.996C85.3664 157.133 85.3664 155.696 86.4083 154.079C87.4143 152.534 89.1388 151.204 90.3963 151.743C91.3664 152.174 113.21 163.746 114.109 164.213C114.396 164.356 114.54 164.716 114.468 165.039L111.198 176.826C111.127 177.006 111.019 177.185 110.839 177.293C110.695 177.329 110.588 177.365 110.48 177.365ZM89.7137 153.037C89.3903 153.037 88.3484 153.648 87.5939 154.87C87.1269 155.588 86.8395 156.487 87.3065 156.882C87.6299 157.169 89.1748 158.715 91.9053 161.482C95.8932 165.506 101.318 170.969 102.396 171.867C103.618 172.873 107.785 174.706 110.013 175.64L112.923 165.183C106.276 161.661 90.54 153.36 89.7855 153.037C89.7855 153.073 89.7496 153.037 89.7137 153.037Z" fill="black"/>
</svg>
