<svg version="1.2" xmlns="http://www.w3.org/2000/svg" viewBox="0 0 271 258" width="271" height="258">
	<title>diagram11</title>
	<defs>
		<clipPath clipPathUnits="userSpaceOnUse" id="cp1">
			<path d="m42.04 48.8h191.92v162.4h-191.92z"/>
		</clipPath>
	</defs>
	<style>
		.s0 { fill: #d0e1d4 } 
		.s1 { fill: #fd9414 } 
		.s2 { fill: #80003e } 
		.s3 { fill: #f2f6d0 } 
		.s4 { fill: #ffffff } 
		.s5 { fill: #e4e4e4 } 
		.s6 { fill: #16052f } 
	</style>
	<g id="Clip-Path" clip-path="url(#cp1)">
		<g>
			<path class="s0" d="m144.5 77c14.6 28.9-9.4 61.6-32.8 73.5-23.4 11.8-51.9 2.4-63.7-21-11.9-23.4-2.5-51.9 20.9-63.7 23.4-11.8 61-17.7 75.6 11.2z"/>
			<path class="s1" d="m228.9 87c14.6 28.9-9.4 61.7-32.8 73.5-23.4 11.8-51.9 2.4-63.7-21-11.8-23.4-2.4-51.9 20.9-63.7 23.4-11.8 61-17.7 75.6 11.2z"/>
			<path class="s2" d="m146 80.4c7.9 19.8-1.3 40.9-15.2 55.6-8.2-20-1.7-42.8 15.2-55.6z"/>
			<path class="s3" d="m168.3 131.9c14.6 28.9-9.4 61.6-32.8 73.4-23.4 11.8-51.9 2.5-63.8-20.9-11.8-23.4-2.4-51.9 21-63.8 23.4-11.8 61-17.6 75.6 11.3z"/>
			<path class="s4" d="m127.8 111c16.4-0.8 32.2 4.4 40.5 20.9 5.5 11 5.5 22.7 2 33.5-15.7-1.5-30.3-10.8-37.9-25.9-4.6-9.1-6-19.1-4.6-28.5z"/>
			<path class="s4" d="m145.6 112.9c-6.2 16.4-20.2 30.6-33.9 37.6-14.2 7.1-30.2 6.5-43.3-0.3 3.5-12.4 11.9-23.3 24.3-29.6 15.1-7.6 36-12.7 52.9-7.7z"/>
			<path class="s5" d="m130.8 136c6.3-6.6 11.6-14.6 14.8-23.1-5.6-1.6-11.6-2.2-17.8-1.9-1.2 8.2-0.3 16.8 3 25z"/>
			<path class="s6" d="m99 172.6q-0.1 0.1-0.2 0.1-1.4 0.5-2 0.5 0 0-0.1-0.1-0.1 0-0.1 0 0 0-0.2 0.1-0.1 0-0.1 0-0.3 0-1.1 0.1-0.2 0-0.2 0 0 0-0.1 0-0.1 0-0.1 0 0 0-0.1 0-0.1 0-0.1 0-0.1 0.1-0.4 0.1-0.3 0-0.8-0.1-0.2-0.1-0.8-0.2-0.2 0-0.2-0.2 0 0 0 0-0.3-0.1-0.5-0.3-0.6-0.4-1-1 0-0.1 0-0.3 0-0.2 0-0.2-0.1 0-0.1 0 0-0.3 0.3-0.8 0.1-0.2 0.6-0.7 0.6-0.6 1.2-0.9 1.7-0.8 2.7-1 0.1 0 0.3-0.1l1.3-0.1q0 0 0.2-0.1 0.2-0.1 0.2-0.1 0.2 0 0.4 0.2 0.2 0.1 0.2 0.3 0 0.1-0.1 0.2-0.1 0.1-0.3 0.2-0.3 0-0.9 0.1-0.2 0-0.4 0.1-0.4 0.1-1.1 0.3-0.8 0.2-2.4 1-0.2 0.2-0.5 0.3-0.4 0.3-0.7 0.8 0 0.1 0 0.5 0 0.4 0.5 0.7 0.4 0.3 0.8 0.4 0.1 0 0.4 0 0.2 0.1 0.2 0.1h0.3q0.2 0 0.3 0 0 0 0.2 0h0.3 0.3q0.4-0.1 0.5-0.1l3.2-0.2q0 0 0 0 0.2 0 0.2 0.1 0 0.1 0 0.3zm4.9-0.9q0 0.5-0.3 0.8-0.2 0.2-0.9 0.6-0.5 0.2-1 0.4-0.2 0-0.4 0-0.5 0-1.1-0.3-0.7-0.3-0.8-0.8 0-0.1-0.1-0.2 0-0.2 0-0.2 0-0.1 0.1-0.4 0.1-0.3 0.1-0.4 0.1-0.1 0.4-0.3l0.4-0.1q0.4-0.3 0.9-0.5h0.3q0.1 0 0.2-0.1 0 0 0.2 0 0.3 0 0.3 0 1.2 0 1.5 1 0.2 0.4 0.2 0.5zm-0.8-0.2q0-0.5-0.8-0.5-0.5 0-1.2 0.2-0.1 0-0.2 0.1-0.1 0-0.2 0.1-0.6 0.5-0.6 0.6 0 0.3 0.4 0.5 0.4 0.2 0.7 0.2 0.4 0 1.1-0.4 0.8-0.4 0.8-0.8zm8.7 2.2q0 0-0.1 0-0.2 0-0.2 0-0.1 0-0.3-0.2 0 0 0 0 0-0.1-0.1-0.1-0.2-0.4-0.2-1.5 0-0.1-0.1-0.1-0.5 0-1.2 0.6l-1.2 0.9q-0.2 0.1-0.4 0.1-0.5 0-0.5-0.3 0-0.1 0-0.1 0-0.1 0-0.5 0-0.4 0-0.7 0-0.4 0-0.6 0-0.1-0.1-0.1-0.2 0-0.7 0.4-0.2 0.1-0.6 0.5-0.2 0.1-0.6 0.5-0.5 0.5-0.7 0.5-0.2 0-0.3-0.2-0.2-0.2-0.2-0.2 0-0.3 0.1-0.9 0.2-0.8 0.4-0.8 0.3 0 0.4 0.2l0.2 0.4q0.3-0.3 0.8-0.7 0.9-0.5 1.2-0.5 0.3 0 0.6 0.3 0.3 0.3 0.3 0.4 0.1 0.5 0.1 0.9 0 0.1 0 0.1 0 0.1 0.1 0.1 0.1 0 0.4-0.3 0.1-0.1 1.2-0.7 0.5-0.2 1-0.2 0 0 0.1 0 0 0.1 0.2 0.2 0.2 0.2 0.4 0.6 0 0.1 0 0.4 0 0.2 0 0.6 0 0 0 0.1 0 0.2 0 0.4 0 0.4 0 0.5zm5.9-1.6q0 0.4-0.6 0.9-0.5 0.5-1 0.6-0.2 0.1-0.3 0.1 0 0 0 0 0 0-0.1 0 0 0-0.5 0.1-0.4 0.1-0.5 0.1 0 0-0.1 0-0.1 0-0.1 0-0.2 0-0.4-0.2 0 0-0.1 0.1 0 0-0.2 1.3 0 0.1 0 0.9-0.1 0.6-0.2 0.9-0.1 0-0.1 0 0 0-0.1 0 0 0-0.1 0-0.2 0-0.4-0.3v-0.8q0 0 0-0.1 0-0.1 0-0.2 0-0.4 0.1-1 0-0.1 0.1-0.3 0-0.6 0.3-1.9 0.2-0.3 0.3-0.3 0.2 0 0.4 0.2 0.1 0.2 0.1 0.4 0 0.3-0.1 0.8 0 0.1 0 0.1 0.2 0 1.3-0.5 0.5-0.2 0.9-0.4 0.3-0.3 0.6-0.6 0.1 0 0.1-0.1 0-0.1-0.2-0.3-0.1-0.2-0.2-0.2-0.3-0.2-0.8-0.2-0.6 0-1.3 0.2-0.7 0.2-0.8 0.3-0.5 0.2-0.5 0.5 0 0 0.1 0-0.1 0.2-0.2 0.4 0 0-0.2 0.1-0.3-0.3-0.3-0.6v-0.1q0 0 0-0.1 0 0 0-0.1 0.2-0.4 1.1-0.9 0.8-0.4 1.4-0.4 0 0 0.1 0 0.1-0.1 0.4-0.1 0.8 0 1.3 0.3 0.2 0.1 0.6 0.6 0.2 0.3 0.2 0.8zm4-0.9q0 0.1 0 0.3 0 0.1 0 0.2 0 0.4-0.1 0.5-0.3 0-1 0.1l-0.7 0.1q0 0 0 0 0 0-0.3 0.1-0.1-0.1-0.3-0.1 0 0.1 0 0.1 0 0.1 0.8 0.3 0.2 0 0.5 0.1 0.5 0 0.5 0.2 0 0.1-0.3 0.2 0 0-0.1 0.2-0.3 0-0.3 0 0 0 0 0 0 0-0.4 0h-0.4q-0.2 0-0.4-0.2-0.1 0-0.4-0.2-0.3-0.1-0.6-0.4-0.3-0.3-0.3-0.6 0-0.3 0.1-0.5 0.6-1.1 2.4-1.1 0.6 0 0.9 0.2 0.2 0.2 0.4 0.5zm-0.8 0.4q-0.1-0.2-0.1-0.3 0-0.1-0.2-0.2-0.4 0.1-1 0.2-0.1 0-0.3 0.1-0.2 0.1-0.2 0.2 0 0.1 0 0.1h1.3q0.4 0 0.5-0.1zm5.9-1.1q0 0.1-0.1 0.2-0.1 0.1-0.4 0.1-0.3 0.1-0.4 0.1-0.3 0.1-0.3 0.1-0.3 0-1 0.1-0.2 0-0.2 0.1-0.1 0.2-0.2 0.7 0 0.4-0.1 1.3-0.2 0.2-0.2 0.2-0.4 0-0.5-0.1-0.1-0.1-0.1-0.3 0-0.3 0.2-1.8-0.1-0.1-0.2-0.1 0 0 0 0-0.1 0-0.2 0 0 0 0 0-0.4 0-0.8-0.1-0.5 0-0.5-0.4 0-0.2 0.1-0.3 0.1-0.1 0.2-0.1 0.1 0 0.3 0 0.2 0 0.2 0 0 0 0.2 0 0.1 0 0.2 0 0 0 0.1 0 0 0.1 0 0.1 0.1 0 0.3 0 0.2-0.1 0.2-0.1 0.2 0 0.2-0.2 0.1-0.1 0.2-0.5l0.2-0.7q0.1-0.2 0.1-0.4 0.1-0.2 0.2-0.4 0.5-1 0.8-1 0.1 0 0.4 0.5 0 0.1-0.2 0.3 0 0.1-0.2 0.3-0.1 0.4-0.4 1.2-0.1 0.3-0.2 0.9 0.3 0 0.4 0h0.2q0.3 0 0.4 0 0.3 0 0.5 0l0.2 0.1q0.4 0 0.4 0.2zm1-1.3q0 0.1-0.2 0.4-0.4-0.1-0.4-0.4 0-0.2 0.1-0.4 0.1 0 0.4-0.1 0.1 0.3 0.1 0.5zm-0.3 1.8q0 0 0.1 1.9 0 0 0 0 0 0.1-0.1 0.4h-0.1q0 0 0 0-0.1 0-0.4-0.1 0 0 0 0 0-0.1 0-0.2-0.2-0.2-0.2-0.3 0 0 0 0 0-0.1 0-0.5 0.1-0.7 0.2-1.3 0.1-0.2 0.3-0.2 0.2 0 0.2 0.3zm5.5-0.5q0 0.1-0.1 0.2-0.1 0.1-0.5 0.1-0.2 0.1-0.3 0.1-0.3 0.1-0.4 0.1-0.3 0-0.9 0.1-0.2 0-0.3 0.1 0 0.2-0.1 0.7 0 0.4-0.2 1.3-0.1 0.2-0.1 0.2-0.5 0-0.6-0.1 0-0.1 0-0.3 0-0.3 0.2-1.8-0.1-0.1-0.2-0.1 0 0 0 0-0.1 0-0.2 0-0.1 0-0.1 0-0.4 0-0.8-0.1-0.5 0-0.5-0.4 0-0.2 0.2-0.3 0.1-0.1 0.2-0.1 0 0 0.2 0 0.2 0 0.2 0 0.1 0 0.2 0 0.2 0 0.2 0 0 0 0.1 0 0.1 0.1 0.1 0.1 0 0 0.2 0 0.2-0.1 0.2-0.1 0.2 0 0.3-0.2 0-0.1 0.1-0.5l0.3-0.7q0-0.2 0.1-0.4 0.1-0.2 0.2-0.4 0.4-1 0.7-1 0.2 0 0.4 0.5 0 0.1-0.1 0.3-0.1 0.1-0.2 0.3-0.1 0.4-0.5 1.2-0.1 0.3-0.1 0.9 0.3 0 0.3 0h0.2q0.3 0 0.4 0 0.3 0 0.5 0l0.2 0.1q0.5 0 0.5 0.2zm0.9-1.3q0 0.1-0.2 0.4-0.4-0.1-0.4-0.4 0-0.2 0.2-0.4 0.1 0 0.3-0.1 0.1 0.3 0.1 0.5zm-0.2 1.8q0 0 0 1.9 0 0 0 0 0 0.1 0 0.4h-0.1q-0.1 0-0.1 0 0 0-0.3-0.1 0 0 0 0 0-0.1-0.1-0.2-0.1-0.2-0.1-0.3 0 0 0 0 0-0.1 0-0.5 0.1-0.7 0.2-1.3 0.1-0.2 0.2-0.2 0.2 0 0.3 0.3zm5.2-0.1q0 0.1-0.1 0.3-0.1 0-0.6 0.4 0 0.1-0.1 0.2-2 1.5-2.1 1.5-0.1 0-0.3-0.2-0.3-0.1-0.3-0.2-0.5-0.9-0.8-1.6 0-0.1-0.1-0.1-0.1-0.1-0.1-0.2 0.2-0.4 0.4-0.4 0 0 0.6 0.8 0.5 0.7 0.6 0.7 0 0 0.3-0.1 0.3-0.2 0.4-0.3 0.3-0.1 0.7-0.4 0.1-0.1 0.4-0.3 0.3-0.1 0.9-0.3 0.2 0.1 0.2 0.2zm4 0.3q0 0.1 0 0.3 0 0.1 0 0.2 0 0.4-0.1 0.5-0.3 0-1 0.1l-0.7 0.1q0 0 0 0 0 0-0.3 0.1-0.1-0.1-0.3-0.1 0 0.1 0 0.1 0 0.1 0.8 0.3 0.2 0 0.5 0.1 0.5 0 0.5 0.2 0 0.1-0.3 0.2 0 0-0.1 0.2-0.3 0-0.3 0 0 0 0 0 0 0-0.4 0h-0.4q-0.2 0-0.5-0.2 0 0-0.3-0.2-0.3-0.1-0.6-0.4-0.3-0.3-0.3-0.6 0-0.3 0.1-0.5 0.6-1.1 2.4-1.1 0.6 0 0.9 0.2 0.2 0.2 0.4 0.5zm-0.8 0.4q-0.1-0.2-0.1-0.3 0-0.1-0.2-0.2-0.5 0.1-1 0.2-0.1 0-0.3 0.1-0.2 0.1-0.2 0.2 0 0.1 0 0.1h1.3q0.4 0 0.5-0.1zm-38.4 5.1q0 0.3-0.5 0.3 0 0-0.3-0.1h-0.3q0 0-0.4 0l-0.4 0.1q0 0 0 0-0.1 0-0.2 0-0.2 0-0.3 0-0.1 0-0.9 0.1-0.2 0-0.7 0.1-0.2 0-0.4 0.1 0 0.1 0.1 0.2 0.2 0.2 0.7 0.5 0.1 0.1 0.6 0.3 0.1 0.1 0.2 0.2h0.1q0.6 0.3 1.7 0.8 0.4 0.2 0.6 0.5 0.2 0.4 0.2 0.7 0 0.2-0.2 0.4-0.3 0.3-0.4 0.3-0.2 0-0.3 0.1-0.3 0.1-0.3 0.1 0 0 0 0 0 0-0.1 0-0.1 0-0.7 0.2-0.4 0.2-1.1 0.4-0.1 0.1-0.1 0.1-0.1 0-0.1 0-0.1-0.1-0.1-0.1 0 0-0.5 0.2-0.5 0.1-0.5 0.1-0.3 0-0.6 0-0.1 0-0.2-0.1-0.1-0.2-0.1-0.2 0 0 0-0.1 0.1 0 0.2-0.1 2.3-0.5 3.4-1 0.8-0.3 0.8-0.5 0-0.2-0.3-0.4-0.1-0.1-0.4-0.3-0.4-0.2-0.9-0.4-0.8-0.3-0.9-0.4-0.2-0.1-0.9-0.6-0.9-0.6-0.9-0.9 0-0.1 0.1-0.2l0.2-0.2q0 0 0.3-0.1 0.1 0 0.3-0.1 0.4-0.1 1.6-0.3 0.3 0 0.7-0.1 0.7 0 1.2 0 1 0 1 0.4zm4.5 4q0 0.5-0.2 0.8-0.3 0.2-1 0.6-0.4 0.2-1 0.4-0.2 0-0.4 0-0.5 0-1.1-0.3-0.7-0.3-0.8-0.8 0-0.1 0-0.2-0.1-0.2-0.1-0.2 0-0.1 0.1-0.4 0.1-0.3 0.1-0.4 0.1-0.1 0.4-0.3l0.4-0.1q0.4-0.3 1-0.5h0.3q0 0 0.1-0.1 0 0 0.3 0 0.2 0 0.2 0 1.2 0 1.5 1 0.2 0.4 0.2 0.5zm-0.8-0.2q0-0.5-0.8-0.5-0.5 0-1.2 0.2 0 0-0.1 0.1-0.2 0-0.3 0.1-0.6 0.5-0.6 0.6 0 0.3 0.5 0.5 0.3 0.2 0.6 0.2 0.4 0 1.1-0.4 0.8-0.4 0.8-0.8zm3.1-4.3v0.7q-0.2 0.5-0.3 1.5 0 0.1-0.3 0.9 0.1 0.1 0.1 0.3-0.1 0.3-0.2 0.9 0 0.2 0 0.4 0 0.5 0 0.7 0 0 0 0.1 0.1 0.1 0.1 0.2 0 0.2-0.1 0.4-0.1 0.1-0.3 0.1 0 0-0.2-0.1-0.2-0.1-0.2-0.2 0-0.1-0.1-0.5 0-0.1 0-0.1v-1l0.5-3.6q0.1-0.3 0.1-0.3 0 0 0 0 0-0.1 0-0.2v-0.2l0.2-0.5 0.1-0.1q0.1 0 0.3 0.2 0.3 0.3 0.3 0.4zm5.3 3.3q0 0.3-0.1 0.4-0.1 0.3-0.2 0.7-0.1 0-0.1 0.1-0.1 0.1-0.2 0.3l-0.3 0.3q0 0 0 0.1-0.4 0.4-1.1 0.7-0.7 0.2-1 0.2-0.2 0-0.5-0.1-1.4-0.4-1.4-1.9 0-0.5 0.3-0.9h0.2q0.3 0.2 0.3 0.5 0 0.1 0 0.3 0 0.2 0 0.3 0 0.6 0.7 0.8 0.2 0.1 0.2 0.1 0 0 0 0 0 0 0.2 0 0.1 0 0.1 0 0.4 0 1.1-0.4 0.4-0.3 0.8-0.8 0.4-0.5 0.4-0.8 0-0.1 0.2-0.2 0.1-0.1 0.2-0.1 0.2 0 0.2 0.4zm5.1 0q0 0.1-0.1 0.2-0.1 0.1-0.4 0.1-0.3 0.1-0.4 0.1-0.3 0.1-0.3 0.1-0.3 0-1 0.1-0.2 0-0.2 0.1-0.1 0.2-0.2 0.7 0 0.4-0.1 1.3-0.2 0.2-0.2 0.2-0.4 0-0.5-0.1-0.1-0.1-0.1-0.3 0-0.3 0.2-1.8-0.1-0.1-0.2-0.1 0 0 0 0-0.1 0-0.2 0 0 0 0 0-0.4 0-0.8-0.1-0.5 0-0.5-0.4 0-0.2 0.1-0.3 0.1-0.1 0.2-0.1 0.1 0 0.3 0 0.2 0 0.2 0 0 0 0.2 0 0.1 0 0.2 0 0 0 0.1 0 0 0.1 0.1 0.1 0 0 0.2 0 0.2-0.1 0.2-0.1 0.2 0 0.2-0.2 0.1-0.1 0.2-0.5l0.2-0.7q0.1-0.2 0.1-0.4 0.1-0.2 0.2-0.4 0.5-1 0.8-1 0.1 0 0.4 0.5 0 0.1-0.2 0.3 0 0.1-0.2 0.3-0.1 0.4-0.4 1.2-0.1 0.3-0.2 0.9 0.3 0 0.4 0h0.2q0.3 0 0.4 0 0.3 0 0.5 0l0.2 0.1q0.4 0 0.4 0.2zm1-1.3q0 0.1-0.2 0.4-0.4-0.1-0.4-0.4 0-0.2 0.1-0.4 0.1 0 0.4-0.1 0.1 0.3 0.1 0.5zm-0.3 1.8q0 0 0.1 1.9 0 0 0 0 0 0.1-0.1 0.4h-0.1q0 0 0 0-0.1 0-0.4-0.1 0 0 0 0 0-0.1 0-0.2-0.2-0.2-0.2-0.3 0 0 0 0 0-0.1 0-0.5 0.1-0.7 0.2-1.3 0.1-0.2 0.3-0.2 0.2 0 0.2 0.3zm5.3 0.7q0 0.5-0.2 0.8-0.2 0.2-0.9 0.6-0.5 0.2-1.1 0.4-0.1 0-0.3 0-0.5 0-1.1-0.3-0.7-0.3-0.8-0.8 0-0.1-0.1-0.2-0.1-0.2-0.1-0.2 0-0.1 0.1-0.4 0.1-0.3 0.2-0.4 0.1-0.1 0.4-0.3l0.3-0.1q0.4-0.3 1-0.5h0.3q0.1 0 0.1-0.1 0.1 0 0.3 0 0.2 0 0.3 0 1.1 0 1.5 1 0.1 0.4 0.1 0.5zm-0.8-0.2q0-0.5-0.7-0.5-0.5 0-1.2 0.2-0.1 0-0.2 0.1-0.2 0-0.3 0.1-0.5 0.5-0.5 0.6 0 0.3 0.4 0.5 0.4 0.2 0.6 0.2 0.4 0 1.1-0.4 0.8-0.4 0.8-0.8zm5.1 1.3q0 0.6-0.3 0.6 0 0-0.2-0.1-0.2-0.1-0.2-0.1-0.3-0.3-0.3-0.7 0-0.4-0.2-1.2-0.1 0-0.2 0-0.1 0-0.4 0.1 0 0-0.1 0l-0.2 0.2q-0.1 0.1-0.6 0.6-0.5 0.6-0.6 0.6-0.3 0-0.5-0.4-0.1-0.3-0.1-0.6 0-0.1 0.1-0.4 0-0.1 0.1-0.3 0 0 0.2-0.4 0 0 0.1 0 0.1 0 0.1 0 0 0 0.2 0.2 0.2 0.1 0.2 0.1 0 0 0.8-0.3 0.7-0.3 0.7-0.3 0.4 0 0.8 0.5 0.1 0.2 0.3 0.5 0.3 0.5 0.3 1.4zm4.1-0.3q0 0-0.2 0.2-0.2 0.1-0.3 0.1-0.3 0.1-1 0.3-0.9 0.3-1.3 0.3 0 0-0.2 0-0.1-0.1-0.1-0.1-0.1 0-0.2 0.1-0.1 0-0.1 0-0.1 0-0.2-0.1-0.1-0.2-0.1-0.3 0 0 0.1-0.1l1.2-0.3q0.8-0.1 1.1-0.3 0 0 0 0-0.2-0.1-0.9-0.4-0.7-0.3-0.9-0.4-0.1 0-0.4-0.2-0.1-0.1-0.1-0.4 0 0 0 0 0 0 0 0 0-0.1 0-0.1 0-0.1 0.3-0.3 0.5-0.2 1.4-0.3 0.9-0.2 1.5-0.2 0.1 0 0.2 0.1 0.2 0.2 0.2 0.3 0 0.3-0.1 0.3-0.2 0.1-1.2 0.2-0.2 0.1-0.3 0.1 0 0 0 0-0.1-0.1-0.1-0.1-0.2 0-0.5 0.2 0.1 0.1 0.2 0.2 0.1 0 0.5 0.1 0.1 0 0.5 0.1v0.1q0.1 0 0.4 0.1 0.2 0.1 0.3 0.3 0.1 0.1 0.2 0.3 0 0 0 0.1 0.1 0.1 0.1 0.1z"/>
			<path class="s6" d="m81.6 83.9q0 0.1-0.2 0.8-0.1 0.2-0.2 0.5-0.1 0.4-0.3 0.8-0.1 0.3-0.3 0.9-0.1 0.5-0.1 0.8-0.3 1-0.3 1.3 0 0 0.1 0.4 0.1 0.4 0.1 0.5 0 0-0.1 0.1 0 0.1-0.1 0.1-0.1 0-0.3-0.1-0.1-0.2-0.2-0.2-0.2-0.4-0.2-1.1 0-0.1 0-0.2 0-0.1 0-0.1 0 0 0 0 0 0 0-0.1 0.1-0.2 0.1-0.3 0.1-0.9 0.5-2.1 0-0.1 0-0.1l0.2-0.5q-0.2 0.1-0.7 0.8-0.1 0.1-0.2 0.4-0.4 0.6-1.6 2.2-0.1 0.1-0.4 0.4-0.4 0.3-0.5 0.3-0.6 0-0.6-1.7v-1.6q-0.2 0-0.6 0.6 0 0.1-0.8 1.7l-0.8 1.4q-0.1 0.2-0.2 0.2-0.5 0-0.5-0.6 0-0.1 0.7-1.4 0.7-1.2 1.2-2 0 0 0.1-0.2 0.4-0.5 1.1-1.5 0 0 0 0 0.3 0 0.5 0.2 0.2 0.1 0.2 0.4v0.7q0 0-0.1 0.1 0 0-0.1 1.1 0 0.7 0 0.7 0 0 0-0.1v0.7q0.1 0 0.1 0 0.1 0 0.3-0.2 0-0.1 0.1-0.2 0.2-0.3 0.8-1.1 0.2-0.3 0.9-1.3 0.8-1 1.4-1.5 0.1-0.2 0.3-0.4 0.2 0 0.5 0.1 0 0.1 0.1 0.2 0.1 0.2 0.1 0.2zm3.6 6.1q0 0.1-0.1 0.3-0.1 0.1-0.2 0.1-0.1 0-0.8-0.4-0.5-0.3-0.5-0.3-0.2 0-0.5 0.2-0.4 0.1-0.4 0.2-0.3 0-0.5 0-0.4 0-0.9-0.4-0.1-0.2-0.1-0.4 0-0.3 0.1-0.7 0.1-0.1 0.3-0.2l0.2-0.1q0.9-0.5 1.6-0.5 0.2 0 0.5 0.1 0.1 0.1 0.2 0.3 0.2 0.2 0.2 0.3 0 0.2-0.3 0.4-0.5-0.3-0.7-0.3-0.3 0-0.6 0.2-0.4 0.1-0.6 0.4 0 0.1 0.2 0.1 0 0 0 0 0-0.1 0.5-0.2 0.7-0.2 1-0.2 0 0 0.5 0.4 0.6 0.5 0.8 0.6 0.1 0.1 0.1 0.1zm5.6-2.2q0 0-0.3 0.2h-0.1q-0.1 0-0.1 0-0.1 0-0.9 0l-0.9-0.1q-1.2 0-1.7 0.7-0.1 0.2-0.2 0.7 0 0-0.1 0.1 0 0.3-0.1 0.7-0.2 0.1-0.4 0.1-0.4 0-0.4-0.6 0-0.1 0.1-0.5 0-0.6 0.1-0.9 0.2-0.4 0.3-0.4 0 0 0.1 0 0.2 0 0.2 0 0 0 0.3-0.2 0.3-0.2 0.7-0.3 0.3-0.2 0.8-0.2 0.2 0 2.1 0.3 0 0 0.1 0.1h0.4q0 0.3 0 0.3zm1.8 1.3q-0.6-0.2-0.8-0.4-0.1 0.6-0.2 1-0.2 0-0.2 0.2-0.1 0.1-0.2 0.1-0.1 0-0.2-0.1-0.2-0.2-0.2-0.2 0.2-0.6 0.2-1.1 0 0 0.1-0.4 0.2-0.3 0.2-0.5 0.1-0.6 0.3-0.9 0.3-1.1 0.4-1.7 0.1-0.2 0.2-0.3 0-0.1-0.1-0.2 0.2-0.3 0.2-0.3 0.1-0.2 0.1-0.4 0.1-0.2 0.4-0.2 0.2 0 0.2 0.3 0 0.3 0 0.4-0.4 1-0.4 1.4l-0.6 2.1q0.3-0.2 0.4-0.2 0 0 0 0 0.1 0 0.1 0 0 0 0 0 0 0 0.2-0.1 0.4-0.1 0.7-0.2 0.1 0 0.8-0.3 0.6-0.3 0.6-0.3 0 0 0 0 0 0 0.3 0.2v0.3q0 0.2-0.1 0.3-0.2 0.1-1.1 0.4-0.9 0.3-1.1 0.4 0.3 0.1 0.5 0.1l1.1 0.3q0.1 0 0.7 0.3 0.6 0.4 0.6 0.6v0.2q-0.1 0-0.2 0.1-0.2 0.1-0.2 0.1 0-0.1-0.3-0.2-0.3-0.1-0.5-0.2-0.2 0-0.6-0.2-0.6-0.2-0.7-0.2-0.5-0.2-0.6-0.2zm7.1-1.1q0 0.1 0 0.3 0 0.1 0 0.2 0 0.4-0.2 0.4-0.2 0-0.9 0.1l-0.7 0.1q0 0 0 0 0 0-0.4 0.1 0 0-0.2 0 0 0 0 0 0 0.1 0.8 0.4 0.2 0 0.5 0 0.5 0.1 0.5 0.3 0 0-0.3 0.2 0 0-0.2 0.1-0.3 0.1-0.3 0.1 0 0 0.1 0-0.1 0-0.4-0.1h-0.5q-0.1 0-0.4-0.1 0-0.1-0.3-0.2-0.4-0.1-0.6-0.4-0.3-0.4-0.3-0.6 0-0.4 0.1-0.5 0.6-1.2 2.4-1.2 0.5 0 0.8 0.3 0.3 0.2 0.5 0.5zm-0.8 0.3q-0.1-0.2-0.1-0.3 0 0-0.2-0.1-0.5 0-1 0.1-0.1 0-0.3 0.2-0.2 0.1-0.2 0.2 0 0 0 0h1.3q0.4 0 0.5-0.1zm5.9-1.1q0 0.2-0.1 0.3-0.1 0-0.4 0.1-0.3 0-0.4 0.1-0.3 0-0.4 0-0.3 0-0.9 0.1-0.2 0.1-0.3 0.2 0 0.2-0.1 0.7 0 0.4-0.2 1.3-0.1 0.1-0.1 0.2-0.4-0.1-0.5-0.2-0.1 0-0.1-0.3 0-0.3 0.2-1.8-0.1-0.1-0.2-0.1 0 0 0 0-0.1 0-0.2 0 0 0-0.1 0-0.4 0-0.8 0-0.4-0.1-0.4-0.5 0-0.1 0.1-0.2 0.1-0.2 0.2-0.2 0 0 0.2 0.1 0.2 0 0.3 0 0 0 0.1 0 0.2 0 0.2 0 0 0 0.1 0 0.1 0 0.1 0 0 0 0.2 0 0.3 0 0.3 0 0.2 0 0.2-0.2 0.1-0.2 0.1-0.5l0.3-0.8q0-0.1 0.1-0.4 0.1-0.1 0.2-0.3 0.4-1 0.8-1 0.1 0 0.3 0.4 0 0.1-0.1 0.4-0.1 0.1-0.2 0.3-0.1 0.3-0.4 1.2-0.1 0.3-0.2 0.8 0.3 0.1 0.3 0.1h0.2q0.3-0.1 0.4-0.1 0.3 0 0.5 0.1h0.2q0.5 0 0.5 0.2zm-19 5.8q0 0.1-0.3 0.7 0 0 0 0 0 0.1 0 0.3l-0.2 0.5q-0.1 0.2-0.3 0.7-0.1 0.2-0.2 0.7 0 0.2-0.1 0.5l-0.4 1q-0.3 0.5-0.3 0.9-0.2 0.3-0.2 0.4 0 0.1 0.1 0.1-0.1 0-0.4 0.1-0.2 0.1-0.2 0.1-0.1 0-0.2-0.1-0.2-0.1-0.2-0.1-0.3-0.4-0.9-2-0.1-0.2-0.2-0.7-0.1-0.1-0.2-0.3 0-0.2 0-0.4-0.1-0.4-0.5-1.2-0.2 0.1-0.4 0.5-0.1 0.3-0.4 1-0.2 0.4-0.7 1.2-0.1 0.3-0.3 0.9-0.2 0.1-0.3 0.3 0 0-0.1 0-0.1 0-0.3-0.2-0.2-0.1-0.2-0.3l1.3-2.6q0 0 0.7-1.2 0-0.1 0.2-0.5 0.1-0.4 0.4-0.4 0.1 0 0.3 0.2 0.2 0.2 0.3 0.4 0.3 0.7 0.6 1.5 0 0 0.2 0.9 0.1 0 0.1 0.1 0.2 0.5 0.2 0.7 0.2 0.4 0.4 0.8 0.2-0.1 0.4-0.6 0.3-0.7 0.6-1.4 0.2-0.4 0.5-1.4 0.1-0.1 0.2-0.2 0-0.1 0-0.3 0.1-0.1 0.2-0.3 0.1-0.1 0.2-0.2 0.1-0.2 0.2-0.4 0.1 0 0.1 0 0.3 0 0.3 0.3zm3.2 4q0.1 0.1 0.1 0.3 0 0.1-0.1 0.2 0 0.4-0.1 0.4-0.2 0-0.9 0.1l-0.8 0.1q0 0 0 0 0 0-0.3 0.1-0.1 0-0.2 0-0.1 0-0.1 0 0 0.1 0.8 0.4 0.3 0 0.6 0 0.4 0.1 0.4 0.3 0 0-0.3 0.2 0 0-0.1 0.1-0.3 0.1-0.3 0.1 0 0 0 0 0 0-0.4-0.1h-0.4q-0.1 0-0.4-0.1-0.1-0.1-0.4-0.2-0.3-0.1-0.6-0.4-0.3-0.4-0.3-0.6 0-0.4 0.1-0.5 0.6-1.2 2.4-1.2 0.6 0 0.9 0.3 0.2 0.2 0.4 0.5zm-0.8 0.3q0-0.2-0.1-0.3 0 0-0.2-0.1-0.4 0-0.9 0.1-0.2 0-0.4 0.2-0.2 0.1-0.2 0.2 0 0 0.1 0h1.2q0.4 0 0.5-0.1zm4.9-0.3q0 0.1 0 0.3 0 0.1 0 0.2 0 0.4-0.1 0.4-0.2 0-1 0.1l-0.7 0.1q0 0 0 0 0 0-0.3 0.1-0.1 0-0.2 0-0.1 0-0.1 0 0 0.1 0.8 0.4 0.2 0 0.5 0 0.5 0.1 0.5 0.3 0 0-0.3 0.2 0 0-0.1 0.1-0.3 0.1-0.3 0.1 0 0 0 0 0 0-0.4-0.1h-0.4q-0.2 0-0.4-0.1-0.1-0.1-0.4-0.2-0.3-0.1-0.6-0.4-0.3-0.4-0.3-0.6 0-0.4 0.1-0.5 0.6-1.2 2.4-1.2 0.6 0 0.9 0.3 0.2 0.2 0.4 0.5zm-0.8 0.3q-0.1-0.2-0.1-0.3 0 0-0.2-0.1-0.4 0-1 0.1-0.1 0-0.3 0.2-0.2 0.1-0.2 0.2 0 0 0 0h1.3q0.4 0 0.5-0.1zm6.6-4.3q0 1.6 0 2.1 0 0.2 0 0.6 0 0.6 0 1.3-0.1 0.1-0.3 0.4l-0.1-0.1q0 0 0 0 0 0-0.8 0l-0.7-0.1q-0.5 0-1.3 0.1-0.8 0.2-0.9 0.3 0 0.1-0.3 0.1-0.2 0.1-0.2 0.3 0 0 0.2 0.2 0.1 0.1 0.2 0.2 0.3 0.1 0.8 0.1 0.2 0 1.5-0.2l1.3-0.2h0.1q0.1 0 0.1 0.1 0 0.1-0.1 0.3-0.1 0.1-0.2 0.1-0.2 0.1-1.3 0.4-0.9 0.2-1.3 0.2 0 0.1-0.1 0.1-0.1 0-0.3 0h-0.4l-0.2-0.1q-0.1 0-0.3-0.1-0.3-0.2-0.5-0.4-0.1-0.2-0.2-0.5-0.1-0.2-0.1-0.3 0-0.2 0.3-0.5 0.3-0.5 1.4-0.7 0 0 0.1 0 0.4-0.1 0.9-0.2 0.3-0.1 0.9-0.1 1 0 1.1 0 0-0.7 0.1-1.8 0-0.1 0-0.5 0 0 0-0.3 0-0.2 0-0.4 0-0.1 0-0.1 0-0.5 0.1-0.7 0-0.1 0.3-0.1 0.1 0 0.2 0 0 0.5 0 0.5 0 0 0 0z"/>
			<path class="s4" d="m136.8 99q0 0.4-0.2 0.5-0.8 1.1-3.2 1.8 0 0.1-0.1 0.1-0.2 0.1-1.2 0.4-0.2 0-0.3 0.2 0 0.2 0 0.4 0 0.6-0.1 1.1-0.1 0.2-0.1 0.4h-0.2q-0.1-0.1-0.2-0.2-0.1-0.2-0.1-0.3v-0.8q-0.1-0.5-0.3-0.7 0 0 0-0.2 0-0.2 0.1-0.2 0.1 0 0.2-0.2 0.1-0.3 0.2-0.8 0.1-0.1 0.1-0.3 0.2-0.9 0.6-1.3 0 0 0 0 0-0.1-0.1-0.1-0.2 0-0.7 0.3 0 0-0.1 0.1-0.2 0.1-0.2 0.1-0.1 0-0.3-0.4 0 0 0.1-0.2 0.1-0.2 0.2-0.2 0.1-0.1 0.4-0.3 0.1 0 0.2 0 0.2-0.1 0.7-0.3 0.8-0.2 1.3-0.2 0.7-0.1 0.9-0.1 0.5 0 1.4 0.3 0.2 0 0.3 0.2 0 0 0.2 0 0.1 0.1 0.3 0.4 0.2 0.4 0.2 0.5zm-0.8 0q0-0.3-0.5-0.5-0.5-0.2-0.8-0.2-0.3 0-1 0.1-0.2 0-0.5 0.1-0.4 0-1.2 0.3 0.5 0.1 0.5 0.4 0 0.1-0.4 1.1 0 0.2-0.1 0.7h0.2q0.1 0 2-0.7l0.1-0.1q0.3-0.2 1.6-0.9 0.1-0.3 0.1-0.3zm8.4-1.3q0 0.1-0.2 0.7-0.1 0.3-0.3 0.5-0.1 0.5-0.2 0.9-0.1 0.2-0.3 0.9-0.1 0.4-0.2 0.8-0.2 0.9-0.2 1.2 0 0 0.1 0.5 0.1 0.4 0.1 0.4 0 0-0.1 0.2-0.1 0-0.2 0 0 0-0.2-0.1-0.1-0.1-0.2-0.2-0.2-0.3-0.2-1 0-0.1 0-0.2 0-0.1 0-0.1 0 0 0 0 0 0 0-0.2 0-0.1 0.1-0.2 0.1-0.9 0.5-2.1 0-0.1 0-0.1l0.2-0.6q-0.3 0.2-0.7 0.8-0.1 0.2-0.3 0.4-0.3 0.7-1.6 2.3 0 0.1-0.3 0.4-0.4 0.3-0.5 0.3-0.7 0-0.7-1.8v-1.6q-0.1 0.1-0.5 0.7 0 0.1-0.8 1.6l-0.8 1.5q-0.1 0.1-0.2 0.1-0.5 0-0.5-0.5 0-0.2 0.7-1.4 0.7-1.2 1.2-2 0-0.1 0.1-0.2 0.3-0.5 1.1-1.5 0 0 0 0 0.2 0 0.4 0.1 0.3 0.2 0.3 0.4v0.8q-0.1 0-0.1 0 0 0.1-0.1 1.2 0 0.6 0 0.6 0 0 0 0v0.6q0 0 0.1 0 0.1 0 0.2-0.2 0.1-0.1 0.2-0.2 0.2-0.2 0.7-1 0.3-0.3 1-1.3 0.7-1 1.3-1.6 0.2-0.1 0.4-0.4 0.1 0.1 0.4 0.2 0.1 0.1 0.2 0.2 0.1 0.2 0.1 0.2zm6.5 1q0 0.2 0 0.2-0.6 0-1.7 0 0 0-0.1 0-0.1 0-0.1 0 0 0-0.1 0-0.1 0-0.1 0 0 0 0 0 0 0-0.2 0-0.2 0.1-1 0.2-0.1 0-0.2 0-0.1 0-0.2 0 0 0 0 0-0.1 0-0.1 0-0.1 0-1 0.3 0 0-0.2 0.3 0 0.1 0 0.3-0.2 0.3-0.3 0.7v0.2q0.1 0 0.3 0 0.5 0 1.3-0.1 0.4 0 1.6-0.1l0.1 0.1q0.1-0.1 0.2-0.1 0 0 0 0 0 0 0.2 0.1v0.1q0 0.1-0.1 0.3-0.2 0-0.6 0.1-0.6 0.1-0.6 0.1 0 0 0 0 0 0-0.1 0 0 0-0.1 0 0 0-0.1 0-0.1 0.1-0.1 0.1 0 0-1.1 0.2-0.1 0-0.3 0.1-0.2 0-0.2 0-0.2 0-0.6 0-0.1 0-0.1 0.1-0.1 0.6-0.2 1.2 0 0 0 0.1 0 0.1 0 0.3 0 0.4-0.2 0.4-0.1 0-0.2-0.1-0.3 0-0.5-0.2l0.2-1.8-0.5-0.3q0-0.1 0.1-0.3 0.1-0.3 0.3-0.3 0 0 0.1 0 0.1 0 0.1 0 0.2 0 0.3-0.2 0-0.2 0-0.3 0.1-0.5 0.3-0.8-0.1 0-0.4-0.2-0.3-0.1-0.3-0.3 0-0.2 0.3-0.3 0.2-0.1 0.7-0.2 0 0 0.2-0.1 0.1-0.1 0.2-0.1 0.1 0 0.1 0.1 0 0 0.1 0 0.1-0.1 0.2-0.1l2-0.2q0.5 0 0.5 0-0.1 0.1-0.2 0.1 0.1 0 0.2-0.1 0.2 0 0.2 0 0 0 0.1 0 0.1 0 0.1 0 0.1 0 0.1 0 0.1 0 0.2 0 0.4 0 0.4-0.1 0 0 0 0-0.1 0-0.2 0 0.4 0 1.1 0.2 0.2 0.2 0.2 0.4z"/>
			<path class="s4" d="m187.6 96.9q0 0.1-0.2 0.3-0.1 0.2-0.5 0.6-0.5 0.5-0.8 0.8-0.1 0.2-0.6 0.7-0.1 0.1-0.6 0.7-0.3 0.3-0.7 1 0 0.1-0.2 0.3 0 0.2-0.1 0.4-0.1 0.3-0.2 0.3-0.1-0.1-0.4-0.3 0 0 0 0 0-0.1 0-0.3 0.4-0.9 0.7-1.4 0.1 0 0.2-0.1 0-0.1 0-0.1 0.1-0.1 0.5-0.6 0 0 0-0.1 0-0.1-0.2-0.1 0 0-0.4 0.1-0.4 0.1-0.4 0.1-0.3 0-0.5-0.2-0.3-0.2-0.4-0.4-0.3-0.5-0.4-1-0.1-0.2-0.1-0.3 0-0.3 0.2-0.6h0.3q0 0 0.2 0.1l0.1 0.9q0.2 0.8 0.8 0.8 0.6 0 1.6-0.8 0.4-0.3 1.4-1 0.2-0.2 0.3-0.2 0.1 0 0.3 0.2 0.1 0.1 0.1 0.2zm3.5 3.4q0 0.5-0.2 0.8-0.3 0.3-1 0.6-0.4 0.3-1 0.4-0.2 0-0.4 0.1-0.4 0-1.1-0.4-0.7-0.3-0.8-0.8 0 0 0-0.2-0.1-0.2-0.1-0.2 0-0.1 0.1-0.4 0.1-0.3 0.2-0.4 0-0.1 0.3-0.2l0.4-0.2q0.4-0.2 1-0.5h0.3q0 0 0.1-0.1 0 0 0.3 0 0.2 0 0.2 0 1.2 0 1.5 1 0.2 0.5 0.2 0.5zm-0.8-0.1q0-0.6-0.7-0.6-0.6 0-1.3 0.2 0 0.1-0.1 0.1-0.2 0-0.3 0.1-0.5 0.5-0.5 0.7 0 0.2 0.4 0.4 0.3 0.2 0.6 0.2 0.4 0 1.1-0.3 0.8-0.4 0.8-0.8zm6.1-1q0 0.2-0.1 0.4-0.1 0.3-0.2 0.6-0.1 0-0.1 0.1 0 0.1-0.2 0.3l-0.3 0.3q0 0.1 0 0.1-0.4 0.4-1.1 0.8-0.7 0.2-1 0.2-0.2 0-0.5-0.1-1.4-0.4-1.4-2 0-0.5 0.3-0.9h0.2q0.3 0.2 0.3 0.6 0 0 0 0.2 0 0.3 0 0.3 0 0.7 0.7 0.9 0.3 0.1 0.3 0.1 0 0-0.1 0 0.1 0 0.2 0 0.1-0.1 0.1-0.1 0.4 0 1.1-0.4 0.4-0.3 0.8-0.8 0.4-0.5 0.4-0.8 0.1-0.1 0.2-0.2 0.1-0.1 0.2-0.1 0.2 0 0.2 0.5zm5.7 0.5q0 0-0.4 0.2-0.1 0-0.2 0 0 0-0.9-0.1h-0.9q-1.1 0-1.6 0.7-0.1 0.2-0.2 0.7-0.1 0-0.1 0.1 0 0.2-0.1 0.7-0.2 0-0.4 0-0.4 0-0.4-0.5 0-0.1 0-0.5 0.1-0.6 0.1-0.9 0.2-0.5 0.4-0.5 0 0 0.1 0.1 0.1 0 0.1 0 0.1 0 0.4-0.2 0.3-0.2 0.6-0.4 0.4-0.1 0.9-0.1 0.1 0 2.1 0.3 0 0 0 0.1h0.5q0 0.3 0 0.3zm-21.3 5.6q0 0.3-0.4 0.3-0.1 0-0.4 0l-0.3-0.1q0 0-0.3 0.1h-0.4q-0.1 0-0.1 0-0.1 0-0.2 0-0.2 0-0.2 0-0.2 0-0.9 0.1-0.3 0.1-0.8 0.1-0.2 0-0.4 0.2 0.1 0 0.1 0.2 0.2 0.1 0.7 0.5 0.2 0.1 0.6 0.3 0.1 0 0.3 0.1v0.1q0.7 0.2 1.7 0.7 0.4 0.2 0.6 0.5 0.3 0.4 0.3 0.7 0 0.2-0.3 0.4-0.3 0.3-0.4 0.4-0.1 0-0.3 0-0.2 0.2-0.3 0.2 0 0 0 0 0-0.1 0-0.1-0.2 0-0.8 0.3-0.4 0.2-1 0.3h-0.1q0 0.1-0.1 0.1 0 0-0.1 0-0.1 0-0.1 0 0 0-0.5 0.1-0.4 0.1-0.4 0.1-0.3 0-0.7 0.1-0.1-0.1-0.2-0.2-0.1-0.1-0.1-0.2 0 0 0 0 0.1-0.1 0.2-0.1 2.3-0.6 3.5-1.1 0.8-0.3 0.8-0.5 0-0.2-0.3-0.4-0.2 0-0.5-0.2-0.3-0.3-0.9-0.5-0.7-0.3-0.9-0.3-0.2-0.2-0.9-0.7-0.8-0.6-0.8-0.9 0 0 0.1-0.2l0.2-0.2q0 0 0.2-0.1 0.1 0 0.4-0.1 0.3-0.1 1.5-0.2 0.4-0.1 0.7-0.1 0.7-0.1 1.2-0.1 1 0 1 0.4zm4.5 4q0 0.5-0.2 0.8-0.3 0.3-0.9 0.6-0.5 0.3-1.1 0.4-0.1 0-0.3 0.1-0.5 0-1.1-0.4-0.7-0.3-0.8-0.8 0 0-0.1-0.2-0.1-0.2-0.1-0.2 0-0.1 0.1-0.4 0.1-0.3 0.2-0.4 0-0.1 0.3-0.2l0.4-0.2q0.4-0.2 1-0.5h0.3q0 0 0.1-0.1 0.1 0 0.3 0 0.2 0 0.2 0 1.2 0 1.5 1 0.2 0.5 0.2 0.5zm-0.8-0.1q0-0.6-0.7-0.6-0.6 0-1.3 0.2 0 0.1-0.1 0.1-0.2 0-0.3 0.1-0.5 0.5-0.5 0.7 0 0.2 0.4 0.4 0.4 0.2 0.6 0.2 0.4 0 1.1-0.3 0.8-0.4 0.8-0.8zm3.1-4.4v0.8q-0.1 0.4-0.3 1.4 0 0.2-0.2 1 0 0.1 0 0.2-0.1 0.3-0.2 0.9 0 0.2 0 0.4 0 0.5 0.1 0.7-0.1 0.1-0.1 0.1 0.1 0.1 0.1 0.3 0 0.1-0.1 0.3-0.1 0.1-0.2 0.1-0.1 0-0.3-0.1-0.1-0.1-0.2-0.2 0 0 0-0.5-0.1-0.1-0.1-0.1v-0.9l0.6-3.7q0-0.2 0-0.3 0 0 0 0 0 0 0-0.2v-0.2l0.2-0.5h0.1q0.2 0 0.4 0.2 0.2 0.2 0.2 0.3zm5.3 3.4q0 0.2-0.1 0.4-0.1 0.3-0.2 0.6 0 0-0.1 0.1 0 0.1-0.2 0.3l-0.3 0.3q0 0.1 0 0.1-0.4 0.4-1.1 0.8-0.7 0.2-1 0.2-0.1 0-0.5-0.1-1.4-0.4-1.4-2 0-0.5 0.4-0.9h0.2q0.2 0.2 0.2 0.6 0 0 0 0.2 0 0.3 0 0.3 0 0.7 0.7 0.9 0.3 0.1 0.3 0.1 0 0 0 0 0 0 0.1 0 0.1-0.1 0.1-0.1 0.4 0 1.1-0.4 0.4-0.3 0.8-0.8 0.4-0.5 0.5-0.8 0-0.1 0.1-0.2 0.1-0.1 0.2-0.1 0.2 0 0.2 0.5zm5.2-0.1q0 0.2-0.1 0.2-0.2 0.1-0.5 0.2-0.2 0-0.3 0.1-0.4 0-0.4 0-0.3 0-1 0.1-0.2 0-0.2 0.1-0.1 0.3-0.2 0.7 0 0.5-0.1 1.3-0.1 0.2-0.1 0.2-0.5 0-0.6-0.1 0 0 0-0.3 0-0.3 0.2-1.8-0.1-0.1-0.2-0.1 0 0-0.1 0-0.1 0-0.1 0-0.1 0-0.1 0-0.4 0-0.8 0-0.5-0.1-0.5-0.5 0-0.1 0.1-0.3 0.1-0.1 0.3-0.1 0 0 0.2 0.1 0.2 0 0.2 0 0 0 0.2 0 0.2-0.1 0.2-0.1 0 0 0.1 0.1 0.1 0 0.1 0 0 0 0.2 0 0.2 0 0.2 0 0.2 0 0.3-0.2 0-0.2 0.1-0.5l0.3-0.8q0-0.2 0-0.4 0.1-0.2 0.2-0.4 0.5-0.9 0.8-0.9 0.2 0 0.4 0.4 0 0.1-0.1 0.4-0.1 0.1-0.2 0.3-0.1 0.3-0.5 1.2-0.1 0.2-0.1 0.8 0.3 0.1 0.3 0.1h0.2q0.3-0.1 0.4-0.1 0.3 0 0.5 0.1h0.2q0.5 0 0.5 0.2zm0.9-1.3q0 0.1-0.2 0.4-0.4-0.1-0.4-0.3 0-0.2 0.2-0.5 0 0 0.3 0 0.1 0.2 0.1 0.4zm-0.2 1.8q0 0.1 0 1.9 0 0 0 0 0 0.1-0.1 0.5h-0.1q0 0 0 0-0.1 0-0.3-0.1 0 0 0 0 0-0.1-0.1-0.3-0.1-0.2-0.2-0.2 0 0 0-0.1 0-0.1 0.1-0.5 0-0.7 0.2-1.3 0.1-0.1 0.2-0.1 0.2 0 0.3 0.2zm5.3 0.7q0 0.5-0.3 0.8-0.2 0.3-0.9 0.6-0.5 0.3-1 0.4-0.2 0-0.4 0.1-0.5 0-1.1-0.4-0.7-0.3-0.8-0.8 0 0-0.1-0.2 0-0.2 0-0.2 0-0.1 0.1-0.4 0.1-0.3 0.1-0.4 0.1-0.1 0.4-0.2l0.4-0.2q0.4-0.2 0.9-0.5h0.3q0.1 0 0.2-0.1 0 0 0.2 0 0.3 0 0.3 0 1.2 0 1.5 1 0.2 0.5 0.2 0.5zm-0.8-0.1q0-0.6-0.8-0.6-0.5 0-1.2 0.2-0.1 0.1-0.2 0.1-0.1 0-0.3 0.1-0.5 0.5-0.5 0.7 0 0.2 0.4 0.4 0.4 0.2 0.7 0.2 0.4 0 1.1-0.3 0.8-0.4 0.8-0.8zm5 1.3q0 0.5-0.3 0.5 0 0-0.2 0-0.1-0.1-0.2-0.1-0.2-0.4-0.2-0.7 0-0.4-0.3-1.2 0-0.1-0.2-0.1-0.1 0-0.3 0.1-0.1 0-0.1 0.1l-0.3 0.1q-0.1 0.1-0.5 0.6-0.5 0.6-0.6 0.6-0.3 0-0.5-0.4-0.2-0.3-0.2-0.5 0-0.2 0.2-0.5 0-0.1 0-0.2 0-0.1 0.2-0.5 0 0 0.1 0 0.2 0 0.2 0 0 0.1 0.1 0.2 0.2 0.1 0.3 0.1 0 0 0.7-0.3 0.7-0.3 0.7-0.3 0.4 0 0.9 0.6 0.1 0.1 0.3 0.4 0.2 0.6 0.2 1.5z"/>
		</g>
	</g>
</svg>