<svg width="295" height="91" viewBox="0 0 295 91" fill="none" xmlns="http://www.w3.org/2000/svg">
<path d="M2.94707 49.1L0.97079 77.0824C0.841951 78.9067 2.28711 80.4575 4.1159 80.4575H86.8111C88.7979 80.4575 90.2896 78.6422 89.9042 76.6931L84.3722 48.7107C84.0802 47.2337 82.7847 46.1692 81.2791 46.1692H6.09219C4.43706 46.1692 3.06368 47.449 2.94707 49.1Z" fill="#F2F6D0"/>
<path d="M69.0921 42.7415L62.313 80.337C61.9564 82.3148 63.4595 84.1401 65.4689 84.1694L142.136 85.29C143.326 85.3074 144.43 84.6742 145.016 83.6387L166.056 46.4692C167.273 44.3205 165.748 41.6529 163.279 41.611L72.3509 40.0644C70.7553 40.0373 69.3753 41.1709 69.0921 42.7415Z" fill="#D0E1D4"/>
<path fill-rule="evenodd" clip-rule="evenodd" d="M62.2939 80.4573H86.8116C88.7984 80.4573 90.29 78.6419 89.9047 76.6928L84.3727 48.7104C84.0807 47.2334 82.7852 46.1689 81.2796 46.1689H68.4744L62.3134 80.3369C62.3061 80.3771 62.2997 80.4172 62.2939 80.4573Z" fill="#80003E"/>
<path d="M216.779 26.6998L213.656 84.8008C213.561 86.5754 214.95 88.0782 216.727 88.122L291.702 89.9681C293.474 90.0117 294.933 88.5878 294.933 86.8161V5.09543C294.933 2.97973 292.89 1.46441 290.866 2.07798L219.013 23.8516C217.743 24.2363 216.85 25.3749 216.779 26.6998Z" fill="#80003E"/>
<path d="M137.201 39.9362L143.92 75.2052C144.207 76.7139 145.48 77.8361 147.013 77.9319L229.697 83.0994C231.699 83.2245 233.364 81.5809 233.265 79.5779L230.941 32.4258C230.848 30.5345 229.212 29.0931 227.324 29.2387L140.245 35.9543C138.246 36.1085 136.825 37.9667 137.201 39.9362Z" fill="#FD9414"/>
<path fill-rule="evenodd" clip-rule="evenodd" d="M213.801 82.1061L229.698 83.0996C231.699 83.2246 233.365 81.5811 233.266 79.578L230.942 32.426C230.849 30.5347 229.213 29.0933 227.325 29.2389L216.598 30.0661L213.801 82.1061Z" fill="#F2F6D0"/>
<path fill-rule="evenodd" clip-rule="evenodd" d="M137.421 41.1243L143.907 75.1694C144.194 76.6753 145.465 77.7954 146.995 77.8911L149.833 78.0685L166.33 46.364C167.445 44.2203 165.918 41.6516 163.502 41.6069L137.421 41.1243Z" fill="#F2F6D0"/>
<path d="M13.7081 62.3777L12.4132 60.0907H11.8583V62.3777H10.6812V56.509H12.8841C13.3381 56.509 13.7249 56.5903 14.0444 56.7528C14.3639 56.9098 14.6021 57.1256 14.759 57.4002C14.9216 57.6693 15.0029 57.972 15.0029 58.3083C15.0029 58.695 14.8908 59.0454 14.6665 59.3593C14.4423 59.6675 14.1088 59.8805 13.666 59.9983L15.0701 62.3777H13.7081ZM11.8583 59.2079H12.842C13.1615 59.2079 13.3998 59.1322 13.5567 58.9809C13.7137 58.824 13.7921 58.6082 13.7921 58.3335C13.7921 58.0644 13.7137 57.8571 13.5567 57.7113C13.3998 57.56 13.1615 57.4843 12.842 57.4843H11.8583V59.2079ZM20.3976 59.9478C20.3976 60.116 20.3864 60.2673 20.3639 60.4018H16.9587C16.9868 60.7382 17.1045 61.0016 17.3119 61.1922C17.5193 61.3828 17.7743 61.478 18.077 61.478C18.5142 61.478 18.8253 61.2903 19.0103 60.9147H20.2799C20.1453 61.3631 19.8875 61.7331 19.5063 62.0246C19.1252 62.3104 18.6571 62.4534 18.1022 62.4534C17.6538 62.4534 17.2502 62.3553 16.8915 62.1591C16.5383 61.9573 16.2609 61.6742 16.0591 61.3099C15.8629 60.9455 15.7648 60.5252 15.7648 60.0487C15.7648 59.5667 15.8629 59.1435 16.0591 58.7791C16.2553 58.4148 16.5299 58.1345 16.8831 57.9383C17.2362 57.7421 17.6426 57.6441 18.1022 57.6441C18.545 57.6441 18.9402 57.7393 19.2877 57.9299C19.6409 58.1205 19.9127 58.3924 20.1033 58.7455C20.2995 59.093 20.3976 59.4938 20.3976 59.9478ZM19.1784 59.6115C19.1728 59.3088 19.0635 59.0678 18.8505 58.8884C18.6375 58.7034 18.3769 58.611 18.0686 58.611C17.7771 58.611 17.5305 58.7006 17.3287 58.88C17.1325 59.0538 17.012 59.2976 16.9672 59.6115H19.1784ZM23.0392 62.4534C22.6581 62.4534 22.3161 62.3861 22.0134 62.2516C21.7108 62.1114 21.4697 61.9237 21.2904 61.6882C21.1166 61.4528 21.0213 61.1922 21.0045 60.9063H22.19C22.2124 61.0857 22.2993 61.2342 22.4507 61.3519C22.6076 61.4696 22.801 61.5285 23.0308 61.5285C23.255 61.5285 23.4288 61.4836 23.5521 61.394C23.681 61.3043 23.7455 61.1894 23.7455 61.0492C23.7455 60.8979 23.667 60.7858 23.51 60.7129C23.3587 60.6345 23.1149 60.5504 22.7786 60.4607C22.431 60.3766 22.1452 60.2897 21.921 60.2C21.7024 60.1104 21.5118 59.973 21.3492 59.7881C21.1923 59.6031 21.1138 59.3537 21.1138 59.0398C21.1138 58.7819 21.1867 58.5465 21.3324 58.3335C21.4838 58.1205 21.6968 57.9523 21.9714 57.829C22.2517 57.7057 22.5796 57.6441 22.9551 57.6441C23.51 57.6441 23.9529 57.7842 24.2836 58.0644C24.6143 58.3391 24.7965 58.7119 24.8301 59.1827H23.7034C23.6866 58.9977 23.6081 58.852 23.468 58.7455C23.3335 58.6334 23.1513 58.5773 22.9215 58.5773C22.7085 58.5773 22.5431 58.6166 22.4254 58.695C22.3133 58.7735 22.2573 58.8828 22.2573 59.0229C22.2573 59.1799 22.3358 59.3004 22.4927 59.3845C22.6496 59.463 22.8935 59.5442 23.2242 59.6283C23.5605 59.7124 23.838 59.7993 24.0566 59.889C24.2752 59.9786 24.4629 60.1188 24.6199 60.3094C24.7824 60.4943 24.8665 60.741 24.8721 61.0492C24.8721 61.3183 24.7965 61.5593 24.6451 61.7723C24.4994 61.9853 24.2864 62.1535 24.0061 62.2768C23.7315 62.3945 23.4092 62.4534 23.0392 62.4534ZM30.1684 59.9478C30.1684 60.116 30.1572 60.2673 30.1348 60.4018H26.7296C26.7576 60.7382 26.8753 61.0016 27.0827 61.1922C27.2901 61.3828 27.5452 61.478 27.8479 61.478C28.2851 61.478 28.5962 61.2903 28.7811 60.9147H30.0507C29.9162 61.3631 29.6583 61.7331 29.2772 62.0246C28.896 62.3104 28.428 62.4534 27.8731 62.4534C27.4247 62.4534 27.0211 62.3553 26.6623 62.1591C26.3092 61.9573 26.0318 61.6742 25.83 61.3099C25.6338 60.9455 25.5357 60.5252 25.5357 60.0487C25.5357 59.5667 25.6338 59.1435 25.83 58.7791C26.0261 58.4148 26.3008 58.1345 26.6539 57.9383C27.0071 57.7421 27.4134 57.6441 27.8731 57.6441C28.3159 57.6441 28.7111 57.7393 29.0586 57.9299C29.4117 58.1205 29.6836 58.3924 29.8741 58.7455C30.0703 59.093 30.1684 59.4938 30.1684 59.9478ZM28.9493 59.6115C28.9437 59.3088 28.8344 59.0678 28.6214 58.8884C28.4084 58.7034 28.1477 58.611 27.8394 58.611C27.548 58.611 27.3013 58.7006 27.0996 58.88C26.9034 59.0538 26.7829 59.2976 26.738 59.6115H28.9493ZM30.7249 60.0319C30.7249 59.561 30.8174 59.1435 31.0024 58.7791C31.193 58.4148 31.448 58.1345 31.7675 57.9383C32.0926 57.7421 32.4541 57.6441 32.8521 57.6441C33.1996 57.6441 33.5023 57.7141 33.7602 57.8543C34.0236 57.9944 34.2338 58.1709 34.3907 58.3839V57.7197H35.5763V62.3777H34.3907V61.6966C34.2394 61.9153 34.0292 62.0974 33.7602 62.2432C33.4967 62.3833 33.1912 62.4534 32.8437 62.4534C32.4513 62.4534 32.0926 62.3525 31.7675 62.1507C31.448 61.9489 31.193 61.6658 31.0024 61.3015C30.8174 60.9315 30.7249 60.5083 30.7249 60.0319ZM34.3907 60.0487C34.3907 59.7628 34.3347 59.519 34.2226 59.3172C34.1105 59.1098 33.9591 58.9529 33.7686 58.8464C33.578 58.7343 33.3734 58.6782 33.1548 58.6782C32.9362 58.6782 32.7344 58.7315 32.5494 58.838C32.3645 58.9445 32.2131 59.1014 32.0954 59.3088C31.9833 59.5106 31.9272 59.7516 31.9272 60.0319C31.9272 60.3122 31.9833 60.5588 32.0954 60.7718C32.2131 60.9792 32.3645 61.1389 32.5494 61.251C32.74 61.3631 32.9418 61.4192 33.1548 61.4192C33.3734 61.4192 33.578 61.3659 33.7686 61.2594C33.9591 61.1473 34.1105 60.9904 34.2226 60.7886C34.3347 60.5812 34.3907 60.3346 34.3907 60.0487ZM37.903 58.4428C38.0543 58.1962 38.2505 58.0028 38.4916 57.8627C38.7382 57.7225 39.0184 57.6525 39.3323 57.6525V58.8884H39.0213C38.6513 58.8884 38.371 58.9753 38.1805 59.1491C37.9955 59.3228 37.903 59.6255 37.903 60.0571V62.3777H36.7259V57.7197H37.903V58.4428ZM39.8225 60.0487C39.8225 59.5667 39.9206 59.1463 40.1168 58.7875C40.313 58.4232 40.5848 58.1429 40.9323 57.9467C41.2799 57.745 41.6778 57.6441 42.1262 57.6441C42.7036 57.6441 43.18 57.7898 43.5556 58.0813C43.9367 58.3671 44.1918 58.7707 44.3207 59.292H43.0511C42.9839 59.0902 42.8689 58.9333 42.7064 58.8212C42.5494 58.7034 42.3533 58.6446 42.1178 58.6446C41.7815 58.6446 41.5153 58.7679 41.3191 59.0145C41.1229 59.2556 41.0248 59.6003 41.0248 60.0487C41.0248 60.4915 41.1229 60.8362 41.3191 61.0829C41.5153 61.3239 41.7815 61.4444 42.1178 61.4444C42.5943 61.4444 42.9054 61.2314 43.0511 60.8054H44.3207C44.1918 61.3099 43.9367 61.7107 43.5556 62.0077C43.1744 62.3048 42.698 62.4534 42.1262 62.4534C41.6778 62.4534 41.2799 62.3553 40.9323 62.1591C40.5848 61.9573 40.313 61.677 40.1168 61.3183C39.9206 60.954 39.8225 60.5308 39.8225 60.0487ZM47.8063 57.6525C48.1594 57.6525 48.4733 57.7309 48.748 57.8879C49.0226 58.0392 49.2356 58.2662 49.387 58.5689C49.5439 58.866 49.6224 59.2247 49.6224 59.6451V62.3777H48.4453V59.8049C48.4453 59.4349 48.3528 59.1519 48.1678 58.9557C47.9829 58.7539 47.7306 58.653 47.4111 58.653C47.086 58.653 46.8282 58.7539 46.6376 58.9557C46.4526 59.1519 46.3601 59.4349 46.3601 59.8049V62.3777H45.183V56.1559H46.3601V58.2999C46.5115 58.0981 46.7133 57.9411 46.9655 57.829C47.2177 57.7113 47.498 57.6525 47.8063 57.6525Z" fill="#80003E"/>
<path d="M8.85873 69.0126C8.85873 68.7267 8.92459 68.4703 9.05632 68.2432C9.19084 68.0162 9.37161 67.8397 9.59862 67.7135C9.82844 67.5846 10.0793 67.5202 10.3511 67.5202C10.6622 67.5202 10.9383 67.5972 11.1793 67.7514C11.4231 67.9027 11.5997 68.1185 11.709 68.3988H11.1331C11.0574 68.2446 10.9523 68.1297 10.8178 68.0541C10.6832 67.9784 10.5277 67.9406 10.3511 67.9406C10.1577 67.9406 9.98539 67.984 9.83404 68.0709C9.6827 68.1578 9.56359 68.2825 9.47671 68.445C9.39263 68.6076 9.35059 68.7968 9.35059 69.0126C9.35059 69.2284 9.39263 69.4175 9.47671 69.5801C9.56359 69.7426 9.6827 69.8688 9.83404 69.9584C9.98539 70.0453 10.1577 70.0888 10.3511 70.0888C10.5277 70.0888 10.6832 70.0509 10.8178 69.9753C10.9523 69.8996 11.0574 69.7847 11.1331 69.6305H11.709C11.5997 69.9108 11.4231 70.1266 11.1793 70.2779C10.9383 70.4293 10.6622 70.505 10.3511 70.505C10.0765 70.505 9.82564 70.4419 9.59862 70.3158C9.37161 70.1869 9.19084 70.0089 9.05632 69.7819C8.92459 69.5549 8.85873 69.2984 8.85873 69.0126ZM12.7492 68.4997C12.8193 68.382 12.9118 68.2909 13.0267 68.2264C13.1444 68.1592 13.2831 68.1255 13.4429 68.1255V68.6216H13.3209C13.1332 68.6216 12.9902 68.6692 12.8921 68.7645C12.7969 68.8598 12.7492 69.0252 12.7492 69.2606V70.4797H12.27V68.1634H12.7492V68.4997ZM16.0064 69.2648C16.0064 69.3517 16.0008 69.4302 15.9896 69.5002H14.2197C14.2337 69.6852 14.3024 69.8337 14.4257 69.9458C14.549 70.0579 14.7003 70.114 14.8797 70.114C15.1376 70.114 15.3197 70.0061 15.4262 69.7903H15.9433C15.8732 70.0033 15.7457 70.1785 15.5608 70.3158C15.3786 70.4503 15.1516 70.5176 14.8797 70.5176C14.6583 70.5176 14.4593 70.4685 14.2828 70.3704C14.109 70.2695 13.9717 70.1294 13.8708 69.95C13.7727 69.7679 13.7236 69.5577 13.7236 69.3195C13.7236 69.0812 13.7713 68.8724 13.8666 68.6931C13.9647 68.5109 14.1006 68.3708 14.2744 68.2727C14.4509 68.1746 14.6527 68.1255 14.8797 68.1255C15.0983 68.1255 15.2931 68.1732 15.4641 68.2685C15.635 68.3638 15.7681 68.4983 15.8634 68.672C15.9587 68.843 16.0064 69.0406 16.0064 69.2648ZM15.5061 69.1135C15.5033 68.9369 15.4402 68.7954 15.3169 68.6889C15.1936 68.5824 15.0409 68.5291 14.8587 68.5291C14.6933 68.5291 14.5518 68.5824 14.4341 68.6889C14.3164 68.7926 14.2463 68.9341 14.2239 69.1135H15.5061ZM16.3183 69.311C16.3183 69.0784 16.3659 68.8724 16.4612 68.6931C16.5593 68.5137 16.691 68.375 16.8564 68.2769C17.0245 68.176 17.2095 68.1255 17.4113 68.1255C17.5934 68.1255 17.7518 68.162 17.8863 68.2348C18.0236 68.3049 18.1329 68.3932 18.2142 68.4997V68.1634H18.6977V70.4797H18.2142V70.135C18.1329 70.2443 18.0222 70.3354 17.8821 70.4083C17.742 70.4811 17.5822 70.5176 17.4029 70.5176C17.2039 70.5176 17.0217 70.4671 16.8564 70.3662C16.691 70.2625 16.5593 70.1196 16.4612 69.9374C16.3659 69.7525 16.3183 69.5437 16.3183 69.311ZM18.2142 69.3195C18.2142 69.1597 18.1806 69.021 18.1133 68.9033C18.0489 68.7856 17.9634 68.6959 17.8569 68.6342C17.7504 68.5726 17.6355 68.5417 17.5122 68.5417C17.3889 68.5417 17.2739 68.5726 17.1674 68.6342C17.0609 68.6931 16.9741 68.7813 16.9068 68.8991C16.8423 69.014 16.8101 69.1513 16.8101 69.311C16.8101 69.4708 16.8423 69.6109 16.9068 69.7314C16.9741 69.8519 17.0609 69.9444 17.1674 70.0089C17.2767 70.0706 17.3917 70.1014 17.5122 70.1014C17.6355 70.1014 17.7504 70.0706 17.8569 70.0089C17.9634 69.9472 18.0489 69.8576 18.1133 69.7398C18.1806 69.6193 18.2142 69.4792 18.2142 69.3195ZM19.8863 68.5543V69.8365C19.8863 69.9234 19.9059 69.9865 19.9451 70.0257C19.9872 70.0621 20.0572 70.0804 20.1553 70.0804H20.4496V70.4797H20.0712C19.8554 70.4797 19.6901 70.4293 19.5752 70.3284C19.4603 70.2275 19.4028 70.0635 19.4028 69.8365V68.5543H19.1296V68.1634H19.4028V67.5874H19.8863V68.1634H20.4496V68.5543H19.8863ZM21.1351 67.8565C21.0483 67.8565 20.9754 67.8271 20.9165 67.7682C20.8577 67.7093 20.8283 67.6365 20.8283 67.5496C20.8283 67.4627 20.8577 67.3898 20.9165 67.331C20.9754 67.2721 21.0483 67.2427 21.1351 67.2427C21.2192 67.2427 21.2907 67.2721 21.3495 67.331C21.4084 67.3898 21.4378 67.4627 21.4378 67.5496C21.4378 67.6365 21.4084 67.7093 21.3495 67.7682C21.2907 67.8271 21.2192 67.8565 21.1351 67.8565ZM21.3706 68.1634V70.4797H20.8913V68.1634H21.3706ZM23.1685 68.1255C23.3506 68.1255 23.5132 68.1634 23.6561 68.239C23.8019 68.3147 23.9154 68.4268 23.9966 68.5754C24.0779 68.7239 24.1186 68.9033 24.1186 69.1135V70.4797H23.6435V69.1849C23.6435 68.9775 23.5917 68.8192 23.488 68.7099C23.3843 68.5978 23.2427 68.5417 23.0634 68.5417C22.884 68.5417 22.7411 68.5978 22.6346 68.7099C22.5309 68.8192 22.479 68.9775 22.479 69.1849V70.4797H21.9998V68.1634H22.479V68.4282C22.5575 68.3329 22.657 68.2587 22.7775 68.2054C22.9008 68.1522 23.0311 68.1255 23.1685 68.1255ZM25.6631 68.1255C25.8425 68.1255 26.0009 68.162 26.1382 68.2348C26.2783 68.3049 26.3876 68.3932 26.4661 68.4997V68.1634H26.9495V70.5176C26.9495 70.7306 26.9047 70.9197 26.815 71.0851C26.7253 71.2533 26.595 71.385 26.424 71.4803C26.2559 71.5756 26.0541 71.6232 25.8187 71.6232C25.5048 71.6232 25.2441 71.5489 25.0368 71.4004C24.8294 71.2547 24.7116 71.0557 24.6836 70.8034H25.1587C25.1951 70.924 25.2722 71.0206 25.3899 71.0935C25.5104 71.1692 25.6533 71.207 25.8187 71.207C26.0121 71.207 26.1676 71.1482 26.2853 71.0305C26.4058 70.9127 26.4661 70.7418 26.4661 70.5176V70.1308C26.3848 70.2401 26.2741 70.3326 26.134 70.4083C25.9966 70.4811 25.8397 70.5176 25.6631 70.5176C25.4613 70.5176 25.2764 70.4671 25.1082 70.3662C24.9429 70.2625 24.8111 70.1196 24.713 69.9374C24.6178 69.7525 24.5701 69.5437 24.5701 69.311C24.5701 69.0784 24.6178 68.8724 24.713 68.6931C24.8111 68.5137 24.9429 68.375 25.1082 68.2769C25.2764 68.176 25.4613 68.1255 25.6631 68.1255ZM26.4661 69.3195C26.4661 69.1597 26.4325 69.021 26.3652 68.9033C26.3007 68.7856 26.2153 68.6959 26.1088 68.6342C26.0023 68.5726 25.8873 68.5417 25.764 68.5417C25.6407 68.5417 25.5258 68.5726 25.4193 68.6342C25.3128 68.6931 25.2259 68.7813 25.1587 68.8991C25.0942 69.014 25.062 69.1513 25.062 69.311C25.062 69.4708 25.0942 69.6109 25.1587 69.7314C25.2259 69.8519 25.3128 69.9444 25.4193 70.0089C25.5286 70.0706 25.6435 70.1014 25.764 70.1014C25.8873 70.1014 26.0023 70.0706 26.1088 70.0089C26.2153 69.9472 26.3007 69.8576 26.3652 69.7398C26.4325 69.6193 26.4661 69.4792 26.4661 69.3195ZM29.5875 69.3237L30.6553 70.4797H30.0079L29.1503 69.4834V70.4797H28.671V67.3688H29.1503V69.1765L29.9911 68.1634H30.6553L29.5875 69.3237ZM32.1675 68.1255C32.3497 68.1255 32.5122 68.1634 32.6552 68.239C32.8009 68.3147 32.9144 68.4268 32.9957 68.5754C33.077 68.7239 33.1176 68.9033 33.1176 69.1135V70.4797H32.6426V69.1849C32.6426 68.9775 32.5907 68.8192 32.487 68.7099C32.3833 68.5978 32.2418 68.5417 32.0624 68.5417C31.883 68.5417 31.7401 68.5978 31.6336 68.7099C31.5299 68.8192 31.4781 68.9775 31.4781 69.1849V70.4797H30.9988V68.1634H31.4781V68.4282C31.5565 68.3329 31.656 68.2587 31.7765 68.2054C31.8999 68.1522 32.0302 68.1255 32.1675 68.1255ZM34.7336 70.5176C34.515 70.5176 34.3175 70.4685 34.1409 70.3704C33.9643 70.2695 33.8256 70.1294 33.7247 69.95C33.6238 69.7679 33.5734 69.5577 33.5734 69.3195C33.5734 69.084 33.6252 68.8752 33.7289 68.6931C33.8326 68.5109 33.9741 68.3708 34.1535 68.2727C34.3329 68.1746 34.5333 68.1255 34.7547 68.1255C34.9761 68.1255 35.1765 68.1746 35.3558 68.2727C35.5352 68.3708 35.6767 68.5109 35.7804 68.6931C35.8841 68.8752 35.936 69.084 35.936 69.3195C35.936 69.5549 35.8827 69.7637 35.7762 69.9458C35.6697 70.128 35.524 70.2695 35.339 70.3704C35.1568 70.4685 34.9551 70.5176 34.7336 70.5176ZM34.7336 70.1014C34.857 70.1014 34.9719 70.072 35.0784 70.0131C35.1877 69.9542 35.276 69.866 35.3432 69.7483C35.4105 69.6305 35.4441 69.4876 35.4441 69.3195C35.4441 69.1513 35.4119 69.0098 35.3474 68.8949C35.283 68.7771 35.1975 68.6889 35.091 68.63C34.9845 68.5712 34.8696 68.5417 34.7463 68.5417C34.6229 68.5417 34.508 68.5712 34.4015 68.63C34.2978 68.6889 34.2152 68.7771 34.1535 68.8949C34.0918 69.0098 34.061 69.1513 34.061 69.3195C34.061 69.5689 34.1241 69.7623 34.2502 69.8996C34.3791 70.0341 34.5403 70.1014 34.7336 70.1014ZM39.5206 68.1634L38.8018 70.4797H38.2973L37.8307 68.7687L37.364 70.4797H36.8596L36.1365 68.1634H36.6241L37.1076 70.0257L37.5995 68.1634H38.0997L38.5706 70.0173L39.0498 68.1634H39.5206ZM40.3581 67.3688V70.4797H39.8788V67.3688H40.3581ZM43.1102 69.2648C43.1102 69.3517 43.1046 69.4302 43.0934 69.5002H41.3236C41.3376 69.6852 41.4063 69.8337 41.5296 69.9458C41.6529 70.0579 41.8042 70.114 41.9836 70.114C42.2414 70.114 42.4236 70.0061 42.5301 69.7903H43.0472C42.9771 70.0033 42.8496 70.1785 42.6646 70.3158C42.4825 70.4503 42.2554 70.5176 41.9836 70.5176C41.7622 70.5176 41.5632 70.4685 41.3866 70.3704C41.2129 70.2695 41.0755 70.1294 40.9746 69.95C40.8766 69.7679 40.8275 69.5577 40.8275 69.3195C40.8275 69.0812 40.8752 68.8724 40.9704 68.6931C41.0685 68.5109 41.2045 68.3708 41.3782 68.2727C41.5548 68.1746 41.7566 68.1255 41.9836 68.1255C42.2022 68.1255 42.397 68.1732 42.5679 68.2685C42.7389 68.3638 42.872 68.4983 42.9673 68.672C43.0626 68.843 43.1102 69.0406 43.1102 69.2648ZM42.61 69.1135C42.6072 68.9369 42.5441 68.7954 42.4208 68.6889C42.2975 68.5824 42.1447 68.5291 41.9626 68.5291C41.7972 68.5291 41.6557 68.5824 41.538 68.6889C41.4203 68.7926 41.3502 68.9341 41.3278 69.1135H42.61ZM43.4221 69.311C43.4221 69.0784 43.4698 68.8724 43.5651 68.6931C43.6632 68.5137 43.7949 68.375 43.9602 68.2769C44.1284 68.176 44.3148 68.1255 44.5194 68.1255C44.6707 68.1255 44.8192 68.1592 44.965 68.2264C45.1135 68.2909 45.2312 68.3778 45.3181 68.4871V67.3688H45.8016V70.4797H45.3181V70.1308C45.2396 70.2429 45.1303 70.3354 44.9902 70.4083C44.8529 70.4811 44.6945 70.5176 44.5152 70.5176C44.3134 70.5176 44.1284 70.4671 43.9602 70.3662C43.7949 70.2625 43.6632 70.1196 43.5651 69.9374C43.4698 69.7525 43.4221 69.5437 43.4221 69.311ZM45.3181 69.3195C45.3181 69.1597 45.2845 69.021 45.2172 68.9033C45.1527 68.7856 45.0673 68.6959 44.9608 68.6342C44.8543 68.5726 44.7394 68.5417 44.616 68.5417C44.4927 68.5417 44.3778 68.5726 44.2713 68.6342C44.1648 68.6931 44.0779 68.7813 44.0107 68.8991C43.9462 69.014 43.914 69.1513 43.914 69.311C43.914 69.4708 43.9462 69.6109 44.0107 69.7314C44.0779 69.8519 44.1648 69.9444 44.2713 70.0089C44.3806 70.0706 44.4955 70.1014 44.616 70.1014C44.7394 70.1014 44.8543 70.0706 44.9608 70.0089C45.0673 69.9472 45.1527 69.8576 45.2172 69.7398C45.2845 69.6193 45.3181 69.4792 45.3181 69.3195ZM47.3643 68.1255C47.5437 68.1255 47.702 68.162 47.8393 68.2348C47.9795 68.3049 48.0888 68.3932 48.1673 68.4997V68.1634H48.6507V70.5176C48.6507 70.7306 48.6059 70.9197 48.5162 71.0851C48.4265 71.2533 48.2962 71.385 48.1252 71.4803C47.9571 71.5756 47.7553 71.6232 47.5198 71.6232C47.206 71.6232 46.9453 71.5489 46.7379 71.4004C46.5305 71.2547 46.4128 71.0557 46.3848 70.8034H46.8598C46.8963 70.924 46.9733 71.0206 47.091 71.0935C47.2116 71.1692 47.3545 71.207 47.5198 71.207C47.7132 71.207 47.8688 71.1482 47.9865 71.0305C48.107 70.9127 48.1673 70.7418 48.1673 70.5176V70.1308C48.086 70.2401 47.9753 70.3326 47.8351 70.4083C47.6978 70.4811 47.5409 70.5176 47.3643 70.5176C47.1625 70.5176 46.9775 70.4671 46.8094 70.3662C46.644 70.2625 46.5123 70.1196 46.4142 69.9374C46.3189 69.7525 46.2713 69.5437 46.2713 69.311C46.2713 69.0784 46.3189 68.8724 46.4142 68.6931C46.5123 68.5137 46.644 68.375 46.8094 68.2769C46.9775 68.176 47.1625 68.1255 47.3643 68.1255ZM48.1673 69.3195C48.1673 69.1597 48.1336 69.021 48.0664 68.9033C48.0019 68.7856 47.9164 68.6959 47.8099 68.6342C47.7034 68.5726 47.5885 68.5417 47.4652 68.5417C47.3419 68.5417 47.227 68.5726 47.1205 68.6342C47.014 68.6931 46.9271 68.7813 46.8598 68.8991C46.7954 69.014 46.7631 69.1513 46.7631 69.311C46.7631 69.4708 46.7954 69.6109 46.8598 69.7314C46.9271 69.8519 47.014 69.9444 47.1205 70.0089C47.2298 70.0706 47.3447 70.1014 47.4652 70.1014C47.5885 70.1014 47.7034 70.0706 47.8099 70.0089C47.9164 69.9472 48.0019 69.8576 48.0664 69.7398C48.1336 69.6193 48.1673 69.4792 48.1673 69.3195ZM51.4032 69.2648C51.4032 69.3517 51.3976 69.4302 51.3863 69.5002H49.6165C49.6305 69.6852 49.6992 69.8337 49.8225 69.9458C49.9458 70.0579 50.0971 70.114 50.2765 70.114C50.5344 70.114 50.7165 70.0061 50.823 69.7903H51.3401C51.27 70.0033 51.1425 70.1785 50.9575 70.3158C50.7754 70.4503 50.5484 70.5176 50.2765 70.5176C50.0551 70.5176 49.8561 70.4685 49.6796 70.3704C49.5058 70.2695 49.3685 70.1294 49.2676 69.95C49.1695 69.7679 49.1204 69.5577 49.1204 69.3195C49.1204 69.0812 49.1681 68.8724 49.2634 68.6931C49.3615 68.5109 49.4974 68.3708 49.6711 68.2727C49.8477 68.1746 50.0495 68.1255 50.2765 68.1255C50.4951 68.1255 50.6899 68.1732 50.8609 68.2685C51.0318 68.3638 51.1649 68.4983 51.2602 68.672C51.3555 68.843 51.4032 69.0406 51.4032 69.2648ZM50.9029 69.1135C50.9001 68.9369 50.837 68.7954 50.7137 68.6889C50.5904 68.5824 50.4377 68.5291 50.2555 68.5291C50.0901 68.5291 49.9486 68.5824 49.8309 68.6889C49.7132 68.7926 49.6431 68.9341 49.6207 69.1135H50.9029Z" fill="#80003E"/>
<path d="M97.1902 56.509V62.3777H96.0131V56.509H97.1902ZM98.0505 60.0319C98.0505 59.561 98.143 59.1435 98.328 58.7791C98.5185 58.4148 98.7764 58.1345 99.1015 57.9383C99.4266 57.7421 99.7881 57.6441 100.186 57.6441C100.489 57.6441 100.777 57.7113 101.052 57.8458C101.327 57.9748 101.545 58.1485 101.708 58.3671V56.1559H102.902V62.3777H101.708V61.6882C101.562 61.9181 101.358 62.103 101.094 62.2432C100.831 62.3833 100.525 62.4534 100.178 62.4534C99.7853 62.4534 99.4266 62.3525 99.1015 62.1507C98.7764 61.9489 98.5185 61.6658 98.328 61.3015C98.143 60.9315 98.0505 60.5083 98.0505 60.0319ZM101.716 60.0487C101.716 59.7628 101.66 59.519 101.548 59.3172C101.436 59.1098 101.285 58.9529 101.094 58.8464C100.904 58.7343 100.699 58.6782 100.48 58.6782C100.262 58.6782 100.06 58.7315 99.875 58.838C99.69 58.9445 99.5387 59.1014 99.421 59.3088C99.3089 59.5106 99.2528 59.7516 99.2528 60.0319C99.2528 60.3122 99.3089 60.5588 99.421 60.7718C99.5387 60.9792 99.69 61.1389 99.875 61.251C100.066 61.3631 100.267 61.4192 100.48 61.4192C100.699 61.4192 100.904 61.3659 101.094 61.2594C101.285 61.1473 101.436 60.9904 101.548 60.7886C101.66 60.5812 101.716 60.3346 101.716 60.0487ZM108.382 59.9478C108.382 60.116 108.37 60.2673 108.348 60.4018H104.943C104.971 60.7382 105.088 61.0016 105.296 61.1922C105.503 61.3828 105.758 61.478 106.061 61.478C106.498 61.478 106.809 61.2903 106.994 60.9147H108.264C108.129 61.3631 107.871 61.7331 107.49 62.0246C107.109 62.3104 106.641 62.4534 106.086 62.4534C105.638 62.4534 105.234 62.3553 104.875 62.1591C104.522 61.9573 104.245 61.6742 104.043 61.3099C103.847 60.9455 103.749 60.5252 103.749 60.0487C103.749 59.5667 103.847 59.1435 104.043 58.7791C104.239 58.4148 104.514 58.1345 104.867 57.9383C105.22 57.7421 105.627 57.6441 106.086 57.6441C106.529 57.6441 106.924 57.7393 107.272 57.9299C107.625 58.1205 107.897 58.3924 108.087 58.7455C108.283 59.093 108.382 59.4938 108.382 59.9478ZM107.162 59.6115C107.157 59.3088 107.047 59.0678 106.834 58.8884C106.621 58.7034 106.361 58.611 106.053 58.611C105.761 58.611 105.514 58.7006 105.313 58.88C105.116 59.0538 104.996 59.2976 104.951 59.6115H107.162ZM108.938 60.0319C108.938 59.561 109.031 59.1435 109.216 58.7791C109.406 58.4148 109.661 58.1345 109.981 57.9383C110.306 57.7421 110.667 57.6441 111.065 57.6441C111.413 57.6441 111.715 57.7141 111.973 57.8543C112.237 57.9944 112.447 58.1709 112.604 58.3839V57.7197H113.789V62.3777H112.604V61.6966C112.453 61.9153 112.242 62.0974 111.973 62.2432C111.71 62.3833 111.404 62.4534 111.057 62.4534C110.664 62.4534 110.306 62.3525 109.981 62.1507C109.661 61.9489 109.406 61.6658 109.216 61.3015C109.031 60.9315 108.938 60.5083 108.938 60.0319ZM112.604 60.0487C112.604 59.7628 112.548 59.519 112.436 59.3172C112.324 59.1098 112.172 58.9529 111.982 58.8464C111.791 58.7343 111.587 58.6782 111.368 58.6782C111.149 58.6782 110.948 58.7315 110.763 58.838C110.578 58.9445 110.426 59.1014 110.309 59.3088C110.196 59.5106 110.14 59.7516 110.14 60.0319C110.14 60.3122 110.196 60.5588 110.309 60.7718C110.426 60.9792 110.578 61.1389 110.763 61.251C110.953 61.3631 111.155 61.4192 111.368 61.4192C111.587 61.4192 111.791 61.3659 111.982 61.2594C112.172 61.1473 112.324 60.9904 112.436 60.7886C112.548 60.5812 112.604 60.3346 112.604 60.0487ZM116.31 58.6866V60.9399C116.31 61.0969 116.346 61.2118 116.419 61.2847C116.497 61.3519 116.626 61.3856 116.806 61.3856H117.352V62.3777H116.612C115.62 62.3777 115.124 61.8956 115.124 60.9315V58.6866H114.569V57.7197H115.124V56.5678H116.31V57.7197H117.352V58.6866H116.31ZM118.796 57.1648C118.588 57.1648 118.415 57.1003 118.274 56.9714C118.14 56.8369 118.073 56.6715 118.073 56.4754C118.073 56.2792 118.14 56.1166 118.274 55.9877C118.415 55.8532 118.588 55.7859 118.796 55.7859C119.003 55.7859 119.174 55.8532 119.309 55.9877C119.449 56.1166 119.519 56.2792 119.519 56.4754C119.519 56.6715 119.449 56.8369 119.309 56.9714C119.174 57.1003 119.003 57.1648 118.796 57.1648ZM119.376 57.7197V62.3777H118.199V57.7197H119.376ZM122.607 62.4534C122.159 62.4534 121.755 62.3553 121.396 62.1591C121.038 61.9573 120.755 61.6742 120.547 61.3099C120.345 60.9455 120.245 60.5252 120.245 60.0487C120.245 59.5723 120.348 59.1519 120.556 58.7875C120.769 58.4232 121.057 58.1429 121.422 57.9467C121.786 57.745 122.192 57.6441 122.641 57.6441C123.089 57.6441 123.496 57.745 123.86 57.9467C124.224 58.1429 124.51 58.4232 124.718 58.7875C124.931 59.1519 125.037 59.5723 125.037 60.0487C125.037 60.5252 124.928 60.9455 124.709 61.3099C124.496 61.6742 124.205 61.9573 123.835 62.1591C123.47 62.3553 123.061 62.4534 122.607 62.4534ZM122.607 61.4276C122.82 61.4276 123.019 61.3771 123.204 61.2763C123.395 61.1698 123.546 61.0128 123.658 60.8054C123.77 60.598 123.826 60.3458 123.826 60.0487C123.826 59.6059 123.709 59.2668 123.473 59.0314C123.243 58.7903 122.96 58.6698 122.624 58.6698C122.288 58.6698 122.005 58.7903 121.775 59.0314C121.551 59.2668 121.438 59.6059 121.438 60.0487C121.438 60.4915 121.548 60.8334 121.766 61.0745C121.991 61.3099 122.271 61.4276 122.607 61.4276ZM128.482 57.6525C129.037 57.6525 129.485 57.829 129.827 58.1822C130.169 58.5297 130.34 59.0173 130.34 59.6451V62.3777H129.163V59.8049C129.163 59.4349 129.07 59.1519 128.885 58.9557C128.7 58.7539 128.448 58.653 128.129 58.653C127.803 58.653 127.546 58.7539 127.355 58.9557C127.17 59.1519 127.078 59.4349 127.078 59.8049V62.3777H125.9V57.7197H127.078V58.2999C127.235 58.0981 127.433 57.9411 127.675 57.829C127.921 57.7113 128.19 57.6525 128.482 57.6525Z" fill="black"/>
<path d="M97.6624 67.558V70.4797H97.1831V67.558H97.6624ZM99.4603 68.1255C99.6424 68.1255 99.805 68.1634 99.9479 68.239C100.094 68.3147 100.207 68.4268 100.288 68.5754C100.37 68.7239 100.41 68.9033 100.41 69.1135V70.4797H99.9353V69.1849C99.9353 68.9775 99.8835 68.8192 99.7798 68.7099C99.6761 68.5978 99.5345 68.5417 99.3552 68.5417C99.1758 68.5417 99.0329 68.5978 98.9264 68.7099C98.8227 68.8192 98.7708 68.9775 98.7708 69.1849V70.4797H98.2916V68.1634H98.7708V68.4282C98.8493 68.3329 98.9488 68.2587 99.0693 68.2054C99.1926 68.1522 99.3229 68.1255 99.4603 68.1255ZM101.917 70.0509L102.573 68.1634H103.082L102.199 70.4797H101.627L100.748 68.1634H101.261L101.917 70.0509ZM105.567 69.2648C105.567 69.3517 105.561 69.4302 105.55 69.5002H103.78C103.794 69.6852 103.863 69.8337 103.986 69.9458C104.109 70.0579 104.261 70.114 104.44 70.114C104.698 70.114 104.88 70.0061 104.987 69.7903H105.504C105.434 70.0033 105.306 70.1785 105.121 70.3158C104.939 70.4503 104.712 70.5176 104.44 70.5176C104.219 70.5176 104.02 70.4685 103.843 70.3704C103.669 70.2695 103.532 70.1294 103.431 69.95C103.333 69.7679 103.284 69.5577 103.284 69.3195C103.284 69.0812 103.332 68.8724 103.427 68.6931C103.525 68.5109 103.661 68.3708 103.835 68.2727C104.011 68.1746 104.213 68.1255 104.44 68.1255C104.659 68.1255 104.854 68.1732 105.025 68.2685C105.195 68.3638 105.329 68.4983 105.424 68.672C105.519 68.843 105.567 69.0406 105.567 69.2648ZM105.067 69.1135C105.064 68.9369 105.001 68.7954 104.877 68.6889C104.754 68.5824 104.601 68.5291 104.419 68.5291C104.254 68.5291 104.112 68.5824 103.995 68.6889C103.877 68.7926 103.807 68.9341 103.784 69.1135H105.067ZM107.207 68.1255C107.389 68.1255 107.552 68.1634 107.695 68.239C107.841 68.3147 107.954 68.4268 108.035 68.5754C108.117 68.7239 108.157 68.9033 108.157 69.1135V70.4797H107.682V69.1849C107.682 68.9775 107.63 68.8192 107.527 68.7099C107.423 68.5978 107.281 68.5417 107.102 68.5417C106.923 68.5417 106.78 68.5978 106.673 68.7099C106.57 68.8192 106.518 68.9775 106.518 69.1849V70.4797H106.038V68.1634H106.518V68.4282C106.596 68.3329 106.696 68.2587 106.816 68.2054C106.94 68.1522 107.07 68.1255 107.207 68.1255ZM109.328 68.5543V69.8365C109.328 69.9234 109.347 69.9865 109.387 70.0257C109.429 70.0621 109.499 70.0804 109.597 70.0804H109.891V70.4797H109.513C109.297 70.4797 109.131 70.4293 109.017 70.3284C108.902 70.2275 108.844 70.0635 108.844 69.8365V68.5543H108.571V68.1634H108.844V67.5874H109.328V68.1634H109.891V68.5543H109.328ZM110.577 67.8565C110.49 67.8565 110.417 67.8271 110.358 67.7682C110.299 67.7093 110.27 67.6365 110.27 67.5496C110.27 67.4627 110.299 67.3898 110.358 67.331C110.417 67.2721 110.49 67.2427 110.577 67.2427C110.661 67.2427 110.732 67.2721 110.791 67.331C110.85 67.3898 110.879 67.4627 110.879 67.5496C110.879 67.6365 110.85 67.7093 110.791 67.7682C110.732 67.8271 110.661 67.8565 110.577 67.8565ZM110.812 68.1634V70.4797H110.333V68.1634H110.812ZM112.61 68.1255C112.792 68.1255 112.955 68.1634 113.098 68.239C113.243 68.3147 113.357 68.4268 113.438 68.5754C113.519 68.7239 113.56 68.9033 113.56 69.1135V70.4797H113.085V69.1849C113.085 68.9775 113.033 68.8192 112.929 68.7099C112.826 68.5978 112.684 68.5417 112.505 68.5417C112.325 68.5417 112.182 68.5978 112.076 68.7099C111.972 68.8192 111.92 68.9775 111.92 69.1849V70.4797H111.441V68.1634H111.92V68.4282C111.999 68.3329 112.098 68.2587 112.219 68.2054C112.342 68.1522 112.473 68.1255 112.61 68.1255ZM115.105 68.1255C115.284 68.1255 115.442 68.162 115.58 68.2348C115.72 68.3049 115.829 68.3932 115.907 68.4997V68.1634H116.391V70.5176C116.391 70.7306 116.346 70.9197 116.256 71.0851C116.167 71.2533 116.036 71.385 115.865 71.4803C115.697 71.5756 115.496 71.6232 115.26 71.6232C114.946 71.6232 114.686 71.5489 114.478 71.4004C114.271 71.2547 114.153 71.0557 114.125 70.8034H114.6C114.637 70.924 114.714 71.0206 114.831 71.0935C114.952 71.1692 115.095 71.207 115.26 71.207C115.453 71.207 115.609 71.1482 115.727 71.0305C115.847 70.9127 115.907 70.7418 115.907 70.5176V70.1308C115.826 70.2401 115.716 70.3326 115.575 70.4083C115.438 70.4811 115.281 70.5176 115.105 70.5176C114.903 70.5176 114.718 70.4671 114.55 70.3662C114.384 70.2625 114.253 70.1196 114.154 69.9374C114.059 69.7525 114.012 69.5437 114.012 69.311C114.012 69.0784 114.059 68.8724 114.154 68.6931C114.253 68.5137 114.384 68.375 114.55 68.2769C114.718 68.176 114.903 68.1255 115.105 68.1255ZM115.907 69.3195C115.907 69.1597 115.874 69.021 115.807 68.9033C115.742 68.7856 115.657 68.6959 115.55 68.6342C115.444 68.5726 115.329 68.5417 115.205 68.5417C115.082 68.5417 114.967 68.5726 114.861 68.6342C114.754 68.6931 114.667 68.7813 114.6 68.8991C114.536 69.014 114.503 69.1513 114.503 69.311C114.503 69.4708 114.536 69.6109 114.6 69.7314C114.667 69.8519 114.754 69.9444 114.861 70.0089C114.97 70.0706 115.085 70.1014 115.205 70.1014C115.329 70.1014 115.444 70.0706 115.55 70.0089C115.657 69.9472 115.742 69.8576 115.807 69.7398C115.874 69.6193 115.907 69.4792 115.907 69.3195ZM118.356 67.8565C118.269 67.8565 118.197 67.8271 118.138 67.7682C118.079 67.7093 118.049 67.6365 118.049 67.5496C118.049 67.4627 118.079 67.3898 118.138 67.331C118.197 67.2721 118.269 67.2427 118.356 67.2427C118.44 67.2427 118.512 67.2721 118.571 67.331C118.63 67.3898 118.659 67.4627 118.659 67.5496C118.659 67.6365 118.63 67.7093 118.571 67.7682C118.512 67.8271 118.44 67.8565 118.356 67.8565ZM118.592 68.1634V70.4797H118.112V68.1634H118.592ZM119.061 69.311C119.061 69.0784 119.109 68.8724 119.204 68.6931C119.302 68.5137 119.434 68.375 119.599 68.2769C119.767 68.176 119.954 68.1255 120.158 68.1255C120.31 68.1255 120.458 68.1592 120.604 68.2264C120.753 68.2909 120.87 68.3778 120.957 68.4871V67.3688H121.441V70.4797H120.957V70.1308C120.879 70.2429 120.769 70.3354 120.629 70.4083C120.492 70.4811 120.334 70.5176 120.154 70.5176C119.952 70.5176 119.767 70.4671 119.599 70.3662C119.434 70.2625 119.302 70.1196 119.204 69.9374C119.109 69.7525 119.061 69.5437 119.061 69.311ZM120.957 69.3195C120.957 69.1597 120.924 69.021 120.856 68.9033C120.792 68.7856 120.706 68.6959 120.6 68.6342C120.493 68.5726 120.378 68.5417 120.255 68.5417C120.132 68.5417 120.017 68.5726 119.91 68.6342C119.804 68.6931 119.717 68.7813 119.65 68.8991C119.585 69.014 119.553 69.1513 119.553 69.311C119.553 69.4708 119.585 69.6109 119.65 69.7314C119.717 69.8519 119.804 69.9444 119.91 70.0089C120.02 70.0706 120.135 70.1014 120.255 70.1014C120.378 70.1014 120.493 70.0706 120.6 70.0089C120.706 69.9472 120.792 69.8576 120.856 69.7398C120.924 69.6193 120.957 69.4792 120.957 69.3195ZM124.193 69.2648C124.193 69.3517 124.187 69.4302 124.176 69.5002H122.406C122.42 69.6852 122.489 69.8337 122.612 69.9458C122.736 70.0579 122.887 70.114 123.066 70.114C123.324 70.114 123.506 70.0061 123.613 69.7903H124.13C124.06 70.0033 123.932 70.1785 123.747 70.3158C123.565 70.4503 123.338 70.5176 123.066 70.5176C122.845 70.5176 122.646 70.4685 122.469 70.3704C122.296 70.2695 122.158 70.1294 122.057 69.95C121.959 69.7679 121.91 69.5577 121.91 69.3195C121.91 69.0812 121.958 68.8724 122.053 68.6931C122.151 68.5109 122.287 68.3708 122.461 68.2727C122.638 68.1746 122.839 68.1255 123.066 68.1255C123.285 68.1255 123.48 68.1732 123.651 68.2685C123.822 68.3638 123.955 68.4983 124.05 68.672C124.145 68.843 124.193 69.0406 124.193 69.2648ZM123.693 69.1135C123.69 68.9369 123.627 68.7954 123.504 68.6889C123.38 68.5824 123.228 68.5291 123.045 68.5291C122.88 68.5291 122.738 68.5824 122.621 68.6889C122.503 68.7926 122.433 68.9341 122.411 69.1135H123.693ZM124.505 69.311C124.505 69.0784 124.553 68.8724 124.648 68.6931C124.746 68.5137 124.878 68.375 125.043 68.2769C125.211 68.176 125.396 68.1255 125.598 68.1255C125.78 68.1255 125.938 68.162 126.073 68.2348C126.21 68.3049 126.32 68.3932 126.401 68.4997V68.1634H126.884V70.4797H126.401V70.135C126.32 70.2443 126.209 70.3354 126.069 70.4083C125.929 70.4811 125.769 70.5176 125.59 70.5176C125.391 70.5176 125.208 70.4671 125.043 70.3662C124.878 70.2625 124.746 70.1196 124.648 69.9374C124.553 69.7525 124.505 69.5437 124.505 69.311ZM126.401 69.3195C126.401 69.1597 126.367 69.021 126.3 68.9033C126.236 68.7856 126.15 68.6959 126.044 68.6342C125.937 68.5726 125.822 68.5417 125.699 68.5417C125.576 68.5417 125.461 68.5726 125.354 68.6342C125.248 68.6931 125.161 68.7813 125.093 68.8991C125.029 69.014 124.997 69.1513 124.997 69.311C124.997 69.4708 125.029 69.6109 125.093 69.7314C125.161 69.8519 125.248 69.9444 125.354 70.0089C125.463 70.0706 125.578 70.1014 125.699 70.1014C125.822 70.1014 125.937 70.0706 126.044 70.0089C126.15 69.9472 126.236 69.8576 126.3 69.7398C126.367 69.6193 126.401 69.4792 126.401 69.3195ZM128.355 70.5176C128.172 70.5176 128.008 70.4853 127.863 70.4209C127.72 70.3536 127.606 70.2639 127.522 70.1518C127.438 70.0369 127.393 69.9094 127.388 69.7693H127.884C127.892 69.8674 127.938 69.95 128.023 70.0173C128.109 70.0818 128.217 70.114 128.346 70.114C128.481 70.114 128.584 70.0888 128.657 70.0383C128.733 69.9851 128.771 69.9178 128.771 69.8365C128.771 69.7497 128.729 69.6852 128.645 69.6432C128.563 69.6011 128.433 69.5549 128.254 69.5044C128.08 69.4568 127.938 69.4105 127.829 69.3657C127.72 69.3209 127.625 69.2522 127.543 69.1597C127.465 69.0672 127.426 68.9453 127.426 68.794C127.426 68.6706 127.462 68.5585 127.535 68.4576C127.608 68.3539 127.711 68.2727 127.846 68.2138C127.983 68.155 128.14 68.1255 128.317 68.1255C128.58 68.1255 128.792 68.1928 128.952 68.3273C129.114 68.459 129.201 68.6398 129.212 68.8696H128.733C128.725 68.7659 128.683 68.6833 128.607 68.6216C128.531 68.5599 128.429 68.5291 128.3 68.5291C128.174 68.5291 128.077 68.5529 128.01 68.6006C127.943 68.6482 127.909 68.7113 127.909 68.7898C127.909 68.8514 127.931 68.9033 127.976 68.9453C128.021 68.9873 128.076 69.021 128.14 69.0462C128.205 69.0686 128.3 69.098 128.426 69.1345C128.594 69.1793 128.732 69.2256 128.838 69.2732C128.947 69.318 129.041 69.3853 129.12 69.475C129.198 69.5647 129.239 69.6838 129.242 69.8323C129.242 69.9641 129.205 70.0818 129.132 70.1855C129.059 70.2892 128.956 70.3704 128.821 70.4293C128.69 70.4881 128.534 70.5176 128.355 70.5176Z" fill="black"/>
<path d="M172.505 62.4365C172.096 62.4365 171.726 62.3665 171.395 62.2263C171.07 62.0862 170.812 61.8844 170.622 61.621C170.431 61.3575 170.333 61.0464 170.327 60.6877H171.589C171.605 60.9287 171.69 61.1193 171.841 61.2594C171.998 61.3996 172.211 61.4696 172.48 61.4696C172.755 61.4696 172.97 61.4052 173.127 61.2763C173.284 61.1417 173.363 60.968 173.363 60.755C173.363 60.5812 173.309 60.4383 173.203 60.3262C173.096 60.2141 172.962 60.1272 172.799 60.0655C172.642 59.9983 172.424 59.9254 172.144 59.8469C171.762 59.7348 171.451 59.6255 171.21 59.519C170.975 59.4069 170.77 59.2416 170.597 59.0229C170.428 58.7987 170.344 58.5017 170.344 58.1317C170.344 57.7842 170.431 57.4815 170.605 57.2237C170.779 56.9658 171.023 56.7696 171.336 56.6351C171.65 56.495 172.009 56.4249 172.413 56.4249C173.018 56.4249 173.508 56.5735 173.884 56.8705C174.265 57.162 174.475 57.5712 174.515 58.0981H173.22C173.209 57.8963 173.122 57.7309 172.959 57.602C172.802 57.4675 172.592 57.4002 172.329 57.4002C172.099 57.4002 171.914 57.4591 171.774 57.5768C171.639 57.6945 171.572 57.8655 171.572 58.0897C171.572 58.2466 171.622 58.3783 171.723 58.4848C171.83 58.5857 171.959 58.6698 172.11 58.7371C172.267 58.7987 172.486 58.8716 172.766 58.9557C173.147 59.0678 173.458 59.1799 173.699 59.292C173.94 59.4041 174.147 59.5723 174.321 59.7965C174.495 60.0207 174.582 60.315 174.582 60.6793C174.582 60.9932 174.501 61.2847 174.338 61.5537C174.175 61.8228 173.937 62.0386 173.623 62.2011C173.309 62.3581 172.937 62.4365 172.505 62.4365ZM176.973 58.6866V60.9399C176.973 61.0969 177.009 61.2118 177.082 61.2847C177.161 61.3519 177.29 61.3856 177.469 61.3856H178.015V62.3777H177.276C176.283 62.3777 175.787 61.8956 175.787 60.9315V58.6866H175.232V57.7197H175.787V56.5678H176.973V57.7197H178.015V58.6866H176.973ZM180.039 58.4428C180.191 58.1962 180.387 58.0028 180.628 57.8627C180.874 57.7225 181.155 57.6525 181.469 57.6525V58.8884H181.157C180.787 58.8884 180.507 58.9753 180.317 59.1491C180.132 59.3228 180.039 59.6255 180.039 60.0571V62.3777H178.862V57.7197H180.039V58.4428ZM181.959 60.0319C181.959 59.561 182.051 59.1435 182.236 58.7791C182.427 58.4148 182.682 58.1345 183.001 57.9383C183.326 57.7421 183.688 57.6441 184.086 57.6441C184.433 57.6441 184.736 57.7141 184.994 57.8543C185.257 57.9944 185.468 58.1709 185.624 58.3839V57.7197H186.81V62.3777H185.624V61.6966C185.473 61.9153 185.263 62.0974 184.994 62.2432C184.73 62.3833 184.425 62.4534 184.077 62.4534C183.685 62.4534 183.326 62.3525 183.001 62.1507C182.682 61.9489 182.427 61.6658 182.236 61.3015C182.051 60.9315 181.959 60.5083 181.959 60.0319ZM185.624 60.0487C185.624 59.7628 185.568 59.519 185.456 59.3172C185.344 59.1098 185.193 58.9529 185.002 58.8464C184.812 58.7343 184.607 58.6782 184.389 58.6782C184.17 58.6782 183.968 58.7315 183.783 58.838C183.598 58.9445 183.447 59.1014 183.329 59.3088C183.217 59.5106 183.161 59.7516 183.161 60.0319C183.161 60.3122 183.217 60.5588 183.329 60.7718C183.447 60.9792 183.598 61.1389 183.783 61.251C183.974 61.3631 184.176 61.4192 184.389 61.4192C184.607 61.4192 184.812 61.3659 185.002 61.2594C185.193 61.1473 185.344 60.9904 185.456 60.7886C185.568 60.5812 185.624 60.3346 185.624 60.0487ZM189.33 58.6866V60.9399C189.33 61.0969 189.367 61.2118 189.439 61.2847C189.518 61.3519 189.647 61.3856 189.826 61.3856H190.373V62.3777H189.633C188.641 62.3777 188.145 61.8956 188.145 60.9315V58.6866H187.59V57.7197H188.145V56.5678H189.33V57.7197H190.373V58.6866H189.33ZM195.549 59.9478C195.549 60.116 195.538 60.2673 195.516 60.4018H192.111C192.139 60.7382 192.256 61.0016 192.464 61.1922C192.671 61.3828 192.926 61.478 193.229 61.478C193.666 61.478 193.977 61.2903 194.162 60.9147H195.432C195.297 61.3631 195.039 61.7331 194.658 62.0246C194.277 62.3104 193.809 62.4534 193.254 62.4534C192.806 62.4534 192.402 62.3553 192.043 62.1591C191.69 61.9573 191.413 61.6742 191.211 61.3099C191.015 60.9455 190.917 60.5252 190.917 60.0487C190.917 59.5667 191.015 59.1435 191.211 58.7791C191.407 58.4148 191.682 58.1345 192.035 57.9383C192.388 57.7421 192.794 57.6441 193.254 57.6441C193.697 57.6441 194.092 57.7393 194.44 57.9299C194.793 58.1205 195.065 58.3924 195.255 58.7455C195.451 59.093 195.549 59.4938 195.549 59.9478ZM194.33 59.6115C194.325 59.3088 194.215 59.0678 194.002 58.8884C193.789 58.7034 193.529 58.611 193.22 58.611C192.929 58.611 192.682 58.7006 192.481 58.88C192.284 59.0538 192.164 59.2976 192.119 59.6115H194.33ZM198.233 57.6441C198.581 57.6441 198.886 57.7141 199.15 57.8543C199.413 57.9888 199.62 58.1653 199.772 58.3839V57.7197H200.957V62.4113C200.957 62.8429 200.87 63.2269 200.697 63.5632C200.523 63.9051 200.262 64.1742 199.915 64.3704C199.567 64.5721 199.147 64.673 198.653 64.673C197.992 64.673 197.448 64.5189 197.022 64.2106C196.602 63.9023 196.364 63.4819 196.308 62.9494H197.476C197.538 63.1624 197.67 63.3306 197.872 63.4539C198.079 63.5828 198.328 63.6473 198.62 63.6473C198.962 63.6473 199.239 63.5436 199.452 63.3362C199.665 63.1344 199.772 62.8261 199.772 62.4113V61.6882C199.62 61.9068 199.41 62.089 199.141 62.2348C198.878 62.3805 198.575 62.4534 198.233 62.4534C197.841 62.4534 197.482 62.3525 197.157 62.1507C196.832 61.9489 196.574 61.6658 196.383 61.3015C196.198 60.9315 196.106 60.5083 196.106 60.0319C196.106 59.561 196.198 59.1435 196.383 58.7791C196.574 58.4148 196.829 58.1345 197.148 57.9383C197.474 57.7421 197.835 57.6441 198.233 57.6441ZM199.772 60.0487C199.772 59.7628 199.716 59.519 199.604 59.3172C199.491 59.1098 199.34 58.9529 199.15 58.8464C198.959 58.7343 198.754 58.6782 198.536 58.6782C198.317 58.6782 198.115 58.7315 197.93 58.838C197.745 58.9445 197.594 59.1014 197.476 59.3088C197.364 59.5106 197.308 59.7516 197.308 60.0319C197.308 60.3122 197.364 60.5588 197.476 60.7718C197.594 60.9792 197.745 61.1389 197.93 61.251C198.121 61.3631 198.323 61.4192 198.536 61.4192C198.754 61.4192 198.959 61.3659 199.15 61.2594C199.34 61.1473 199.491 60.9904 199.604 60.7886C199.716 60.5812 199.772 60.3346 199.772 60.0487ZM206.563 57.7197L203.679 64.5805H202.426L203.435 62.26L201.569 57.7197H202.889L204.091 60.9736L205.31 57.7197H206.563Z" fill="black"/>
<path d="M175.308 68.9789C175.465 69.007 175.599 69.0896 175.708 69.227C175.817 69.3643 175.872 69.5198 175.872 69.6936C175.872 69.8421 175.833 69.9767 175.754 70.0972C175.678 70.2149 175.568 70.3088 175.422 70.3788C175.276 70.4461 175.107 70.4797 174.913 70.4797H173.745V67.558H174.859C175.058 67.558 175.229 67.5916 175.372 67.6589C175.514 67.7262 175.622 67.8172 175.695 67.9322C175.768 68.0443 175.805 68.1704 175.805 68.3105C175.805 68.4787 175.76 68.6188 175.67 68.7309C175.58 68.843 175.46 68.9257 175.308 68.9789ZM174.224 68.7856H174.817C174.974 68.7856 175.095 68.7505 175.182 68.6805C175.272 68.6076 175.317 68.5039 175.317 68.3694C175.317 68.2376 175.272 68.1353 175.182 68.0625C175.095 67.9868 174.974 67.949 174.817 67.949H174.224V68.7856ZM174.871 70.0888C175.034 70.0888 175.161 70.0495 175.254 69.9711C175.346 69.8926 175.393 69.7833 175.393 69.6432C175.393 69.5002 175.344 69.3867 175.245 69.3026C175.147 69.2186 175.017 69.1765 174.854 69.1765H174.224V70.0888H174.871ZM178.49 68.1634V70.4797H178.011V70.2065C177.935 70.3018 177.836 70.3774 177.713 70.4335C177.592 70.4867 177.463 70.5134 177.326 70.5134C177.144 70.5134 176.98 70.4755 176.834 70.3999C176.691 70.3242 176.578 70.2121 176.494 70.0635C176.412 69.915 176.372 69.7356 176.372 69.5254V68.1634H176.847V69.454C176.847 69.6614 176.898 69.8211 177.002 69.9332C177.106 70.0425 177.247 70.0972 177.427 70.0972C177.606 70.0972 177.748 70.0425 177.851 69.9332C177.958 69.8211 178.011 69.6614 178.011 69.454V68.1634H178.49ZM179.367 67.8565C179.28 67.8565 179.207 67.8271 179.148 67.7682C179.089 67.7093 179.06 67.6365 179.06 67.5496C179.06 67.4627 179.089 67.3898 179.148 67.331C179.207 67.2721 179.28 67.2427 179.367 67.2427C179.451 67.2427 179.522 67.2721 179.581 67.331C179.64 67.3898 179.669 67.4627 179.669 67.5496C179.669 67.6365 179.64 67.7093 179.581 67.7682C179.522 67.8271 179.451 67.8565 179.367 67.8565ZM179.602 68.1634V70.4797H179.123V68.1634H179.602ZM180.71 67.3688V70.4797H180.231V67.3688H180.71ZM181.18 69.311C181.18 69.0784 181.228 68.8724 181.323 68.6931C181.421 68.5137 181.553 68.375 181.718 68.2769C181.886 68.176 182.073 68.1255 182.277 68.1255C182.428 68.1255 182.577 68.1592 182.723 68.2264C182.871 68.2909 182.989 68.3778 183.076 68.4871V67.3688H183.559V70.4797H183.076V70.1308C182.997 70.2429 182.888 70.3354 182.748 70.4083C182.611 70.4811 182.452 70.5176 182.273 70.5176C182.071 70.5176 181.886 70.4671 181.718 70.3662C181.553 70.2625 181.421 70.1196 181.323 69.9374C181.228 69.7525 181.18 69.5437 181.18 69.311ZM183.076 69.3195C183.076 69.1597 183.042 69.021 182.975 68.9033C182.91 68.7856 182.825 68.6959 182.719 68.6342C182.612 68.5726 182.497 68.5417 182.374 68.5417C182.25 68.5417 182.136 68.5726 182.029 68.6342C181.923 68.6931 181.836 68.7813 181.768 68.8991C181.704 69.014 181.672 69.1513 181.672 69.311C181.672 69.4708 181.704 69.6109 181.768 69.7314C181.836 69.8519 181.923 69.9444 182.029 70.0089C182.138 70.0706 182.253 70.1014 182.374 70.1014C182.497 70.1014 182.612 70.0706 182.719 70.0089C182.825 69.9472 182.91 69.8576 182.975 69.7398C183.042 69.6193 183.076 69.4792 183.076 69.3195ZM184.433 67.8565C184.346 67.8565 184.273 67.8271 184.214 67.7682C184.155 67.7093 184.126 67.6365 184.126 67.5496C184.126 67.4627 184.155 67.3898 184.214 67.331C184.273 67.2721 184.346 67.2427 184.433 67.2427C184.517 67.2427 184.588 67.2721 184.647 67.331C184.706 67.3898 184.735 67.4627 184.735 67.5496C184.735 67.6365 184.706 67.7093 184.647 67.7682C184.588 67.8271 184.517 67.8565 184.433 67.8565ZM184.668 68.1634V70.4797H184.189V68.1634H184.668ZM186.466 68.1255C186.648 68.1255 186.811 68.1634 186.954 68.239C187.099 68.3147 187.213 68.4268 187.294 68.5754C187.375 68.7239 187.416 68.9033 187.416 69.1135V70.4797H186.941V69.1849C186.941 68.9775 186.889 68.8192 186.785 68.7099C186.682 68.5978 186.54 68.5417 186.361 68.5417C186.181 68.5417 186.039 68.5978 185.932 68.7099C185.828 68.8192 185.776 68.9775 185.776 69.1849V70.4797H185.297V68.1634H185.776V68.4282C185.855 68.3329 185.954 68.2587 186.075 68.2054C186.198 68.1522 186.329 68.1255 186.466 68.1255ZM188.961 68.1255C189.14 68.1255 189.298 68.162 189.436 68.2348C189.576 68.3049 189.685 68.3932 189.764 68.4997V68.1634H190.247V70.5176C190.247 70.7306 190.202 70.9197 190.112 71.0851C190.023 71.2533 189.892 71.385 189.722 71.4803C189.553 71.5756 189.352 71.6232 189.116 71.6232C188.802 71.6232 188.542 71.5489 188.334 71.4004C188.127 71.2547 188.009 71.0557 187.981 70.8034H188.456C188.493 70.924 188.57 71.0206 188.687 71.0935C188.808 71.1692 188.951 71.207 189.116 71.207C189.31 71.207 189.465 71.1482 189.583 71.0305C189.703 70.9127 189.764 70.7418 189.764 70.5176V70.1308C189.682 70.2401 189.572 70.3326 189.431 70.4083C189.294 70.4811 189.137 70.5176 188.961 70.5176C188.759 70.5176 188.574 70.4671 188.406 70.3662C188.24 70.2625 188.109 70.1196 188.011 69.9374C187.915 69.7525 187.868 69.5437 187.868 69.311C187.868 69.0784 187.915 68.8724 188.011 68.6931C188.109 68.5137 188.24 68.375 188.406 68.2769C188.574 68.176 188.759 68.1255 188.961 68.1255ZM189.764 69.3195C189.764 69.1597 189.73 69.021 189.663 68.9033C189.598 68.7856 189.513 68.6959 189.406 68.6342C189.3 68.5726 189.185 68.5417 189.061 68.5417C188.938 68.5417 188.823 68.5726 188.717 68.6342C188.61 68.6931 188.523 68.7813 188.456 68.8991C188.392 69.014 188.359 69.1513 188.359 69.311C188.359 69.4708 188.392 69.6109 188.456 69.7314C188.523 69.8519 188.61 69.9444 188.717 70.0089C188.826 70.0706 188.941 70.1014 189.061 70.1014C189.185 70.1014 189.3 70.0706 189.406 70.0089C189.513 69.9472 189.598 69.8576 189.663 69.7398C189.73 69.6193 189.764 69.4792 189.764 69.3195ZM194.012 68.4282C194.012 68.5768 193.977 68.7169 193.907 68.8486C193.836 68.9803 193.724 69.0882 193.57 69.1723C193.416 69.2536 193.218 69.2942 192.977 69.2942H192.448V70.4797H191.969V67.558H192.977C193.202 67.558 193.391 67.5972 193.545 67.6757C193.702 67.7514 193.818 67.8551 193.894 67.9868C193.972 68.1185 194.012 68.2657 194.012 68.4282ZM192.977 68.9033C193.16 68.9033 193.296 68.8626 193.385 68.7813C193.475 68.6973 193.52 68.5796 193.52 68.4282C193.52 68.1087 193.339 67.949 192.977 67.949H192.448V68.9033H192.977ZM194.948 67.3688V70.4797H194.469V67.3688H194.948ZM195.417 69.311C195.417 69.0784 195.465 68.8724 195.56 68.6931C195.658 68.5137 195.79 68.375 195.956 68.2769C196.124 68.176 196.309 68.1255 196.51 68.1255C196.693 68.1255 196.851 68.162 196.985 68.2348C197.123 68.3049 197.232 68.3932 197.313 68.4997V68.1634H197.797V70.4797H197.313V70.135C197.232 70.2443 197.121 70.3354 196.981 70.4083C196.841 70.4811 196.681 70.5176 196.502 70.5176C196.303 70.5176 196.121 70.4671 195.956 70.3662C195.79 70.2625 195.658 70.1196 195.56 69.9374C195.465 69.7525 195.417 69.5437 195.417 69.311ZM197.313 69.3195C197.313 69.1597 197.28 69.021 197.212 68.9033C197.148 68.7856 197.063 68.6959 196.956 68.6342C196.85 68.5726 196.735 68.5417 196.611 68.5417C196.488 68.5417 196.373 68.5726 196.267 68.6342C196.16 68.6931 196.073 68.7813 196.006 68.8991C195.942 69.014 195.909 69.1513 195.909 69.311C195.909 69.4708 195.942 69.6109 196.006 69.7314C196.073 69.8519 196.16 69.9444 196.267 70.0089C196.376 70.0706 196.491 70.1014 196.611 70.1014C196.735 70.1014 196.85 70.0706 196.956 70.0089C197.063 69.9472 197.148 69.8576 197.212 69.7398C197.28 69.6193 197.313 69.4792 197.313 69.3195ZM199.595 68.1255C199.777 68.1255 199.94 68.1634 200.083 68.239C200.228 68.3147 200.342 68.4268 200.423 68.5754C200.504 68.7239 200.545 68.9033 200.545 69.1135V70.4797H200.07V69.1849C200.07 68.9775 200.018 68.8192 199.915 68.7099C199.811 68.5978 199.669 68.5417 199.49 68.5417C199.311 68.5417 199.168 68.5978 199.061 68.7099C198.957 68.8192 198.906 68.9775 198.906 69.1849V70.4797H198.426V68.1634H198.906V68.4282C198.984 68.3329 199.084 68.2587 199.204 68.2054C199.327 68.1522 199.458 68.1255 199.595 68.1255ZM201.997 70.5176C201.815 70.5176 201.651 70.4853 201.505 70.4209C201.362 70.3536 201.249 70.2639 201.165 70.1518C201.081 70.0369 201.036 69.9094 201.03 69.7693H201.526C201.535 69.8674 201.581 69.95 201.665 70.0173C201.752 70.0818 201.86 70.114 201.989 70.114C202.123 70.114 202.227 70.0888 202.3 70.0383C202.376 69.9851 202.413 69.9178 202.413 69.8365C202.413 69.7497 202.371 69.6852 202.287 69.6432C202.206 69.6011 202.076 69.5549 201.896 69.5044C201.723 69.4568 201.581 69.4105 201.472 69.3657C201.362 69.3209 201.267 69.2522 201.186 69.1597C201.107 69.0672 201.068 68.9453 201.068 68.794C201.068 68.6706 201.105 68.5585 201.177 68.4576C201.25 68.3539 201.354 68.2727 201.489 68.2138C201.626 68.155 201.783 68.1255 201.959 68.1255C202.223 68.1255 202.434 68.1928 202.594 68.3273C202.757 68.459 202.844 68.6398 202.855 68.8696H202.376C202.367 68.7659 202.325 68.6833 202.249 68.6216C202.174 68.5599 202.071 68.5291 201.943 68.5291C201.816 68.5291 201.72 68.5529 201.652 68.6006C201.585 68.6482 201.552 68.7113 201.552 68.7898C201.552 68.8514 201.574 68.9033 201.619 68.9453C201.664 68.9873 201.718 69.021 201.783 69.0462C201.847 69.0686 201.943 69.098 202.069 69.1345C202.237 69.1793 202.374 69.2256 202.481 69.2732C202.59 69.318 202.684 69.3853 202.762 69.475C202.841 69.5647 202.881 69.6838 202.884 69.8323C202.884 69.9641 202.848 70.0818 202.775 70.1855C202.702 70.2892 202.598 70.3704 202.464 70.4293C202.332 70.4881 202.177 70.5176 201.997 70.5176Z" fill="black"/>
<path d="M243.964 57.4591V58.9305H245.94V59.8637H243.964V61.4192H246.192V62.3777H242.787V56.5006H246.192V57.4591H243.964ZM249.835 62.3777L248.876 60.9315L248.027 62.3777H246.766L248.288 60.0403L246.749 57.7197H248.078L249.028 59.1575L249.885 57.7197H251.146L249.616 60.0403L251.163 62.3777H249.835ZM256.133 59.9478C256.133 60.116 256.121 60.2673 256.099 60.4018H252.694C252.722 60.7382 252.84 61.0016 253.047 61.1922C253.254 61.3828 253.509 61.478 253.812 61.478C254.249 61.478 254.56 61.2903 254.745 60.9147H256.015C255.88 61.3631 255.623 61.7331 255.241 62.0246C254.86 62.3104 254.392 62.4534 253.837 62.4534C253.389 62.4534 252.985 62.3553 252.627 62.1591C252.273 61.9573 251.996 61.6742 251.794 61.3099C251.598 60.9455 251.5 60.5252 251.5 60.0487C251.5 59.5667 251.598 59.1435 251.794 58.7791C251.99 58.4148 252.265 58.1345 252.618 57.9383C252.971 57.7421 253.378 57.6441 253.837 57.6441C254.28 57.6441 254.675 57.7393 255.023 57.9299C255.376 58.1205 255.648 58.3924 255.838 58.7455C256.035 59.093 256.133 59.4938 256.133 59.9478ZM254.913 59.6115C254.908 59.3088 254.799 59.0678 254.586 58.8884C254.373 58.7034 254.112 58.611 253.804 58.611C253.512 58.611 253.266 58.7006 253.064 58.88C252.868 59.0538 252.747 59.2976 252.702 59.6115H254.913ZM256.689 60.0487C256.689 59.5667 256.787 59.1463 256.983 58.7875C257.18 58.4232 257.451 58.1429 257.799 57.9467C258.146 57.745 258.544 57.6441 258.993 57.6441C259.57 57.6441 260.047 57.7898 260.422 58.0813C260.803 58.3671 261.058 58.7707 261.187 59.292H259.918C259.85 59.0902 259.736 58.9333 259.573 58.8212C259.416 58.7034 259.22 58.6446 258.984 58.6446C258.648 58.6446 258.382 58.7679 258.186 59.0145C257.99 59.2556 257.891 59.6003 257.891 60.0487C257.891 60.4915 257.99 60.8362 258.186 61.0829C258.382 61.3239 258.648 61.4444 258.984 61.4444C259.461 61.4444 259.772 61.2314 259.918 60.8054H261.187C261.058 61.3099 260.803 61.7107 260.422 62.0077C260.041 62.3048 259.565 62.4534 258.993 62.4534C258.544 62.4534 258.146 62.3553 257.799 62.1591C257.451 61.9573 257.18 61.677 256.983 61.3183C256.787 60.954 256.689 60.5308 256.689 60.0487ZM266.447 57.7197V62.3777H265.261V61.7891C265.11 61.9909 264.911 62.1507 264.665 62.2684C264.423 62.3805 264.16 62.4365 263.874 62.4365C263.51 62.4365 263.188 62.3609 262.907 62.2095C262.627 62.0526 262.406 61.8256 262.243 61.5285C262.086 61.2258 262.008 60.8671 262.008 60.4523V57.7197H263.185V60.2841C263.185 60.6541 263.277 60.9399 263.462 61.1417C263.647 61.3379 263.899 61.436 264.219 61.436C264.544 61.436 264.799 61.3379 264.984 61.1417C265.169 60.9399 265.261 60.6541 265.261 60.2841V57.7197H266.447ZM268.979 58.6866V60.9399C268.979 61.0969 269.015 61.2118 269.088 61.2847C269.167 61.3519 269.296 61.3856 269.475 61.3856H270.021V62.3777H269.282C268.289 62.3777 267.793 61.8956 267.793 60.9315V58.6866H267.238V57.7197H267.793V56.5678H268.979V57.7197H270.021V58.6866H268.979ZM271.465 57.1648C271.258 57.1648 271.084 57.1003 270.944 56.9714C270.809 56.8369 270.742 56.6715 270.742 56.4754C270.742 56.2792 270.809 56.1166 270.944 55.9877C271.084 55.8532 271.258 55.7859 271.465 55.7859C271.672 55.7859 271.843 55.8532 271.978 55.9877C272.118 56.1166 272.188 56.2792 272.188 56.4754C272.188 56.6715 272.118 56.8369 271.978 56.9714C271.843 57.1003 271.672 57.1648 271.465 57.1648ZM272.045 57.7197V62.3777H270.868V57.7197H272.045ZM275.276 62.4534C274.828 62.4534 274.424 62.3553 274.066 62.1591C273.707 61.9573 273.424 61.6742 273.217 61.3099C273.015 60.9455 272.914 60.5252 272.914 60.0487C272.914 59.5723 273.018 59.1519 273.225 58.7875C273.438 58.4232 273.727 58.1429 274.091 57.9467C274.455 57.745 274.862 57.6441 275.31 57.6441C275.759 57.6441 276.165 57.745 276.529 57.9467C276.894 58.1429 277.179 58.4232 277.387 58.7875C277.6 59.1519 277.706 59.5723 277.706 60.0487C277.706 60.5252 277.597 60.9455 277.378 61.3099C277.165 61.6742 276.874 61.9573 276.504 62.1591C276.14 62.3553 275.731 62.4534 275.276 62.4534ZM275.276 61.4276C275.489 61.4276 275.688 61.3771 275.873 61.2763C276.064 61.1698 276.215 61.0128 276.327 60.8054C276.44 60.598 276.496 60.3458 276.496 60.0487C276.496 59.6059 276.378 59.2668 276.143 59.0314C275.913 58.7903 275.63 58.6698 275.293 58.6698C274.957 58.6698 274.674 58.7903 274.444 59.0314C274.22 59.2668 274.108 59.6059 274.108 60.0487C274.108 60.4915 274.217 60.8334 274.436 61.0745C274.66 61.3099 274.94 61.4276 275.276 61.4276ZM281.151 57.6525C281.706 57.6525 282.154 57.829 282.496 58.1822C282.838 58.5297 283.009 59.0173 283.009 59.6451V62.3777H281.832V59.8049C281.832 59.4349 281.74 59.1519 281.555 58.9557C281.37 58.7539 281.117 58.653 280.798 58.653C280.473 58.653 280.215 58.7539 280.024 58.9557C279.839 59.1519 279.747 59.4349 279.747 59.8049V62.3777H278.57V57.7197H279.747V58.2999C279.904 58.0981 280.103 57.9411 280.344 57.829C280.591 57.7113 280.86 57.6525 281.151 57.6525Z" fill="white"/>
<path d="M238.447 67.558V70.4797H237.967V67.558H238.447ZM241.88 68.1255C242.062 68.1255 242.225 68.1634 242.367 68.239C242.513 68.3147 242.627 68.4268 242.708 68.5754C242.792 68.7239 242.834 68.9033 242.834 69.1135V70.4797H242.359V69.1849C242.359 68.9775 242.307 68.8192 242.203 68.7099C242.1 68.5978 241.958 68.5417 241.779 68.5417C241.6 68.5417 241.457 68.5978 241.35 68.7099C241.246 68.8192 241.195 68.9775 241.195 69.1849V70.4797H240.72V69.1849C240.72 68.9775 240.668 68.8192 240.564 68.7099C240.46 68.5978 240.319 68.5417 240.139 68.5417C239.96 68.5417 239.817 68.5978 239.711 68.7099C239.607 68.8192 239.555 68.9775 239.555 69.1849V70.4797H239.076V68.1634H239.555V68.4282C239.633 68.3329 239.733 68.2587 239.853 68.2054C239.974 68.1522 240.103 68.1255 240.24 68.1255C240.425 68.1255 240.591 68.1648 240.736 68.2432C240.882 68.3217 240.994 68.4352 241.073 68.5838C241.143 68.4436 241.252 68.3329 241.401 68.2517C241.549 68.1676 241.709 68.1255 241.88 68.1255ZM243.923 68.5039C244.004 68.3974 244.115 68.3077 244.255 68.2348C244.395 68.162 244.554 68.1255 244.73 68.1255C244.932 68.1255 245.116 68.176 245.281 68.2769C245.449 68.375 245.581 68.5137 245.676 68.6931C245.771 68.8724 245.819 69.0784 245.819 69.311C245.819 69.5437 245.771 69.7525 245.676 69.9374C245.581 70.1196 245.449 70.2625 245.281 70.3662C245.116 70.4671 244.932 70.5176 244.73 70.5176C244.554 70.5176 244.397 70.4825 244.259 70.4125C244.122 70.3396 244.01 70.2499 243.923 70.1434V71.5812H243.444V68.1634H243.923V68.5039ZM245.331 69.311C245.331 69.1513 245.298 69.014 245.231 68.8991C245.166 68.7813 245.079 68.6931 244.97 68.6342C244.863 68.5726 244.749 68.5417 244.625 68.5417C244.505 68.5417 244.39 68.5726 244.28 68.6342C244.174 68.6959 244.087 68.7856 244.02 68.9033C243.955 69.021 243.923 69.1597 243.923 69.3195C243.923 69.4792 243.955 69.6193 244.02 69.7398C244.087 69.8576 244.174 69.9472 244.28 70.0089C244.39 70.0706 244.505 70.1014 244.625 70.1014C244.749 70.1014 244.863 70.0706 244.97 70.0089C245.079 69.9444 245.166 69.8519 245.231 69.7314C245.298 69.6109 245.331 69.4708 245.331 69.311ZM246.772 67.3688V70.4797H246.293V67.3688H246.772ZM249.525 69.2648C249.525 69.3517 249.519 69.4302 249.508 69.5002H247.738C247.752 69.6852 247.821 69.8337 247.944 69.9458C248.067 70.0579 248.218 70.114 248.398 70.114C248.656 70.114 248.838 70.0061 248.944 69.7903H249.461C249.391 70.0033 249.264 70.1785 249.079 70.3158C248.897 70.4503 248.67 70.5176 248.398 70.5176C248.176 70.5176 247.977 70.4685 247.801 70.3704C247.627 70.2695 247.49 70.1294 247.389 69.95C247.291 69.7679 247.242 69.5577 247.242 69.3195C247.242 69.0812 247.289 68.8724 247.385 68.6931C247.483 68.5109 247.619 68.3708 247.792 68.2727C247.969 68.1746 248.171 68.1255 248.398 68.1255C248.616 68.1255 248.811 68.1732 248.982 68.2685C249.153 68.3638 249.286 68.4983 249.382 68.672C249.477 68.843 249.525 69.0406 249.525 69.2648ZM249.024 69.1135C249.021 68.9369 248.958 68.7954 248.835 68.6889C248.712 68.5824 248.559 68.5291 248.377 68.5291C248.211 68.5291 248.07 68.5824 247.952 68.6889C247.835 68.7926 247.764 68.9341 247.742 69.1135H249.024ZM252.8 68.1255C252.982 68.1255 253.145 68.1634 253.288 68.239C253.434 68.3147 253.547 68.4268 253.628 68.5754C253.712 68.7239 253.754 68.9033 253.754 69.1135V70.4797H253.279V69.1849C253.279 68.9775 253.228 68.8192 253.124 68.7099C253.02 68.5978 252.879 68.5417 252.699 68.5417C252.52 68.5417 252.377 68.5978 252.27 68.7099C252.167 68.8192 252.115 68.9775 252.115 69.1849V70.4797H251.64V69.1849C251.64 68.9775 251.588 68.8192 251.484 68.7099C251.381 68.5978 251.239 68.5417 251.06 68.5417C250.88 68.5417 250.737 68.5978 250.631 68.7099C250.527 68.8192 250.475 68.9775 250.475 69.1849V70.4797H249.996V68.1634H250.475V68.4282C250.554 68.3329 250.653 68.2587 250.774 68.2054C250.894 68.1522 251.023 68.1255 251.161 68.1255C251.346 68.1255 251.511 68.1648 251.657 68.2432C251.802 68.3217 251.915 68.4352 251.993 68.5838C252.063 68.4436 252.172 68.3329 252.321 68.2517C252.469 68.1676 252.629 68.1255 252.8 68.1255ZM256.487 69.2648C256.487 69.3517 256.482 69.4302 256.47 69.5002H254.701C254.715 69.6852 254.783 69.8337 254.907 69.9458C255.03 70.0579 255.181 70.114 255.361 70.114C255.618 70.114 255.801 70.0061 255.907 69.7903H256.424C256.354 70.0033 256.227 70.1785 256.042 70.3158C255.859 70.4503 255.632 70.5176 255.361 70.5176C255.139 70.5176 254.94 70.4685 254.764 70.3704C254.59 70.2695 254.453 70.1294 254.352 69.95C254.254 69.7679 254.205 69.5577 254.205 69.3195C254.205 69.0812 254.252 68.8724 254.347 68.6931C254.446 68.5109 254.581 68.3708 254.755 68.2727C254.932 68.1746 255.134 68.1255 255.361 68.1255C255.579 68.1255 255.774 68.1732 255.945 68.2685C256.116 68.3638 256.249 68.4983 256.344 68.672C256.44 68.843 256.487 69.0406 256.487 69.2648ZM255.987 69.1135C255.984 68.9369 255.921 68.7954 255.798 68.6889C255.675 68.5824 255.522 68.5291 255.34 68.5291C255.174 68.5291 255.033 68.5824 254.915 68.6889C254.797 68.7926 254.727 68.9341 254.705 69.1135H255.987ZM258.128 68.1255C258.31 68.1255 258.472 68.1634 258.615 68.239C258.761 68.3147 258.874 68.4268 258.956 68.5754C259.037 68.7239 259.078 68.9033 259.078 69.1135V70.4797H258.603V69.1849C258.603 68.9775 258.551 68.8192 258.447 68.7099C258.343 68.5978 258.202 68.5417 258.023 68.5417C257.843 68.5417 257.7 68.5978 257.594 68.7099C257.49 68.8192 257.438 68.9775 257.438 69.1849V70.4797H256.959V68.1634H257.438V68.4282C257.517 68.3329 257.616 68.2587 257.737 68.2054C257.86 68.1522 257.99 68.1255 258.128 68.1255ZM260.248 68.5543V69.8365C260.248 69.9234 260.268 69.9865 260.307 70.0257C260.349 70.0621 260.419 70.0804 260.517 70.0804H260.811V70.4797H260.433C260.217 70.4797 260.052 70.4293 259.937 70.3284C259.822 70.2275 259.765 70.0635 259.765 69.8365V68.5543H259.491V68.1634H259.765V67.5874H260.248V68.1634H260.811V68.5543H260.248ZM261.497 67.8565C261.41 67.8565 261.337 67.8271 261.278 67.7682C261.22 67.7093 261.19 67.6365 261.19 67.5496C261.19 67.4627 261.22 67.3898 261.278 67.331C261.337 67.2721 261.41 67.2427 261.497 67.2427C261.581 67.2427 261.653 67.2721 261.711 67.331C261.77 67.3898 261.8 67.4627 261.8 67.5496C261.8 67.6365 261.77 67.7093 261.711 67.7682C261.653 67.8271 261.581 67.8565 261.497 67.8565ZM261.732 68.1634V70.4797H261.253V68.1634H261.732ZM263.53 68.1255C263.712 68.1255 263.875 68.1634 264.018 68.239C264.164 68.3147 264.277 68.4268 264.358 68.5754C264.44 68.7239 264.48 68.9033 264.48 69.1135V70.4797H264.005V69.1849C264.005 68.9775 263.954 68.8192 263.85 68.7099C263.746 68.5978 263.605 68.5417 263.425 68.5417C263.246 68.5417 263.103 68.5978 262.996 68.7099C262.893 68.8192 262.841 68.9775 262.841 69.1849V70.4797H262.362V68.1634H262.841V68.4282C262.919 68.3329 263.019 68.2587 263.139 68.2054C263.263 68.1522 263.393 68.1255 263.53 68.1255ZM266.025 68.1255C266.204 68.1255 266.363 68.162 266.5 68.2348C266.64 68.3049 266.749 68.3932 266.828 68.4997V68.1634H267.311V70.5176C267.311 70.7306 267.267 70.9197 267.177 71.0851C267.087 71.2533 266.957 71.385 266.786 71.4803C266.618 71.5756 266.416 71.6232 266.181 71.6232C265.867 71.6232 265.606 71.5489 265.399 71.4004C265.191 71.2547 265.073 71.0557 265.045 70.8034H265.521C265.557 70.924 265.634 71.0206 265.752 71.0935C265.872 71.1692 266.015 71.207 266.181 71.207C266.374 71.207 266.529 71.1482 266.647 71.0305C266.768 70.9127 266.828 70.7418 266.828 70.5176V70.1308C266.747 70.2401 266.636 70.3326 266.496 70.4083C266.358 70.4811 266.202 70.5176 266.025 70.5176C265.823 70.5176 265.638 70.4671 265.47 70.3662C265.305 70.2625 265.173 70.1196 265.075 69.9374C264.98 69.7525 264.932 69.5437 264.932 69.311C264.932 69.0784 264.98 68.8724 265.075 68.6931C265.173 68.5137 265.305 68.375 265.47 68.2769C265.638 68.176 265.823 68.1255 266.025 68.1255ZM266.828 69.3195C266.828 69.1597 266.794 69.021 266.727 68.9033C266.663 68.7856 266.577 68.6959 266.471 68.6342C266.364 68.5726 266.249 68.5417 266.126 68.5417C266.003 68.5417 265.888 68.5726 265.781 68.6342C265.675 68.6931 265.588 68.7813 265.521 68.8991C265.456 69.014 265.424 69.1513 265.424 69.311C265.424 69.4708 265.456 69.6109 265.521 69.7314C265.588 69.8519 265.675 69.9444 265.781 70.0089C265.89 70.0706 266.005 70.1014 266.126 70.1014C266.249 70.1014 266.364 70.0706 266.471 70.0089C266.577 69.9472 266.663 69.8576 266.727 69.7398C266.794 69.6193 266.828 69.4792 266.828 69.3195ZM269.996 70.5092C269.799 70.5092 269.623 70.4755 269.466 70.4083C269.309 70.3382 269.186 70.2401 269.096 70.114C269.006 69.9879 268.961 69.8407 268.961 69.6726H269.474C269.486 69.7987 269.535 69.9024 269.621 69.9837C269.711 70.0649 269.836 70.1056 269.996 70.1056C270.161 70.1056 270.29 70.0663 270.382 69.9879C270.475 69.9066 270.521 69.8029 270.521 69.6768C270.521 69.5787 270.492 69.4988 270.433 69.4372C270.377 69.3755 270.305 69.3279 270.218 69.2942C270.134 69.2606 270.017 69.2242 269.865 69.1849C269.675 69.1345 269.519 69.084 269.399 69.0336C269.281 68.9803 269.18 68.8991 269.096 68.7898C269.012 68.6805 268.97 68.5347 268.97 68.3525C268.97 68.1844 269.012 68.0373 269.096 67.9111C269.18 67.785 269.298 67.6883 269.449 67.6211C269.6 67.5538 269.776 67.5202 269.975 67.5202C270.258 67.5202 270.489 67.5916 270.668 67.7346C270.85 67.8747 270.951 68.0681 270.971 68.3147H270.441C270.433 68.2082 270.382 68.1171 270.29 68.0415C270.197 67.9658 270.075 67.9279 269.924 67.9279C269.787 67.9279 269.675 67.963 269.588 68.033C269.501 68.1031 269.457 68.204 269.457 68.3357C269.457 68.4254 269.484 68.4997 269.537 68.5585C269.593 68.6146 269.663 68.6594 269.748 68.6931C269.832 68.7267 269.947 68.7631 270.092 68.8024C270.286 68.8556 270.443 68.9089 270.563 68.9621C270.686 69.0154 270.79 69.098 270.874 69.2101C270.961 69.3195 271.005 69.4666 271.005 69.6516C271.005 69.8001 270.964 69.9402 270.883 70.072C270.804 70.2037 270.688 70.3102 270.534 70.3915C270.382 70.4699 270.203 70.5092 269.996 70.5092ZM272.575 70.5176C272.356 70.5176 272.159 70.4685 271.982 70.3704C271.805 70.2695 271.667 70.1294 271.566 69.95C271.465 69.7679 271.414 69.5577 271.414 69.3195C271.414 69.084 271.466 68.8752 271.57 68.6931C271.674 68.5109 271.815 68.3708 271.995 68.2727C272.174 68.1746 272.374 68.1255 272.596 68.1255C272.817 68.1255 273.018 68.1746 273.197 68.2727C273.376 68.3708 273.518 68.5109 273.622 68.6931C273.725 68.8752 273.777 69.084 273.777 69.3195C273.777 69.5549 273.724 69.7637 273.617 69.9458C273.511 70.128 273.365 70.2695 273.18 70.3704C272.998 70.4685 272.796 70.5176 272.575 70.5176ZM272.575 70.1014C272.698 70.1014 272.813 70.072 272.92 70.0131C273.029 69.9542 273.117 69.866 273.184 69.7483C273.252 69.6305 273.285 69.4876 273.285 69.3195C273.285 69.1513 273.253 69.0098 273.189 68.8949C273.124 68.7771 273.039 68.6889 272.932 68.63C272.826 68.5712 272.711 68.5417 272.587 68.5417C272.464 68.5417 272.349 68.5712 272.243 68.63C272.139 68.6889 272.056 68.7771 271.995 68.8949C271.933 69.0098 271.902 69.1513 271.902 69.3195C271.902 69.5689 271.965 69.7623 272.091 69.8996C272.22 70.0341 272.381 70.1014 272.575 70.1014ZM274.73 67.3688V70.4797H274.251V67.3688H274.73ZM277.457 68.1634V70.4797H276.978V70.2065C276.902 70.3018 276.803 70.3774 276.679 70.4335C276.559 70.4867 276.43 70.5134 276.293 70.5134C276.11 70.5134 275.946 70.4755 275.801 70.3999C275.658 70.3242 275.544 70.2121 275.46 70.0635C275.379 69.915 275.338 69.7356 275.338 69.5254V68.1634H275.813V69.454C275.813 69.6614 275.865 69.8211 275.969 69.9332C276.073 70.0425 276.214 70.0972 276.393 70.0972C276.573 70.0972 276.714 70.0425 276.818 69.9332C276.925 69.8211 276.978 69.6614 276.978 69.454V68.1634H277.457ZM278.649 68.5543V69.8365C278.649 69.9234 278.668 69.9865 278.707 70.0257C278.749 70.0621 278.82 70.0804 278.918 70.0804H279.212V70.4797H278.834C278.618 70.4797 278.452 70.4293 278.337 70.3284C278.223 70.2275 278.165 70.0635 278.165 69.8365V68.5543H277.892V68.1634H278.165V67.5874H278.649V68.1634H279.212V68.5543H278.649ZM279.897 67.8565C279.811 67.8565 279.738 67.8271 279.679 67.7682C279.62 67.7093 279.591 67.6365 279.591 67.5496C279.591 67.4627 279.62 67.3898 279.679 67.331C279.738 67.2721 279.811 67.2427 279.897 67.2427C279.981 67.2427 280.053 67.2721 280.112 67.331C280.171 67.3898 280.2 67.4627 280.2 67.5496C280.2 67.6365 280.171 67.7093 280.112 67.7682C280.053 67.8271 279.981 67.8565 279.897 67.8565ZM280.133 68.1634V70.4797H279.654V68.1634H280.133ZM281.767 70.5176C281.548 70.5176 281.351 70.4685 281.174 70.3704C280.997 70.2695 280.859 70.1294 280.758 69.95C280.657 69.7679 280.606 69.5577 280.606 69.3195C280.606 69.084 280.658 68.8752 280.762 68.6931C280.866 68.5109 281.007 68.3708 281.187 68.2727C281.366 68.1746 281.566 68.1255 281.788 68.1255C282.009 68.1255 282.21 68.1746 282.389 68.2727C282.568 68.3708 282.71 68.5109 282.814 68.6931C282.917 68.8752 282.969 69.084 282.969 69.3195C282.969 69.5549 282.916 69.7637 282.809 69.9458C282.703 70.128 282.557 70.2695 282.372 70.3704C282.19 70.4685 281.988 70.5176 281.767 70.5176ZM281.767 70.1014C281.89 70.1014 282.005 70.072 282.111 70.0131C282.221 69.9542 282.309 69.866 282.376 69.7483C282.444 69.6305 282.477 69.4876 282.477 69.3195C282.477 69.1513 282.445 69.0098 282.381 68.8949C282.316 68.7771 282.231 68.6889 282.124 68.63C282.018 68.5712 281.903 68.5417 281.779 68.5417C281.656 68.5417 281.541 68.5712 281.435 68.63C281.331 68.6889 281.248 68.7771 281.187 68.8949C281.125 69.0098 281.094 69.1513 281.094 69.3195C281.094 69.5689 281.157 69.7623 281.283 69.8996C281.412 70.0341 281.573 70.1014 281.767 70.1014ZM284.612 68.1255C284.794 68.1255 284.956 68.1634 285.099 68.239C285.245 68.3147 285.358 68.4268 285.44 68.5754C285.521 68.7239 285.562 68.9033 285.562 69.1135V70.4797H285.087V69.1849C285.087 68.9775 285.035 68.8192 284.931 68.7099C284.827 68.5978 284.686 68.5417 284.506 68.5417C284.327 68.5417 284.184 68.5978 284.078 68.7099C283.974 68.8192 283.922 68.9775 283.922 69.1849V70.4797H283.443V68.1634H283.922V68.4282C284.001 68.3329 284.1 68.2587 284.221 68.2054C284.344 68.1522 284.474 68.1255 284.612 68.1255ZM287.014 70.5176C286.832 70.5176 286.668 70.4853 286.522 70.4209C286.379 70.3536 286.265 70.2639 286.181 70.1518C286.097 70.0369 286.052 69.9094 286.047 69.7693H286.543C286.551 69.8674 286.598 69.95 286.682 70.0173C286.769 70.0818 286.876 70.114 287.005 70.114C287.14 70.114 287.244 70.0888 287.316 70.0383C287.392 69.9851 287.43 69.9178 287.43 69.8365C287.43 69.7497 287.388 69.6852 287.304 69.6432C287.223 69.6011 287.092 69.5549 286.913 69.5044C286.739 69.4568 286.598 69.4105 286.488 69.3657C286.379 69.3209 286.284 69.2522 286.202 69.1597C286.124 69.0672 286.085 68.9453 286.085 68.794C286.085 68.6706 286.121 68.5585 286.194 68.4576C286.267 68.3539 286.371 68.2727 286.505 68.2138C286.642 68.155 286.799 68.1255 286.976 68.1255C287.239 68.1255 287.451 68.1928 287.611 68.3273C287.773 68.459 287.86 68.6398 287.871 68.8696H287.392C287.384 68.7659 287.342 68.6833 287.266 68.6216C287.19 68.5599 287.088 68.5291 286.959 68.5291C286.833 68.5291 286.736 68.5529 286.669 68.6006C286.602 68.6482 286.568 68.7113 286.568 68.7898C286.568 68.8514 286.591 68.9033 286.635 68.9453C286.68 68.9873 286.735 69.021 286.799 69.0462C286.864 69.0686 286.959 69.098 287.085 69.1345C287.253 69.1793 287.391 69.2256 287.497 69.2732C287.607 69.318 287.7 69.3853 287.779 69.475C287.857 69.5647 287.898 69.6838 287.901 69.8323C287.901 69.9641 287.864 70.0818 287.791 70.1855C287.719 70.2892 287.615 70.3704 287.48 70.4293C287.349 70.4881 287.193 70.5176 287.014 70.5176Z" fill="white"/>
<g style="mix-blend-mode:luminosity">
<path d="M229.097 61.4618C229.289 61.27 229.289 60.959 229.097 60.7672L225.971 57.6418C225.78 57.45 225.469 57.45 225.277 57.6418C225.085 57.8336 225.085 58.1445 225.277 58.3363L228.055 61.1145L225.277 63.8927C225.085 64.0845 225.085 64.3954 225.277 64.5872C225.469 64.779 225.78 64.779 225.971 64.5872L229.097 61.4618ZM218.24 61.6056L228.75 61.6056L228.75 60.6234L218.24 60.6234L218.24 61.6056Z" fill="black"/>
</g>
<g style="mix-blend-mode:luminosity">
<path d="M155.287 61.4618C155.479 61.27 155.479 60.959 155.287 60.7672L152.161 57.6418C151.97 57.45 151.659 57.45 151.467 57.6418C151.275 57.8336 151.275 58.1445 151.467 58.3363L154.245 61.1145L151.467 63.8927C151.275 64.0845 151.275 64.3954 151.467 64.5872C151.659 64.779 151.97 64.779 152.161 64.5872L155.287 61.4618ZM144.43 61.6056L154.94 61.6056L154.94 60.6234L144.43 60.6234L144.43 61.6056Z" fill="black"/>
</g>
<g style="mix-blend-mode:luminosity">
<path d="M81.6913 61.4618C81.8831 61.27 81.8831 60.959 81.6913 60.7672L78.5659 57.6418C78.3741 57.45 78.0631 57.45 77.8713 57.6418C77.6796 57.8336 77.6796 58.1445 77.8713 58.3363L80.6495 61.1145L77.8713 63.8927C77.6796 64.0845 77.6796 64.3954 77.8713 64.5872C78.0631 64.779 78.3741 64.779 78.5659 64.5872L81.6913 61.4618ZM70.8342 61.6056L81.3441 61.6056L81.3441 60.6234L70.8342 60.6234L70.8342 61.6056Z" fill="white"/>
</g>
</svg>
