<svg width="230" height="176" viewBox="0 0 230 176" fill="none" xmlns="http://www.w3.org/2000/svg">
<rect x="0.726807" y="73.3137" width="182.653" height="102.47" rx="10.0479" fill="#FD9414"/>
<rect x="98.4531" y="0.189697" width="114.403" height="107.762" rx="10.0479" fill="#F2F6D0"/>
<path fill-rule="evenodd" clip-rule="evenodd" d="M183.376 107.952H108.497C102.948 107.952 98.4492 103.453 98.4492 97.9036V73.3137H173.328C178.877 73.3137 183.376 77.8123 183.376 83.3616V107.952Z" fill="#80003E"/>
<path d="M92.2392 26.221C92.3923 26.3689 92.3965 26.6128 92.2486 26.7659L89.8387 29.2599C89.6908 29.4129 89.4469 29.4171 89.2938 29.2692C89.1408 29.1214 89.1366 28.8774 89.2845 28.7244L91.4266 26.5075L89.2097 24.3654C89.0566 24.2175 89.0524 23.9735 89.2003 23.8205C89.3482 23.6674 89.5922 23.6633 89.7452 23.8111L92.2392 26.221ZM62.2296 67.1597C57.8738 58.857 60.5465 48.6545 66.6264 40.5428C72.7099 32.4263 82.2903 26.2789 91.9648 26.1128L91.9781 26.8834C82.606 27.0442 73.2275 33.0207 67.2431 41.005C61.255 48.9943 58.7507 58.8696 62.912 66.8017L62.2296 67.1597Z" fill="#16052F"/>
<path d="M194.89 143.627C194.72 143.498 194.686 143.257 194.815 143.087L196.906 140.321C197.035 140.151 197.276 140.117 197.446 140.246C197.616 140.374 197.649 140.616 197.521 140.785L195.662 143.244L198.121 145.103C198.291 145.232 198.324 145.474 198.196 145.643C198.068 145.813 197.826 145.847 197.656 145.718L194.89 143.627ZM219.744 99.3683C225.069 107.085 223.646 117.536 218.589 126.321C213.528 135.112 204.759 142.37 195.175 143.701L195.069 142.938C204.353 141.648 212.943 134.584 217.921 125.937C222.902 117.284 224.197 107.178 219.11 99.806L219.744 99.3683Z" fill="#16052F"/>
<path d="M58.8173 136.985C58.8173 137.392 58.7394 137.699 58.5837 137.905C57.6496 139.16 55.7722 140.206 52.9514 141.044C52.9331 141.081 52.8896 141.127 52.8209 141.182C52.5737 141.26 51.8685 141.459 50.7054 141.779C50.3711 141.875 50.1673 142.04 50.0941 142.274C50.0941 142.452 50.0918 142.64 50.0872 142.837C50.0689 143.529 49.991 144.163 49.8537 144.74C49.8216 145.01 49.7644 145.257 49.682 145.481H49.4484C49.3431 145.427 49.2218 145.303 49.0844 145.111C48.947 144.918 48.8646 144.76 48.8371 144.637L48.8302 143.277C48.7753 142.645 48.6242 142.228 48.3769 142.027C48.3586 142.017 48.3494 141.907 48.3494 141.697C48.3494 141.482 48.3998 141.365 48.5005 141.347C48.6791 141.315 48.8348 141.177 48.9676 140.934C49.0317 140.623 49.1302 140.165 49.263 139.561C49.3179 139.469 49.3889 139.323 49.4759 139.121C49.7094 138.04 50.0414 137.244 50.4719 136.731C50.4719 136.722 50.4719 136.715 50.4719 136.71C50.4719 136.642 50.4009 136.607 50.2589 136.607C50.0987 136.662 49.6934 136.85 49.0432 137.17C49.0065 137.189 48.9539 137.253 48.8852 137.363C48.7066 137.445 48.599 137.486 48.5624 137.486C48.3929 137.486 48.2121 137.257 48.0197 136.799C48.0197 136.749 48.0838 136.616 48.2121 136.401C48.3449 136.186 48.441 136.06 48.5005 136.023C48.6791 135.941 48.9333 135.81 49.263 135.632C49.3179 135.623 49.4049 135.607 49.524 135.584C49.7529 135.41 50.1788 135.247 50.8015 135.096C51.6853 134.881 52.4363 134.732 53.0545 134.65C53.9108 134.544 54.4671 134.492 54.7236 134.492C55.2776 134.492 56.0973 134.666 57.1825 135.014C57.3749 135.073 57.5031 135.176 57.5672 135.323C57.6542 135.332 57.7801 135.366 57.945 135.426C58.0869 135.554 58.2586 135.755 58.4601 136.03C58.6982 136.497 58.8173 136.816 58.8173 136.985ZM57.526 136.875C57.526 136.568 57.194 136.287 56.53 136.03C55.9759 135.815 55.5478 135.707 55.2456 135.707C54.8243 135.707 54.2244 135.753 53.446 135.845C53.1941 135.913 52.8713 135.991 52.4775 136.078C52.0929 136.092 51.4403 136.257 50.5199 136.573C51.0374 136.761 51.2961 137.001 51.2961 137.294C51.2961 137.468 51.0855 138.111 50.6642 139.224C50.6413 139.49 50.5772 139.89 50.4719 140.426H50.8702C50.9984 140.426 52.1203 140.032 54.2359 139.245L54.5106 139.087C54.8907 138.885 55.8019 138.345 57.2444 137.466C57.4321 137.104 57.526 136.907 57.526 136.875ZM67.1009 141.484C67.0872 141.493 66.8811 141.612 66.4827 141.841L66.3591 141.724C66.2675 141.802 66.1828 141.841 66.1049 141.841C66.0591 141.841 65.5348 141.795 64.532 141.704L62.9591 141.559C61.5899 141.559 60.6283 142.004 60.0742 142.892C59.9369 143.112 59.8109 143.496 59.6965 144.046C59.6644 144.073 59.6118 144.126 59.5385 144.204C59.5385 144.511 59.4813 144.921 59.3668 145.433C59.1653 145.511 58.9547 145.55 58.7349 145.55C58.2357 145.55 57.9862 145.239 57.9862 144.616C57.9999 144.52 58.0343 144.197 58.0892 143.648C58.1533 143.006 58.1991 142.523 58.2266 142.198C58.4784 141.63 58.7074 141.347 58.9134 141.347C58.9134 141.347 58.973 141.372 59.092 141.422C59.2157 141.472 59.2935 141.498 59.3256 141.498C59.3393 141.498 59.5179 141.363 59.8613 141.092C60.2231 140.896 60.6215 140.694 61.0565 140.488C61.4777 140.286 61.9723 140.186 62.5401 140.186C62.7049 140.186 63.923 140.378 66.1942 140.763C66.208 140.786 66.2469 140.827 66.311 140.886L67.0253 140.969C67.0253 141.276 67.0505 141.447 67.1009 141.484ZM74.835 142.555C74.835 143.11 74.6999 143.554 74.4298 143.888C74.1504 144.222 73.6193 144.589 72.8362 144.987C72.2822 145.266 71.6617 145.486 70.9748 145.646C70.8008 145.688 70.6016 145.736 70.3772 145.791C69.8049 145.791 69.1592 145.598 68.4403 145.214C67.6344 144.788 67.1742 144.293 67.0597 143.73C67.0414 143.675 67.0024 143.561 66.9429 143.387C66.8651 143.176 66.8261 143.057 66.8261 143.029C66.8261 142.942 66.8788 142.727 66.9841 142.384C67.0894 142.04 67.1764 141.814 67.2451 141.704C67.3321 141.548 67.5451 141.392 67.8839 141.237L68.557 140.921C69.0333 140.646 69.5942 140.378 70.2399 140.117L70.7619 140.083C70.826 140.051 70.913 140.007 71.0229 139.952C71.0504 139.952 71.1992 139.938 71.4694 139.911C71.7395 139.884 71.8838 139.87 71.9021 139.87C73.2621 139.87 74.1413 140.449 74.5397 141.608C74.7366 142.171 74.835 142.487 74.835 142.555ZM73.4338 142.281C73.4338 141.598 73.0057 141.257 72.1494 141.257C71.5266 141.257 70.8054 141.392 69.9857 141.663C69.917 141.717 69.83 141.784 69.7247 141.862C69.5278 141.875 69.3584 141.924 69.2164 142.006C68.6028 142.606 68.296 142.99 68.296 143.16C68.296 143.435 68.541 143.703 69.031 143.964C69.4614 144.192 69.8163 144.307 70.0956 144.307C70.5673 144.307 71.2129 144.103 72.0326 143.696C72.9667 143.229 73.4338 142.757 73.4338 142.281ZM84.8633 134.828C84.8633 136.66 84.8312 137.841 84.7671 138.372C84.7992 138.693 84.8152 139.091 84.8152 139.568C84.8152 140.167 84.7923 140.879 84.7465 141.704C84.6412 141.855 84.4924 142.086 84.3 142.397L84.039 142.336C84.0436 142.336 84.0459 142.336 84.0459 142.336C84.0459 142.331 83.6177 142.292 82.7614 142.219L81.477 142.109C80.9275 142.109 80.1971 142.191 79.2859 142.356C78.2922 142.535 77.7221 142.72 77.5756 142.913C77.5619 142.922 77.4314 142.974 77.1841 143.071C76.9368 143.176 76.8132 143.309 76.8132 143.469C76.8132 143.529 76.8887 143.641 77.0398 143.806C77.191 143.966 77.326 144.08 77.4451 144.149C77.8481 144.373 78.3106 144.486 78.8326 144.486C79.1211 144.486 80.0209 144.369 81.532 144.135L83.7986 143.778H83.9841C84.039 143.778 84.0665 143.824 84.0665 143.915C84.0665 144.007 84.0138 144.14 83.9085 144.314C83.8032 144.483 83.7025 144.591 83.6063 144.637C83.3865 144.742 82.6103 144.966 81.2778 145.31C80.2429 145.575 79.492 145.708 79.0249 145.708C78.9883 145.713 78.9196 145.717 78.8188 145.722C78.7089 145.722 78.5372 145.726 78.3037 145.736L77.5481 145.756L77.2184 145.612C77.104 145.607 76.93 145.562 76.6964 145.475C76.3713 145.241 76.1217 144.996 75.9477 144.74C75.8287 144.561 75.705 144.291 75.5768 143.929C75.4669 143.604 75.412 143.396 75.412 143.304C75.412 143.075 75.5471 142.8 75.8172 142.48C76.2568 141.949 77.065 141.564 78.2419 141.326C78.3151 141.289 78.4021 141.244 78.5029 141.189C78.9791 141.12 79.4736 141.031 79.9865 140.921C80.3437 140.838 80.8794 140.797 81.5938 140.797C82.7981 140.797 83.4552 140.79 83.5651 140.776C83.5971 139.911 83.6841 138.869 83.8261 137.651C83.7574 137.454 83.7185 137.157 83.7093 136.758C83.7276 136.685 83.7368 136.5 83.7368 136.202C83.7368 136.014 83.7322 135.783 83.7231 135.508C83.7231 135.421 83.7231 135.339 83.7231 135.261C83.7231 134.716 83.7643 134.331 83.8467 134.107C83.9062 133.942 84.1054 133.86 84.4443 133.86C84.5038 133.86 84.6137 133.901 84.774 133.983C84.8243 134.574 84.8541 134.869 84.8633 134.869C84.8633 134.869 84.8633 134.856 84.8633 134.828ZM94.4519 140.55C94.4519 140.857 94.4199 141.09 94.3558 141.25C94.2275 141.58 94.081 141.956 93.9162 142.377C93.8704 142.391 93.82 142.432 93.7651 142.5C93.733 142.661 93.6162 142.851 93.4148 143.071L92.9339 143.606C92.9202 143.648 92.9042 143.705 92.8859 143.778C92.4096 144.254 91.7686 144.692 90.9626 145.09C90.1888 145.324 89.6278 145.44 89.2798 145.44C89.06 145.44 88.7395 145.376 88.3182 145.248C86.7247 144.767 85.9279 143.645 85.9279 141.882C85.9279 141.278 86.1225 140.731 86.5117 140.241H86.8689C87.1574 140.451 87.3016 140.779 87.3016 141.223C87.3016 141.246 87.2925 141.399 87.2742 141.683C87.2604 141.967 87.2536 142.125 87.2536 142.157C87.2536 142.949 87.6794 143.462 88.5311 143.696C88.8334 143.778 88.9845 143.824 88.9845 143.833C88.9845 143.838 88.9799 143.84 88.9707 143.84C88.9799 143.84 89.0577 143.833 89.2043 143.819C89.3554 143.801 89.4424 143.792 89.4653 143.792C89.9186 143.792 90.5391 143.533 91.3267 143.016C91.7937 142.704 92.2585 142.249 92.721 141.649C93.1881 141.053 93.4514 140.573 93.5109 140.206C93.5247 140.138 93.6094 140.035 93.7651 139.897C93.9253 139.755 94.0352 139.684 94.0948 139.684C94.3329 139.684 94.4519 139.973 94.4519 140.55ZM101.932 144.266C101.941 144.334 101.946 144.403 101.946 144.472C101.946 144.879 101.714 145.083 101.252 145.083C101.238 145.083 101.202 145.074 101.142 145.056C101.087 145.037 101.053 145.028 101.039 145.028C101.007 145.028 100.872 145.085 100.634 145.2C100.364 145.324 100.203 145.39 100.153 145.399C99.3928 145.568 98.8456 145.653 98.5113 145.653C98.4838 145.653 98.4129 145.644 98.2984 145.626C98.2572 145.621 98.2137 145.619 98.1679 145.619C98.1175 145.619 98.0648 145.621 98.0099 145.626C97.8908 145.685 97.7786 145.715 97.6733 145.715C97.1925 145.715 96.7232 145.578 96.2652 145.303C95.7982 145.019 95.4982 144.689 95.3655 144.314C95.2647 144.012 95.2121 143.86 95.2075 143.86C95.2075 143.512 95.2785 143.215 95.4204 142.968C95.6402 142.592 96.0271 142.189 96.5812 141.759C96.8468 141.557 97.1834 141.367 97.5909 141.189C98.3968 140.845 98.983 140.673 99.3493 140.673C99.363 140.673 99.4569 140.685 99.6309 140.708C99.8095 140.726 99.9079 140.735 99.9262 140.735C100.348 140.735 100.629 140.788 100.771 140.893C100.913 140.994 100.984 141.202 100.984 141.518C100.984 141.514 100.984 141.511 100.984 141.511C100.975 141.511 100.904 141.649 100.771 141.924C100.689 141.978 100.565 142.006 100.4 142.006C100.377 142.006 100.313 141.997 100.208 141.978C100.093 141.96 100.029 141.951 100.016 141.951C99.4386 141.951 98.5342 142.29 97.3024 142.968C97.0002 143.137 96.7918 143.435 96.6774 143.86C97.2269 144.254 97.8061 144.451 98.4151 144.451C98.4106 144.451 98.4083 144.451 98.4083 144.451C98.4083 144.447 98.7013 144.426 99.2875 144.389L100.153 144.334C100.167 144.334 100.391 144.3 100.826 144.231C101.266 144.172 101.492 144.142 101.506 144.142C101.68 144.142 101.822 144.183 101.932 144.266ZM111.102 140.454C111.102 140.614 111.033 140.735 110.896 140.818C110.763 140.9 110.509 140.976 110.133 141.044C109.813 141.108 109.604 141.177 109.508 141.25C109.119 141.301 108.913 141.326 108.89 141.326C108.51 141.326 107.947 141.379 107.2 141.484C106.967 141.511 106.827 141.589 106.781 141.717C106.69 141.978 106.591 142.386 106.486 142.94C106.477 143.412 106.39 144.167 106.225 145.207C106.069 145.422 105.991 145.536 105.991 145.55C105.488 145.523 105.176 145.445 105.057 145.317C105.002 145.253 104.975 145.079 104.975 144.795C104.975 144.447 105.082 143.384 105.298 141.608C105.183 141.507 105.073 141.456 104.968 141.456C104.954 141.456 104.94 141.456 104.927 141.456C104.794 141.475 104.689 141.484 104.611 141.484C104.56 141.484 104.521 141.479 104.494 141.47C104.031 141.447 103.574 141.429 103.12 141.415C102.552 141.319 102.268 141.035 102.268 140.564C102.268 140.403 102.33 140.259 102.454 140.131C102.578 140.003 102.717 139.938 102.873 139.938C102.887 139.938 103.015 139.952 103.258 139.98C103.505 140.003 103.638 140.014 103.656 140.014C103.665 140.014 103.77 140.005 103.972 139.987C104.178 139.968 104.288 139.959 104.302 139.959C104.315 139.959 104.373 139.98 104.473 140.021C104.569 140.058 104.624 140.076 104.638 140.076C104.661 140.076 104.796 140.067 105.043 140.048C105.282 140.03 105.405 140.021 105.414 140.021C105.648 140.021 105.794 139.904 105.854 139.671C105.904 139.483 105.98 139.183 106.081 138.771L106.555 137.431C106.573 137.253 106.609 137.012 106.664 136.71C106.783 136.541 106.9 136.337 107.015 136.099C107.55 134.977 108.004 134.416 108.375 134.416C108.535 134.416 108.762 134.677 109.055 135.199C109.055 135.291 108.97 135.501 108.801 135.831C108.709 135.941 108.59 136.11 108.443 136.339C108.324 136.715 108.07 137.42 107.681 138.455C107.566 138.752 107.473 139.226 107.399 139.877C107.743 139.973 107.942 140.021 107.997 140.021L108.368 139.973C108.684 139.932 108.908 139.911 109.041 139.911C109.375 139.911 109.661 139.938 109.9 139.993L110.257 140.076C110.82 140.076 111.102 140.202 111.102 140.454Z" fill="black"/>
<path d="M143.098 33.8508C143.098 33.9836 143.009 34.4187 142.831 35.1559C142.647 35.4306 142.483 35.7123 142.336 36.0007C142.212 36.5273 142.068 37.0425 141.903 37.5462C141.816 37.798 141.645 38.2949 141.388 39.0367C141.31 39.5816 141.223 40.0624 141.127 40.4791C140.866 41.601 140.736 42.3199 140.736 42.6359C140.736 42.645 140.777 42.906 140.859 43.4189C140.942 43.9318 140.983 44.1951 140.983 44.2088C140.978 44.2454 140.953 44.3485 140.907 44.5179C140.82 44.5728 140.726 44.6003 140.626 44.6003C140.552 44.6003 140.417 44.5293 140.22 44.3874C140.028 44.25 139.902 44.1309 139.843 44.0302C139.627 43.6593 139.52 43.0663 139.52 42.2512C139.52 42.1459 139.522 42.0337 139.527 41.9147C139.495 41.791 139.472 41.7269 139.458 41.7223C139.453 41.7223 139.451 41.7292 139.451 41.7429C139.456 41.7155 139.476 41.617 139.513 41.4476C139.55 41.2782 139.577 41.1339 139.595 41.0149C139.733 39.9571 140.051 38.739 140.55 37.3607C140.513 37.2463 140.491 37.189 140.481 37.189L140.811 36.1725C140.555 36.3373 140.145 36.7998 139.582 37.5599C139.495 37.7568 139.376 37.9926 139.224 38.2674C138.771 39.0687 137.832 40.399 136.408 42.2581C136.34 42.3451 136.12 42.558 135.749 42.8969C135.314 43.2953 135.025 43.4945 134.883 43.4945C134.16 43.4945 133.798 42.4481 133.798 40.3555V37.5599C133.652 37.6332 133.331 38.0316 132.837 38.7551C132.791 38.865 132.308 39.8106 131.387 41.5918L130.041 44.1882C129.954 44.353 129.826 44.4355 129.656 44.4355C129.121 44.4355 128.853 44.1103 128.853 43.4601C128.853 43.254 129.265 42.4252 130.089 40.9737C130.868 39.6045 131.561 38.4529 132.17 37.5187C132.18 37.4363 132.214 37.3218 132.273 37.1753C132.699 36.5892 133.34 35.7054 134.197 34.524C134.224 34.5194 134.252 34.5171 134.279 34.5171C134.526 34.5171 134.769 34.6087 135.007 34.7919C135.264 34.9979 135.392 35.2269 135.392 35.4787V36.8181C135.378 36.8273 135.344 36.8639 135.289 36.928C135.275 36.9921 135.229 37.6561 135.151 38.9199C135.11 39.648 135.085 40.012 135.076 40.012C135.076 40.012 135.076 40.0075 135.076 39.9983L135.144 41.0698C135.167 41.0973 135.211 41.111 135.275 41.111C135.376 41.111 135.515 40.9965 135.694 40.7676C135.786 40.6531 135.884 40.5203 135.989 40.3692C136.177 40.099 136.605 39.5015 137.274 38.5765C137.562 38.1918 138.121 37.434 138.95 36.303C139.806 35.1261 140.594 34.2126 141.313 33.5624C141.45 33.3975 141.649 33.164 141.91 32.8618C142.098 32.903 142.357 32.9831 142.686 33.1022C142.76 33.2304 142.831 33.3563 142.899 33.4799C143.032 33.7089 143.098 33.8325 143.098 33.8508ZM149.431 44.4629C149.431 44.6278 149.381 44.7789 149.28 44.9163C149.184 45.0536 149.074 45.1223 148.951 45.1223C148.772 45.0903 148.257 44.8476 147.405 44.3942C146.915 44.1378 146.647 44.0004 146.601 43.9821C146.409 43.9821 146.139 44.06 145.791 44.2157C145.328 44.4217 145.061 44.5385 144.987 44.566C144.68 44.6667 144.376 44.7171 144.074 44.7171C143.689 44.7171 143.217 44.4606 142.659 43.9478C142.466 43.673 142.37 43.4281 142.37 43.2128C142.37 42.9244 142.464 42.5397 142.652 42.0589C142.693 41.9444 142.826 41.8345 143.05 41.7292L143.476 41.53C144.465 40.9256 145.37 40.6233 146.189 40.6233C146.423 40.6233 146.727 40.692 147.103 40.8294C147.213 40.8706 147.348 41.0286 147.508 41.3033C147.673 41.5781 147.755 41.7819 147.755 41.9147C147.755 42.1436 147.62 42.3428 147.35 42.5122C146.787 42.1963 146.347 42.0383 146.031 42.0383C145.692 42.0383 145.344 42.123 144.987 42.2924C144.539 42.5031 144.179 42.7343 143.909 42.9862C143.941 43.1235 144.104 43.1922 144.397 43.1922C144.374 43.1922 144.362 43.1899 144.362 43.1854C144.362 43.1533 144.667 43.0434 145.276 42.8557C145.999 42.6267 146.537 42.5122 146.89 42.5122C146.986 42.5122 147.327 42.7572 147.913 43.2472C148.545 43.7784 148.996 44.1126 149.266 44.25C149.376 44.3462 149.431 44.4171 149.431 44.4629ZM159.24 40.6714C159.226 40.6806 159.02 40.7996 158.622 41.0286L158.498 40.9118C158.406 40.9897 158.322 41.0286 158.244 41.0286C158.198 41.0286 157.674 40.9828 156.671 40.8912L155.098 40.747C153.729 40.747 152.767 41.1912 152.213 42.0795C152.076 42.2993 151.95 42.6839 151.835 43.2334C151.803 43.2609 151.751 43.3136 151.677 43.3914C151.677 43.6982 151.62 44.1081 151.506 44.6209C151.304 44.6988 151.094 44.7377 150.874 44.7377C150.375 44.7377 150.125 44.4263 150.125 43.8035C150.139 43.7074 150.173 43.3846 150.228 42.8351C150.292 42.194 150.338 41.7109 150.365 41.3858C150.617 40.818 150.846 40.5341 151.052 40.5341C151.052 40.5341 151.112 40.5592 151.231 40.6096C151.355 40.66 151.432 40.6852 151.464 40.6852C151.478 40.6852 151.657 40.5501 152 40.2799C152.362 40.083 152.76 39.8815 153.195 39.6755C153.617 39.474 154.111 39.3733 154.679 39.3733C154.844 39.3733 156.062 39.5656 158.333 39.9502C158.347 39.9731 158.386 40.0143 158.45 40.0739L159.164 40.1563C159.164 40.4631 159.189 40.6348 159.24 40.6714ZM162.351 42.8351C161.692 42.5878 161.243 42.3474 161.005 42.1138C160.794 42.8602 160.634 43.4395 160.524 43.8516C160.346 43.9249 160.224 44.0668 160.16 44.2775C160.114 44.4561 160.014 44.5454 159.858 44.5454C159.757 44.5454 159.64 44.4698 159.508 44.3187C159.283 44.0714 159.157 43.934 159.13 43.9066C159.395 43.1693 159.547 42.5649 159.583 42.0932C159.592 41.9971 159.663 41.7361 159.796 41.3102C159.92 40.9301 159.984 40.6691 159.988 40.5272C160.208 39.8083 160.407 39.2519 160.586 38.8581C160.884 37.5668 161.113 36.5685 161.273 35.8634C161.383 35.639 161.477 35.4535 161.555 35.307C161.555 35.1971 161.548 35.1078 161.534 35.0391C161.703 34.6911 161.797 34.5011 161.816 34.469C161.893 34.2721 161.971 34.0706 162.049 33.8646C162.173 33.6356 162.356 33.5211 162.599 33.5211C162.896 33.5211 163.045 33.67 163.045 33.9676C163.045 34.279 163.018 34.5125 162.963 34.6682C162.532 35.813 162.315 36.6395 162.31 37.1478L161.335 40.747C161.609 40.5821 161.818 40.4997 161.96 40.4997C161.973 40.4997 162.006 40.4883 162.056 40.4654C162.106 40.4379 162.138 40.4242 162.152 40.4242C162.143 40.4242 162.136 40.4196 162.131 40.4104C162.131 40.3921 162.248 40.3394 162.482 40.2524C162.953 40.0876 163.343 39.9617 163.649 39.8747C163.764 39.8472 164.238 39.664 165.071 39.3252C165.754 39.0504 166.118 38.9131 166.163 38.9131C166.159 38.9131 166.157 38.9131 166.157 38.9131C166.157 38.9268 166.365 39.0229 166.782 39.2015V39.7167C166.782 39.9823 166.683 40.17 166.486 40.2799C166.289 40.3852 165.651 40.6073 164.57 40.9462C163.558 41.2621 162.951 41.5048 162.75 41.6743C163.047 41.7567 163.329 41.8025 163.594 41.8116L165.477 42.3062C165.609 42.3382 165.996 42.5512 166.637 42.945C167.397 43.412 167.778 43.7326 167.778 43.9066V44.2637C167.617 44.3324 167.507 44.3828 167.448 44.4149C167.242 44.511 167.116 44.5591 167.07 44.5591C167.033 44.5454 166.864 44.4584 166.562 44.2981C166.223 44.1195 165.907 43.9959 165.614 43.9272C165.426 43.8814 165.08 43.7692 164.577 43.5906C163.949 43.3846 163.535 43.2495 163.333 43.1854C162.839 43.0114 162.512 42.8946 162.351 42.8351ZM174.701 40.953C174.733 41.0584 174.749 41.2118 174.749 41.4132C174.749 41.5277 174.745 41.6605 174.735 41.8116C174.699 42.2604 174.6 42.526 174.44 42.6084C174.193 42.6084 173.655 42.6633 172.826 42.7732L171.59 42.9381C171.594 42.9381 171.596 42.9381 171.596 42.9381C171.596 42.9472 171.381 42.9976 170.951 43.0892C170.9 43.048 170.775 43.0274 170.573 43.0274C170.514 43.0869 170.479 43.1213 170.47 43.1304C170.47 43.2586 170.953 43.4578 171.919 43.728C172.185 43.7417 172.487 43.7669 172.826 43.8035C173.394 43.8722 173.678 44.0142 173.678 44.2294C173.678 44.2889 173.501 44.408 173.149 44.5866C173.135 44.6003 173.041 44.6919 172.867 44.8613C172.542 44.8934 172.38 44.914 172.38 44.9231C172.38 44.9231 172.384 44.9231 172.393 44.9231C172.37 44.9231 172.137 44.9071 171.693 44.8751L170.971 44.8201C170.82 44.8201 170.573 44.74 170.23 44.5797C170.156 44.5431 169.957 44.44 169.632 44.2706C169.243 44.1332 168.888 43.8768 168.567 43.5013C168.251 43.1213 168.093 42.7755 168.093 42.4642C168.093 42.0795 168.142 41.7956 168.238 41.6124C168.92 40.2708 170.305 39.5999 172.393 39.5999C173.071 39.5999 173.579 39.7556 173.918 40.067C174.184 40.3051 174.445 40.6005 174.701 40.953ZM173.293 41.5094C173.224 41.2942 173.174 41.1202 173.142 40.9874C173.128 40.9416 173.002 40.8592 172.764 40.7401C172.242 40.7859 171.679 40.8615 171.074 40.9668C170.923 40.9897 170.729 41.0813 170.491 41.2415C170.257 41.4018 170.14 41.5254 170.14 41.6124C170.14 41.6949 170.166 41.7361 170.216 41.7361H172.393C172.902 41.7361 173.201 41.6605 173.293 41.5094ZM183.678 39.6411C183.678 39.8014 183.61 39.9227 183.472 40.0052C183.34 40.0876 183.085 40.1631 182.71 40.2318C182.389 40.2959 182.181 40.3646 182.085 40.4379C181.696 40.4883 181.49 40.5135 181.467 40.5135C181.087 40.5135 180.523 40.5661 179.777 40.6714C179.544 40.6989 179.404 40.7767 179.358 40.905C179.267 41.166 179.168 41.5735 179.063 42.1276C179.054 42.5992 178.967 43.3548 178.802 44.3942C178.646 44.6095 178.568 44.7239 178.568 44.7377C178.064 44.7102 177.753 44.6324 177.634 44.5041C177.579 44.44 177.552 44.266 177.552 43.9821C177.552 43.6341 177.659 42.5718 177.874 40.7951C177.76 40.6943 177.65 40.644 177.545 40.644C177.531 40.644 177.517 40.644 177.504 40.644C177.371 40.6623 177.265 40.6714 177.188 40.6714C177.137 40.6714 177.098 40.6669 177.071 40.6577C176.608 40.6348 176.15 40.6165 175.697 40.6027C175.129 40.5066 174.845 40.2227 174.845 39.751C174.845 39.5908 174.907 39.4465 175.031 39.3183C175.154 39.1901 175.294 39.126 175.45 39.126C175.464 39.126 175.592 39.1397 175.834 39.1672C176.082 39.1901 176.215 39.2015 176.233 39.2015C176.242 39.2015 176.347 39.1924 176.549 39.1741C176.755 39.1557 176.865 39.1466 176.878 39.1466C176.892 39.1466 176.949 39.1672 177.05 39.2084C177.146 39.245 177.201 39.2634 177.215 39.2634C177.238 39.2634 177.373 39.2542 177.62 39.2359C177.858 39.2176 177.982 39.2084 177.991 39.2084C178.225 39.2084 178.371 39.0916 178.431 38.8581C178.481 38.6704 178.557 38.3704 178.657 37.9583L179.131 36.6189C179.15 36.4403 179.186 36.1999 179.241 35.8977C179.36 35.7283 179.477 35.5245 179.592 35.2864C180.127 34.1645 180.581 33.6036 180.952 33.6036C181.112 33.6036 181.339 33.8646 181.632 34.3866C181.632 34.4782 181.547 34.6888 181.377 35.0185C181.286 35.1284 181.167 35.2978 181.02 35.5268C180.901 35.9023 180.647 36.6075 180.258 37.6423C180.143 37.94 180.05 38.4139 179.976 39.0642C180.32 39.1603 180.519 39.2084 180.574 39.2084L180.945 39.1603C181.261 39.1191 181.485 39.0985 181.618 39.0985C181.952 39.0985 182.238 39.126 182.476 39.1809L182.834 39.2634C183.397 39.2634 183.678 39.3893 183.678 39.6411Z" fill="black"/>
<path d="M132.099 87.6781C132.099 88.0856 132.021 88.3924 131.865 88.5985C130.931 89.8531 129.054 90.8995 126.233 91.7375C126.215 91.7741 126.171 91.8199 126.103 91.8748C125.855 91.9527 125.15 92.1519 123.987 92.4724C123.653 92.5686 123.449 92.7334 123.376 92.9669C123.376 93.1455 123.374 93.3333 123.369 93.5302C123.351 94.2216 123.273 94.8558 123.135 95.4328C123.103 95.703 123.046 95.9502 122.964 96.1746H122.73C122.625 96.1197 122.503 95.996 122.366 95.8037C122.229 95.6114 122.146 95.4534 122.119 95.3298L122.112 93.9698C122.057 93.3378 121.906 92.9212 121.659 92.7197C121.64 92.7105 121.631 92.6006 121.631 92.39C121.631 92.1748 121.682 92.058 121.782 92.0397C121.961 92.0076 122.117 91.8702 122.249 91.6276C122.313 91.3162 122.412 90.8583 122.545 90.2538C122.6 90.1622 122.671 90.0157 122.758 89.8142C122.991 88.7336 123.323 87.9368 123.754 87.4239C123.754 87.4148 123.754 87.4079 123.754 87.4033C123.754 87.3346 123.683 87.3003 123.541 87.3003C123.38 87.3552 122.975 87.543 122.325 87.8635C122.288 87.8818 122.236 87.9459 122.167 88.0558C121.988 88.1383 121.881 88.1795 121.844 88.1795C121.675 88.1795 121.494 87.9505 121.301 87.4926C121.301 87.4422 121.366 87.3095 121.494 87.0942C121.627 86.879 121.723 86.7531 121.782 86.7165C121.961 86.634 122.215 86.5035 122.545 86.3249C122.6 86.3158 122.687 86.2998 122.806 86.2769C123.035 86.1029 123.461 85.9403 124.083 85.7892C124.967 85.574 125.718 85.4251 126.336 85.3427C127.192 85.2374 127.749 85.1847 128.005 85.1847C128.559 85.1847 129.379 85.3587 130.464 85.7068C130.657 85.7663 130.785 85.8693 130.849 86.0159C130.936 86.025 131.062 86.0594 131.227 86.1189C131.369 86.2471 131.54 86.4486 131.742 86.7233C131.98 87.1904 132.099 87.5086 132.099 87.6781ZM130.808 87.5682C130.808 87.2614 130.476 86.9798 129.812 86.7233C129.258 86.5081 128.83 86.4005 128.527 86.4005C128.106 86.4005 127.506 86.4463 126.728 86.5379C126.476 86.6066 126.153 86.6844 125.759 86.7714C125.375 86.7851 124.722 86.95 123.802 87.2659C124.319 87.4537 124.578 87.6941 124.578 87.9872C124.578 88.1612 124.367 88.8045 123.946 89.9173C123.923 90.1828 123.859 90.5835 123.754 91.1193H124.152C124.28 91.1193 125.402 90.7255 127.518 89.9379L127.792 89.7799C128.172 89.5784 129.084 89.0381 130.526 88.1589C130.714 87.7971 130.808 87.6002 130.808 87.5682ZM145.356 85.3565C145.356 85.4893 145.266 85.9243 145.088 86.6615C144.904 86.9363 144.74 87.2179 144.593 87.5064C144.469 88.0329 144.325 88.5481 144.16 89.0518C144.073 89.3037 143.902 89.8005 143.645 90.5423C143.567 91.0872 143.48 91.568 143.384 91.9847C143.123 93.1066 142.993 93.8255 142.993 94.1415C142.993 94.1506 143.034 94.4117 143.116 94.9245C143.199 95.4374 143.24 95.7007 143.24 95.7144C143.235 95.751 143.21 95.8541 143.164 96.0235C143.077 96.0784 142.984 96.1059 142.883 96.1059C142.81 96.1059 142.674 96.0349 142.478 95.893C142.285 95.7556 142.159 95.6366 142.1 95.5358C141.885 95.1649 141.777 94.5719 141.777 93.7568C141.777 93.6515 141.779 93.5393 141.784 93.4203C141.752 93.2966 141.729 93.2325 141.715 93.228C141.711 93.228 141.708 93.2348 141.708 93.2486C141.713 93.2211 141.733 93.1226 141.77 92.9532C141.807 92.7838 141.834 92.6395 141.853 92.5205C141.99 91.4627 142.308 90.2447 142.807 88.8663C142.771 88.7519 142.748 88.6946 142.739 88.6946L143.068 87.6781C142.812 87.8429 142.402 88.3054 141.839 89.0655C141.752 89.2624 141.633 89.4983 141.482 89.773C141.028 90.5744 140.09 91.9046 138.665 93.7637C138.597 93.8507 138.377 94.0636 138.006 94.4025C137.571 94.8009 137.283 95.0001 137.141 95.0001C136.417 95.0001 136.055 93.9537 136.055 91.8611V89.0655C135.909 89.1388 135.588 89.5372 135.094 90.2607C135.048 90.3706 134.565 91.3162 133.644 93.0974L132.298 95.6938C132.211 95.8586 132.083 95.9411 131.914 95.9411C131.378 95.9411 131.11 95.616 131.11 94.9657C131.11 94.7597 131.522 93.9308 132.346 92.4793C133.125 91.1101 133.818 89.9585 134.427 89.0243C134.437 88.9419 134.471 88.8274 134.531 88.6809C134.956 88.0948 135.597 87.211 136.454 86.0296C136.481 86.025 136.509 86.0227 136.536 86.0227C136.783 86.0227 137.026 86.1143 137.264 86.2975C137.521 86.5035 137.649 86.7325 137.649 86.9843V88.3237C137.635 88.3329 137.601 88.3695 137.546 88.4336C137.532 88.4977 137.486 89.1617 137.408 90.4255C137.367 91.1536 137.342 91.5177 137.333 91.5177C137.333 91.5177 137.333 91.5131 137.333 91.5039L137.402 92.5754C137.425 92.6029 137.468 92.6166 137.532 92.6166C137.633 92.6166 137.773 92.5022 137.951 92.2732C138.043 92.1587 138.141 92.0259 138.246 91.8748C138.434 91.6047 138.862 91.0071 139.531 90.0821C139.819 89.6975 140.378 88.9396 141.207 87.8086C142.063 86.6317 142.851 85.7182 143.57 85.068C143.707 84.9031 143.906 84.6696 144.167 84.3674C144.355 84.4086 144.614 84.4887 144.943 84.6078C145.017 84.736 145.088 84.8619 145.156 84.9856C145.289 85.2145 145.356 85.3381 145.356 85.3565ZM156.751 87.0805C156.719 87.3278 156.703 87.4583 156.703 87.472C156.052 87.4171 155.095 87.3896 153.831 87.3896C153.822 87.3896 153.77 87.4079 153.673 87.4445C153.582 87.4857 153.525 87.5064 153.502 87.5064C153.493 87.5064 153.424 87.4949 153.296 87.472C153.172 87.4537 153.099 87.4445 153.076 87.4445C153.09 87.4445 153.097 87.4468 153.097 87.4514C153.097 87.456 152.955 87.488 152.671 87.5476C152.451 87.5934 151.876 87.6575 150.947 87.7399C150.928 87.7399 150.837 87.7628 150.672 87.8086C150.512 87.8544 150.42 87.8773 150.397 87.8773C150.379 87.8773 150.328 87.8704 150.246 87.8567C150.164 87.8429 150.113 87.836 150.095 87.836C149.967 87.8635 149.413 88.0192 148.433 88.3031C148.346 88.3306 148.234 88.5046 148.096 88.8251C148.064 88.9488 148.016 89.1274 147.952 89.3609C147.796 89.7364 147.638 90.1599 147.478 90.6316V91.0025C147.634 91.0117 147.805 91.0162 147.993 91.0162C148.602 91.0162 149.367 90.9567 150.287 90.8377C150.741 90.7781 151.698 90.7163 153.158 90.6522L153.282 90.769C153.424 90.6911 153.548 90.6522 153.653 90.6522C153.648 90.6522 153.646 90.6522 153.646 90.6522C153.646 90.6659 153.742 90.7255 153.934 90.8308V91.0231C153.934 91.0872 153.889 91.236 153.797 91.4696C153.6 91.4925 153.245 91.5405 152.732 91.6138C152.009 91.7283 151.647 91.797 151.647 91.8199C151.656 91.8199 151.675 91.8199 151.702 91.8199C151.679 91.8199 151.633 91.813 151.565 91.7993C151.496 91.781 151.455 91.7718 151.441 91.7718C151.418 91.7718 151.35 91.813 151.235 91.8954C151.125 91.9824 151.068 92.0282 151.063 92.0328C150.986 92.0557 150.299 92.1679 149.003 92.3694C148.916 92.3831 148.762 92.4152 148.543 92.4655C148.341 92.5113 148.224 92.5342 148.192 92.5342C148.023 92.5342 147.695 92.548 147.21 92.5754C147.118 92.6075 147.022 92.683 146.922 92.8021C146.835 93.4752 146.75 94.1392 146.667 94.794C146.672 94.8444 146.674 94.9039 146.674 94.9726C146.674 95.1145 146.67 95.2977 146.661 95.5221C146.642 95.9388 146.5 96.1471 146.235 96.1471C146.203 96.138 146.134 96.1105 146.029 96.0647C145.626 96.0006 145.321 95.877 145.115 95.6938L145.5 92.5823L144.476 92.0328C144.536 91.8817 144.616 91.6939 144.717 91.4696C144.85 91.1582 145.014 91.0025 145.211 91.0025C145.216 91.0025 145.269 91.0094 145.369 91.0231C145.475 91.0368 145.541 91.0437 145.568 91.0437C145.811 91.0437 145.978 90.9063 146.07 90.6316C146.102 90.4393 146.127 90.2561 146.145 90.0821C146.287 89.5555 146.436 89.1136 146.592 88.7564C146.56 88.7107 146.349 88.5962 145.96 88.413C145.653 88.2756 145.5 88.0742 145.5 87.8086C145.5 87.5567 145.633 87.3736 145.898 87.2591C146.191 87.2087 146.599 87.1194 147.121 86.9912C147.194 86.95 147.302 86.8882 147.444 86.8057C147.65 86.6867 147.773 86.6272 147.815 86.6272C147.906 86.6272 148.005 86.6592 148.11 86.7233C148.114 86.7233 148.174 86.7165 148.288 86.7027C148.394 86.689 148.458 86.6821 148.481 86.6821L152.025 86.2769C152.588 86.2769 152.879 86.2837 152.897 86.2975C152.815 86.3295 152.735 86.3455 152.657 86.3455C152.671 86.3455 152.774 86.3272 152.966 86.2906C153.158 86.254 153.264 86.2356 153.282 86.2356C153.291 86.2356 153.358 86.2425 153.481 86.2563C153.605 86.27 153.678 86.2769 153.701 86.2769C153.719 86.2769 153.783 86.2608 153.893 86.2288C154.003 86.1921 154.065 86.1738 154.079 86.1738C154.601 86.1738 154.862 86.167 154.862 86.1532C154.862 86.1532 154.857 86.1532 154.848 86.1532C154.715 86.1441 154.628 86.1395 154.587 86.1395C154.953 86.1395 155.56 86.2379 156.407 86.4348C156.636 86.6455 156.751 86.8607 156.751 87.0805Z" fill="white"/>
</svg>
