<svg width="219" height="73" viewBox="0 0 219 73" fill="none" xmlns="http://www.w3.org/2000/svg">
<path d="M53.2543 67.0543C53.2543 67.9361 52.8134 68.3776 51.9334 68.3776C51.1386 68.3776 50.7411 67.9361 50.7411 67.0543V62.5859C50.7411 61.8589 50.5786 61.3611 50.2529 61.0936C49.9265 60.8217 49.3633 60.6822 48.564 60.6822C47.7928 60.6822 47.2514 60.8313 46.941 61.1295C46.6876 61.3675 46.5602 61.7604 46.5602 62.3075C46.5602 62.4822 46.5884 62.797 46.646 63.2482L46.9551 65.5397C46.9833 65.7508 46.998 65.9409 46.998 66.113C46.998 67.5957 46.1596 68.3335 44.4835 68.3335H43.665C42.9367 68.3335 42.5732 67.931 42.5732 67.1272C42.5732 66.7529 42.6577 66.4534 42.8273 66.2288C42.9975 66.0029 43.2266 65.8916 43.5134 65.8916H43.8788C44.104 65.8916 44.2519 65.8513 44.3204 65.7713C44.3895 65.6881 44.4106 65.5339 44.3818 65.3035L44.088 62.9698C44.0298 62.4765 44.0004 62.0983 44.0004 61.8359C44.0004 60.7327 44.3671 59.8778 45.0998 59.2629C45.8953 58.6025 47.0735 58.2729 48.6344 58.2729C50.2106 58.2729 51.3619 58.5667 52.0896 59.1554C52.8652 59.7972 53.2524 60.8396 53.2524 62.2787V67.0543H53.2543Z" fill="#F05B5B"/>
<path d="M57.6948 62.9242C57.6948 63.1577 57.6731 63.3561 57.6296 63.5206C57.586 63.6837 57.515 63.8162 57.4132 63.9154C57.3134 64.0152 57.1841 64.0901 57.0254 64.1355C56.868 64.1816 56.6741 64.202 56.445 64.202C55.965 64.202 55.6335 64.1067 55.446 63.9154C55.2585 63.7228 55.165 63.3894 55.165 62.9107V59.5557C55.165 59.3081 55.1881 59.0937 55.2303 58.9133C55.2732 58.7341 55.3455 58.5888 55.4466 58.4781C55.5465 58.3681 55.677 58.2875 55.8376 58.235C55.9976 58.1806 56.196 58.1531 56.4309 58.1531C56.9 58.1531 57.2277 58.2683 57.4139 58.4929C57.6014 58.7175 57.6948 59.0707 57.6948 59.5551V62.9242Z" fill="#F05B5B"/>
<path d="M68.3334 67.0546C68.3334 67.8506 67.9513 68.248 67.1846 68.248H60.152C59.3002 68.248 58.874 67.8506 58.874 67.0546C58.874 66.2329 59.3002 65.8189 60.152 65.8189H62.5801C63.4799 65.8189 64.1013 65.6404 64.4411 65.2808C64.7803 64.9128 64.9505 64.2537 64.9505 63.3048C64.9505 62.334 64.699 61.657 64.196 61.2724C63.8312 60.9813 63.2789 60.8328 62.5359 60.8328H60.5187C59.6465 60.8328 59.2113 60.4457 59.2113 59.6714C59.2113 58.8171 59.6465 58.3916 60.5187 58.3916H62.7599C64.3061 58.3916 65.4868 58.7832 66.3008 59.5703C67.0765 60.303 67.4637 61.3383 67.4637 62.6732C67.4637 64.0618 67.1558 65.0542 66.537 65.6481C66.5088 65.6794 66.4992 65.7185 66.5088 65.7607C66.514 65.81 66.553 65.8336 66.624 65.8336H67.127C67.9321 65.8343 68.3334 66.2393 68.3334 67.0546Z" fill="#F05B5B"/>
<path d="M78.6271 67.0832C78.6271 67.5439 78.5336 67.8729 78.3461 68.0757C78.1605 68.2753 77.8418 68.3784 77.3919 68.3784C76.9081 68.3784 76.5702 68.2869 76.3789 68.1103C76.1824 67.9292 76.0851 67.5977 76.0851 67.1139V62.4503C76.0851 61.383 75.545 60.8487 74.4686 60.8487H70.6684C69.7968 60.8487 69.3604 60.4564 69.3604 59.6719C69.3604 58.8176 69.8058 58.3921 70.6966 58.3921H74.777C76.0077 58.3921 76.9574 58.7236 77.6287 59.3833C78.2943 60.0437 78.6277 60.983 78.6277 62.1995V67.0832H78.6271ZM72.198 67.0986C72.198 67.3392 72.1756 67.5395 72.1327 67.7014C72.0892 67.8645 72.0181 67.9957 71.9177 68.0962C71.8165 68.1979 71.6873 68.2696 71.5298 68.3105C71.3718 68.3534 71.1766 68.3777 70.9475 68.3777C70.4694 68.3777 70.136 68.2811 69.9485 68.0962C69.7629 67.9036 69.6688 67.5676 69.6688 67.0832V64.1902C69.6688 63.6853 69.7623 63.3251 69.9485 63.1107C70.136 62.8951 70.4688 62.7876 70.9475 62.7876C71.4076 62.7876 71.7314 62.9008 71.9183 63.1261C72.1045 63.3513 72.1986 63.7026 72.1986 64.1896V67.0986H72.198Z" fill="#F05B5B"/>
<path d="M93.4384 59.5707C93.4384 60.4135 93.0301 60.8339 92.216 60.8339H91.7572V66.7888C91.7572 67.3359 91.6676 67.7288 91.4909 67.9681C91.3034 68.2395 90.9802 68.379 90.5207 68.379C90.0369 68.379 89.7003 68.2439 89.5083 67.9816C89.3394 67.7576 89.2568 67.3692 89.2568 66.8182V60.8345H85.2551C84.4596 60.8345 84.0635 60.4384 84.0635 59.6443C84.0635 58.8099 84.4558 58.3933 85.2404 58.3933H92.2154C93.0307 58.392 93.4384 58.7843 93.4384 59.5707Z" fill="#F05B5B"/>
<path d="M103.877 63.3912C103.877 64.7702 103.455 65.9066 102.612 66.8038C101.693 67.7656 100.433 68.248 98.8345 68.248H95.6801C94.7701 68.248 94.3145 67.8379 94.3145 67.0258C94.3145 66.2125 94.7701 65.8043 95.6801 65.8043H97.0241C97.2116 65.8043 97.2801 65.7396 97.2321 65.6123L95.1848 60.0228C95.0939 59.779 95.0485 59.5499 95.0485 59.3336C95.0485 58.7884 95.3525 58.4403 95.9611 58.2925C96.1614 58.2381 96.3438 58.2144 96.507 58.2144C97.0676 58.2144 97.4548 58.5312 97.6698 59.1672L99.2006 63.6721C99.296 63.9453 99.3459 64.2058 99.3459 64.4547C99.3459 64.9909 99.166 65.3755 98.8057 65.6129C98.7584 65.6507 98.7322 65.6891 98.7264 65.7345C98.7226 65.7806 98.7526 65.8043 98.8198 65.8043H98.9638C100.553 65.8043 101.349 65.0159 101.349 63.4353V59.4923C101.349 58.6214 101.78 58.1843 102.642 58.1843C103.466 58.1843 103.879 58.6214 103.879 59.4923V63.3912H103.877Z" fill="#F05B5B"/>
<path d="M118.811 67.0832C118.811 67.5439 118.717 67.8729 118.53 68.0757C118.344 68.2753 118.025 68.3784 117.575 68.3784C117.092 68.3784 116.754 68.2869 116.563 68.1103C116.366 67.9292 116.268 67.5977 116.268 67.1139V62.4503C116.268 61.383 115.729 60.8487 114.652 60.8487H110.851C109.979 60.8487 109.544 60.4564 109.544 59.6719C109.544 58.8176 109.989 58.3921 110.88 58.3921H114.961C116.191 58.3921 117.141 58.7236 117.814 59.3833C118.478 60.0437 118.811 60.983 118.811 62.1995V67.0832H118.811ZM112.382 67.0986C112.382 67.3392 112.36 67.5395 112.316 67.7014C112.273 67.8645 112.202 67.9957 112.101 68.0962C112 68.1979 111.871 68.2696 111.713 68.3105C111.554 68.3534 111.361 68.3777 111.131 68.3777C110.652 68.3777 110.319 68.2811 110.132 68.0962C109.946 67.9036 109.853 67.5676 109.853 67.0832V64.1902C109.853 63.6853 109.946 63.3251 110.132 63.1107C110.319 62.8951 110.652 62.7876 111.131 62.7876C111.591 62.7876 111.915 62.9008 112.101 63.1261C112.288 63.3513 112.382 63.7026 112.382 64.1896V67.0986Z" fill="#F05B5B"/>
<path d="M123.25 62.9242C123.25 63.1577 123.229 63.3561 123.186 63.5206C123.142 63.6837 123.071 63.8162 122.97 63.9154C122.869 64.0152 122.74 64.0901 122.582 64.1355C122.423 64.1816 122.23 64.202 122.002 64.202C121.521 64.202 121.189 64.1067 121.002 63.9154C120.816 63.7228 120.723 63.3894 120.723 62.9107V59.5557C120.723 59.3081 120.743 59.0937 120.787 58.9133C120.83 58.7341 120.902 58.5888 121.002 58.4781C121.102 58.3681 121.233 58.2875 121.394 58.235C121.553 58.1806 121.752 58.1531 121.987 58.1531C122.455 58.1531 122.785 58.2683 122.971 58.4929C123.156 58.7175 123.251 59.0707 123.251 59.5551V62.9242H123.25Z" fill="#F05B5B"/>
<path d="M129.996 66.1995C129.996 66.8752 129.861 67.3776 129.593 67.7014C129.29 68.0635 128.786 68.2478 128.077 68.2478H125.816C125.355 68.2478 125.034 68.1551 124.852 67.9746C124.671 67.7929 124.579 67.4985 124.579 67.0979C124.579 66.657 124.673 66.3358 124.861 66.1278C125.044 65.9224 125.375 65.8188 125.844 65.8188H127.15C127.347 65.8188 127.445 65.7157 127.445 65.5103V62.1861C127.445 61.7356 127.314 61.3875 127.051 61.1437C126.825 60.9466 126.566 60.8487 126.275 60.8487H126.037C125.263 60.8487 124.874 60.4564 124.874 59.6719C124.874 59.453 124.897 59.2611 124.941 59.1011C124.987 58.9405 125.063 58.8055 125.168 58.6999C125.274 58.5943 125.41 58.5188 125.581 58.4676C125.752 58.4183 125.96 58.3921 126.208 58.3921H126.799C127.652 58.3921 128.363 58.6372 128.932 59.1261C129.641 59.7423 129.996 60.6701 129.996 61.9039V66.1995Z" fill="#F05B5B"/>
<path d="M140.836 59.5707C140.836 60.4135 140.428 60.8339 139.615 60.8339H139.155V66.7888C139.155 67.3359 139.065 67.7288 138.89 67.9681C138.702 68.2395 138.379 68.379 137.92 68.379C137.434 68.379 137.098 68.2439 136.906 67.9816C136.738 67.7576 136.653 67.3692 136.653 66.8182V60.8345H132.653C131.858 60.8345 131.461 60.4384 131.461 59.6443C131.461 58.8099 131.853 58.3933 132.638 58.3933H139.615C140.428 58.392 140.836 58.7843 140.836 59.5707Z" fill="#F05B5B"/>
<path d="M151.273 63.3912C151.273 64.7702 150.851 65.9066 150.008 66.8038C149.088 67.7656 147.827 68.248 146.229 68.248H143.078C142.164 68.248 141.712 67.8379 141.712 67.0258C141.712 66.2125 142.164 65.8043 143.078 65.8043H144.419C144.607 65.8043 144.676 65.7396 144.628 65.6123L142.581 60.0228C142.49 59.779 142.443 59.5499 142.443 59.3336C142.443 58.7884 142.749 58.4403 143.356 58.2925C143.558 58.2381 143.739 58.2144 143.903 58.2144C144.461 58.2144 144.85 58.5312 145.065 59.1672L146.595 63.6721C146.691 63.9453 146.741 64.2058 146.741 64.4547C146.741 64.9909 146.56 65.3755 146.201 65.6129C146.153 65.6507 146.126 65.6891 146.121 65.7345C146.117 65.7806 146.148 65.8043 146.214 65.8043H146.359C147.948 65.8043 148.744 65.0159 148.744 63.4353V59.4923C148.744 58.6214 149.176 58.1843 150.037 58.1843C150.86 58.1843 151.274 58.6214 151.274 59.4923V63.3912H151.273Z" fill="#F05B5B"/>
<path d="M162.95 64.0679C162.95 65.4258 162.597 66.4618 161.89 67.1766C161.184 67.8888 160.205 68.2478 158.95 68.2478H158.289C157.484 68.2478 157.082 67.8581 157.082 67.0832C157.082 66.2583 157.454 65.8488 158.197 65.8488H158.698C159.844 65.8488 160.415 65.278 160.415 64.1319V63.0697C160.415 61.4034 159.628 60.5696 158.053 60.5696C157.227 60.5696 156.639 60.7961 156.284 61.2524C155.931 61.7073 155.752 62.424 155.752 63.4076V66.9968C155.752 67.9169 155.3 68.3777 154.39 68.3777C153.612 68.3777 153.225 67.9445 153.225 67.0832V63.1702C153.225 61.4949 153.662 60.2349 154.532 59.3909C155.372 58.5776 156.583 58.1687 158.167 58.1687C159.738 58.1687 160.929 58.5635 161.737 59.3493C162.546 60.1351 162.95 61.2812 162.95 62.7888V64.0679Z" fill="#F05B5B"/>
<path d="M24.874 33.0104C26.4796 33.0104 27.958 31.9463 28.4098 30.3241C28.9538 28.3724 27.8165 26.3465 25.8627 25.8026C23.8315 25.2299 21.2294 24.1888 18.6151 22.8872C18.8852 19.7587 19.8886 16.2809 22.3819 13.0449C25.5491 8.92972 29.794 7.27302 33.7356 8.61617C36.6634 9.61313 38.6301 12.0064 38.6301 14.5909C38.6301 14.7797 38.6083 14.9761 38.5891 15.1707C38.3766 17.1864 39.846 19.0005 41.8619 19.2155C43.8784 19.4158 45.678 17.9594 45.8995 15.9462C45.9481 15.4881 45.966 15.0337 45.966 14.5909C45.966 8.86381 42.0059 3.67038 36.1092 1.66109C30.6554 -0.193977 22.6603 0.650691 16.5595 8.56498C14.2057 11.6333 12.616 15.09 11.8052 18.8226C9.97745 17.4935 8.52025 16.1241 7.79132 14.8712C6.77569 13.1198 4.51981 12.526 2.76886 13.5402C1.01663 14.566 0.424657 16.8069 1.43837 18.5692C3.37683 21.8877 7.23519 24.8715 11.3041 27.2648C11.3617 27.8925 11.4161 28.5119 11.5102 29.1467C12.9053 38.8246 18.3053 46.6857 22.7147 49.8993C23.3694 50.3652 24.1258 50.6032 24.874 50.6032C26.008 50.6032 27.1273 50.0747 27.846 49.0873C29.0395 47.4472 28.6786 45.1481 27.0339 43.9547C24.2948 41.9684 21.0169 37.0904 19.4477 31.2891C21.2729 32.032 22.8344 32.5791 23.8852 32.8773C24.2186 32.9567 24.5508 33.0104 24.874 33.0104Z" fill="#F05B5B"/>
<path d="M205.549 24.6345H207.442V30.3098H208.706V24.6345H210.596V23.3682H205.549V24.6345Z" fill="#F05B5B"/>
<path d="M214.852 28.4989L213.67 23.3682H211.222V30.3098H212.487V24.5225L214.159 30.3098H215.497L216.902 24.2039V30.3098H218.165V23.3682H216.011L214.852 28.4989Z" fill="#F05B5B"/>
<path d="M197.997 23.2558C192.532 21.3918 184.472 22.2787 178.252 30.3619C177.286 31.6161 176.443 32.9465 175.735 34.3338C174.579 28.1216 169.126 23.4011 162.588 23.4011C156.662 23.4011 151.642 27.2642 149.881 32.5971C148.734 27.3473 143.823 23.4011 138.231 23.4011C136.697 23.4011 134.927 23.705 133.664 24.2458V13.8544C133.664 11.815 131.908 10.175 129.877 10.175C127.856 10.175 126.088 11.815 126.088 13.8544V22.8943C126.088 22.6031 125.713 22.3548 125.264 22.2025C120.359 20.4556 116.225 20.6329 113.307 22.6857C111.824 23.7313 110.893 25.1934 110.373 26.9276C109.568 22.0119 107.363 17.3515 103.755 13.2011C97.3315 5.83198 88.562 2.14872 83.1057 1.84349C81.0751 1.72254 79.3593 3.28582 79.2486 5.31494C79.1366 7.32807 80.6904 9.06476 82.7198 9.1793C86.7074 9.40071 93.5077 12.5733 98.2524 18.0208C100.892 21.0622 103.938 26.0656 103.394 32.6278C102.944 37.9735 100.254 41.7688 96.2032 42.7747C93.2671 43.5029 90.4083 42.4771 88.9108 40.1479C87.3167 37.6536 87.0901 34.3075 88.3764 32.0084C89.865 29.3464 92.9477 28.8518 95.2714 28.8889C97.3021 28.9145 98.9705 27.3128 99.0089 25.2875C99.0466 23.2584 97.432 21.5863 95.4116 21.539C87.1483 21.3899 83.441 25.7886 81.9614 28.423C81.379 29.4616 80.9541 30.5878 80.6578 31.7543C78.6649 26.8655 73.8658 23.3985 68.2667 23.3985C62.3362 23.3985 57.3009 27.275 55.5461 32.6272C53.7913 27.2744 48.7522 23.3985 42.8248 23.3985C35.4428 23.3985 29.4297 29.4033 29.4297 36.782C29.4297 44.169 35.4428 50.1745 42.8248 50.1745C48.7522 50.1745 53.7913 46.298 55.5461 40.9452C57.3009 46.298 62.3362 50.1745 68.2667 50.1745C74.3004 50.1745 79.4118 46.1451 81.0751 40.6464C81.4904 41.8558 82.035 43.0294 82.7287 44.1038C85.2918 48.1095 89.6026 50.362 94.3032 50.362C95.5031 50.362 96.7389 50.211 97.9772 49.9064C103.578 48.5133 109.864 43.3954 110.714 33.2357C110.723 33.0968 110.723 32.9714 110.733 32.8294C112.032 35.7332 114.961 37.1013 116.89 38.0004C119.76 39.316 120.045 39.7109 120.045 40.798C120.045 41.7112 119.743 42.0779 119.25 42.369C117.841 43.2034 115.063 43.103 113.299 42.1527C111.519 41.1909 109.283 41.8488 108.322 43.6328C107.353 45.4213 108.018 47.6495 109.808 48.6138C111.683 49.6267 114.186 50.2743 116.732 50.2743C118.911 50.2743 120.782 49.8002 122.668 48.6784C124.466 47.6059 125.464 46.0804 126.087 44.2452V46.6755C126.087 48.7027 127.855 50.3479 129.876 50.3479C131.907 50.3479 133.662 48.7027 133.662 46.6755V35.0908C133.662 32.6931 135.367 30.7439 137.757 30.7439C140.148 30.7439 141.856 32.6931 141.856 35.0908V46.6787C141.856 48.7059 143.606 50.3511 145.64 50.3511C147.671 50.3511 149.423 48.7059 149.423 46.6787V41.7272C151.943 46.6672 156.578 50.1764 162.219 50.1764C166.371 50.1764 170.259 48.2894 172.712 45.31C172.635 47.1478 172.83 49.0227 173.109 50.9424C174.502 60.6158 179.942 68.4814 184.362 71.6873C185.006 72.1692 185.789 72.3899 186.537 72.3899C187.676 72.3899 188.799 71.8658 189.523 70.8778C190.71 69.2416 190.359 66.9444 188.716 65.7522C185.483 63.4025 181.499 57.049 180.466 49.9C179.892 45.9089 180.05 40.0551 184.062 34.8348C187.338 30.591 191.649 28.855 195.607 30.2109C198.473 31.1861 200.318 33.6068 200.307 36.3738C200.3 39.3314 198.675 42.2717 196.349 43.5016C193.656 44.9318 190.794 43.684 188.867 42.3863C187.187 41.2524 184.907 41.7003 183.769 43.3807C182.64 45.0668 183.085 47.3525 184.764 48.48C191.624 53.0899 197.124 51.4069 199.793 49.9915C204.48 47.5055 207.641 42.042 207.658 36.3923C207.677 30.4265 203.884 25.2683 197.997 23.2558ZM42.8261 42.8355C39.4951 42.8355 36.7842 40.1178 36.7842 36.784C36.7842 33.4546 39.4951 30.7439 42.8261 30.7439C46.1591 30.7439 48.8693 33.4546 48.8693 36.784C48.87 40.1178 46.1591 42.8355 42.8261 42.8355ZM68.268 42.8355C64.9332 42.8355 62.2223 40.1178 62.2223 36.784C62.2223 33.4546 64.9332 30.7439 68.268 30.7439C71.5971 30.7439 74.308 33.4546 74.308 36.784C74.308 40.1178 71.5971 42.8355 68.268 42.8355ZM126.089 37.3611C124.84 33.8718 121.802 32.3392 119.641 31.3378C117.307 30.2531 117.25 29.9825 117.25 29.578C117.25 28.8908 117.547 28.7398 117.627 28.6777C118.156 28.311 119.588 27.9936 122.763 29.1186C124.052 29.578 125.466 29.2606 126.089 28.4179V37.3611ZM162.589 42.8355C159.247 42.8355 156.541 40.1178 156.541 36.784C156.541 33.4546 159.248 30.7439 162.589 30.7439C165.92 30.7439 168.626 33.4546 168.626 36.784C168.626 40.1178 165.92 42.8355 162.589 42.8355Z" fill="#F05B5B"/>
</svg>
